<?xml version="1.0" encoding="utf-8"?>
<!-- Uploaded to: SVG Repo, www.svgrepo.com, Generator: SVG Repo Mixer Tools -->
<svg fill="#000000" height="800px" width="800px" version="1.2" baseProfile="tiny" id="Layer_1" xmlns="http://www.w3.org/2000/svg" xmlns:xlink="http://www.w3.org/1999/xlink"
	  viewBox="0 0 256 256" xml:space="preserve">
<g>
	<path d="M5.5,91.3L5.5,91.3c-0.1-0.1-0.2-0.4-0.2-0.6c0-0.5,0.4-0.8,0.9-0.8h26.3c1.3,0,2.3-1,2.3-2.3c0-1-0.4-1.6-1.4-2.2L9.6,74
		c-0.4-0.2-0.7-0.7-0.7-1.3c0-0.4,0.1-0.8,0.4-1.1l0,0c0,0,62.5-55.3,201.1-1.7l38.1-18.6c0.4-0.2,0.8-0.3,1.2-0.3c1.6,0,3,1.3,3,3
		c0,0.5-0.2,1-0.4,1.5l-22.5,27.9l22.5,27.9c0.2,0.5,0.4,1,0.4,1.6c0,1.6-1.3,2.9-3,2.9c-0.4,0-0.8-0.1-1.2-0.3l-38.1-18.6
		C210.4,96.9,78,149.5,5.5,91.3z M47.8,79.2c4.5,0,8.3-3.7,8.3-8.3c0-4.5-3.8-8.3-8.3-8.3s-8.3,3.7-8.3,8.3
		C39.5,75.4,43.3,79.2,47.8,79.2z"/>
	<path d="M19.5,160.7L19.5,160.7c-0.1-0.1-0.1-0.2-0.1-0.2c0-0.2,0.2-0.4,0.4-0.4h10.5c0.5,0,0.9-0.4,0.9-0.9c0-0.4-0.2-0.7-0.5-0.8
		l-9.5-4.6c-0.2-0.1-0.3-0.3-0.3-0.5c0-0.2,0.1-0.4,0.2-0.4l0,0c0,0,25-22.2,80.4-0.7l15.2-7.5c0.1-0.1,0.3-0.1,0.5-0.1
		c0.7,0,1.2,0.5,1.2,1.2c0,0.2-0.1,0.5-0.1,0.6l-9,11.2l9,11.2c0.1,0.2,0.1,0.4,0.1,0.6c0,0.7-0.5,1.2-1.2,1.2
		c-0.2,0-0.4-0.1-0.5-0.1l-15.2-7.5C101.4,162.9,48.5,184,19.5,160.7z M38.2,158c2.6,0,4.9-2.1,4.9-4.8c0-2.6-2.3-4.8-4.9-4.8
		c-2.6,0-4.9,2.2-4.9,4.8C33.4,155.8,35.7,158,38.2,158z"/>
	<path d="M143.6,160.7L143.6,160.7c-0.1-0.1-0.1-0.2-0.1-0.2c0-0.2,0.2-0.4,0.4-0.4h10.5c0.5,0,1-0.4,1-0.9c0-0.4-0.2-0.7-0.6-0.8
		l-9.5-4.6c-0.2-0.1-0.3-0.3-0.3-0.5c0-0.2,0.1-0.4,0.2-0.4l0,0c0,0,25.1-22.2,80.5-0.7l15.2-7.5c0.2-0.1,0.4-0.1,0.5-0.1
		c0.6,0,1.2,0.5,1.2,1.2c0,0.2-0.1,0.5-0.2,0.6l-9,11.2l9,11.2c0.1,0.2,0.2,0.4,0.2,0.6c0,0.7-0.5,1.2-1.2,1.2
		c-0.2,0-0.4-0.1-0.5-0.1l-15.2-7.5C225.5,162.9,172.5,184,143.6,160.7z M162.3,158c2.6,0,4.8-2.1,4.8-4.8c0-2.6-2.2-4.8-4.8-4.8
		c-2.8,0-4.8,2.2-4.8,4.8C157.5,155.8,159.6,158,162.3,158z"/>
	<path d="M81.9,207.1L81.9,207.1c-0.1-0.1-0.1-0.1-0.1-0.2c0-0.2,0.1-0.4,0.4-0.4h10.5c0.5,0,1-0.4,1-0.9c0-0.4-0.2-0.7-0.6-0.8
		l-9.5-4.6c-0.2-0.1-0.3-0.3-0.3-0.5c0-0.2,0.1-0.3,0.2-0.4l0,0c0,0,25.1-22.2,80.5-0.7l15.2-7.5c0.2-0.1,0.4-0.1,0.5-0.1
		c0.7,0,1.2,0.5,1.2,1.2c0,0.2-0.1,0.4-0.2,0.6l-9,11.2l9,11.2c0.1,0.2,0.2,0.4,0.2,0.6c0,0.6-0.5,1.2-1.2,1.2
		c-0.1,0-0.3-0.1-0.5-0.1l-15.2-7.4C163.9,209.3,110.9,230.4,81.9,207.1z M100.7,204.3c2.6,0,4.8-2.1,4.8-4.8c0-2.6-2.2-4.8-4.8-4.8
		c-2.7,0-4.9,2.2-4.9,4.8C95.8,202.2,98,204.3,100.7,204.3z"/>
</g>
</svg>