<svg xmlns="http://www.w3.org/2000/svg" xml:space="preserve" id="Layer_1" width="800" height="800" viewBox="0 0 512 512"><path d="M216.204 449.808H68.67c-13.851 0-21.682-15.965-13.201-26.917 36.272-46.848 35.145-111.45-.008-156.672-22.061-28.498-33.722-62.653-33.722-98.773 0-72.711 45.982-105.256 91.552-105.256 53.496 0 93.114 45.646 89.67 96.447-2.075 30.608 6.656 61.37 26.451 87.141 45.024 58.16 45.02 139.398-.008 197.553a16.68 16.68 0 0 1-13.2 6.477" style="fill:#b9f291"/><path d="M132.216 446.314c-7.29-5.644-8.625-16.131-2.98-23.423 35.667-46.066 35.761-110.585-.007-156.671-22.062-28.498-33.723-62.652-33.723-98.773 0-9.22 7.475-16.696 16.696-16.696s16.696 7.475 16.696 16.696c0 27.738 8.711 55.091 26.749 78.332 45.024 58.161 45.021 139.399-.008 197.555-5.646 7.291-16.133 8.625-23.423 2.98M443.331 449.808H295.796c-13.852 0-21.681-15.965-13.201-26.918 35.218-45.486 36.218-109.712-.008-156.672-22.061-28.498-33.722-62.652-33.722-98.771 0-72.711 45.982-105.256 91.552-105.256 53.504 0 93.114 45.656 89.67 96.447-2.193 32.334 7.859 63.211 26.452 87.14 45.024 58.161 45.02 139.398-.008 197.554a16.69 16.69 0 0 1-13.2 6.476" style="fill:#84d993"/><path d="M359.342 446.314c-7.29-5.644-8.625-16.131-2.98-23.423 35.728-46.143 35.699-110.664-.008-156.671-22.062-28.498-33.723-62.653-33.723-98.773 0-9.22 7.475-16.696 16.696-16.696 9.22 0 16.696 7.475 16.696 16.696 0 27.74 8.711 55.09 26.749 78.332 45.024 58.162 45.022 139.399-.008 197.555-5.643 7.288-16.127 8.628-23.422 2.98" style="fill:#50bf94"/><path d="M495.304 449.808H16.696C7.475 449.808 0 442.333 0 433.112s7.475-16.696 16.696-16.696h478.609c9.22 0 16.696 7.475 16.696 16.696s-7.476 16.696-16.697 16.696" style="fill:#c97e67"/><path d="M495.304 416.418H256v33.391h239.304c9.22 0 16.696-7.475 16.696-16.696 0-9.22-7.475-16.695-16.696-16.695" style="fill:#8f5543"/></svg>