<?xml version="1.0" encoding="iso-8859-1"?>
<!-- Uploaded to: SVG Repo, www.svgrepo.com, Generator: SVG Repo Mixer Tools -->
<svg height="800px" width="800px" version="1.1" id="Layer_1" xmlns="http://www.w3.org/2000/svg" xmlns:xlink="http://www.w3.org/1999/xlink" 
	 viewBox="0 0 512 512" xml:space="preserve">
<path style="fill:#B9F291;" d="M216.204,449.808H68.67c-13.851,0-21.682-15.965-13.201-26.917
	c36.272-46.848,35.145-111.45-0.008-156.672c-22.061-28.498-33.722-62.653-33.722-98.773c0-72.711,45.982-105.256,91.552-105.256
	c53.496,0,93.114,45.646,89.67,96.447c-2.075,30.608,6.656,61.37,26.451,87.141c45.024,58.16,45.02,139.398-0.008,197.553
	C226.243,447.418,221.369,449.808,216.204,449.808z"/>
<g>
	<path style="fill:#84D993;" d="M132.216,446.314c-7.29-5.644-8.625-16.131-2.98-23.423c35.667-46.066,35.761-110.585-0.007-156.671
		c-22.062-28.498-33.723-62.652-33.723-98.773c0-9.22,7.475-16.696,16.696-16.696s16.696,7.475,16.696,16.696
		c0,27.738,8.711,55.091,26.749,78.332c45.024,58.161,45.021,139.399-0.008,197.555
		C149.993,450.625,139.506,451.959,132.216,446.314z"/>
	<path style="fill:#84D993;" d="M443.331,449.808H295.796c-13.852,0-21.681-15.965-13.201-26.918
		c35.218-45.486,36.218-109.712-0.008-156.672c-22.061-28.498-33.722-62.652-33.722-98.771c0-72.711,45.982-105.256,91.552-105.256
		c53.504,0,93.114,45.656,89.67,96.447c-2.193,32.334,7.859,63.211,26.452,87.14c45.024,58.161,45.02,139.398-0.008,197.554
		C453.369,447.418,448.495,449.808,443.331,449.808z"/>
</g>
<path style="fill:#50BF94;" d="M359.342,446.314c-7.29-5.644-8.625-16.131-2.98-23.423c35.728-46.143,35.699-110.664-0.008-156.671
	c-22.062-28.498-33.723-62.653-33.723-98.773c0-9.22,7.475-16.696,16.696-16.696c9.22,0,16.696,7.475,16.696,16.696
	c0,27.74,8.711,55.09,26.749,78.332c45.024,58.162,45.022,139.399-0.008,197.555C377.121,450.622,366.637,451.962,359.342,446.314z"
	/>
<path style="fill:#C97E67;" d="M495.304,449.808H16.696C7.475,449.808,0,442.333,0,433.112s7.475-16.696,16.696-16.696h478.609
	c9.22,0,16.696,7.475,16.696,16.696S504.525,449.808,495.304,449.808z"/>
<path style="fill:#8F5543;" d="M495.304,416.418H256v33.391h239.304c9.22,0,16.696-7.475,16.696-16.696
	C512,423.893,504.525,416.418,495.304,416.418z"/>
</svg>