<svg xmlns="http://www.w3.org/2000/svg" xml:space="preserve" id="_x32_" width="800" height="800" viewBox="0 0 512 512"><style>.st0{fill:#000}</style><path d="M46.488 98.783h7.563v18.922h-7.563zM46.488 180.408h7.563v18.906h-7.563zM12.051 116.189l13.375 13.375 5.344-5.359-13.375-13.375zM69.754 173.892l13.391 13.375 5.343-5.344-13.375-13.375zM.004 145.267h18.922v7.563H.004zM81.613 145.267h18.922v7.563H81.613zM17.393 187.268l-5.343-5.343 13.374-13.375 5.344 5.343z" class="st0"/><path d="M511.738 304.455c-2.188-33.75-25.313-52.484-42.172-50.609-29.875 3.313-41.016 35.156-60 16.859-6.156-5.906-12.531-13.047-19.281-20.828-7.797-17.766 15.641-21.813 20.688-21.813 19.406 0 35.156-15.75 35.156-35.156 0-19.422-15.75-35.156-35.156-35.156-19.422 0-35.156 15.734-35.156 35.156 0 5.844-12.188 24.375-23.438 14.063l.656.734c-27.063-28-59.781-53.25-101.891-56.047-28.391-1.875-51.703 1.766-71.047 8.219-.344-.688-.672-1.375-1.031-2.063-5.344-10.109-12.422-20.047-22.516-27.875-5.031-3.906-10.797-7.25-17.359-9.813-6.578-2.547-13.922-4.297-22.125-5.063a100 100 0 0 0-9-.422c-9.625 0-18.078 1.516-25.281 3.828-10.813 3.453-18.797 8.656-24.125 13.047-.719.594-1.391 1.188-2.016 1.734a17 17 0 0 0-3.484-.984c-9.266-1.594-18.078 4.625-19.672 13.891-1.609 9.281 4.625 18.078 13.891 19.688 9.266 1.578 18.078-4.641 19.672-13.906a16.9 16.9 0 0 0-.703-8.5 54 54 0 0 1 6.938-5.172c3.813-2.422 8.578-4.797 14.344-6.594 5.766-1.781 12.531-2.984 20.438-2.984q3.68 0 7.688.375c12.453 1.188 21.859 4.844 29.438 9.984 5.672 3.859 10.344 8.609 14.328 13.953 2.797 3.734 5.219 7.766 7.391 11.953-48.281 21.125-68.156 58.734-82.156 55.844-12.563-2.609-27.422 14.75-10.547 25.313l117.875 104.281-103.315 8.766a7.963 7.963 0 0 0-7.297 7.938v4.813a7.955 7.955 0 0 0 6.5 7.828s12.406 4.109 58.172 10.969c37.5 5.625 82.594 5.234 125.563 1.813 8.641-.688 16.672-1.359 24.234-2.047 13.047 12.641 27.922 23.969 39.906 22.641 16.031-1.797 34.906-18.407 24.859-32.375 14.266-3.453 28.375-8.016 44.172-14.406 31.875-18.75 47.797-12.469 63.75-6.563 25.312 9.373 45.922-12.189 43.109-55.314m-340.64-43.688c-11.266 0-20.406-9.125-20.406-20.391s9.141-20.391 20.406-20.391c11.25 0 20.391 9.125 20.391 20.391s-9.141 20.391-20.391 20.391" class="st0"/><path d="m79.207 282.564 19.453-7.219-14.484-12.656zM86.738 354.564l19.203-1.313-10.546-17.546zM129.145 351.142l-10.547-17.547-8.657 18.86zM150.926 349.033l-10.531-17.547-8.657 18.859zM96.113 297.47l19.453-7.203-14.484-12.656zM113.457 312.47l19.453-7.219-14.484-12.64zM131.27 327.47l19.453-7.219-14.485-12.64z" class="st0"/></svg>