<svg xmlns="http://www.w3.org/2000/svg" xml:space="preserve" id="Capa_1" width="800" height="800" fill="#000" viewBox="0 0 485.51 485.51"><path d="M235.823 142.502c9.959-10.408.957-.15 26.336-29.058-6.303-9.258-14.149-9.457-21.402-10.544-33.371 40.14-44.76 48.447-62.35 63.857-7.809 6.176-16.404 11.8-24.656 17.81-15.115 11.857-78.241 42.371-147.971 77.184-3.865 1.939-5.514 6.622-3.676 10.558a8.006 8.006 0 0 0 10.652 3.851c117.124-54.977 140.287-64.218 178.551-93.047 39.315-32.961 20.92-17.167 44.516-40.611M279.286 150.58c-5.609-6.205-9.602-13.623-11.723-21.81-27.213 32.061-34.727 39.811-63.92 63.688-7.291 6.357-15.857 11.234-23.807 16.968-38.922 26.383-21.35 14.161-48.992 35.309-31.416 26.547-49.832 48.616-63.451 63.167-5.955 6.52-9.363 10.246-9.363 10.246-3.035 3.331-2.893 8.516.393 11.648 3.33 3.192 8.611 3.072 11.799-.258l9.586-10.023c15.766-16.093 42.83-47.341 85.777-76.628 46.099-29.706 69.021-42.307 113.701-92.307M291.354 274.465c14.451-14.977 28.578-35.007 38.949-49.122-6.189-4.735-12.254-10.913-15.771-17.85-4.681 11.316-29.457 45.527-36.832 53.247-45.889 48.031-79.279 66.383-90.586 87.575-7.063 13.239-8.35 22.351-18.891 70.915a6.18 6.18 0 0 0 4.51 7.305 6.177 6.177 0 0 0 7.529-4.445c17.511-68.029 22.473-73.42 35.309-83.735 70.313-56.509 65.778-53.52 75.783-63.89M239.535 243.431c5.572-14.975 69.007-57.666 69.433-57.981-.449-5.985-4.131-17.318-10.699-20.882-49.34 39.082-71.825 56.216-77.184 70.827-14.487 39.5-4.19 53.147-105.293 99.927-3.477 1.848-4.889 6.137-3.143 9.694a7.317 7.317 0 0 0 9.803 3.363c103.4-43.176 105.285-73.243 117.083-104.948"/><path d="M448.815 35.348A120.7 120.7 0 0 0 363.477 0a120.7 120.7 0 0 0-85.324 35.348l-40.068 40.069c-3.875 3.874-1.688 10.558 3.756 11.375l8.063 1.21c16.734 2.506 29.791 15.782 32.023 32.559.299 1 1.908 19.843 21.354 28.354 13.435 5.882 21.982 19.318 21.59 33.985-.457 17.531 11.736 32.842 28.897 36.307l8.861 1.791c25.72 5.189 27.853 29.876 37.068 30.718 2.096.18 4-.582 5.359-1.933l43.76-43.775c47.122-47.122 47.122-123.53-.001-170.66m1.76 78.054a8 8 0 0 1-1.084.071c-3.959 0-7.414-2.938-7.967-6.983-.188-1.384-.611-2.687-.877-4.053-2.783-14.653-9.588-27.993-20.256-38.657-27.986-27.993-72.799-28.697-101.98-2.662-1.068.941-2.244 1.649-3.268 2.662a8.04 8.04 0 0 1-11.375 0 8.04 8.04 0 0 1 0-11.376c35.291-35.277 92.707-35.291 127.998 0 14.176 14.165 23.066 32.134 25.725 51.965a8.056 8.056 0 0 1-6.916 9.033M354.941 233.481c-.297.187-54.054 42.747-80.253 94.595-21.504 42.556-39.479 120.227-45.23 146.7a8.771 8.771 0 0 0 7.229 10.529l.662.102a8.75 8.75 0 0 0 9.867-6.716c5.555-24.388 23.822-99.27 48.705-146.752 30.061-57.363 79.703-84.391 79.703-84.391s-10.432-12.111-20.683-14.067"/></svg>