<svg xmlns="http://www.w3.org/2000/svg" xml:space="preserve" id="_x32_" width="800" height="800" viewBox="0 0 512 512"><path d="M510.723 189.37a6.86 6.86 0 0 0-7.25-2.656s-2.375-1.391-12.797 3.266c-38.078 16.984-79.906 56.891-95.062 60.688-15.281 3.813-92.438-38.594-123.672-45.734-1.313-5.688-2.516-12.266-3.469-19.813-3.875-31.078 17.891-64.313-11.953-58.188-46.531 9.516-72.922 44.641-87.578 73.813-51.078 6.297-102.734 25.5-137.938 34.594-40.547 10.5-37.328 36.219-13.219 44.25l99.688 32.172-80.438 12.703a6.84 6.84 0 0 0-5.266 4.188c-.906 2.219-.563 4.75.859 6.672l2.828 3.766c74.781 32.641 148.922 26.547 203.484 19.219 17.594 10.031 40.656 21.734 60.547 27.078 21.734 3.969 5.75-21.203-7.172-38.25 62.813-17.781 94.953-34.953 107.047-27.984 36.156 20.797 64.093 32.063 81.875 37.984 14.391 4.797 5.313 1.453 5.313 1.453a6.805 6.805 0 0 0 7.281-2.484c1.688-2.266 1.828-5.313.344-7.688l-3.297-5.328-29.344-47.406s20.219-50.016 43.047-88.969c5.234-8.922 6.297-9.625 6.297-9.625a6.83 6.83 0 0 0-.155-7.721M79.676 271.558c-6.656 0-12.047-5.391-12.047-12.063 0-6.656 5.391-12.047 12.047-12.047 6.672 0 12.063 5.391 12.063 12.047a12.05 12.05 0 0 1-12.063 12.063" style="fill:#000"/></svg>