<svg xmlns="http://www.w3.org/2000/svg" xml:space="preserve" id="Layer_1" width="800" height="800" fill="#000" baseProfile="tiny" viewBox="0 0 256 256"><path d="M5.5 91.3c-.1-.1-.2-.4-.2-.6 0-.5.4-.8.9-.8h26.3c1.3 0 2.3-1 2.3-2.3 0-1-.4-1.6-1.4-2.2L9.6 74c-.4-.2-.7-.7-.7-1.3 0-.4.1-.8.4-1.1 0 0 62.5-55.3 201.1-1.7l38.1-18.6q.6-.3 1.2-.3c1.6 0 3 1.3 3 3 0 .5-.2 1-.4 1.5l-22.5 27.9 22.5 27.9c.2.5.4 1 .4 1.6 0 1.6-1.3 2.9-3 2.9q-.6 0-1.2-.3l-38.1-18.6S78 149.5 5.5 91.3m42.3-12.1c4.5 0 8.3-3.7 8.3-8.3 0-4.5-3.8-8.3-8.3-8.3s-8.3 3.7-8.3 8.3c0 4.5 3.8 8.3 8.3 8.3M19.5 160.7c-.1-.1-.1-.2-.1-.2 0-.2.2-.4.4-.4h10.5c.5 0 .9-.4.9-.9 0-.4-.2-.7-.5-.8l-9.5-4.6c-.2-.1-.3-.3-.3-.5s.1-.4.2-.4c0 0 25-22.2 80.4-.7l15.2-7.5c.1-.1.3-.1.5-.1.7 0 1.2.5 1.2 1.2 0 .2-.1.5-.1.6l-9 11.2 9 11.2c.1.2.1.4.1.6 0 .7-.5 1.2-1.2 1.2-.2 0-.4-.1-.5-.1l-15.2-7.5c-.1-.1-53 21-82-2.3m18.7-2.7c2.6 0 4.9-2.1 4.9-4.8 0-2.6-2.3-4.8-4.9-4.8s-4.9 2.2-4.9 4.8c.1 2.6 2.4 4.8 4.9 4.8M143.6 160.7c-.1-.1-.1-.2-.1-.2 0-.2.2-.4.4-.4h10.5c.5 0 1-.4 1-.9 0-.4-.2-.7-.6-.8l-9.5-4.6c-.2-.1-.3-.3-.3-.5s.1-.4.2-.4c0 0 25.1-22.2 80.5-.7l15.2-7.5c.2-.1.4-.1.5-.1.6 0 1.2.5 1.2 1.2 0 .2-.1.5-.2.6l-9 11.2 9 11.2c.1.2.2.4.2.6 0 .7-.5 1.2-1.2 1.2-.2 0-.4-.1-.5-.1l-15.2-7.5c-.2-.1-53.2 21-82.1-2.3m18.7-2.7c2.6 0 4.8-2.1 4.8-4.8 0-2.6-2.2-4.8-4.8-4.8-2.8 0-4.8 2.2-4.8 4.8s2.1 4.8 4.8 4.8M81.9 207.1c-.1-.1-.1-.1-.1-.2 0-.2.1-.4.4-.4h10.5c.5 0 1-.4 1-.9 0-.4-.2-.7-.6-.8l-9.5-4.6c-.2-.1-.3-.3-.3-.5s.1-.3.2-.4c0 0 25.1-22.2 80.5-.7l15.2-7.5c.2-.1.4-.1.5-.1.7 0 1.2.5 1.2 1.2 0 .2-.1.4-.2.6l-9 11.2 9 11.2c.1.2.2.4.2.6 0 .6-.5 1.2-1.2 1.2-.1 0-.3-.1-.5-.1l-15.2-7.4c-.1-.2-53.1 20.9-82.1-2.4m18.8-2.8c2.6 0 4.8-2.1 4.8-4.8 0-2.6-2.2-4.8-4.8-4.8-2.7 0-4.9 2.2-4.9 4.8 0 2.7 2.2 4.8 4.9 4.8"/></svg>