<?xml version="1.0" encoding="utf-8"?>

<!DOCTYPE svg PUBLIC "-//W3C//DTD SVG 1.1//EN" "http://www.w3.org/Graphics/SVG/1.1/DTD/svg11.dtd">
<!-- Uploaded to: SVG Repo, www.svgrepo.com, Generator: SVG Repo Mixer Tools -->
<svg version="1.1" id="_x32_" xmlns="http://www.w3.org/2000/svg" xmlns:xlink="http://www.w3.org/1999/xlink" 
	 width="800px" height="800px" viewBox="0 0 512 512"  xml:space="preserve">
<style type="text/css">
<![CDATA[
	.st0{fill:#000000;}
]]>
</style>
<g>
	<path class="st0" d="M456.886,195.672c-23.375,17.328-62.094,35.141-69.11,22.25c-7.031-12.891,13.016-28.672,17.563-46.859
		c7.031-28.125-16.406-57.406-45.688-57.406c-29.297,0-99.578,0-166.359,0S80.823,171.063,59.729,212.063
		S17.557,254.25,7.01,258.938c-12.484,5.547-5.859,26.938,1.172,26.938c0,0-7.031,12.891,7.031,25.781
		c9.594,8.781,45.328,45.891,105.344,68.609c19.984-17.797,32.188-37.141,39.703-55.563c8.953-22.047,11.078-42.813,11.078-57.391
		c0-12.563-1.563-20.5-1.578-20.531l0,0c-1.063-5.219,2.313-10.313,7.531-11.375c5.234-1.078,10.328,2.297,11.406,7.531
		c0.094,0.5,1.969,9.75,1.969,24.375c0,16.438-2.359,39.688-12.5,64.656c-7.406,18.281-19.078,37.438-36.813,55.25
		c23.281,6.781,49.594,11.125,78.875,11.125c120.672,0,117.156-1.156,132.391-1.156c42.188,0,53.891-25.781,53.891-42.188
		c0-29.281-19.906-37.5-17.578-49.203c2.359-11.719,28.125-12.891,53.907,4.672c25.766,17.578,67.25,24.594,69.109-44.516
		C513.136,222.609,493.214,168.719,456.886,195.672z M87.26,272.984c-8.078,0-14.641-6.547-14.641-14.641
		s6.563-14.656,14.641-14.656c8.094,0,14.656,6.563,14.656,14.656S95.354,272.984,87.26,272.984z"/>
</g>
</svg>