<svg xmlns="http://www.w3.org/2000/svg" xml:space="preserve" id="_x32_" width="800" height="800" viewBox="0 0 512 512"><path d="M456.886 195.672c-23.375 17.328-62.094 35.141-69.11 22.25-7.031-12.891 13.016-28.672 17.563-46.859 7.031-28.125-16.406-57.406-45.688-57.406H193.292c-66.781 0-112.469 57.406-133.563 98.406S17.557 254.25 7.01 258.938c-12.484 5.547-5.859 26.938 1.172 26.938 0 0-7.031 12.891 7.031 25.781 9.594 8.781 45.328 45.891 105.344 68.609 19.984-17.797 32.188-37.141 39.703-55.563 8.953-22.047 11.078-42.813 11.078-57.391 0-12.563-1.563-20.5-1.578-20.531-1.063-5.219 2.313-10.313 7.531-11.375 5.234-1.078 10.328 2.297 11.406 7.531.094.5 1.969 9.75 1.969 24.375 0 16.438-2.359 39.688-12.5 64.656-7.406 18.281-19.078 37.438-36.813 55.25 23.281 6.781 49.594 11.125 78.875 11.125 120.672 0 117.156-1.156 132.391-1.156 42.188 0 53.891-25.781 53.891-42.188 0-29.281-19.906-37.5-17.578-49.203 2.359-11.719 28.125-12.891 53.907 4.672 25.766 17.578 67.25 24.594 69.109-44.516 1.188-43.343-18.734-97.233-55.062-70.28M87.26 272.984c-8.078 0-14.641-6.547-14.641-14.641s6.563-14.656 14.641-14.656c8.094 0 14.656 6.563 14.656 14.656s-6.562 14.641-14.656 14.641" style="fill:#000"/></svg>