<svg id="visual" viewBox="0 0 900 600" width="900" height="600" xmlns="http://www.w3.org/2000/svg" xmlns:xlink="http://www.w3.org/1999/xlink" version="1.1"><g stroke-width="1" stroke-linejoin="bevel"><path d="M480 325L501 361L573 315Z" fill="#21325e" stroke="#21325e"></path><path d="M573 315L531 231L480 325Z" fill="#233669" stroke="#233669"></path><path d="M531 231L409 297L480 325Z" fill="#3547a2" stroke="#3547a2"></path><path d="M480 325L405 425L501 361Z" fill="#21325e" stroke="#21325e"></path><path d="M501 361L626 404L573 315Z" fill="#5353cf" stroke="#5353cf"></path><path d="M573 315L585 197L531 231Z" fill="#3547a2" stroke="#3547a2"></path><path d="M731 336L585 197L573 315Z" fill="#283d80" stroke="#283d80"></path><path d="M531 231L437 184L409 297Z" fill="#304497" stroke="#304497"></path><path d="M409 297L405 425L480 325Z" fill="#434eb9" stroke="#434eb9"></path><path d="M501 361L626 497L626 404Z" fill="#21325e" stroke="#21325e"></path><path d="M476 75L437 184L531 231Z" fill="#21325e" stroke="#21325e"></path><path d="M473 528L626 497L501 361Z" fill="#253a75" stroke="#253a75"></path><path d="M721 415L731 336L626 404Z" fill="#233669" stroke="#233669"></path><path d="M626 404L731 336L573 315Z" fill="#2b418c" stroke="#2b418c"></path><path d="M312 169L321 315L409 297Z" fill="#4b50c4" stroke="#4b50c4"></path><path d="M409 297L321 315L405 425Z" fill="#21325e" stroke="#21325e"></path><path d="M313 478L418 502L405 425Z" fill="#233669" stroke="#233669"></path><path d="M405 425L473 528L501 361Z" fill="#3547a2" stroke="#3547a2"></path><path d="M418 502L473 528L405 425Z" fill="#233669" stroke="#233669"></path><path d="M696 470L721 415L626 404Z" fill="#304497" stroke="#304497"></path><path d="M321 315L327 419L405 425Z" fill="#434eb9" stroke="#434eb9"></path><path d="M626 497L696 470L626 404Z" fill="#3547a2" stroke="#3547a2"></path><path d="M731 336L689 166L585 197Z" fill="#4b50c4" stroke="#4b50c4"></path><path d="M585 197L476 75L531 231Z" fill="#3c4bae" stroke="#3c4bae"></path><path d="M763 434L765 294L731 336Z" fill="#3c4bae" stroke="#3c4bae"></path><path d="M731 336L765 294L689 166Z" fill="#233669" stroke="#233669"></path><path d="M689 166L619 88L585 197Z" fill="#5353cf" stroke="#5353cf"></path><path d="M619 88L476 75L585 197Z" fill="#3c4bae" stroke="#3c4bae"></path><path d="M437 184L312 169L409 297Z" fill="#233669" stroke="#233669"></path><path d="M696 470L763 434L721 415Z" fill="#253a75" stroke="#253a75"></path><path d="M721 415L763 434L731 336Z" fill="#3c4bae" stroke="#3c4bae"></path><path d="M338 105L312 169L437 184Z" fill="#283d80" stroke="#283d80"></path><path d="M213 375L313 478L327 419Z" fill="#253a75" stroke="#253a75"></path><path d="M213 375L327 419L321 315Z" fill="#253a75" stroke="#253a75"></path><path d="M327 419L313 478L405 425Z" fill="#304497" stroke="#304497"></path><path d="M398 600L518 600L473 528Z" fill="#21325e" stroke="#21325e"></path><path d="M476 75L375 92L437 184Z" fill="#3547a2" stroke="#3547a2"></path><path d="M398 600L473 528L418 502Z" fill="#283d80" stroke="#283d80"></path><path d="M473 528L583 600L626 497Z" fill="#253a75" stroke="#253a75"></path><path d="M626 497L723 600L696 470Z" fill="#21325e" stroke="#21325e"></path><path d="M696 470L802 513L763 434Z" fill="#253a75" stroke="#253a75"></path><path d="M518 600L583 600L473 528Z" fill="#2b418c" stroke="#2b418c"></path><path d="M375 92L338 105L437 184Z" fill="#3c4bae" stroke="#3c4bae"></path><path d="M799 125L674 70L689 166Z" fill="#304497" stroke="#304497"></path><path d="M689 166L674 70L619 88Z" fill="#4b50c4" stroke="#4b50c4"></path><path d="M619 88L517 0L476 75Z" fill="#2b418c" stroke="#2b418c"></path><path d="M765 294L805 221L689 166Z" fill="#304497" stroke="#304497"></path><path d="M900 282L805 221L765 294Z" fill="#4b50c4" stroke="#4b50c4"></path><path d="M313 478L398 600L418 502Z" fill="#21325e" stroke="#21325e"></path><path d="M185 275L213 375L321 315Z" fill="#3c4bae" stroke="#3c4bae"></path><path d="M313 478L268 600L398 600Z" fill="#283d80" stroke="#283d80"></path><path d="M230 204L321 315L312 169Z" fill="#233669" stroke="#233669"></path><path d="M162 74L230 204L312 169Z" fill="#434eb9" stroke="#434eb9"></path><path d="M614 0L517 0L619 88Z" fill="#21325e" stroke="#21325e"></path><path d="M476 75L375 0L375 92Z" fill="#304497" stroke="#304497"></path><path d="M375 92L375 0L338 105Z" fill="#434eb9" stroke="#434eb9"></path><path d="M674 70L614 0L619 88Z" fill="#3547a2" stroke="#3547a2"></path><path d="M711 0L614 0L674 70Z" fill="#21325e" stroke="#21325e"></path><path d="M723 600L802 513L696 470Z" fill="#253a75" stroke="#253a75"></path><path d="M900 439L900 282L765 294Z" fill="#3547a2" stroke="#3547a2"></path><path d="M805 221L799 125L689 166Z" fill="#3547a2" stroke="#3547a2"></path><path d="M583 600L723 600L626 497Z" fill="#3c4bae" stroke="#3c4bae"></path><path d="M230 204L185 275L321 315Z" fill="#283d80" stroke="#283d80"></path><path d="M517 0L375 0L476 75Z" fill="#3c4bae" stroke="#3c4bae"></path><path d="M338 105L162 74L312 169Z" fill="#21325e" stroke="#21325e"></path><path d="M763 0L711 0L674 70Z" fill="#283d80" stroke="#283d80"></path><path d="M134 428L183 469L213 375Z" fill="#304497" stroke="#304497"></path><path d="M213 375L183 469L313 478Z" fill="#253a75" stroke="#253a75"></path><path d="M900 439L765 294L763 434Z" fill="#2b418c" stroke="#2b418c"></path><path d="M805 221L900 222L799 125Z" fill="#4b50c4" stroke="#4b50c4"></path><path d="M225 600L268 600L313 478Z" fill="#3547a2" stroke="#3547a2"></path><path d="M900 282L900 222L805 221Z" fill="#2b418c" stroke="#2b418c"></path><path d="M799 125L763 0L674 70Z" fill="#21325e" stroke="#21325e"></path><path d="M900 475L900 439L802 513Z" fill="#2b418c" stroke="#2b418c"></path><path d="M802 513L900 439L763 434Z" fill="#21325e" stroke="#21325e"></path><path d="M900 0L763 0L799 125Z" fill="#434eb9" stroke="#434eb9"></path><path d="M900 600L900 475L802 513Z" fill="#253a75" stroke="#253a75"></path><path d="M375 0L279 0L338 105Z" fill="#21325e" stroke="#21325e"></path><path d="M79 235L115 312L185 275Z" fill="#434eb9" stroke="#434eb9"></path><path d="M115 312L134 428L213 375Z" fill="#3547a2" stroke="#3547a2"></path><path d="M183 469L225 600L313 478Z" fill="#21325e" stroke="#21325e"></path><path d="M723 600L824 600L802 513Z" fill="#3547a2" stroke="#3547a2"></path><path d="M121 518L225 600L183 469Z" fill="#283d80" stroke="#283d80"></path><path d="M79 235L185 275L230 204Z" fill="#253a75" stroke="#253a75"></path><path d="M185 275L115 312L213 375Z" fill="#3c4bae" stroke="#3c4bae"></path><path d="M900 222L900 96L799 125Z" fill="#5353cf" stroke="#5353cf"></path><path d="M279 0L162 74L338 105Z" fill="#21325e" stroke="#21325e"></path><path d="M0 417L121 518L134 428Z" fill="#283d80" stroke="#283d80"></path><path d="M134 428L121 518L183 469Z" fill="#304497" stroke="#304497"></path><path d="M103 112L79 235L230 204Z" fill="#304497" stroke="#304497"></path><path d="M115 312L0 417L134 428Z" fill="#5353cf" stroke="#5353cf"></path><path d="M824 600L900 600L802 513Z" fill="#434eb9" stroke="#434eb9"></path><path d="M279 0L185 0L162 74Z" fill="#21325e" stroke="#21325e"></path><path d="M162 74L103 112L230 204Z" fill="#253a75" stroke="#253a75"></path><path d="M94 0L103 112L162 74Z" fill="#2b418c" stroke="#2b418c"></path><path d="M900 96L900 0L799 125Z" fill="#4b50c4" stroke="#4b50c4"></path><path d="M0 518L98 600L121 518Z" fill="#2b418c" stroke="#2b418c"></path><path d="M121 518L98 600L225 600Z" fill="#304497" stroke="#304497"></path><path d="M0 210L0 306L79 235Z" fill="#304497" stroke="#304497"></path><path d="M79 235L0 306L115 312Z" fill="#4b50c4" stroke="#4b50c4"></path><path d="M0 306L0 417L115 312Z" fill="#434eb9" stroke="#434eb9"></path><path d="M103 112L0 210L79 235Z" fill="#434eb9" stroke="#434eb9"></path><path d="M0 73L0 210L103 112Z" fill="#283d80" stroke="#283d80"></path><path d="M185 0L94 0L162 74Z" fill="#2b418c" stroke="#2b418c"></path><path d="M0 417L0 518L121 518Z" fill="#233669" stroke="#233669"></path><path d="M94 0L0 73L103 112Z" fill="#283d80" stroke="#283d80"></path><path d="M0 518L0 600L98 600Z" fill="#4b50c4" stroke="#4b50c4"></path><path d="M94 0L0 0L0 73Z" fill="#304497" stroke="#304497"></path></g></svg>