<svg width="114" height="64" viewBox="0 0 114 64" fill="none" xmlns="http://www.w3.org/2000/svg">
<path d="M112.228 29.1299C111.52 18.7512 103.472 11.6539 94.5443 7.65389C85.2763 3.50589 74.8323 1.99256 64.7629 1.50856C50.8829 0.841894 36.9016 2.96323 24.2683 8.90989C11.5243 14.9086 -6.01666 30.9179 4.46814 46.1192C8.57361 52.0699 16.1123 54.8606 22.4656 57.6259C23.7483 58.1846 25.4603 58.8872 27.2736 59.7419C28.6349 59.9806 29.9883 60.1872 31.2616 60.4499C35.4323 61.3099 39.6656 61.8019 43.9016 62.2219C51.7696 63.0032 59.7096 63.4326 67.611 62.9779C75.5603 62.5206 83.5896 61.3086 91.0563 58.4432C93.5456 57.4899 96.1896 56.3019 98.6656 54.8206C100.116 52.8579 101.702 51.0152 103.312 49.1872C104.607 47.8326 105.878 46.4952 106.952 45.1352C107.498 44.4459 107.991 43.7406 108.459 43.0206C109.024 42.2339 109.527 41.4072 109.872 40.5446C111.63 37.0446 112.507 33.2379 112.228 29.1299Z" fill="#CA4026"/>
<path d="M31.2607 60.4499C35.4313 61.3099 39.6646 61.8019 43.9006 62.2219C51.7686 63.0032 59.7087 63.4326 67.61 62.9779C75.5593 62.5206 83.5887 61.3086 91.0553 58.4432C92.9153 57.7299 94.8607 56.8806 96.7593 55.8819C97.218 55.1619 97.73 54.4592 98.2793 53.7672L98.4793 53.4272C98.65 53.0992 98.846 52.7792 99.0553 52.4646C99.394 52.0606 99.7033 51.7046 99.9567 51.4072C100.159 51.1699 100.359 50.9272 100.562 50.6872L100.606 50.6592C102.058 49.0126 103.691 47.4739 105.217 45.8686C109.85 40.0352 112.691 33.4806 110.422 25.6419C106.922 13.5606 94.2047 7.87256 82.9273 5.2299C71.8953 2.6419 60.046 1.78723 48.7833 3.12589C33.8046 4.90456 16.6913 10.3392 7.25798 22.9406C2.69958 29.0259 0.167717 37.2899 4.54332 44.2299C7.67665 49.1992 12.9073 52.1299 18.1126 54.5126C22.1673 56.3699 26.3847 58.0179 30.2553 60.2579C30.5927 60.3206 30.9313 60.3806 31.2607 60.4499Z" fill="#F36036"/>
<path d="M61.4001 61.5713C55.8014 61.5713 50.1961 61.142 44.7588 60.6326C37.7774 59.974 30.7721 59.1633 24.0374 57.1233L23.8974 57.0806C24.6974 57.438 25.4934 57.8046 26.2827 58.1833C23.5881 56.894 20.8147 55.75 18.1134 54.5126C14.0227 52.6393 9.91609 50.4286 6.82422 47.1566C10.1281 47.0353 12.7001 44.3633 14.3908 41.7926C17.4934 37.0726 20.3334 27.49 16.6548 21.79C16.6334 21.7566 16.6121 21.7246 16.5908 21.6926C17.2574 22.354 17.8294 23.2073 18.2774 24.2606C19.6081 27.4046 19.2534 30.9593 18.5147 34.2406C17.0974 37.8713 14.3001 41.0926 14.5974 45.1446C14.6134 45.3593 14.6628 45.562 14.7028 45.7673C15.2774 52.2126 22.7614 54.3366 30.7827 54.3366C38.0894 54.3366 45.8427 52.5726 49.2134 50.7033C52.3574 48.962 54.8028 46.0233 56.2081 42.738C56.7348 41.5033 56.7374 36.9593 54.6201 36.9593C54.6187 36.9593 54.6174 36.9593 54.6147 36.9593C53.2587 36.966 52.1641 37.7486 51.0908 38.506C48.7281 40.1753 46.3148 41.6966 43.7081 42.9606C40.9308 44.31 36.6214 45.598 32.6894 45.598C30.3561 45.598 28.1561 45.1446 26.4894 43.9806C23.2241 41.6993 23.2521 37.826 23.7214 34.058C24.2334 29.93 27.0974 27.2713 28.7521 23.642C28.8707 23.378 28.7068 23.026 28.4388 22.9353C27.7454 22.7033 27.0454 22.6326 26.3414 22.6326C25.8054 22.6326 25.2667 22.674 24.7294 22.714C24.1921 22.7553 23.6548 22.7953 23.1201 22.7953C22.3694 22.7953 21.6228 22.7153 20.8894 22.4433C18.3668 21.506 17.0414 19.122 16.6014 16.602C16.4681 15.8246 16.4454 15.0126 16.4761 14.194C17.2601 13.65 18.0614 13.1273 18.8801 12.6273C18.6267 13.1886 18.4214 13.7646 18.2734 14.354C18.1854 16.074 18.9214 17.6873 20.1268 19.038C21.6761 20.7726 23.8454 21.3553 26.0441 21.3553C27.3681 21.3553 28.7027 21.1446 29.9174 20.8473C35.4027 19.4993 44.0068 14.414 45.1908 7.73264C45.4801 6.09664 45.2041 4.7713 44.5294 3.72463C45.6561 3.54063 46.7747 3.37796 47.8841 3.23662C47.8867 3.23662 47.8881 3.23664 47.8894 3.23531C47.9081 3.23397 47.9254 3.2313 47.9441 3.22863C47.9534 3.2273 47.9641 3.22596 47.9748 3.22596C47.9814 3.22463 47.9894 3.22329 47.9974 3.22196C48.2281 3.19263 48.4601 3.16462 48.6908 3.13662C48.6934 3.13662 48.6961 3.13664 48.7001 3.13531C48.7121 3.13397 48.7214 3.13264 48.7334 3.1313C48.7494 3.12997 48.7667 3.1273 48.7841 3.12596C49.2481 3.0713 49.7147 3.01796 50.1814 2.97129C49.7761 3.26329 49.3934 3.58063 49.0374 3.92596C48.0601 5.34063 47.8347 7.0993 48.1494 8.88197C48.7987 12.55 52.3574 14.542 55.5268 15.57C57.5988 16.2406 60.3561 16.6833 63.2228 16.6833C67.7921 16.6833 72.6374 15.5593 75.4147 12.4513C77.6507 9.94331 77.2534 7.30597 75.5347 5.01664C75.0054 4.46597 74.4174 3.96597 73.7867 3.51397C76.8747 3.9513 79.9321 4.5273 82.9281 5.22997C83.2081 5.2953 83.4894 5.3633 83.7721 5.43264C83.1121 6.0873 82.5827 6.90063 82.1854 7.80863C80.6907 11.222 82.5494 14.854 84.6161 17.466C87.6881 21.342 94.3654 26.202 100.389 26.2033C101.243 26.2033 102.083 26.106 102.897 25.894C106.147 25.05 107.279 22.6353 107.116 19.7753C107.035 19.3246 106.927 18.878 106.793 18.4353C108.38 20.5313 109.627 22.91 110.412 25.606C110.244 25.03 110.039 24.4793 109.829 23.9353C109.599 24.7953 109.215 25.5606 108.588 26.146C107.875 26.814 107.077 26.966 106.229 26.966C105.872 26.966 105.507 26.9393 105.133 26.9113C104.761 26.8846 104.383 26.858 104 26.858C103.805 26.858 103.611 26.8646 103.415 26.882C100.027 27.1833 97.3641 28.526 95.3654 31.35C91.5454 36.7473 90.5187 43.086 91.0987 49.5353C91.2574 51.2953 91.4334 53.314 90.1174 54.706C88.6414 56.2673 86.6347 57.278 84.6387 58.0073C77.2454 60.7113 69.3294 61.57 61.4001 61.5713ZM65.4228 39.3833C63.3868 39.3833 64.8508 43.0513 65.2774 43.806C66.9121 46.694 69.0521 49.2206 71.5827 51.3606C73.9987 53.4033 77.0587 54.6526 79.8787 54.6526C83.1774 54.6526 86.1494 52.942 87.3801 48.786C87.9907 46.7126 88.2694 43.31 85.5934 42.738C85.4161 42.6993 85.2241 42.6833 85.0187 42.6833C83.5147 42.6833 81.3774 43.598 80.0588 43.782C79.4508 43.866 78.8467 43.906 78.2494 43.906C75.7267 43.906 73.3054 43.194 71.0214 42.0873C69.2867 41.0766 67.6921 39.7273 65.7627 39.4126C65.6401 39.3926 65.5268 39.3833 65.4228 39.3833ZM43.7388 20.8806C40.1654 20.8806 36.4561 22.1673 33.4748 23.9233C29.9734 25.9886 25.9294 29.5753 24.5948 34.2673C24.3854 36.2686 25.0028 38.2486 26.1108 39.974C27.8414 42.6686 30.6094 43.482 33.2801 43.482C34.1307 43.482 34.9707 43.3993 35.7654 43.2686C41.3414 42.354 50.3041 37.4366 51.9641 29.7566C52.7841 25.9566 51.2067 23.3686 48.6174 21.826C47.0814 21.1673 45.4254 20.8806 43.7388 20.8806ZM70.8187 21.222C68.4507 21.222 66.0268 21.642 63.8574 22.742C62.2468 23.9486 61.2147 25.746 60.7014 27.7326C59.6454 31.818 62.2108 35.0086 64.8414 37.0553C67.8361 39.3846 73.1907 41.61 78.4334 41.61C80.9987 41.61 83.5388 41.078 85.7601 39.762C89.1081 37.7846 89.9361 34.866 89.3081 31.9206C87.5641 27.01 82.3587 23.6966 77.4814 22.2326C75.5281 21.6473 73.2027 21.222 70.8187 21.222ZM77.9214 10.5286C77.7041 10.5286 77.4747 10.662 77.3627 10.8726C76.4507 12.5926 75.3974 14.17 74.1374 15.6366C73.0534 16.3633 71.9254 17.038 71.0841 18.074C70.8761 18.33 70.9974 18.8153 71.3294 18.906C73.8161 19.5713 76.6134 20.65 79.3001 20.65C80.1361 20.65 80.9627 20.5446 81.7654 20.2913C81.9814 20.222 82.1281 19.9166 82.0748 19.702C81.2774 16.5713 79.6174 13.798 78.3694 10.8406C78.2774 10.622 78.1027 10.5286 77.9214 10.5286ZM46.9174 19.8446C47.1361 19.8446 47.3347 19.8526 47.5027 19.874C47.8094 19.9126 48.7454 20.0326 49.7081 20.0326C51.1454 20.0326 52.6441 19.7646 52.1948 18.5553C51.2054 15.8993 48.7161 13.21 46.6974 11.3046C46.5761 11.1886 46.4027 11.1006 46.2347 11.1006C46.1254 11.1006 46.0188 11.138 45.9281 11.2273C44.9334 12.21 44.1841 13.378 43.4921 14.5846C42.4601 15.69 41.3948 16.826 41.7761 18.4126C42.0841 19.686 43.5227 19.8966 44.9507 19.8966C45.3027 19.8966 45.6534 19.8833 45.9867 19.8713C46.3201 19.858 46.6361 19.8446 46.9174 19.8446ZM30.8214 60.3633C30.7134 60.342 30.6054 60.3233 30.4974 60.3033C30.6054 60.322 30.7148 60.342 30.8214 60.3633Z" fill="#EA4629"/>
<path d="M31.0643 60.4102C30.9843 60.3942 30.903 60.3782 30.8217 60.3635C30.879 60.3742 30.935 60.3848 30.991 60.3955C31.0163 60.4008 31.0403 60.4048 31.0643 60.4102ZM30.4977 60.3035C30.4123 60.2875 30.3283 60.2728 30.2443 60.2568C30.2417 60.2555 30.239 60.2542 30.2363 60.2515C30.2403 60.2528 30.2457 60.2542 30.251 60.2555C30.2523 60.2568 30.255 60.2568 30.2563 60.2582C30.3363 60.2728 30.4177 60.2875 30.4977 60.3035Z" fill="#F7A489"/>
<path d="M31.2599 60.4502C31.1946 60.4369 31.1292 60.4235 31.0626 60.4102C31.0386 60.4049 31.0146 60.4009 30.9893 60.3955C31.0799 60.4129 31.1706 60.4315 31.2599 60.4502ZM30.2493 60.2555C30.2439 60.2542 30.2386 60.2529 30.2346 60.2515C28.9466 59.5075 27.6239 58.8275 26.2812 58.1835C27.6293 58.8275 28.9586 59.5089 30.2493 60.2555Z" fill="#C43023"/>
<path d="M60.9378 63.1636C55.2498 63.1636 49.5552 62.7836 43.9005 62.2222C39.6645 61.8022 35.4312 61.3102 31.2605 60.4502C31.1152 60.4196 30.9685 60.3916 30.8205 60.3636C30.7138 60.3422 30.6045 60.3222 30.4965 60.3036C30.4165 60.2876 30.3352 60.2729 30.2552 60.2582C28.9632 59.5102 27.6325 58.8289 26.2818 58.1836C25.4925 57.8049 24.6965 57.4382 23.8965 57.0809L24.0365 57.1236C30.7712 59.1636 37.7765 59.9742 44.7578 60.6329C50.1952 61.1422 55.8005 61.5716 61.3992 61.5716C69.3285 61.5702 77.2445 60.7116 84.6378 58.0076C86.6338 57.2782 88.6405 56.2676 90.1165 54.7062C91.4325 53.3142 91.2565 51.2956 91.0978 49.5356C90.5178 43.0862 91.5445 36.7476 95.3645 31.3502C97.3631 28.5262 100.026 27.1836 103.414 26.8822C103.61 26.8649 103.804 26.8582 103.999 26.8582C104.382 26.8582 104.76 26.8849 105.132 26.9116C105.506 26.9396 105.871 26.9662 106.228 26.9662C107.076 26.9662 107.874 26.8142 108.587 26.1462C109.214 25.5609 109.598 24.7956 109.828 23.9356C110.038 24.4796 110.243 25.0302 110.411 25.6062C110.415 25.6182 110.418 25.6302 110.422 25.6422C110.967 27.5249 111.216 29.3329 111.218 31.0756C111.218 31.1022 111.218 31.1276 111.218 31.1529C110.17 30.2062 108.87 29.5369 107.464 29.1302C106.747 28.9209 106.054 28.8262 105.388 28.8262C102.291 28.8262 99.7712 30.8729 98.0205 32.9862C94.4165 37.3369 90.8871 46.9316 94.6805 53.8116C95.1911 54.7382 95.7765 55.4809 96.4192 56.0596C94.6285 56.9822 92.8045 57.7729 91.0552 58.4436C83.5885 61.3089 75.5592 62.5209 67.6098 62.9782C65.3885 63.1062 63.1645 63.1636 60.9378 63.1636Z" fill="#E23622"/>
<path d="M41.3847 1.34615C36.5007 0.0941496 30.6687 2.03415 26.4661 4.67681C23.1141 6.78481 19.3114 10.2381 18.2727 14.3541C18.1847 16.0741 18.9207 17.6875 20.1261 19.0381C22.6074 21.8181 26.6834 21.6382 29.9167 20.8475C35.4021 19.4995 44.0061 14.4142 45.1901 7.73282C45.7741 4.42215 44.0501 2.39015 41.3847 1.34615Z" fill="#A3391E"/>
<path d="M38.5216 15.8232C35.8216 17.9179 32.7003 19.4259 29.4776 20.2179C26.7736 20.8846 23.9576 20.6939 21.5883 19.1379C18.6709 17.2192 18.1976 13.7939 20.1229 10.8472C22.7683 6.80189 28.1189 3.71389 32.4349 2.34189L32.4563 2.32188C34.3563 1.73922 36.2936 1.38988 38.3803 1.53922C41.4803 1.76455 44.9149 3.50588 44.6683 7.35388C44.4403 10.9205 40.9989 13.9046 38.5216 15.8232Z" fill="#F79453"/>
<path d="M35.4476 4.48871C34.7476 4.31805 34.0103 4.27538 33.2649 4.30738C32.6316 4.39272 31.9943 4.55938 31.3649 4.77538C32.1503 4.60472 32.9569 4.52472 33.8116 4.58339C34.5889 4.63806 35.397 4.85939 36.0436 5.26339C33.3436 4.20339 29.1036 6.54872 27.3049 8.06472C25.9583 9.20206 23.8356 11.3954 24.5889 13.3101C23.169 12.3181 22.941 10.6834 23.9236 9.26339C24.0276 9.11539 24.153 8.97272 24.273 8.82872C23.6556 9.48072 23.1903 10.2514 22.9436 11.0981C22.9316 11.9421 23.3329 12.738 23.9836 13.4047C25.3543 14.8114 27.5769 14.7261 29.3343 14.3274C32.3169 13.6541 36.9716 11.0927 37.5689 7.71806C37.8636 6.04739 36.9089 5.01671 35.4476 4.48871Z" fill="#A3391E"/>
<path d="M33.9906 11.7996C32.5333 12.8569 30.8413 13.6129 29.0893 14.0089C27.9893 14.2596 26.8586 14.2449 25.8093 13.8996C25.6186 13.8596 25.4359 13.7996 25.2786 13.6916L25.0826 13.6143L25.1186 13.5382C25.0093 13.4289 24.9146 13.2996 24.8466 13.1289C24.5879 12.4756 24.7759 11.7742 25.1386 11.1449C25.9239 9.41825 28.2453 7.87825 29.4946 7.18359C31.7026 5.95959 34.6332 5.35824 37.0452 6.32358C37.2146 6.67024 37.3066 7.06758 37.2812 7.53025C37.1826 9.33158 35.3279 10.8343 33.9906 11.7996Z" fill="#9D6CBC"/>
<path d="M9.52237 19.7032C5.09157 22.1099 2.13903 27.4979 0.857167 32.2952C-0.163633 36.1219 -0.600031 41.2392 1.43904 44.9632C2.54624 46.2819 4.1853 46.9646 5.98583 47.1326C9.69436 47.4779 12.5584 44.5766 14.3904 41.7926C17.493 37.0726 20.333 27.4899 16.6544 21.7899C14.8317 18.9699 12.1837 18.6539 9.52237 19.7032Z" fill="#A3391E"/>
<path d="M17.2758 32.2595C16.7225 35.6302 15.4638 38.8595 13.6385 41.6328C12.1118 43.9622 9.91849 45.7382 7.12288 46.2088C3.68128 46.7902 1.00155 44.6048 0.408887 41.1342C-0.405113 36.3715 1.41301 30.4662 3.64008 26.5248L3.64329 26.4928C4.63915 24.7715 5.81981 23.1982 7.45048 21.8902C9.87715 19.9435 13.5785 18.8835 16.0171 21.8702C18.2771 24.6382 17.7852 29.1675 17.2758 32.2595Z" fill="#F79453"/>
<path d="M7.30819 26.0423C6.67925 26.3996 6.10899 26.8689 5.58446 27.3983C5.18139 27.8929 4.82619 28.4463 4.51152 29.0356C4.97246 28.3756 5.50739 27.7649 6.17299 27.2276C6.77926 26.7383 7.52419 26.3529 8.27219 26.2076C5.57099 27.2676 4.06312 31.8729 3.77619 34.2076C3.56259 35.9569 3.50112 39.0089 5.35632 39.8996C3.64126 40.1383 2.36205 39.0969 2.11579 37.3863C2.08859 37.2063 2.08606 37.0183 2.07459 36.8303C2.06473 37.7303 2.24952 38.6076 2.64645 39.3969C3.21099 40.0249 4.04539 40.3343 4.97673 40.3796C6.94019 40.4756 8.50819 38.9036 9.52552 37.4143C11.2522 34.8929 12.9188 29.8476 11.0615 26.9703C10.1402 25.5409 8.74019 25.4383 7.30819 26.0423Z" fill="#A3391E"/>
<path d="M11.2172 32.3941C10.8679 34.1595 10.1439 35.8648 9.13053 37.3475C8.49586 38.2821 7.65585 39.0395 6.65159 39.4981C6.48492 39.6008 6.31106 39.6808 6.12293 39.7061L5.92399 39.7861L5.90012 39.7061C5.74692 39.6995 5.58866 39.6701 5.42293 39.5888C4.78599 39.2875 4.44693 38.6435 4.28706 37.9408C3.686 36.1381 4.3396 33.4301 4.78186 32.0741C5.56519 29.6701 7.30386 27.2368 9.72919 26.3035C10.0892 26.4408 10.4265 26.6701 10.7225 27.0248C11.8759 28.4141 11.5385 30.7755 11.2172 32.3941Z" fill="#9D6CBC"/>
<path d="M75.5336 5.0166C72.039 1.3846 66.0616 -0.0340635 61.0963 0.000603208C57.1363 0.0326032 52.0856 0.969929 49.0363 3.92593C48.059 5.3406 47.8336 7.09927 48.1483 8.88193C48.7976 12.5499 52.3563 14.5419 55.5256 15.5699C60.899 17.3099 70.8936 17.5099 75.4136 12.4513C77.6496 9.94327 77.2523 7.30594 75.5336 5.0166Z" fill="#A3391E"/>
<path d="M65.483 15.8232C62.087 16.1832 58.639 15.8258 55.4803 14.8018C52.831 13.9485 50.5376 12.3045 49.3416 9.73384C47.8696 6.5685 49.2683 3.40583 52.4563 1.91383C56.831 -0.132834 63.0056 0.0538253 67.399 1.15649L67.4283 1.14984C69.3483 1.65384 71.1816 2.37784 72.8763 3.60184C75.3963 5.42317 77.4016 8.71249 75.1656 11.8565C73.0976 14.7685 68.6016 15.4952 65.483 15.8232Z" fill="#F79453"/>
<path d="M68.8347 4.56617C68.3267 4.05551 67.724 3.63017 67.072 3.26617C66.4894 3.00617 65.8587 2.81017 65.2107 2.6635C65.968 2.93284 66.6974 3.28883 67.3947 3.7875C68.0267 4.2395 68.596 4.85816 68.932 5.5395C67.1934 3.21816 62.3547 2.98217 60.0267 3.32617C58.2854 3.5835 55.3254 4.3355 54.9574 6.3595C54.272 4.76883 54.94 3.25684 56.5214 2.56751C56.688 2.49418 56.8694 2.44084 57.0467 2.38084C56.1787 2.61017 55.3787 3.01817 54.7227 3.6115C54.2694 4.3235 54.1934 5.20884 54.3934 6.11951C54.8214 8.03818 56.7534 9.13284 58.4587 9.71951C61.3494 10.7168 66.6574 10.9875 68.9387 8.43017C70.0694 7.16484 69.7987 5.78751 68.8347 4.56617Z" fill="#A3391E"/>
<path d="M63.7481 10.0196C61.9534 10.1489 60.1161 9.90355 58.4187 9.31955C57.3494 8.95422 56.3961 8.34488 55.6868 7.50088C55.5454 7.36888 55.4214 7.21954 55.3467 7.04488L55.2188 6.87287L55.2868 6.83155C55.2548 6.68221 55.2414 6.52087 55.2721 6.34087C55.3974 5.64754 55.9267 5.14754 56.5654 4.80621C58.1401 3.75154 60.9267 3.66088 62.3521 3.72888C64.8747 3.84888 67.6828 4.87822 69.2268 6.96888C69.1894 7.35288 69.0588 7.73955 68.7948 8.11688C67.7628 9.59688 65.3947 9.90088 63.7481 10.0196Z" fill="#9D6CBC"/>
<path d="M107.115 19.7755C106.221 14.8155 102.032 10.3195 97.8814 7.59546C94.5694 5.42612 89.8454 3.40878 85.6694 4.17412C84.072 4.81012 82.9094 6.15279 82.184 7.80879C80.6894 11.2221 82.548 14.8541 84.6147 17.4661C88.1214 21.8915 96.328 27.5995 102.896 25.8941C106.145 25.0501 107.277 22.6355 107.115 19.7755Z" fill="#A3391E"/>
<path d="M92.7594 23.1967C89.7341 21.614 87.0648 19.4047 85.0034 16.802C83.2701 14.6207 82.2728 11.9807 82.7034 9.17667C83.2328 5.72867 86.1501 3.87267 89.6314 4.39534C94.4074 5.122 99.4421 8.69801 102.489 12.0527L102.515 12.0633C103.835 13.5473 104.959 15.1647 105.691 17.1247C106.775 20.038 106.622 23.886 103.018 25.2607C99.6834 26.5393 95.5381 24.65 92.7594 23.1967Z" fill="#F79453"/>
<path d="M101.79 15.686C101.653 14.9767 101.386 14.29 101.046 13.626C100.702 13.0873 100.289 12.574 99.83 12.0926C100.31 12.738 100.721 13.4353 101.025 14.238C101.299 14.966 101.43 15.7953 101.331 16.5487C101.174 13.6527 97.2754 10.774 95.1487 9.76865C93.5554 9.01799 90.678 8.00199 89.2487 9.48332C89.5594 7.78065 90.9514 6.89131 92.654 7.19264C92.8314 7.22464 93.0127 7.28332 93.1927 7.33132C92.342 7.03932 91.45 6.93665 90.5767 7.06865C89.8034 7.40865 89.2487 8.10197 88.914 8.97131C88.2034 10.8046 89.206 12.7886 90.2994 14.2206C92.1514 16.654 96.4194 19.8206 99.7367 18.9566C101.378 18.5313 101.917 17.2353 101.79 15.686Z" fill="#A3391E"/>
<path d="M94.5354 17.4034C92.9701 16.5181 91.5767 15.2941 90.4861 13.8648C89.8007 12.9701 89.3447 11.9354 89.2221 10.8368C89.1767 10.6488 89.1567 10.4568 89.1914 10.2714L89.1794 10.0568L89.2607 10.0608C89.3167 9.91411 89.3954 9.77411 89.5207 9.64211C90.0101 9.13278 90.7247 9.01278 91.4461 9.08078C93.3434 9.07812 95.7114 10.5461 96.8621 11.3928C98.8941 12.8914 100.659 15.3061 100.785 17.9021C100.542 18.1995 100.219 18.4488 99.7901 18.6181C98.1087 19.2768 95.9714 18.2168 94.5354 17.4034Z" fill="#9D6CBC"/>
<path d="M48.6159 21.8259C43.8265 19.7699 37.8612 21.3379 33.4732 23.9232C29.9719 25.9885 25.9279 29.5752 24.5932 34.2672C24.3839 36.2685 25.0012 38.2485 26.1092 39.9739C28.3905 43.5259 32.4745 43.8099 35.7639 43.2685C41.3399 42.3539 50.3025 37.4365 51.9625 29.7565C52.7825 25.9565 51.2052 23.3685 48.6159 21.8259Z" fill="#A3391E"/>
<path d="M44.7213 38.4302C41.872 40.5529 38.648 41.9422 35.372 42.4809C32.6187 42.9382 29.8213 42.3729 27.5626 40.2636C24.788 37.6676 24.5587 33.6009 26.692 30.3822C29.6253 25.9702 35.1933 22.9982 39.604 21.9129L39.628 21.8889C41.5667 21.4369 43.528 21.2636 45.6 21.6902C48.6826 22.3276 51.992 24.7769 51.4693 29.2556C50.9866 33.4036 47.3333 36.4809 44.7213 38.4302Z" fill="#F79453"/>
<path d="M42.4635 24.7874C41.7728 24.5048 41.0408 24.3661 40.2915 24.3141C39.6555 24.3394 39.0035 24.4528 38.3595 24.6328C39.1595 24.5301 39.9701 24.5301 40.8195 24.6994C41.5915 24.8581 42.3848 25.2154 43.0008 25.7688C40.3808 24.1994 35.9741 26.4354 34.0688 27.9928C32.6408 29.1594 30.3635 31.4728 30.9781 33.8061C29.6328 32.4741 29.5208 30.5301 30.6035 28.9874C30.7181 28.8248 30.8568 28.6781 30.9835 28.5234C30.3208 29.2114 29.8022 30.0568 29.4942 31.0181C29.4208 32.0061 29.7648 32.9821 30.3661 33.8448C31.6381 35.6554 33.8621 35.8234 35.6501 35.5688C38.6781 35.1394 43.5128 32.7021 44.3501 28.8248C44.7648 26.9021 43.8835 25.5834 42.4635 24.7874Z" fill="#A3391E"/>
<path d="M40.4788 33.1714C38.9481 34.2314 37.2041 34.9141 35.4254 35.1674C34.3081 35.3288 33.1788 35.1727 32.1548 34.6421C31.9681 34.5741 31.7881 34.4807 31.6428 34.3367L31.4494 34.2181L31.4921 34.1381C31.3894 33.9954 31.3041 33.8354 31.2481 33.6261C31.0374 32.8234 31.2761 32.0301 31.6828 31.3381C32.5908 29.4087 35.0214 27.8874 36.3188 27.2261C38.6121 26.0554 41.5814 25.7087 43.9254 27.1274C44.0708 27.5554 44.1334 28.0314 44.0761 28.5661C43.8468 30.6634 41.8868 32.1981 40.4788 33.1714Z" fill="#9D6CBC"/>
<path d="M89.3071 31.9208C87.5631 27.0101 82.3577 23.6968 77.4804 22.2328C73.5871 21.0661 68.2084 20.5355 63.8564 22.7421C62.2457 23.9488 61.2137 25.7461 60.7004 27.7328C59.6444 31.8181 62.2097 35.0088 64.8404 37.0555C69.3004 40.5261 78.9964 43.7635 85.7591 39.7621C89.1071 37.7848 89.9351 34.8661 89.3071 31.9208Z" fill="#A3391E"/>
<path d="M74.4747 40.3392C70.9814 39.6939 67.7721 38.2686 65.1507 36.2299C62.9454 34.5219 61.4587 32.0846 61.4747 28.9952C61.4947 25.1939 64.3227 22.2632 68.1347 21.6419C73.3641 20.7992 79.3267 22.8659 83.1201 25.3632L83.1521 25.3659C84.8027 26.4806 86.2627 27.8046 87.3574 29.6139C88.9827 32.3086 89.4307 36.4032 85.7921 39.0592C82.4187 41.5246 77.6814 40.9326 74.4747 40.3392Z" fill="#F79453"/>
<path d="M82.9514 29.4141C82.6914 28.7168 82.2981 28.0848 81.8261 27.5008C81.3754 27.0475 80.8501 26.6515 80.2794 26.2995C80.8994 26.8155 81.4488 27.4128 81.9021 28.1488C82.3101 28.8221 82.5848 29.6488 82.5981 30.4755C81.9688 27.4875 77.3354 25.7741 74.8981 25.4328C73.0714 25.1781 69.8288 25.0808 68.5328 27.1155C68.5954 25.2221 69.9474 23.8195 71.8141 23.5675C72.0114 23.5395 72.2154 23.5395 72.4141 23.5275C71.4594 23.5115 70.4861 23.7021 69.5701 24.1328C68.7968 24.7515 68.3141 25.6661 68.0901 26.6915C67.6234 28.8541 69.0128 30.6008 70.4128 31.7408C72.7834 33.6715 77.8581 35.5595 81.2728 33.5421C82.9648 32.5408 83.3341 30.9981 82.9514 29.4141Z" fill="#A3391E"/>
<path d="M75.4535 33.6554C73.6348 33.2514 71.9495 32.4367 70.5548 31.3034C69.6788 30.5927 69.0241 29.6581 68.7201 28.5461C68.6401 28.3634 68.5894 28.1674 68.5961 27.9621L68.5508 27.7421L68.6375 27.7168C68.6735 27.5448 68.7348 27.3727 68.8508 27.1874C69.2921 26.4927 70.0388 26.1261 70.8215 25.9554C72.8548 25.3141 75.6241 26.0607 76.9908 26.5634C79.4068 27.4527 81.6788 29.3941 82.2281 32.0794C82.0148 32.4754 81.7081 32.8461 81.2761 33.1674C79.5801 34.4221 77.1228 34.0301 75.4535 33.6554Z" fill="#9D6CBC"/>
<path d="M102.412 57.5952C107.373 55.9992 110.843 50.8992 112.453 46.0685C113.737 42.2112 114.432 36.8525 112.355 32.4325C111.199 30.7885 109.436 29.7018 107.464 29.1298C103.411 27.9485 100.147 30.4179 98.0199 32.9859C94.4159 37.3365 90.8865 46.9312 94.6798 53.8112C96.5572 57.2178 99.4478 58.1352 102.412 57.5952Z" fill="#A3391E"/>
<path d="M94.4462 42.5166C95.1982 39.0446 96.7182 35.8779 98.8355 33.3205C100.61 31.1672 103.093 29.7566 106.18 29.8659C109.977 29.9979 112.821 32.9139 113.328 36.7445C114.013 41.9992 111.768 47.8965 109.154 51.6099L109.152 51.6419C107.986 53.2565 106.621 54.6792 104.778 55.7152C102.036 57.2606 97.9288 57.5846 95.3835 53.8659C93.0235 50.4206 93.7555 45.7019 94.4462 42.5166Z" fill="#F79453"/>
<path d="M105.108 51.3208C105.815 51.0808 106.459 50.7062 107.058 50.2542C107.523 49.8142 107.936 49.3022 108.303 48.7422C107.77 49.3462 107.159 49.8782 106.407 50.3062C105.72 50.6968 104.887 50.9435 104.059 50.9342C107.066 50.3942 108.918 45.8155 109.334 43.3888C109.64 41.5715 109.839 38.3328 107.844 36.9755C109.735 37.0955 111.096 38.4888 111.292 40.3635C111.311 40.5608 111.306 40.7635 111.311 40.9648C111.359 40.0088 111.196 39.0315 110.795 38.1022C110.2 37.3115 109.3 36.7995 108.282 36.5462C106.134 36.0168 104.344 37.3515 103.164 38.7169C101.163 41.0262 99.1202 46.0422 101.035 49.5155C101.986 51.2355 103.515 51.6528 105.108 51.3208Z" fill="#A3391E"/>
<path d="M101.098 43.6968C101.557 41.8915 102.422 40.2328 103.598 38.8702C104.334 38.0182 105.289 37.3928 106.409 37.1222C106.594 37.0488 106.792 36.9995 106.997 37.0128L107.22 36.9755L107.24 37.0635C107.412 37.1048 107.581 37.1702 107.761 37.2915C108.442 37.7542 108.79 38.5128 108.936 39.3022C109.517 41.3528 108.684 44.0955 108.138 45.4462C107.178 47.8355 105.168 50.0502 102.469 50.5142C102.078 50.2902 101.72 49.9715 101.41 49.5315C100.206 47.7995 100.674 45.3528 101.098 43.6968Z" fill="#9D6CBC"/>
<path d="M5.63626 45.4141C4.48053 45.4141 3.32945 44.9047 2.47372 43.8767C0.775854 41.8341 0.209189 39.0007 1.14932 36.4941C1.17786 36.4154 1.34719 36.2687 1.43519 36.2687C1.47585 36.2687 1.49932 36.2994 1.48266 36.3847C1.09359 38.3714 1.94719 40.8234 3.37213 42.2647C4.40239 43.3061 5.36226 43.7141 6.45506 43.7141C7.13266 43.7141 7.86173 43.5567 8.68973 43.2994C8.72839 43.2874 8.76173 43.2807 8.78973 43.2807C9.09506 43.2807 8.79639 43.9394 8.69506 44.0447C7.83639 44.9554 6.73359 45.4141 5.63626 45.4141Z" fill="#FCD887"/>
<path d="M29.8385 37.0127C28.0518 37.0127 26.5052 36.0847 26.5745 33.8047C26.6518 31.3567 28.2105 28.6287 30.4452 27.538C30.4758 27.5233 30.5012 27.5167 30.5198 27.5167C30.6452 27.5167 30.5585 27.7847 30.4905 27.854C29.1625 29.2233 27.7372 31.178 28.0158 33.2194C28.3158 35.418 30.3452 35.742 32.2078 35.9847C32.5105 36.026 32.1532 36.5393 32.0132 36.5927C31.3092 36.8633 30.5545 37.014 29.8385 37.0127Z" fill="#FCD887"/>
<path d="M22.4655 17.4756C20.4362 17.4756 19.5789 15.4596 19.9429 13.4783C20.3255 11.4169 21.6949 9.53958 23.2269 8.15558C23.2815 8.10625 23.3295 8.08626 23.3682 8.08626C23.4708 8.08626 23.5055 8.22759 23.4015 8.35959C22.4388 9.62225 21.5455 11.2543 21.3122 12.8476C21.0068 14.9596 22.2629 15.4663 23.5562 16.7636C23.7562 16.9649 23.4482 17.3396 23.2402 17.3863C22.9655 17.4476 22.7068 17.4756 22.4655 17.4756Z" fill="#FCD887"/>
<path d="M51.3821 9.99268C51.3395 9.99268 51.2981 9.97801 51.2568 9.94601C49.5648 8.62868 49.1555 6.35935 50.3795 4.54735C51.5435 2.82468 53.4328 1.94601 55.4368 1.60467C55.4461 1.60334 55.4541 1.60202 55.4608 1.60202C55.6021 1.60202 55.4461 1.86867 55.3715 1.90601C53.9701 2.56467 51.9808 3.41001 51.2968 4.92201C50.6408 6.36601 51.3395 7.91801 51.7928 9.31401C51.8528 9.50068 51.6261 9.99268 51.3821 9.99268Z" fill="#FCD887"/>
<path d="M64.4197 32.2808C64.3743 32.2808 64.329 32.2661 64.2863 32.2354C59.9503 29.1034 64.897 22.7034 68.857 22.2634C68.8663 22.2634 68.8743 22.2621 68.8823 22.2621C69.0757 22.2621 68.8863 22.5728 68.817 22.6301C67.5183 23.6968 65.805 24.6221 64.8783 26.0634C63.6997 27.8968 64.5757 29.6514 64.9397 31.5688C64.981 31.7834 64.6917 32.2808 64.4197 32.2808Z" fill="#FCD887"/>
<path d="M85.3332 14.2236C85.2838 14.2236 85.2372 14.1996 85.1932 14.1423C84.0479 12.6156 83.1159 9.96631 83.8519 8.08231C84.3879 6.71031 85.6545 5.13431 87.2519 5.13431C87.3839 5.13431 87.5185 5.14498 87.6545 5.16764C87.7839 5.18764 87.6425 5.38498 87.5985 5.41964C86.8758 6.00764 85.7159 6.51164 85.3265 7.41297C85.0225 8.11564 85.0798 8.87431 85.1665 9.61831C85.3278 10.9663 85.6879 12.3156 85.7399 13.6703C85.7452 13.829 85.5305 14.2236 85.3332 14.2236Z" fill="#FCD887"/>
<path d="M86.2804 16.2632C86.2724 16.2632 86.2645 16.2632 86.2578 16.2618C85.7205 16.2152 85.7764 15.5578 85.8671 15.1578C85.8831 15.0925 86.0711 14.8578 86.1871 14.8578C86.2191 14.8578 86.2458 14.8765 86.2618 14.9218C86.3738 15.2498 86.6845 15.3085 86.7605 15.6632C86.8138 15.9072 86.5324 16.2632 86.2804 16.2632Z" fill="#FCD887"/>
<path d="M95.458 44.5713C95.378 44.5713 95.322 44.5126 95.3113 44.3593C94.9407 39.142 99.694 30.994 105.457 30.9313C105.457 30.9313 105.457 30.9313 105.458 30.9313C105.711 30.9313 105.395 31.3953 105.295 31.4393C102.535 32.6753 100.213 34.37 98.7633 37.0993C97.5887 39.31 97.038 41.6726 96.13 43.9806C96.0793 44.1113 95.6807 44.5713 95.458 44.5713Z" fill="#FCD887"/>
<path d="M94.9141 47.6235C94.8181 47.6235 94.7554 47.5555 94.7781 47.3662C94.8234 47.0089 94.9741 46.6942 94.9728 46.3249C94.9741 46.2035 95.2394 45.8582 95.4021 45.8582C95.4448 45.8582 95.4808 45.8822 95.5021 45.9422C95.6674 46.3929 95.6608 46.8155 95.4501 47.2489C95.3781 47.3929 95.0901 47.6235 94.9141 47.6235Z" fill="#FCD887"/>
<path d="M9.2546 32.2421C9.98927 31.3927 10.6319 30.4514 10.4439 29.2847C10.3986 29.0114 10.1199 29.0754 9.95327 29.1901C9.54794 29.4714 9.18793 29.8541 8.8586 30.2674C8.87593 29.6874 8.83861 29.1154 8.62394 28.5247C8.45861 28.0727 7.81861 28.7661 7.73994 28.9327C7.30794 29.8407 7.2306 30.8167 7.2786 31.7994C6.55794 31.5941 5.8002 31.7661 5.1402 32.2874C5.00847 32.3914 4.6402 32.8527 4.9074 33.0087C5.46314 33.3367 6.01167 33.4087 6.61527 33.4527C5.93447 34.4927 5.43661 35.7647 5.77261 36.9714C5.85114 37.2541 6.15794 37.1421 6.30594 36.9714C6.66581 36.5554 6.921 36.1047 7.1506 35.6381C7.19127 36.2087 7.36661 36.7474 7.81461 37.2021C8.01994 37.4087 8.4066 36.9581 8.4706 36.8087C8.77994 36.0714 8.79594 35.3727 8.80661 34.6527C10.0946 35.2714 11.2213 32.3941 9.2546 32.2421Z" fill="#9E2B9A"/>
<path d="M32.5242 10.4862C33.6388 10.3382 34.7442 10.0649 35.3775 9.06621C35.5268 8.83154 35.2748 8.69421 35.0735 8.66888C34.5828 8.60754 34.0588 8.65554 33.5402 8.7462C33.9415 8.32487 34.2922 7.87286 34.5228 7.28886C34.6988 6.83953 33.7588 6.93286 33.5895 7.0062C32.6642 7.3982 31.9602 8.0782 31.3415 8.8422C30.9388 8.21153 30.2575 7.83688 29.4202 7.78621C29.2522 7.77688 28.6708 7.8782 28.7655 8.17153C28.9642 8.7862 29.3255 9.20486 29.7468 9.6382C28.5468 9.96486 27.3295 10.5849 26.7815 11.7075C26.6508 11.9715 26.9548 12.0929 27.1802 12.0635C27.7228 11.9902 28.2162 11.8262 28.6975 11.6289C28.3482 12.0809 28.1215 12.5982 28.1562 13.2395C28.1708 13.5275 28.7588 13.4489 28.9068 13.3782C29.6282 13.0355 30.1042 12.5235 30.5882 11.9902C31.1415 13.3062 33.8962 11.9075 32.5242 10.4862Z" fill="#9E2B9A"/>
<path d="M39.2783 30.9701C40.393 30.8208 41.4983 30.5448 42.133 29.5475C42.281 29.3141 42.029 29.1768 41.8276 29.1515C41.337 29.0928 40.8143 29.1381 40.2943 29.2275C40.6943 28.8088 41.0463 28.3541 41.2756 27.7688C41.453 27.3221 40.513 27.4168 40.345 27.4901C39.4196 27.8821 38.713 28.5608 38.097 29.3275C37.693 28.6928 37.013 28.3194 36.1743 28.2714C36.0063 28.2594 35.425 28.3594 35.5196 28.6554C35.7196 29.2701 36.0796 29.6874 36.501 30.1221C35.3023 30.4474 34.085 31.0675 33.537 32.1928C33.4076 32.4568 33.709 32.5755 33.9356 32.5448C34.4783 32.4755 34.9703 32.3088 35.4516 32.1101C35.1036 32.5635 34.877 33.0834 34.9103 33.7208C34.9263 34.0114 35.513 33.9315 35.6623 33.8608C36.3823 33.5195 36.857 33.0061 37.3436 32.4728C37.8956 33.7914 40.6503 32.3901 39.2783 30.9701Z" fill="#9E2B9A"/>
<path d="M63.0241 8.46205C63.9881 9.03805 65.0241 9.51138 66.1401 9.12338C66.4041 9.03271 66.2935 8.76871 66.1495 8.62338C65.8041 8.27271 65.3668 7.98205 64.9015 7.72872C65.4788 7.64872 66.0348 7.51406 66.5774 7.19939C66.9948 6.95939 66.2015 6.44739 66.0241 6.40072C65.0548 6.13272 64.0801 6.22338 63.1188 6.43804C63.1975 5.69271 62.9001 4.97539 62.2735 4.41672C62.1468 4.30339 61.6295 4.02205 61.5215 4.31138C61.2935 4.91405 61.3174 5.46873 61.3774 6.06873C60.2361 5.57939 58.8948 5.30472 57.7668 5.84472C57.5028 5.97005 57.6655 6.25404 57.8588 6.37004C58.3295 6.65138 58.8175 6.82871 59.3175 6.97271C58.7615 7.11005 58.2615 7.37539 57.8935 7.89672C57.7228 8.13272 58.2321 8.43538 58.3908 8.47271C59.1695 8.65405 59.8601 8.54872 60.5735 8.43272C60.1855 9.80872 63.2135 10.4261 63.0241 8.46205Z" fill="#9E2B9A"/>
<path d="M95.5509 15.8143C96.0002 16.8463 96.5669 17.8303 97.7002 18.1663C97.9669 18.2476 98.0282 17.9663 97.9989 17.7663C97.9216 17.2783 97.7322 16.7903 97.5016 16.3116C98.0189 16.5836 98.5509 16.7956 99.1749 16.8596C99.6536 16.9049 99.3056 16.025 99.1896 15.8836C98.5589 15.1023 97.7122 14.6076 96.8056 14.2263C97.3042 13.6649 97.4776 12.9076 97.2949 12.0876C97.2576 11.9223 97.0002 11.3916 96.7442 11.5636C96.2082 11.9223 95.9056 12.3863 95.6042 12.9129C94.9616 11.8476 94.0309 10.8476 92.7989 10.6276C92.5122 10.5743 92.4789 10.8983 92.5669 11.1063C92.7856 11.6116 93.0816 12.0383 93.4016 12.4476C92.8722 12.2356 92.3096 12.161 91.7056 12.369C91.4309 12.4636 91.6696 13.0063 91.7776 13.1289C92.3056 13.7289 92.9269 14.0449 93.5749 14.3663C92.4589 15.2569 94.5616 17.5209 95.5509 15.8143Z" fill="#9E2B9A"/>
<path d="M75.7784 30.8833C76.4504 31.782 77.2291 32.6126 78.4104 32.6793C78.6864 32.698 78.6851 32.4113 78.6077 32.222C78.4224 31.766 78.1251 31.33 77.7917 30.918C78.3571 31.0646 78.9237 31.1513 79.5451 31.0673C80.0224 31.006 79.4824 30.2286 79.3371 30.118C78.5437 29.5006 77.6077 29.2126 76.6371 29.0473C76.9931 28.3873 76.9891 27.6113 76.6237 26.858C76.5491 26.702 76.1784 26.246 75.9691 26.4713C75.5277 26.9433 75.3371 27.4646 75.1664 28.0446C74.2971 27.1566 73.1611 26.394 71.9131 26.462C71.6211 26.4766 71.6624 26.802 71.7971 26.9806C72.1251 27.422 72.5091 27.7713 72.9157 28.0953C72.3504 28.0113 71.7877 28.0686 71.2477 28.4073C70.9997 28.562 71.3557 29.0353 71.4931 29.1326C72.1411 29.594 72.8184 29.7593 73.5224 29.926C72.6411 31.0473 75.2064 32.7713 75.7784 30.8833Z" fill="#9E2B9A"/>
<path d="M103.899 43.3956C103.054 44.1356 102.287 44.9756 102.311 46.1569C102.314 46.4329 102.599 46.4089 102.779 46.3183C103.223 46.0983 103.632 45.7689 104.016 45.4062C103.916 45.9809 103.872 46.5502 104.003 47.1636C104.106 47.6356 104.834 47.0382 104.935 46.8822C105.492 46.0449 105.704 45.0902 105.795 44.1116C106.479 44.4142 107.254 44.3516 107.979 43.9262C108.126 43.8436 108.554 43.4356 108.311 43.2449C107.807 42.8422 107.274 42.6929 106.682 42.5636C107.503 41.6316 108.172 40.4422 108.01 39.1996C107.972 38.9089 107.654 38.9769 107.482 39.1262C107.067 39.4876 106.748 39.8956 106.458 40.3249C106.498 39.7556 106.399 39.1996 106.019 38.6876C105.846 38.4529 105.402 38.8436 105.315 38.9863C104.904 39.6703 104.792 40.3582 104.68 41.0729C103.494 40.2796 101.972 42.9702 103.899 43.3956Z" fill="#9E2B9A"/>
</svg>
