<svg xmlns="http://www.w3.org/2000/svg" width="114" height="64" fill="none" viewBox="0 0 114 64"><path fill="#ca4026" d="M112.228 29.13c-.708-10.379-8.756-17.476-17.684-21.476-9.268-4.148-19.712-5.661-29.781-6.145-13.88-.667-27.861 1.454-40.495 7.4-12.744 6-30.285 22.009-19.8 37.21 4.106 5.95 11.644 8.742 17.998 11.507 1.282.559 2.994 1.261 4.808 2.116 1.36.239 2.714.445 3.988.708 4.17.86 8.404 1.352 12.64 1.772 7.868.781 15.808 1.21 23.709.756 7.95-.457 15.979-1.67 23.445-4.535 2.49-.953 5.134-2.141 7.61-3.622 1.45-1.963 3.036-3.806 4.646-5.634 1.295-1.354 2.566-2.692 3.64-4.052a28 28 0 0 0 1.507-2.114c.565-.787 1.068-1.614 1.413-2.476 1.758-3.5 2.635-7.307 2.356-11.415"/><path fill="#f36036" d="M31.26 60.45c4.171.86 8.405 1.352 12.64 1.772 7.869.781 15.809 1.21 23.71.756 7.95-.457 15.979-1.67 23.445-4.535a53 53 0 0 0 5.704-2.561c.459-.72.971-1.423 1.52-2.115l.2-.34c.171-.328.367-.648.576-.962.339-.404.648-.76.902-1.058.202-.237.402-.48.605-.72l.044-.028c1.452-1.646 3.085-3.185 4.611-4.79 4.633-5.834 7.474-12.388 5.205-20.227-3.5-12.081-16.217-17.77-27.495-20.412-11.032-2.588-22.881-3.443-34.144-2.104C33.805 4.905 16.691 10.339 7.258 22.94 2.7 29.026.168 37.29 4.543 44.23c3.134 4.97 8.364 7.9 13.57 10.283 4.054 1.857 8.272 3.505 12.142 5.745.338.063.676.123 1.006.192"/><path fill="#ea4629" d="M61.4 61.571c-5.599 0-11.204-.429-16.641-.938-6.982-.659-13.987-1.47-20.722-3.51l-.14-.042q1.2.535 2.386 1.102c-2.695-1.289-5.468-2.433-8.17-3.67-4.09-1.874-8.197-4.084-11.289-7.356 3.304-.122 5.876-2.794 7.567-5.364 3.102-4.72 5.942-14.303 2.264-20.003l-.064-.097c.666.661 1.238 1.514 1.686 2.568 1.331 3.144.976 6.698.238 9.98-1.418 3.63-4.215 6.852-3.918 10.904.016.214.066.417.106.622.574 6.446 8.058 8.57 16.08 8.57 7.306 0 15.06-1.764 18.43-3.634 3.144-1.741 5.59-4.68 6.995-7.965.527-1.235.53-5.779-1.588-5.779h-.005c-1.356.007-2.45.79-3.524 1.547-2.363 1.67-4.776 3.19-7.383 4.455-2.777 1.349-7.087 2.637-11.019 2.637-2.333 0-4.533-.453-6.2-1.617-3.265-2.282-3.237-6.155-2.768-9.923.512-4.128 3.376-6.787 5.031-10.416.119-.264-.045-.616-.313-.707-.694-.232-1.394-.302-2.098-.302-.536 0-1.074.041-1.612.081-.537.041-1.074.081-1.609.081-.75 0-1.497-.08-2.23-.352-2.523-.937-3.849-3.321-4.289-5.841-.133-.777-.156-1.59-.125-2.408a49 49 0 0 1 2.404-1.567 10.3 10.3 0 0 0-.607 1.727c-.088 1.72.648 3.333 1.854 4.684 1.55 1.735 3.718 2.317 5.917 2.317 1.324 0 2.659-.21 3.873-.508 5.486-1.348 14.09-6.433 15.274-13.114.29-1.636.013-2.962-.662-4.008a96 96 0 0 1 3.355-.488q.004 0 .005-.002.028-.002.055-.006l.03-.003.023-.004q.347-.044.694-.085l.01-.002.032-.004.051-.005q.696-.083 1.397-.155-.609.438-1.144.955c-.977 1.415-1.202 3.173-.888 4.956.65 3.668 4.208 5.66 7.378 6.688 2.072.67 4.83 1.113 7.696 1.113 4.57 0 9.414-1.124 12.192-4.232 2.236-2.508 1.838-5.145.12-7.434-.53-.551-1.118-1.051-1.748-1.503a104 104 0 0 1 9.985 1.919c-.66.654-1.19 1.468-1.587 2.376-1.494 3.413.364 7.045 2.431 9.657 3.072 3.876 9.75 8.736 15.773 8.737.854 0 1.694-.097 2.508-.309 3.25-.844 4.382-3.259 4.219-6.119a12 12 0 0 0-.323-1.34 22 22 0 0 1 3.619 7.171 21 21 0 0 0-.583-1.67c-.23.86-.614 1.625-1.241 2.21-.713.668-1.511.82-2.359.82-.357 0-.722-.027-1.096-.055-.372-.026-.75-.053-1.133-.053q-.292 0-.585.024c-3.388.301-6.05 1.644-8.05 4.468-3.82 5.397-4.846 11.736-4.266 18.185.158 1.76.334 3.779-.982 5.171-1.476 1.561-3.482 2.572-5.478 3.301-7.394 2.704-15.31 3.563-23.239 3.564m4.023-22.188c-2.036 0-.572 3.668-.146 4.423 1.635 2.888 3.775 5.415 6.306 7.555 2.416 2.042 5.476 3.292 8.296 3.292 3.298 0 6.27-1.711 7.501-5.867.61-2.073.89-5.476-1.787-6.048a2.7 2.7 0 0 0-.574-.055c-1.504 0-3.642.915-4.96 1.099q-.913.125-1.81.124c-2.522 0-4.944-.712-7.228-1.819-1.734-1.01-3.329-2.36-5.258-2.674a2 2 0 0 0-.34-.03M43.739 20.881c-3.574 0-7.283 1.286-10.264 3.042-3.502 2.066-7.546 5.652-8.88 10.344-.21 2.002.408 3.982 1.516 5.707 1.73 2.695 4.498 3.508 7.17 3.508.85 0 1.69-.083 2.484-.213 5.576-.915 14.54-5.832 16.2-13.512.82-3.8-.758-6.388-3.348-7.931-1.536-.659-3.192-.945-4.878-.945m27.08.341c-2.368 0-4.792.42-6.962 1.52-1.61 1.207-2.642 3.004-3.156 4.99-1.056 4.086 1.51 7.277 4.14 9.323 2.995 2.33 8.35 4.555 13.592 4.555 2.566 0 5.106-.532 7.327-1.848 3.348-1.977 4.176-4.896 3.548-7.841-1.744-4.911-6.95-8.224-11.827-9.688-1.953-.586-4.278-1.011-6.662-1.011m7.102-10.693a.66.66 0 0 0-.558.344 25.7 25.7 0 0 1-3.226 4.764c-1.084.726-2.212 1.401-3.053 2.437-.208.256-.087.741.245.832 2.487.665 5.284 1.744 7.971 1.744.836 0 1.663-.105 2.465-.359.216-.069.363-.374.31-.589-.798-3.13-2.458-5.904-3.706-8.861a.47.47 0 0 0-.448-.312m-31.004 9.316c.22 0 .418.008.586.029.306.039 1.242.159 2.205.159 1.437 0 2.936-.268 2.487-1.478-.99-2.656-3.479-5.345-5.498-7.25a.7.7 0 0 0-.462-.204.43.43 0 0 0-.307.126c-.995.983-1.744 2.151-2.436 3.358-1.032 1.105-2.097 2.241-1.716 3.828.308 1.273 1.747 1.484 3.175 1.484.352 0 .702-.014 1.036-.026.333-.013.65-.026.93-.026M30.821 60.363l-.324-.06q.163.029.324.06"/><path fill="#f7a489" d="m31.064 60.41-.073-.014zm-.566-.106q-.128-.024-.254-.047l-.008-.005.015.003q.003.002.005.003z"/><path fill="#c43023" d="m31.26 60.45-.197-.04-.074-.014q.136.026.27.054m-1.01-.195-.015-.004a58 58 0 0 0-3.954-2.067 57 57 0 0 1 3.968 2.072"/><path fill="#e23622" d="M60.938 63.164c-5.688 0-11.383-.38-17.037-.942-4.237-.42-8.47-.912-12.64-1.772a22 22 0 0 0-.764-.146l-.242-.046a57 57 0 0 0-3.973-2.074 96 96 0 0 0-2.386-1.103l.14.043c6.735 2.04 13.74 2.85 20.722 3.509 5.437.51 11.042.939 16.641.939 7.93-.002 15.846-.86 23.239-3.564 1.996-.73 4.002-1.74 5.478-3.302 1.317-1.392 1.14-3.41.982-5.17-.58-6.45.447-12.788 4.267-18.186 1.998-2.824 4.661-4.166 8.049-4.468a7 7 0 0 1 .585-.024c.383 0 .761.027 1.133.054.374.028.739.054 1.096.054.848 0 1.646-.152 2.359-.82.627-.585 1.011-1.35 1.241-2.21.21.544.415 1.094.583 1.67l.011.036c.545 1.883.794 3.69.796 5.434v.077c-1.048-.947-2.348-1.616-3.754-2.023a7.4 7.4 0 0 0-2.076-.304c-3.097 0-5.617 2.047-7.368 4.16-3.603 4.35-7.133 13.946-3.34 20.826.511.926 1.096 1.669 1.74 2.248a54 54 0 0 1-5.365 2.384c-7.467 2.865-15.496 4.077-23.445 4.534-2.222.128-4.446.186-6.672.186"/><path fill="#a3391e" d="M41.385 1.346C36.5.094 30.669 2.034 26.466 4.676c-3.352 2.109-7.155 5.562-8.193 9.678-.088 1.72.648 3.334 1.853 4.684 2.481 2.78 6.557 2.6 9.79 1.81 5.486-1.348 14.09-6.434 15.274-13.115.584-3.31-1.14-5.343-3.805-6.387"/><path fill="#f79453" d="M38.522 15.823a24.3 24.3 0 0 1-9.044 4.395c-2.704.667-5.52.476-7.89-1.08-2.917-1.919-3.39-5.344-1.465-8.29 2.645-4.046 7.996-7.134 12.312-8.506l.021-.02c1.9-.583 3.838-.932 5.924-.783 3.1.226 6.535 1.967 6.288 5.815-.228 3.567-3.67 6.55-6.146 8.47"/><path fill="#a3391e" d="M35.448 4.489c-.7-.17-1.438-.214-2.183-.182a10 10 0 0 0-1.9.468 8.6 8.6 0 0 1 2.447-.192c.777.055 1.585.276 2.232.68-2.7-1.06-6.94 1.286-8.74 2.802-1.346 1.137-3.468 3.33-2.715 5.245-1.42-.992-1.648-2.627-.665-4.047.104-.148.229-.29.349-.434a5.6 5.6 0 0 0-1.33 2.27c-.011.843.39 1.639 1.04 2.306 1.371 1.406 3.594 1.321 5.351.922 2.983-.673 7.638-3.234 8.235-6.609.295-1.67-.66-2.701-2.121-3.23"/><path fill="#9d6cbc" d="M33.99 11.8a13.4 13.4 0 0 1-4.9 2.209c-1.1.25-2.231.236-3.28-.11-.191-.04-.374-.1-.531-.207l-.196-.078.036-.076a1.2 1.2 0 0 1-.272-.41c-.26-.652-.071-1.354.292-1.983.785-1.727 3.106-3.267 4.356-3.961 2.208-1.224 5.138-1.826 7.55-.86.17.346.262.744.236 1.206-.098 1.802-1.953 3.304-3.29 4.27"/><path fill="#a3391e" d="M9.522 19.703C5.092 22.11 2.14 27.498.857 32.295-.163 36.122-.6 41.24 1.44 44.963c1.107 1.319 2.746 2.002 4.547 2.17 3.708.345 6.572-2.556 8.404-5.34 3.103-4.72 5.943-14.303 2.264-20.003-1.822-2.82-4.47-3.136-7.132-2.087"/><path fill="#f79453" d="M17.276 32.26c-.553 3.37-1.812 6.6-3.637 9.373-1.527 2.33-3.72 4.105-6.516 4.576-3.442.581-6.121-1.604-6.714-5.075-.814-4.763 1.004-10.668 3.231-14.61l.003-.031c.996-1.721 2.177-3.295 3.807-4.603 2.427-1.947 6.129-3.006 8.567-.02 2.26 2.768 1.768 7.297 1.259 10.39"/><path fill="#a3391e" d="M7.308 26.042c-.629.358-1.199.827-1.724 1.356a10 10 0 0 0-1.072 1.638c.46-.66.995-1.271 1.661-1.808.606-.49 1.351-.875 2.1-1.02-2.702 1.06-4.21 5.665-4.497 8-.213 1.749-.275 4.8 1.58 5.692-1.715.238-2.994-.803-3.24-2.514-.027-.18-.03-.368-.041-.556-.01.9.175 1.778.571 2.567.565.628 1.4.937 2.33.983 1.964.096 3.532-1.476 4.55-2.966 1.726-2.521 3.393-7.566 1.536-10.444-.922-1.43-2.322-1.532-3.754-.928"/><path fill="#9d6cbc" d="M11.217 32.394a13.5 13.5 0 0 1-2.086 4.953c-.635.935-1.475 1.692-2.48 2.151-.166.103-.34.183-.528.208l-.199.08-.024-.08a1.2 1.2 0 0 1-.477-.117c-.637-.301-.976-.945-1.136-1.648-.601-1.803.053-4.51.495-5.867.783-2.404 2.522-4.837 4.947-5.77.36.137.698.366.994.72 1.153 1.39.816 3.752.494 5.37"/><path fill="#a3391e" d="M75.534 5.017C72.039 1.385 66.062-.034 61.096 0c-3.96.032-9.01.969-12.06 3.925-.977 1.415-1.202 3.173-.888 4.956.65 3.668 4.208 5.66 7.378 6.688 5.373 1.74 15.368 1.94 19.888-3.119 2.236-2.508 1.838-5.145.12-7.434"/><path fill="#f79453" d="M65.483 15.823c-3.396.36-6.844.003-10.003-1.021-2.649-.854-4.942-2.497-6.138-5.068-1.472-3.165-.074-6.328 3.114-7.82C56.831-.133 63.006.054 67.4 1.156l.03-.006c1.92.504 3.753 1.228 5.447 2.452 2.52 1.821 4.526 5.11 2.29 8.255-2.068 2.912-6.564 3.638-9.683 3.966"/><path fill="#a3391e" d="M68.835 4.566c-.508-.51-1.111-.936-1.763-1.3a10 10 0 0 0-1.861-.602c.757.269 1.486.625 2.184 1.124.632.451 1.201 1.07 1.537 1.752-1.739-2.322-6.577-2.558-8.905-2.214-1.742.257-4.702 1.01-5.07 3.033-.685-1.59-.017-3.102 1.564-3.791.167-.074.348-.127.526-.187-.868.23-1.668.637-2.324 1.23-.454.712-.53 1.598-.33 2.509.428 1.918 2.36 3.013 4.066 3.6 2.89.997 8.198 1.268 10.48-1.29 1.13-1.265.86-2.642-.104-3.864"/><path fill="#9d6cbc" d="M63.748 10.02a13.5 13.5 0 0 1-5.33-.7c-1.069-.366-2.022-.975-2.731-1.82a1.4 1.4 0 0 1-.34-.455l-.128-.172.068-.041a1.3 1.3 0 0 1-.015-.491c.125-.693.655-1.193 1.293-1.535 1.575-1.054 4.362-1.145 5.787-1.077 2.523.12 5.33 1.15 6.875 3.24-.038.384-.168.77-.432 1.148-1.032 1.48-3.4 1.784-5.047 1.903"/><path fill="#a3391e" d="M107.115 19.776c-.894-4.96-5.083-9.456-9.234-12.18-3.312-2.17-8.036-4.187-12.212-3.422-1.597.636-2.76 1.979-3.485 3.635-1.495 3.413.364 7.045 2.43 9.657 3.507 4.426 11.714 10.133 18.282 8.428 3.249-.844 4.381-3.258 4.219-6.118"/><path fill="#f79453" d="M92.76 23.197a24.3 24.3 0 0 1-7.757-6.395c-1.733-2.181-2.73-4.821-2.3-7.625.53-3.448 3.447-5.304 6.928-4.782 4.776.727 9.811 4.303 12.858 7.658l.026.01c1.32 1.484 2.444 3.102 3.176 5.062 1.084 2.913.931 6.761-2.673 8.136-3.335 1.278-7.48-.611-10.259-2.064"/><path fill="#a3391e" d="M101.79 15.686c-.137-.71-.404-1.396-.744-2.06a10 10 0 0 0-1.216-1.533 8.8 8.8 0 0 1 1.195 2.145c.274.728.405 1.557.306 2.31-.157-2.895-4.056-5.774-6.182-6.78-1.594-.75-4.471-1.766-5.9-.285.31-1.702 1.702-2.592 3.405-2.29.177.032.359.09.539.138-.851-.292-1.743-.394-2.616-.262-.774.34-1.328 1.033-1.663 1.902-.71 1.834.292 3.818 1.385 5.25 1.852 2.433 6.12 5.6 9.438 4.736 1.641-.426 2.18-1.722 2.053-3.271"/><path fill="#9d6cbc" d="M94.535 17.403a13.5 13.5 0 0 1-4.049-3.538c-.685-.895-1.141-1.93-1.264-3.028a1.35 1.35 0 0 1-.03-.566l-.013-.214.082.004c.056-.147.134-.287.26-.419.49-.51 1.204-.63 1.925-.561 1.897-.003 4.265 1.465 5.416 2.312 2.032 1.498 3.797 3.913 3.923 6.51a2.4 2.4 0 0 1-.995.715c-1.681.659-3.819-.401-5.255-1.215"/><path fill="#a3391e" d="M48.616 21.826c-4.79-2.056-10.755-.488-15.143 2.097-3.501 2.066-7.545 5.652-8.88 10.344-.21 2.002.408 3.981 1.516 5.707 2.281 3.552 6.365 3.836 9.655 3.295 5.576-.915 14.539-5.832 16.198-13.512.82-3.8-.757-6.389-3.346-7.931"/><path fill="#f79453" d="M44.721 38.43c-2.849 2.123-6.073 3.512-9.349 4.05-2.753.458-5.55-.107-7.81-2.216-2.774-2.596-3.003-6.663-.87-9.882 2.933-4.412 8.501-7.384 12.912-8.47l.024-.023c1.939-.452 3.9-.625 5.972-.199 3.083.638 6.392 3.087 5.87 7.566-.483 4.148-4.137 7.225-6.749 9.174"/><path fill="#a3391e" d="M42.464 24.787c-.691-.282-1.423-.42-2.172-.473a8.5 8.5 0 0 0-1.933.319 7.5 7.5 0 0 1 2.46.066c.773.16 1.566.516 2.182 1.07-2.62-1.57-7.027.666-8.932 2.224-1.428 1.166-3.706 3.48-3.09 5.813-1.346-1.332-1.458-3.276-.375-4.819.114-.162.253-.309.38-.464a6.4 6.4 0 0 0-1.49 2.495c-.073.988.27 1.964.872 2.827 1.272 1.81 3.496 1.978 5.284 1.724 3.028-.43 7.863-2.867 8.7-6.744.415-1.923-.467-3.242-1.886-4.038"/><path fill="#9d6cbc" d="M40.479 33.171a11.85 11.85 0 0 1-5.054 1.996c-1.117.162-2.246.006-3.27-.525a1.4 1.4 0 0 1-.512-.305l-.194-.119.043-.08a1.5 1.5 0 0 1-.244-.512c-.21-.803.028-1.596.435-2.288.908-1.93 3.338-3.45 4.636-4.112 2.293-1.17 5.262-1.517 7.606-.099.146.428.208.904.151 1.44-.23 2.096-2.19 3.631-3.597 4.604"/><path fill="#a3391e" d="M89.307 31.92c-1.744-4.91-6.95-8.223-11.827-9.687-3.893-1.167-9.272-1.698-13.624.51-1.61 1.206-2.642 3.003-3.156 4.99-1.056 4.085 1.51 7.276 4.14 9.323 4.46 3.47 14.156 6.708 20.92 2.706 3.347-1.977 4.175-4.896 3.547-7.841"/><path fill="#f79453" d="M74.475 40.34c-3.494-.646-6.703-2.071-9.324-4.11-2.206-1.708-3.692-4.145-3.676-7.235.02-3.801 2.848-6.732 6.66-7.353 5.23-.843 11.192 1.224 14.985 3.721l.032.003c1.65 1.115 3.11 2.439 4.205 4.248 1.626 2.695 2.074 6.79-1.565 9.445-3.373 2.466-8.11 1.874-11.317 1.28"/><path fill="#a3391e" d="M82.951 29.414c-.26-.697-.653-1.33-1.125-1.913a8.4 8.4 0 0 0-1.547-1.202 7.5 7.5 0 0 1 1.623 1.85c.408.673.683 1.5.696 2.326-.63-2.988-5.263-4.7-7.7-5.042-1.827-.255-5.07-.352-6.365 1.683.062-1.894 1.414-3.296 3.281-3.549.197-.027.401-.027.6-.04a6.4 6.4 0 0 0-2.844.606c-.773.619-1.256 1.533-1.48 2.559-.467 2.162.923 3.909 2.323 5.049 2.37 1.93 7.445 3.819 10.86 1.801 1.692-1.001 2.061-2.544 1.678-4.128"/><path fill="#9d6cbc" d="M75.454 33.655a11.86 11.86 0 0 1-4.9-2.352c-.875-.71-1.53-1.645-1.834-2.757a1.34 1.34 0 0 1-.124-.584l-.045-.22.087-.025c.035-.172.097-.344.213-.53.441-.694 1.188-1.06 1.97-1.232 2.034-.64 4.803.106 6.17.608 2.416.89 4.688 2.831 5.237 5.516-.213.396-.52.767-.952 1.088-1.696 1.255-4.153.863-5.822.488"/><path fill="#a3391e" d="M102.412 57.595c4.961-1.596 8.431-6.696 10.041-11.526 1.284-3.858 1.979-9.217-.098-13.637-1.156-1.644-2.919-2.73-4.891-3.302-4.053-1.181-7.317 1.288-9.444 3.856-3.604 4.35-7.133 13.945-3.34 20.825 1.877 3.407 4.768 4.324 7.732 3.784"/><path fill="#f79453" d="M94.446 42.517c.752-3.472 2.272-6.64 4.39-9.196 1.774-2.154 4.257-3.564 7.344-3.455 3.797.132 6.641 3.048 7.148 6.879.685 5.254-1.56 11.152-4.174 14.865l-.002.032c-1.166 1.614-2.531 3.037-4.374 4.073-2.742 1.546-6.85 1.87-9.395-1.85-2.36-3.444-1.627-8.163-.937-11.348"/><path fill="#a3391e" d="M105.108 51.32c.707-.24 1.351-.614 1.95-1.066.465-.44.878-.952 1.245-1.512a7.4 7.4 0 0 1-1.896 1.564c-.687.39-1.52.638-2.348.628 3.007-.54 4.859-5.118 5.275-7.545.306-1.818.505-5.056-1.49-6.414 1.891.12 3.252 1.514 3.448 3.389.019.197.014.4.019.6a6.4 6.4 0 0 0-.516-2.862c-.595-.79-1.495-1.302-2.513-1.556-2.148-.53-3.938.806-5.118 2.17-2.001 2.31-4.044 7.326-2.129 10.8.951 1.72 2.48 2.137 4.073 1.805"/><path fill="#9d6cbc" d="M101.098 43.697a11.9 11.9 0 0 1 2.5-4.827c.736-.852 1.691-1.477 2.811-1.748.185-.073.383-.123.588-.11l.223-.037.02.088c.172.042.341.107.521.228.681.463 1.029 1.222 1.175 2.011.581 2.05-.252 4.794-.798 6.144-.96 2.39-2.97 4.604-5.669 5.068a3.3 3.3 0 0 1-1.059-.983c-1.204-1.731-.736-4.178-.312-5.834"/><path fill="#fcd887" d="M5.636 45.414c-1.155 0-2.307-.51-3.162-1.537C.776 41.834.209 39 1.149 36.494c.029-.079.198-.225.286-.225.04 0 .064.03.048.116-.39 1.986.464 4.438 1.89 5.88 1.03 1.041 1.99 1.45 3.082 1.45.678 0 1.407-.158 2.235-.416a.4.4 0 0 1 .1-.018c.305 0 .006.658-.095.764-.859.91-1.961 1.37-3.059 1.37M29.839 37.013c-1.787 0-3.334-.928-3.264-3.208.077-2.448 1.636-5.176 3.87-6.267a.2.2 0 0 1 .075-.021c.125 0 .038.268-.03.337-1.327 1.37-2.753 3.324-2.474 5.365.3 2.199 2.33 2.523 4.192 2.766.303.041-.055.554-.195.608a6.1 6.1 0 0 1-2.174.42M22.466 17.476c-2.03 0-2.887-2.016-2.523-3.998.383-2.061 1.752-3.938 3.284-5.322.055-.05.102-.07.141-.07.103 0 .138.142.034.274-.963 1.262-1.857 2.894-2.09 4.488-.305 2.112.95 2.618 2.244 3.916.2.2-.108.576-.316.622q-.412.092-.774.09M51.382 9.993a.2.2 0 0 1-.125-.047c-1.692-1.317-2.101-3.587-.877-5.399 1.163-1.722 3.053-2.601 5.057-2.942l.024-.003c.141 0-.015.267-.09.304-1.4.659-3.39 1.504-4.074 3.016-.656 1.444.043 2.996.496 4.392.06.187-.167.679-.41.679M64.42 32.28a.23.23 0 0 1-.134-.045c-4.336-3.132.611-9.532 4.571-9.972h.025c.194 0 .004.31-.065.367-1.299 1.067-3.012 1.992-3.939 3.433-1.178 1.834-.302 3.588.062 5.506.041.214-.248.712-.52.712M85.333 14.224c-.05 0-.096-.024-.14-.082-1.145-1.526-2.077-4.176-1.341-6.06.536-1.372 1.802-2.948 3.4-2.948q.198 0 .403.034c.129.02-.013.217-.056.252-.723.588-1.883 1.092-2.273 1.993-.303.703-.246 1.461-.16 2.205.162 1.348.522 2.698.574 4.052.005.159-.21.554-.407.554M86.28 16.263l-.022-.001c-.537-.047-.482-.704-.39-1.104.015-.066.203-.3.32-.3.031 0 .058.018.074.064.112.328.422.386.498.741.054.244-.228.6-.48.6M95.458 44.571c-.08 0-.136-.058-.147-.212-.37-5.217 4.383-13.365 10.146-13.428h.001c.253 0-.063.464-.163.508-2.76 1.236-5.082 2.931-6.532 5.66-1.174 2.211-1.725 4.574-2.633 6.882-.05.13-.45.59-.672.59M94.914 47.624c-.096 0-.159-.069-.136-.258.045-.357.196-.672.195-1.041.001-.122.266-.467.43-.467.042 0 .078.024.1.084.164.45.158.874-.053 1.307-.072.144-.36.374-.536.374"/><path fill="#9e2b9a" d="M9.255 32.242c.734-.85 1.377-1.79 1.189-2.957-.045-.274-.324-.21-.49-.095-.406.281-.766.664-1.095 1.077.017-.58-.02-1.152-.235-1.742-.165-.452-.805.241-.884.408-.432.908-.51 1.884-.461 2.866-.721-.205-1.479-.033-2.139.488-.132.104-.5.566-.233.722.556.328 1.105.4 1.708.444-.68 1.04-1.178 2.312-.842 3.518.078.283.385.171.533 0 .36-.416.615-.866.845-1.333.04.57.216 1.11.664 1.564.205.207.592-.244.656-.393.309-.738.325-1.436.336-2.156 1.288.618 2.414-2.259.448-2.41M32.524 10.486c1.115-.148 2.22-.421 2.853-1.42.15-.234-.102-.372-.303-.397-.491-.061-1.015-.013-1.534.077.401-.421.752-.873.983-1.457.176-.45-.764-.356-.934-.283-.925.392-1.629 1.072-2.247 1.836-.403-.63-1.084-1.005-1.922-1.056-.168-.01-.75.092-.655.386.2.614.56 1.033.982 1.466-1.2.327-2.418.947-2.965 2.07-.131.264.173.385.398.355.543-.073 1.036-.237 1.518-.434-.35.452-.576.97-.542 1.61.015.288.603.21.75.14.722-.343 1.198-.855 1.682-1.389.553 1.316 3.308-.082 1.936-1.504M39.278 30.97c1.115-.15 2.22-.425 2.855-1.422.148-.234-.104-.371-.305-.396-.491-.06-1.014-.014-1.534.075.4-.418.752-.873.982-1.458.177-.447-.763-.352-.931-.279-.925.392-1.632 1.07-2.248 1.838-.404-.635-1.084-1.009-1.923-1.057-.168-.012-.749.088-.654.384.2.615.56 1.032.981 1.467-1.199.325-2.416.945-2.964 2.07-.13.265.172.383.399.353.542-.07 1.034-.236 1.516-.435-.348.453-.575.973-.542 1.61.016.291.603.212.752.14.72-.34 1.195-.854 1.682-1.387.552 1.318 3.306-.083 1.934-1.503M63.024 8.462c.964.576 2 1.05 3.116.661.264-.09.153-.354.01-.5-.346-.35-.783-.64-1.249-.894.578-.08 1.134-.215 1.676-.53.418-.24-.376-.752-.553-.798-.97-.268-1.944-.178-2.905.037.078-.745-.219-1.463-.846-2.021-.126-.114-.644-.395-.751-.106-.228.603-.205 1.158-.145 1.758-1.14-.49-2.482-.764-3.61-.224-.264.125-.102.409.092.525.47.281.959.459 1.459.603-.556.137-1.056.402-1.424.924-.171.236.338.538.497.576.779.181 1.47.076 2.183-.04-.389 1.376 2.64 1.993 2.45.029M95.55 15.814c.45 1.032 1.017 2.016 2.15 2.352.267.082.328-.2.299-.4-.077-.488-.267-.976-.497-1.454.517.272 1.049.484 1.673.548.479.045.13-.835.015-.976-.631-.782-1.478-1.276-2.384-1.658.498-.561.672-1.318.489-2.138-.037-.166-.295-.696-.55-.524-.537.358-.84.822-1.14 1.349-.643-1.065-1.574-2.065-2.806-2.285-.287-.054-.32.27-.232.478.219.506.515.932.835 1.342-.53-.212-1.092-.287-1.696-.079-.275.095-.036.637.072.76.528.6 1.149.916 1.797 1.237-1.116.89.987 3.155 1.976 1.448M75.778 30.883c.672.899 1.451 1.73 2.632 1.796.276.019.275-.268.198-.457-.186-.456-.483-.892-.816-1.304.565.147 1.132.233 1.753.15.477-.062-.063-.84-.208-.95-.793-.617-1.73-.905-2.7-1.07.356-.66.352-1.437-.013-2.19-.075-.156-.446-.612-.655-.387-.441.472-.632.994-.803 1.574-.869-.888-2.005-1.651-3.253-1.583-.292.015-.25.34-.116.519.328.441.712.79 1.119 1.114-.566-.084-1.128-.026-1.668.312-.248.155.108.628.245.726.648.461 1.325.626 2.03.793-.882 1.121 1.683 2.845 2.255.957M103.899 43.396c-.845.74-1.612 1.58-1.588 2.76.003.277.288.253.468.162.444-.22.853-.55 1.237-.912-.1.575-.144 1.144-.013 1.758.103.472.831-.126.932-.282.557-.837.769-1.792.86-2.77.684.302 1.459.24 2.184-.186.147-.082.575-.49.332-.681-.504-.403-1.037-.552-1.629-.681.821-.932 1.49-2.122 1.328-3.364-.038-.291-.356-.223-.528-.074-.415.362-.734.77-1.024 1.199.04-.57-.059-1.125-.439-1.637-.173-.235-.617.156-.704.298-.411.684-.523 1.372-.635 2.087-1.186-.793-2.708 1.897-.781 2.323"/></svg>