<svg xmlns="http://www.w3.org/2000/svg" width="112" height="92" fill="none" viewBox="0 0 112 92"><path fill="#8f2678" d="M96.615 28.695c-2.176.132-4.386 1.475-5.591 3.261-.733 1.088-1.035 2.451-1.435 3.683-.249.768-.553 1.503-1.061 2.142-1.087 1.365-1.372-.13-1.612-1.115-.744-3.079.477-6.403.708-9.485.2-2.7-.637-5.393-3.161-6.72-2.272-1.195-5.052-.231-6.579 1.665-1.99 2.47-1.163 5.49.29 7.958 1.005 1.709 2.254 3.291 3.029 5.126.765 1.813.944 3.825 1.63 5.669.447 1.203 1.346 2.003 2.227 2.883 1.187 1.184 2.03 2.598 2.39 4.238.273 1.235.102 2.522-.545 3.548-1.714 2.322-4.584 2.664-6.982 1.348a3.9 3.9 0 0 1-1.048-1.006l-.166-.266c-.729-.933-1.006-2.173-.721-3.442.377-1.686 1.305-3.07 1.27-4.856-.045-2.344-1.478-4.123-3.253-5.49-2.078-1.6-4.526-2.664-6.434-4.494-2.22-2.127-2.767-5.168-1.318-7.892 2.558-4.808 8.639-7.087 10.539-12.316 1.359-3.735-1.741-11.336-6.464-7.917-2.152 1.562-2.188 4.029-2.417 6.438-.09.939-.287 1.88-.996 2.555-.648.617-.619.212-.743-.377-.227-1.057-.164-2.185-.12-3.257.117-2.871 1.38-9.202-2.481-10.34-2.143-.63-4.916.062-6.675 1.38-1.401 1.053-1.712 2.81-1.44 4.44.367 2.198 1.659 4.255 2.775 6.138 1.184 1.994 2.614 3.911 2.549 6.334-.061 2.324-1.33 4.498-2.327 6.677-.51 2.106-.49 4.098.151 5.965q.52 1.009 1.435 1.94c1.044 1.059 2.324 1.854 3.59 2.61 1.178.696 2.81 1.4 3.271 2.802.344 1.045-1.107 1.683-1.884 1.636-.407-.027-.827-.282-1.179-.47-.629-.34-1.2-.718-1.888-.937-.76-.242-1.96.041-2.369.795-1.312 2.42 2.527 3.469 4.152 4.033 2.819.976 6.212 2.55 5.092 6.152-.836 2.69-3.152 5.439-5.752 6.55-1.139.486-2.332.415-3.352-.287-2.223-1.53-.853-4.35-.213-6.313 1.073-3.288-.256-5.667-2.43-8.094-.825-.92-1.721-1.812-2.569-2.739-1.035-1.032-1.995-2.124-2.628-3.481-.83-1.774-1.023-4.173-.148-6.001.47-1.503 1.23-2.968 1.799-4.287.989-2.29 1.85-4.868 1.158-7.365-.548-1.986-2.253-3.551-4.04-4.447-1.364-.685-3.145-1.019-4.424-.004-1.568 1.246-.997 3.835-.352 5.368.668 1.596 1.764 2.947 2.322 4.6.756 2.255-.416 4.727-1.04 6.87-.851 2.92-.744 6 .629 8.732 1.17 2.327 3.13 4.249 4.843 6.176.96 1.084 2.034 2.012 2.818 3.245.77 1.209.656 2.228.111 3.112-.67 1.732-2.696 3.474-2.965 5.16-.352 2.222.2 4.512.014 6.75-.084 1.034.016 2.54-.708 3.394-1.568 1.842-2.924-.28-3.049-1.918-.153-2.04.463-4.05.49-6.086.02-1.376-.358-2.54-.791-3.718a14 14 0 0 0-.987-1.596c-.75-1.062-1.615-2.125-1.699-3.471-.11-1.743.743-3.517 1.088-5.195.571-2.771-1.556-4.658-2.89-6.847-.883-1.447-1.054-2.664-.548-4.273.536-1.71 1.292-3.342 1.79-5.066.831-2.885 1.046-6.25-1.497-8.348-1.77-1.464-4.628-2.306-6.832-1.473-1.876.71-2.653 2.873-1.953 4.66.428 1.092 1.265 2.019 1.976 2.932.393.504.756 1.02 1.074 1.573.475.825 1.156 3.452-.694 3.543-1.191.055-2.611-1.741-3.443-2.421-1.564-1.279-3.65-2.223-5.55-2.857-3.194-1.067-6.438-.173-8.782 2.167-1.737 1.734-2.65 4.247-1.401 6.506.897 1.62 2.882 2.206 4.577 2.527 4.576.866 10.127-.14 14.008 2.963 1.043.837 1.717 2.037 2.1 3.294.584 1.92-.407 4.096-.757 5.977-.599 3.235 1.174 5.636 3.117 7.999 2.256 2.737 3.932 7.245.821 10.11-.944.872-3.864 1.823-4.426.083-.395-1.218-.343-3.28-.043-4.45.3-1.174-.167-2.052-1.12-2.719-.972-.679-1.381-1.107-1.44-2.408-.05-1.078.241-2.158.243-3.24.005-3.018-3.118-4.647-5.75-3.932-1.997.54-4.224 3.019-3.984 5.195.108.974.727 1.588 1.46 2.177 1.18.95 2.386 1.84 2.972 3.299 1.094 2.73-2.761 3.374-4.557 2.733-3.035-1.081-2.312-4.542-1.58-6.907.657-2.121.83-4.021-1.196-5.397-1.097-.747-2.513-1.127-3.82-1.26-1.299-.132-2.057-.315-2.827-1.47-1.196-1.8-1.32-4.87-3.473-5.842-2.561-1.155-5.939-.14-8.175 1.258-2.173 1.358-3.69 3.59-3.918 6.152-.162 1.803.457 3.686 1.78 4.828 1.384.695 3.02.98 4.576.991.872.007 1.762-.048 2.657-.103 1.636-.1 3.287-.2 4.87.075 1.274.22 2.993.808 2.98 2.353l.045.142.006.023c.056.167.099.342.106.54.085 2.285-4.662 2.269-7.22 2.253-.488-.003-.898-.007-1.178.007-3.326.149-6.604.145-9.14 2.622-1.468 1.43-2.476 3.808-1.568 5.78 1.167 2.532 4.867 1.798 6.88 1.135 3.903-1.282 7.408-3.374 11.65-3.28 2.061.046 4.088.52 5.949 1.404 1.825.865 3.421 2.133 4.444 3.893.804 1.38.71 2.844.21 4.213a6.2 6.2 0 0 1-.922 1.993 9 9 0 0 1-.521.667c-1.058 1.643-2.315 3.871-.492 5.306 1.058.834 2.834.838 4.096.89a48 48 0 0 0 2.345.02c.796-.005 1.592-.012 2.388.023 8.963.394 18.003.53 26.972.315 5.95-.143 12.048-.547 17.967-1.663.942-.261 1.925-.567 2.638-1.227.263-.242.466-.51.648-.788.147-.326.236-.689.264-1.062.148-2.027-1.112-4.24-1.968-5.995l-.438-.903c-1.396-2.14-2.38-4.518-2.127-7.108.028-1.192.439-2.173 1.064-3.088.376-.649.816-1.254 1.281-1.765.192-.21.384-.392.579-.56l.057-.07-.013.034.065-.05c.215-.209.443-.393.66-.54.399-.267.82-.48 1.255-.66.743-.385 1.61-.564 2.412-.722 1.99-.393 4.048-.53 5.863-1.513 1.778-.966 2.58-2.815 2.784-4.747.286-2.71-1.214-4.964-2.431-7.237-.693-1.296-1.08-2.638-.824-4.11.33-1.904 1.645-3.206 2.99-4.458 1.72-1.604 4.138-3.55 4.427-6.064.284-2.456-1.481-4.17-3.882-4.023"/><path fill="#b956b2" d="M99.202 34.555c-.869 1.483-2.317 2.639-3.56 3.795-1.871 1.742-3.377 3.81-3.356 6.483.022 2.517 1.956 4.588 2.844 6.827 1.084 2.734.582 6.004-2.333 7.184-1.561.632-3.327.746-4.967 1.05-2.577.484-4.688 1.993-6.325 4.006-1.107 1.364-1.824 2.99-1.87 4.762-.018.64.034 1.286.122 1.928.821 2.94 2.435 5.586 3.41 8.473.367.86.68 1.744.873 2.659.186.887.061 1.406-.39 1.742-.354.516-1.176.706-1.898.822-.57.153-1.161.238-1.643.304q-1.177.155-2.357.281c-4.808.705-9.66 1.088-14.588 1.203-8.787.21-17.638.029-26.418-.331-.892-.036-1.782-.032-2.674-.03-.547.003-1.095.006-1.642 0-1.55-.02-3.664-.02-4.794-1.253-1.136-1.237.837-3.589 1.516-4.64q.144-.221.281-.454l.059.012.158-.28-.06-.012c.54-.97.954-2.04.996-3.14.138-3.587-2.912-6.314-6.06-7.336-1.137-.371-2.312-.587-3.496-.727-3.28-.388-6.237-.07-9.28 1.25-2.842 1.237-6.17 3.189-9.34 2.176C.59 70.727.16 68.887.701 67.235c.716-2.183 2.828-3.521 4.948-4.056 2.011-.507 4.164-.498 6.294-.49 1.128.006 2.25.01 3.342-.062 1.911-.125 4.358-.64 4.74-2.852.778-4.472-8.254-3.516-10.657-3.516-1.337 0-2.692-.102-3.925-.657-1.678-.755-2.276-2.551-2.448-4.254-.404-4.014 3.664-6.75 7.13-7.406 1.487-.28 3.411-.219 4.683.674.984.693 1.18 2.267 1.601 3.31.408 1.01.964 2.333 1.835 3.033.747.601 1.617.586 2.528.68 1.563.157 3.321.81 4.387 2 1.026 1.148.468 2.815.072 4.094-.642 2.071-1.25 4.38.185 6.27 1.97 2.59 7.552 1.585 7.319-2.086-.162-2.51-2.828-3.486-4.206-5.172-.48-.589-.517-1.266-.302-1.928.04-1.19 1.14-2.203 2.17-2.765 1.524-.833 3.142-1.221 4.688-.217 2.358 1.532 1.357 4.976 1.486 7.692.393 1.31 1.486 1.419 2.342 2.59.548.753-.134 2.197-.07 3.08.044.57.114 1.14.14 1.71.036.797.078 1.65.756 2.172.841.65 2.558.083 3.385-.255 1.13-.46 1.925-1.46 2.446-2.524 1.184-2.414.84-5.342-.494-7.598-1.864-3.155-4.965-5.211-4.341-9.33.381-2.529 1.255-4.649.54-6.925-1.206-2.223-3.25-3.785-5.812-4.496-3.043-.84-6.104-.435-9.192-.828-2.072-.263-5.282-1.008-5.926-3.394a4.3 4.3 0 0 1-.138-1.343c.01-.557.154-1.12.404-1.666.24-.548.576-1.058.978-1.517.883-1.05 2.064-1.905 3.178-2.316 3.91-1.44 8.613.965 11.601 3.456.835.696 1.81 1.744 2.988 1.685.828-.04 1.365-1.107 1.564-1.78.608-2.07-.919-3.765-2.087-5.304-.753-.992-1.537-2.068-1.566-3.36-.046-2.04 2.252-2.525 3.8-2.409 2.856.217 5.441 2.037 6.09 4.868.783 3.405-1.464 7.044-2.37 10.229-.675 2.372.756 4.296 2.07 6.156.716 1.015 1.543 2.055 1.62 3.34.095 1.6-.732 3.286-1.057 4.828-.472 2.23.339 3.638 1.599 5.425.65.923 1.176 1.84 1.546 2.831l-.005.058c.427 1.81.203 3.817.15 5.734a32 32 0 0 0-.183 1.756c-.087 1.207.1 2.367 1.021 3.204.724.66 1.65.474 2.299-.14 1.51-1.429 1.555-4.088 1.356-5.978-.275-2.628-.758-4.907.898-7.196.511-.703 1.113-1.373 1.567-2.12.181-.195.355-.402.504-.637 1.819-2.907-1.632-5.61-3.323-7.514-2.146-2.415-4.533-4.824-5.38-8.036-1.046-3.956 1.24-7.424 1.528-11.266.27-3.555-3.228-5.973-3.164-9.513.051-2.81 3.618-1.668 5.054-.832 2.288 1.333 3.59 3.606 3.424 6.249-.266 4.283-4.003 8.298-3.487 12.455.179 2.446 1.599 4.446 3.295 6.279 2.357 2.545 6.066 5.057 5.412 8.99-.458 2.758-3.003 5.911-.161 8.251 1.694 1.396 3.987.32 5.491-.786 3.238-2.383 7.032-8.187 2.742-11.332-1.114-.815-2.508-1.238-3.796-1.678-.648-.221-5.483-1.936-3.602-3.244 1.432-.997 2.94.886 4.25 1.172 1.106.243 2.121-.316 2.688-1.286 1.23-2.12-2.003-3.58-3.388-4.4-3.31-1.96-6.288-4.752-5.19-8.71.386-1.152.918-2.303 1.458-3.48 1.07-2.33 1.96-4.916.961-7.431-.763-1.916-2.059-3.629-3.076-5.41-1.062-1.856-2.544-4.444-1.78-6.65C58.9 1.14 62.613.579 64.588.805c1.988.23 2.776 1.971 3.02 3.74.418 3.03-.724 6.448-.127 9.48.361.468.861.803 1.41.887 1.558-1.223 1.615-3.361 1.785-5.306.168-1.953.946-3.718 2.958-4.362 1.432-.46 2.751.55 3.566 1.612 2.034 2.654 1.653 6.174-.334 8.68-1.809 2.284-4.22 4.06-6.27 6.12-1.684 1.695-3.21 3.644-3.734 6.02a6 6 0 0 0-.128 1.683c.11.985.406 1.926.98 2.73 1.574 2.196 4.09 3.652 6.326 5.079 1.613 1.032 3.452 2.27 4.184 4.133.666 1.702.494 3.367-.122 4.98-.438 1.234-.98 2.412-.853 3.763.128 1.372 1.095 2.455 2.221 3.132l.126.07c1.658 1.25 4.112 1.295 5.904.25a5.2 5.2 0 0 0 1.185-.81c1.701-1.56 1.783-4.157 1.132-6.21-.412-1.31-1.252-2.433-2.187-3.416-1.256-1.321-2.06-2.26-2.594-4.078-.474-1.613-.682-3.313-1.407-4.845-.859-1.81-2.085-3.425-3.097-5.148-1.178-2.006-1.748-4.318-.324-6.383 1.07-1.549 3.118-1.993 4.861-1.637 3.883.791 4.128 5.218 3.699 8.33-.17 1.231-.408 2.477-.556 3.724-.008 1.022-.004 2.047.124 3.057.096.77.05 1.817.737 2.365l.345.243c.336.04.691.009 1.035-.097 1.496-1.39 1.828-3.703 2.61-5.571 1.045-2.493 5.047-4.456 7.526-2.932 1.585.972 1.428 3.082.613 4.468"/><path fill="#ec8ecc" d="M15.158 68.733h.002zm24.292-1.842c-.173-1.186-.09-2.677.147-3.607-.236.927-.315 2.404-.145 3.587zm-12.302-2.61c-2.716-1.188-2.016-4.506-1.307-6.798-.707 2.284-1.393 5.58 1.29 6.78zm-16.094-2.249q.24-.011.592-.01l.566.002.002.002-.578-.003c-.228 0-.426.001-.582.01m71.738-8.372c-.964 0-1.951-.26-2.868-.764.916.503 1.9.761 2.862.761.423 0 .842-.05 1.248-.152l.007.003a5.2 5.2 0 0 1-1.25.152M68.877 38.452a2.7 2.7 0 0 0-.417-.725v-.016c.174.224.318.47.417.741m31.649-6.125v-.005zm-62.444-1.432c-.444-.31-.88-.723-1.273-1.105.392.381.828.791 1.27 1.102q.002 0 .003.003M68.048 12.98v-.01z"/><path fill="#83185d" d="M28.736 79.523a6.2 6.2 0 0 0 .741-1.722c.239-.653.386-1.327.386-2.003a4.3 4.3 0 0 0-.595-2.21c-1.023-1.76-2.619-3.029-4.444-3.894a14.6 14.6 0 0 0-5.95-1.403l-.284-.002q-.38 0-.757.022c-.918.055-1.806.207-2.674.422.185-.247.34-.503.447-.762.96-.164 1.93-.242 2.92-.242.817 0 1.648.053 2.503.154 1.184.14 2.359.356 3.496.727 3.148 1.023 6.198 3.75 6.06 7.336-.043 1.1-.457 2.17-.996 3.14l.06.012-.148.26-.053.01-.016-.002-.004.006q-.348.07-.692.151m51.612-7.157a20 20 0 0 1-.592-1.776 12 12 0 0 1-.123-1.928c.047-1.772.764-3.397 1.87-4.762q.202-.244.412-.48.172.197.329.411l.033.048c-.319.4-.618.84-.885 1.302-.626.914-1.036 1.896-1.064 3.088a9 9 0 0 0-.039.673c-.164 1.128.08 2.285.059 3.424m-40.721-3.382c-.571-.527-.611-1.326-.645-2.077-.025-.57-.096-1.14-.14-1.709-.063-.884.62-2.328.071-3.081-.856-1.171-1.95-1.28-2.342-2.59-.13-2.716.872-6.16-1.486-7.692a3.56 3.56 0 0 0-1.977-.599c-.348 0-.696.048-1.043.135a3.5 3.5 0 0 0-.842-.285l.306-.1a4.8 4.8 0 0 1 1.265-.167c2.269 0 4.48 1.55 4.485 4.084v.015c-.002.997-.248 1.993-.248 2.987q-.001.127.005.253c.058 1.301.468 1.73 1.44 2.408.76.532 1.21 1.197 1.21 2.04q0 .322-.09.678c-.237.93-.32 2.422-.147 3.607a5.9 5.9 0 0 0 .178 2.093M.285 67.21a6.6 6.6 0 0 1 1.482-2.406q.007-.009.014-.015 0-.002.003-.004l.012-.012q.002-.002.005-.006l.01-.01.007-.007.004-.004.014-.014.001-.001.015-.015.004-.004.012-.011.007-.007.009-.01.01-.009.005-.005.014-.014c2.536-2.477 5.813-2.473 9.14-2.622.156-.008.353-.01.581-.01l.58.003c.75.236 1.471.483 2.11.646-.51.017-1.025.02-1.543.02q-.42 0-.838-.002l-.842-.001c-1.852 0-3.705.05-5.452.49-2.05.516-4.09 1.784-4.872 3.84q-.248.089-.492.19m28.262-1.762c-1.22-.035-2.415-.501-3.131-1.444-1.436-1.889-.827-4.198-.186-6.27.396-1.279.955-2.945-.072-4.094-1.065-1.19-2.824-1.843-4.386-2-.91-.093-1.781-.079-2.528-.68-.87-.7-1.427-2.023-1.835-3.033-.421-1.043-.617-2.617-1.601-3.31-.85-.597-1.993-.822-3.101-.822-.55 0-1.09.055-1.582.148a8 8 0 0 0-.528.115 5.5 5.5 0 0 0-1.187-.311c1.146-.444 2.398-.733 3.61-.733q.543 0 1.068.08c.497.078.979.216 1.436.421 2.153.972 2.277 4.043 3.473 5.841.77 1.156 1.528 1.339 2.827 1.472 1.306.132 2.723.512 3.82 1.259 1.219.828 1.641 1.845 1.641 2.986.002.757-.184 1.566-.445 2.411-.71 2.293-1.41 5.61 1.306 6.799.4.463.874.856 1.4 1.165M84.85 61.76a5 5 0 0 0-.337-.564 10 10 0 0 1 1.534-.78c.45.204.952.362 1.37.487-.725.146-1.482.327-2.142.668a8 8 0 0 0-.425.19m-34.063-1.025c.052-1.305.059-2.61-.228-3.824l.005-.057c-.37-.992-.896-1.908-1.546-2.832-1.26-1.787-2.071-3.195-1.6-5.425.326-1.542 1.153-3.227 1.057-4.827-.076-1.286-.903-2.326-1.619-3.34-1.315-1.86-2.745-3.784-2.07-6.157.906-3.184 3.153-6.823 2.37-10.229-.612-2.665-2.938-4.433-5.592-4.813a3.37 3.37 0 0 0-2.032-.65q-.142 0-.285.01a5.5 5.5 0 0 1 1.639-.236c1.325 0 2.703.412 3.853 1.068q.578.33 1.064.73c1.53 1.263 2.061 2.983 2.061 4.782 0 1.192-.233 2.417-.564 3.566-.498 1.724-1.255 3.355-1.79 5.066-.189.597-.282 1.141-.282 1.661.002.883.275 1.703.83 2.612 1.184 1.942 2.989 3.645 2.985 5.938q.001.439-.095.909c-.325 1.58-1.1 3.244-1.099 4.888q.001.154.011.307c.084 1.346.95 2.41 1.699 3.472.374.53.704 1.057.986 1.596.425 1.15.794 2.286.794 3.62q0 .047-.002.097c-.009.68-.084 1.359-.174 2.035q-.188.011-.376.033m44.401-2.858a8 8 0 0 0-.548-.387c1.225-1.547 1.28-3.831.488-5.828-.621-1.568-1.756-3.054-2.388-4.667q.366-.283.73-.567.186.467.433.923c.455.85.948 1.695 1.373 2.563-.09 1.032.361 2.098.983 3.034l.05.075a6.6 6.6 0 0 1 .025 1.566c-.126 1.19-.48 2.347-1.146 3.288M82.7 54.234c-1.114 0-2.222-.324-3.105-.99l-.123-.067q.067-.25.173-.482.135.106.278.201c.918.505 1.904.764 2.868.764q.638 0 1.25-.151.161.041.33.06l.008.027q.094.16.209.32a5.7 5.7 0 0 1-1.889.318m-5.312-3.501a3.3 3.3 0 0 1-.14-.69 4.6 4.6 0 0 1 .064-1.281l.03.077c.234.615.196 1.256.046 1.894m-16.452-.323c.25-.7.485-1.393.596-2.064.654-3.933-3.055-6.445-5.413-8.99-1.696-1.834-3.116-3.834-3.294-6.28-.516-4.157 3.221-8.171 3.486-12.455.166-2.643-1.136-4.915-3.424-6.249a7.7 7.7 0 0 0-1.344-.602 3.25 3.25 0 0 0-2.196-.856q-.357 0-.694.079a3.2 3.2 0 0 1 1.542-.366c.843 0 1.711.266 2.455.64 1.787.896 3.492 2.462 4.04 4.447.175.63.25 1.263.25 1.897 0 1.88-.669 3.755-1.408 5.468-.57 1.319-1.33 2.784-1.8 4.287-.392.822-.57 1.757-.571 2.7a7.9 7.9 0 0 0 .72 3.301c.633 1.358 1.593 2.45 2.628 3.482.848.927 1.744 1.818 2.57 2.739 1.646 1.838 2.808 3.65 2.807 5.85 0 .704-.118 1.446-.378 2.243q-.108.322-.231.672a6 6 0 0 0-.342.057m18.306-7.43-.24-.111a5 5 0 0 0-.41-.162 6.2 6.2 0 0 0-.368-1.407c-.733-1.863-2.571-3.1-4.184-4.133-2.237-1.426-4.752-2.883-6.327-5.08-.574-.803-.87-1.744-.979-2.73a6 6 0 0 1 .128-1.681c.524-2.376 2.05-4.326 3.733-6.02 2.05-2.06 4.462-3.837 6.271-6.12 1.987-2.506 2.368-6.027.334-8.68a5.5 5.5 0 0 0-1.105-1.095 5.6 5.6 0 0 0-.75-1.316c2.896.706 4.47 5.77 3.467 8.638l-.007.018-.005.016-.007.017c-1.9 5.229-7.981 7.508-10.539 12.316-.544 1.021-.806 2.088-.805 3.133.001 1.743.736 3.43 2.123 4.76 1.907 1.83 4.356 2.893 6.434 4.492 1.687 1.3 3.066 2.97 3.236 5.146m-12.273-2.194a2.4 2.4 0 0 1-.514-.057c-1.04-.228-2.205-1.462-3.357-1.462-.299 0-.597.084-.892.29q-.033.022-.064.045a3 3 0 0 0-.685.233l.124-.29c.313-.576 1.092-.878 1.781-.878.21 0 .41.028.588.084.688.219 1.259.598 1.888.937.352.189.772.443 1.179.47l.082.002c.707 0 1.853-.5 1.854-1.326a1 1 0 0 0-.052-.312l-.023-.064-.001-.003v-.002a2.7 2.7 0 0 0-.418-.742 3.643 3.643 0 0 0-.141-1.054c.892.75 1.467 1.678.826 2.785-.48.819-1.274 1.344-2.175 1.344m29.068-1.972a4 4 0 0 0-.387-.472c1.242-1.153 2.684-2.308 3.552-3.787.74-1.259.937-3.117-.222-4.174a1.92 1.92 0 0 0-.207-1.238c1.094.593 1.786 1.728 1.753 3.16v.036l-.001.008v.007q0 .018-.002.036v.001q-.005.127-.018.258v.001l-.004.036v.008q-.002.004-.002.008l-.001.016c-.289 2.515-2.708 4.46-4.428 6.064zm-9.799-3.883a33 33 0 0 1-.026-1.909c.148-1.246.386-2.492.555-3.724.43-3.112.184-7.539-3.698-8.33a5 5 0 0 0-.29-.051c-.473-.569-1.094-.807-1.772-.807h-.009c.43-.112.872-.172 1.315-.172.73 0 1.464.163 2.15.524 2.287 1.203 3.19 3.527 3.19 5.961q0 .378-.028.758c-.177 2.378-.945 4.9-.945 7.341q0 .202.007.401l-.122-.001q-.162 0-.327.01M38.96 32.007c-1.003-.156-1.853-1.048-2.591-1.664-2.366-1.97-5.806-3.889-9.076-3.889-.862 0-1.71.132-2.526.434-1.113.41-2.294 1.266-3.177 2.315a6 6 0 0 0-.49.634 3.7 3.7 0 0 0-1.189 1.06q.174-.495.431-.964c.332-.6.761-1.16 1.259-1.656 1.681-1.68 3.826-2.615 6.085-2.615.888 0 1.795.145 2.696.447 1.901.634 3.987 1.579 5.55 2.857.248.203.546.503.877.824.393.382.83.796 1.273 1.105.263.4.556.776.877 1.112m28.98-17.518a2.6 2.6 0 0 1-.46-.465c-.597-3.031.546-6.45.127-9.48-.243-1.768-1.031-3.51-3.02-3.74a8 8 0 0 0-.875-.046 9 9 0 0 0-.571.018 4.3 4.3 0 0 0-.747-.302 3.6 3.6 0 0 0-.815-.139 8.5 8.5 0 0 1 2.283-.33c.583 0 1.152.07 1.684.225l.025.007c2.278.67 2.773 3.147 2.773 5.657-.002 1.745-.243 3.506-.291 4.683q-.015.32-.027.645c-.02.584-.03 1.178.021 1.76q-.104.76-.106 1.507"/><path fill="#ac3892" d="M34.468 82.146c.207-.437.413-.955.415-1.424.001-.395-.143-.755-.554-1.001-.749-.447-1.649-.605-2.574-.605-.75 0-1.515.103-2.23.238l-.024.004.148-.26-.06-.012c.539-.97.954-2.04.996-3.14.138-3.587-2.912-6.313-6.06-7.336-1.137-.371-2.312-.587-3.496-.727a21 21 0 0 0-2.504-.155c-.989 0-1.958.079-2.918.243.381-.907.202-1.848-1.115-2.507-.988-.492-2.181-.653-3.396-.653-1.27 0-2.56.177-3.66.339-1.877.276-3.677.973-5.493 1.498a19 19 0 0 0-1.166.371c.782-2.056 2.823-3.324 4.872-3.84 1.747-.44 3.6-.49 5.452-.49h.842q.419.003.838.003.777.002 1.543-.02.275.073.528.12c.784.148 1.577.239 2.355.239 2.001 0 3.886-.603 5.181-2.384 1.308-1.805.775-4.597-1.075-5.777-2.313-1.476-5.35-.27-7.59-2.098-2.596-2.114-.27-6.002-2.88-8.018a5 5 0 0 0-1.246-.698q.267-.066.528-.114a8.5 8.5 0 0 1 1.582-.148c1.108 0 2.25.225 3.101.822.984.693 1.18 2.267 1.601 3.31.408 1.01.964 2.333 1.835 3.033.747.601 1.617.586 2.528.68 1.563.157 3.321.81 4.387 2 1.026 1.148.468 2.815.072 4.094-.642 2.071-1.251 4.38.185 6.27.716.942 1.912 1.41 3.13 1.444a5.7 5.7 0 0 0 2.82.78l.051.001c2.88-.001 4.314-2.633 3.682-5.19-.492-1.988-1.944-3.512-1.642-5.66.191-1.359.39-2.451-.662-3.49a2.8 2.8 0 0 0-.73-.517 4.3 4.3 0 0 1 1.043-.135c.663 0 1.327.176 1.977.6 2.358 1.53 1.356 4.975 1.486 7.69.393 1.31 1.486 1.42 2.342 2.59.548.754-.134 2.198-.07 3.082.044.569.114 1.138.14 1.709.033.75.073 1.55.644 2.077.261.935.78 1.799 1.604 2.511.768.664 1.629.945 2.496.945 1.352 0 2.713-.686 3.74-1.68a8 8 0 0 0 1.445-1.855q.218.012.432.012h.09c.56 0 1.13-.03 1.702-.06.572-.031 1.147-.064 1.716-.064.533 0 1.061.029 1.579.107.862.133 2.025.486 2.017 1.411l.03.082.005.017.07.323c.054 1.251-2.625 1.351-4.406 1.351l-.482-.002h-.008q-.187-.002-.352-.002h-.069q-.213 0-.361.006c-2.25.09-4.466.088-6.182 1.572-.99.857-1.672 2.28-1.058 3.464.42.806 1.325 1.06 2.285 1.06.844 0 1.73-.195 2.367-.382 1.832-.533 3.534-1.3 5.364-1.7l-.002.002c.751-.166 1.519-.267 2.328-.267l.187.001c1.392.028 2.764.311 4.021.84 1.136.478 2.139 1.157 2.832 2.083q-.115-.036-.232-.07a15.3 15.3 0 0 0-4.337-.643c-3.059 0-5.945.987-7.653 3.13-1.291-1.464-3.35-2.45-6.078-2.45q-.517 0-1.068.05c-3.192.283-6.517 1.608-9.181 3.37m-5.04-2.774.004-.006.016.002zm41.845-3.285c-.489 0-.913-.158-1.069-.585a3 3 0 0 1-.128-.502l.001-.014c-.116-.708-.062-1.595.098-2.15q.061-.213.061-.407c0-.503-.305-.902-.819-1.22-.657-.409-.934-.663-.973-1.445a3 3 0 0 1-.004-.152c.001-.593.167-1.19.17-1.788 0-1.524-1.498-2.457-3.035-2.457a3.7 3.7 0 0 0-.855.1c-1.35.325-2.856 1.81-2.692 3.113.07.586.49.953.987 1.307.797.567 1.613 1.101 2.008 1.973.568 1.256-.838 1.776-2.071 1.776-.372 0-.73-.048-1.01-.136a3 3 0 0 1-.182-.064l-.013-.013c-1.816-.719-1.352-2.695-.875-4.063.177-.506.303-.99.303-1.444 0-.682-.287-1.292-1.11-1.79-.705-.422-1.601-.65-2.445-.739 1.64-2.775.19-5.563.173-8.552a4 4 0 0 1 .012-.339c.672.437 1.558.646 2.347.78 3.096.516 6.85-.086 9.473 1.774.706.5 1.16 1.22 1.422 1.974.393 1.15-.276 2.452-.514 3.58-.405 1.939.795 3.376 2.11 4.791 1.524 1.64 2.657 4.343.554 6.057-.377.31-1.218.635-1.924.635m7.744-.8c-.614 0-1.084-.715-1.208-1.383a2 2 0 0 1-.026-.188 5 5 0 0 1-.016-.401c0-1.086.33-2.16.348-3.245l.001-.058c0-.8-.25-1.481-.536-2.17a8.4 8.4 0 0 0-.667-.955c-.506-.637-1.093-1.275-1.149-2.082a3 3 0 0 1-.007-.183c0-.984.522-1.98.742-2.928q.066-.288.065-.554c-.003-1.369-1.221-2.39-2.02-3.548-.375-.545-.559-1.037-.56-1.566 0-.312.064-.638.19-.995.362-1.026.875-2.003 1.211-3.035.223-.689.382-1.424.382-2.137 0-1.078-.36-2.108-1.396-2.866a5 5 0 0 0-.367-.243 6 6 0 0 0-.497-.264 6 6 0 0 0-.678-1.652c-.696-1.177-1.866-1.88-3.112-2.344-1.045-.39-2.096-.651-3.096-1.175-.905-.476-1.688-1.137-2.62-1.572a2.7 2.7 0 0 0-1.114-.221c-.25 0-.502.028-.746.08l.064-.046c.295-.205.594-.29.892-.29 1.152 0 2.318 1.234 3.358 1.462q.261.058.513.058c.901 0 1.696-.526 2.175-1.344.641-1.107.066-2.035-.826-2.785-.476-1.643-2.03-2.745-3.213-3.926-2.795-2.793-2.736-6.316-.81-9.58.63-1.065 1.365-2.192 1.785-3.37 2.124-3.309-1.159-7.393-1.891-10.609-.599-2.632 1.943-6.824-1.048-8.397a9 9 0 0 1 .57-.017c.317 0 .613.016.877.046 1.988.23 2.776 1.971 3.02 3.74.418 3.03-.724 6.448-.127 9.48q.205.265.46.464 0 .574.077 1.128c.211 1.483 1.195 2.499 2.402 2.499.548 0 1.141-.21 1.729-.681 2.63-2.11 4.359-6.071 4.413-9.388.012-.722-.16-1.539-.466-2.286.425.308.8.698 1.104 1.095 2.034 2.654 1.653 6.174-.334 8.68-1.809 2.284-4.221 4.06-6.27 6.12-1.684 1.695-3.21 3.644-3.734 6.02a6 6 0 0 0-.128 1.683c.11.985.406 1.926.979 2.73 1.575 2.196 4.09 3.652 6.327 5.079 1.613 1.032 3.452 2.27 4.184 4.133q.275.709.369 1.407a4 4 0 0 0-1.259-.226c-.472 0-.932.11-1.324.385-1.06.746-.674 2.3-.238 3.217.442.93 1.154 1.721 1.54 2.679a4.6 4.6 0 0 0-.063 1.281q.034.358.139.69c-.179.763-.519 1.52-.75 2.22-.574 1.751-.501 3.598.427 5.233.792 1.395 2.115 2.545 3.273 3.702.524.522 1.096.984 1.578 1.531q-.21.235-.411.481c-1.107 1.364-1.824 2.99-1.87 4.762-.018.64.034 1.286.122 1.928.168.602.37 1.193.592 1.776a6 6 0 0 1-.024.465c-.057.62.01 1.524-.479 2.033-.225.235-.445.363-.65.408q-.004-.001-.007-.003a1 1 0 0 1-.17.018M48.7 61.272c-1.435-3.39-3.98-6.748-5.127-9.55-.905-2.217-.728-4.326-.277-6.61.356-1.807.416-3.537-.126-5.307-1.021-3.345-3.83-5.178-7.005-6.138-1.923-.581-3.908-.927-5.836-1.49-2.061-.6-3.855-1.787-5.87-2.49a4.9 4.9 0 0 0-1.602-.288c-.645 0-1.237.152-1.756.437q.222-.33.49-.633c.882-1.05 2.063-1.905 3.177-2.316a7.2 7.2 0 0 1 2.525-.433c3.27 0 6.71 1.918 9.076 3.889.739.616 1.588 1.508 2.59 1.664.449.47.953.861 1.51 1.132a2.1 2.1 0 0 0 .917.206c.506 0 1.011-.174 1.398-.512 1.188-1.046 1.497-2.34 1.316-3.877-.087-.732-.298-1.454-.472-2.17-.278-1.158-.215-2.306-.214-3.483.002-1.51-.502-2.964-1.681-3.943a3 3 0 0 0-.167-.13c2.654.38 4.98 2.148 5.592 4.813.783 3.405-1.464 7.044-2.37 10.229-.675 2.372.756 4.296 2.07 6.156.716 1.015 1.543 2.055 1.619 3.34.096 1.6-.73 3.286-1.056 4.828-.472 2.23.339 3.638 1.599 5.425.65.923 1.176 1.84 1.546 2.831l-.005.058c.287 1.214.28 2.518.228 3.824a8.4 8.4 0 0 0-2.09.538m35.816-.077c-.314-.462-.715-.908-1.168-1.357-.559-.552-1.164-1.088-1.738-1.642-.698-.62-1.346-1.272-1.774-2.085a4.3 4.3 0 0 1-.488-1.98q-.001-.488.124-.955l.124.068c.882.666 1.99.99 3.104.99.641 0 1.284-.107 1.888-.32q.31.434.764.842c.704.635 1.569 1.114 2.429 1.566.624.326 1.439.658 1.91 1.193l.002.01a1.6 1.6 0 0 1 .292.462l.003.005.002.01a.5.5 0 0 1 .035.182c.003.496-.775.797-1.253.797h-.055c-.273-.015-.56-.169-.796-.282-.428-.206-.813-.43-1.279-.563a1.5 1.5 0 0 0-.394-.049c-.466 0-.995.18-1.206.527-.517.844.146 1.41 1.007 1.8a10 10 0 0 0-1.533.781m10.126-3.707c-1.372-.904-2.953-1.534-4.2-2.592-.937-.796-1.433-1.805-1.433-2.85q-.002-.48.139-.96c.298-.339.552-.682.742-1.005q.261-.443.375-.885c.705-.812 1.585-1.512 2.477-2.203.632 1.614 1.767 3.1 2.388 4.667.792 1.998.738 4.282-.488 5.828m-34.686-6.8c.108-.913-.024-1.866-.247-2.736-.723-2.828-3.061-5.094-4.948-7.193-2.51-2.795-3.945-6.126-3.681-9.912.272-3.921 2.492-7.397 2.469-11.385-.01-1.741-.548-4.367-2.005-5.692.52.177.994.398 1.344.602 2.288 1.333 3.589 3.606 3.424 6.249-.266 4.283-4.003 8.298-3.487 12.455.179 2.446 1.599 4.446 3.295 6.279 2.357 2.545 6.066 5.057 5.412 8.99-.111.671-.346 1.365-.596 2.065a6 6 0 0 0-.98.277m29.726-7.07c-.12 0-.13-.182-.184-.411a4 4 0 0 1-.085-.514l.001-.002c-.046-.476-.018-.965.003-1.434.019-.398.079-.909.128-1.465q.05.003.1.003c.557 0 1.113-.259 1.62-.641-.444.82-.49 1.791-.592 2.75-.061.562-.192 1.124-.673 1.53-.155.13-.252.183-.318.183m5.968-5.276c-.478-.494-1.077-.813-1.768-.813-.441 0-.918.131-1.426.427.345-.44.622-.885.802-1.247.771-1.55 1.27-3.04 2.819-4.011.923-.577 2.37-.636 2.785-1.843q.084-.248.118-.475c1.16 1.058.962 2.916.222 4.175-.868 1.478-2.31 2.633-3.552 3.787m-12.521-2.384c-.604-2.73-.357-5.92.16-8.491.416-2.065.917-4.471-.363-6.353a3 3 0 0 0-.148-.198q.147.022.291.052c3.883.791 4.128 5.218 3.699 8.33-.17 1.231-.408 2.477-.556 3.724a33 33 0 0 0 .026 1.909c-1.089.061-2.206.424-3.012.959a2 2 0 0 0-.097.068"/><path fill="#df95d0" d="M63.581 16.426q-.026.001-.036-.04c-.728-3.79-8.164-11.11-2.78-14.403a.1.1 0 0 1 .054-.02c.08 0 .018.205-.03.252-2.354 2.332-.678 5.455.583 7.944.967 1.907 2.175 3.92 2.35 6.096.005.055-.086.17-.14.17M41.555 41.937c-2.355-4.691-7.76-5.048-12.426-5.453-2.98-.26-7.885-.64-8.104-4.53l.166-.121c.848 4.004 6.908 3.624 10.008 4.004 4.122.508 9.168 1.326 10.525 5.92zM7.44 55.387c-4.31 0-4.549-6.643-1.483-8.757q.035-.024.057-.024c.074 0 .037.191-.004.24-1.104 1.391-1.83 3.218-1.27 5.004.555 1.782 1.769 2.443 3.39 3.1.153.064-.044.392-.159.404a5 5 0 0 1-.532.033M29.706 56.59q-.045 0-.09-.033c-1.61-1.273-.249-3.533 1.133-4.35a.13.13 0 0 1 .064-.023c.09 0 .045.206-.003.264-.4.5-.923.987-1.135 1.607-.252.729.02 1.278.33 1.935.07.148-.104.6-.299.6M79.286 28.59q-.054.002-.102-.054c-.808-.957-1.284-2.441-1.06-3.7.25-1.394 1.132-2.074 1.805-3.253l.085.007c-.268 1.07-1.206 1.774-1.228 2.957-.024 1.286.435 2.363.802 3.564.042.137-.138.479-.302.479"/><path fill="#90534f" d="M62.785 78.688c-4.406-1.317-9.477-.665-11.99 2.487-1.455-1.648-3.883-2.69-7.146-2.399-3.192.283-6.517 1.608-9.181 3.37.381-.806.76-1.884-.139-2.425-1.356-.81-3.208-.667-4.804-.367-3.754.705-7.47 2.822-9.44 5.264-1.497 1.854-.97 3.863 1.89 4.606 2.662.69 6.518.418 8.942-.691l.055-.037c.439.335.975.619 1.416.851 1.707.907 3.757 1.464 5.775 1.883 3.354.693 7.305.89 10.537-.276a5.2 5.2 0 0 0 1.63-.961c-.051 1.391 2.633 1.762 4.06 1.826 2.726.12 5.553-.417 8.133-1.01 3.493-.807 8.096-1.992 8.389-5.134.304-3.27-4.52-5.91-8.127-6.987"/><path fill="#efb3ba" d="M19.988 85.415c1.139-2.396 4.821-4.234 7.83-5.215 1.3-.424 2.709-.676 4.126-.637.857.024 1.705.242 2.261.73.55.485.214 1.377-.016 2.038-1.64 1.123-3.01 2.414-3.904 3.723l.058.101c-.183.399-.266.811-.196 1.228.053.332.272.628.57.9-3.392 1.152-12.825 1.553-10.729-2.868"/><path fill="#ee9897" d="M49.33 90.305c-2.455 1.352-6.419 1.037-9.21.659-3.037-.414-6.482-1.35-8.68-2.993-2.084-1.562.967-3.575 2.156-4.9l.009-.012c.154-.112.32-.22.48-.327l.122-.057.02-.038c2.25-1.485 4.975-2.638 7.694-3.236 2.371-.52 4.865-.41 6.904.642 2.098 1.08 2.909 3.075 3.126 4.869.235 1.928-.397 4.17-2.621 5.393"/><path fill="#d68d8b" d="M62.65 90.338c-2.266.546-4.633.93-7.013 1.012-1.414.052-4.862-.043-5.012-1.517l-.041-.066c.925-.918 1.43-2.096 1.652-3.177a6.23 6.23 0 0 0-1.355-5.313c2.831-2.846 7.224-3.343 11.554-2.129 3.452.969 7.06 3.109 7.877 5.876.968 3.274-4.419 4.537-7.661 5.314"/><path fill="#713735" d="M55.174 91.836q-.392-.001-.783-.017c-1.413-.064-4.058-.428-4.06-1.787v-.04a5.2 5.2 0 0 1-1.63.962c-1.651.596-3.488.836-5.338.836-1.773 0-3.558-.22-5.2-.56-2.017-.42-4.068-.976-5.774-1.883-.442-.232-.978-.516-1.416-.851l-.055.036c-1.533.701-3.64 1.068-5.655 1.068-1.17 0-2.31-.122-3.286-.376a5.7 5.7 0 0 1-1.182-.441q-.002-.003-.006-.004h-.002c-1.445-.756-1.83-1.995-1.257-3.264l.17.312q.04.058.085.113c-.68 2.338 2.276 3.108 5.434 3.108 2.063 0 4.212-.33 5.496-.765-.297-.272-.516-.568-.57-.9-.068-.417.014-.83.197-1.228l-.057-.101c.893-1.31 2.262-2.6 3.904-3.723.229-.662.565-1.553.016-2.039-.484-.424-1.188-.644-1.928-.71-.563-.215-1.291-.277-2.016-.277q-.245 0-.488.009a11.6 11.6 0 0 1 1.992-.197c.92 0 1.817.158 2.565.603.41.247.555.607.553 1.001-.001.47-.208.987-.414 1.424 2.664-1.761 5.989-3.086 9.18-3.369q.552-.05 1.069-.05c2.728 0 4.787.986 6.077 2.449 1.708-2.142 4.595-3.13 7.654-3.13a15.3 15.3 0 0 1 4.569.714q.09.121.175.25.145.222.234.448a18 18 0 0 0-.993-.309c-1.447-.406-2.9-.621-4.3-.621-2.79 0-5.368.854-7.253 2.75a6.23 6.23 0 0 1 1.354 5.313c-.222 1.08-.726 2.258-1.652 3.177l.042.065c.13 1.3 2.828 1.528 4.433 1.528q.324 0 .579-.01c1.477-.051 2.95-.218 4.397-.469q.172.095.37.175.004 0 .007.003h.003q.175.07.372.126c-1.828.37-3.736.65-5.612.65M44.63 79.099c-.9 0-1.813.106-2.71.303-2.718.597-5.442 1.75-7.693 3.236l-.02.037-.121.057c-.16.108-.327.215-.481.327l-.008.012c-1.19 1.325-4.24 3.338-2.156 4.9 2.197 1.644 5.642 2.58 8.678 2.993 1.25.17 2.735.327 4.214.327 1.825 0 3.64-.239 4.997-.986 2.224-1.222 2.856-3.465 2.621-5.393-.217-1.793-1.028-3.788-3.126-4.87-1.268-.654-2.714-.943-4.195-.943"/><path fill="#b9777a" d="M25.218 89.048c-3.158 0-6.113-.77-5.434-3.108.753.933 2.197 1.177 3.621 1.177h.033c2.002-.004 3.404-.793 4.292-2.053.714-1.01 1.362-1.841 2.5-2.65.714-.502 1.658-.766 2.356-1.265.71-.51.704-1.092-.133-1.49a2 2 0 0 0-.177-.076c.74.065 1.444.285 1.928.71.549.484.213 1.376-.016 2.038-1.642 1.123-3.011 2.413-3.904 3.723l.057.1c-.183.4-.265.812-.196 1.229.053.332.272.628.57.9-1.285.436-3.434.765-5.497.765"/><path fill="#b86565" d="M44.333 91.291c-1.48 0-2.965-.157-4.214-.327-3.036-.413-6.481-1.349-8.678-2.993-2.084-1.561.966-3.575 2.156-4.9l.008-.012c.154-.112.32-.218.48-.326l.122-.058.02-.037c2.25-1.486 4.975-2.639 7.694-3.236a12.7 12.7 0 0 1 2.709-.303c1.481 0 2.926.29 4.194.944 2.1 1.081 2.91 3.076 3.127 4.87.235 1.928-.397 4.17-2.621 5.393-1.356.746-3.172.985-4.997.985m-1.438-11.608c-1.626 0-3.434.519-4.64 1.133-1.537.598-2.943 1.34-4.132 2.298-.914.736-2.437 2.367-1.578 3.402.98 1.183 3.113 1.602 5.238 1.602 1.532 0 3.061-.219 4.145-.523 3.515-.986 6.037-4.038 4.137-6.664-.658-.908-1.854-1.248-3.17-1.248"/><path fill="#a65e5d" d="M55.059 91.36c-1.606 0-4.303-.227-4.434-1.527l-.041-.066c.925-.919 1.43-2.096 1.652-3.177a6.23 6.23 0 0 0-1.355-5.314c1.886-1.894 4.463-2.749 7.254-2.749 1.4 0 2.853.215 4.3.621q.496.14.993.31a2.34 2.34 0 0 1 .148 1.183c-.67-.662-1.715-1.214-2.503-1.458-.834-.259-1.924-.41-3.036-.41-2.416 0-4.937.715-5.161 2.582-.259 2.15 3.024 3.163 5.441 3.385.392.037.786.055 1.172.055.712 0 1.403-.064 2.027-.207a1.9 1.9 0 0 0-.115.62q0 .106.016.207c-.793.696-1.465 1.447-1.961 2.212-.839 1.299-.667 2.568.579 3.255-1.447.25-2.92.417-4.398.468-.168.007-.364.01-.578.01"/><path fill="#d77d20" d="M108.73 52.112c-1.472.078-2.965.883-3.78 1.953-.497.652-.698 1.47-.97 2.207-.17.461-.375.9-.718 1.284-.736.817-.928-.078-1.089-.667-.504-1.845.324-3.836.479-5.683.136-1.618-.432-3.231-2.138-4.029-1.537-.716-3.416-.136-4.45.998-1.346 1.48-.786 3.29.197 4.772.68 1.022 1.524 1.969 2.048 3.067.519 1.088.64 2.29 1.104 3.398.301.718.909 1.201 1.505 1.728.802.708 1.372 1.556 1.615 2.538.183.74.068 1.511-.368 2.126-1.161 1.391-3.1 1.597-4.72.81a2.5 2.5 0 0 1-.71-.606l-.111-.158a2.23 2.23 0 0 1-.489-2.063c.256-1.009.883-1.84.86-2.909-.032-1.403-1-2.471-2.2-3.289-1.406-.96-3.06-1.596-4.353-2.693-1.498-1.273-1.87-3.096-.89-4.727 1.731-2.882 5.842-4.246 7.127-7.38.916-2.236-1.177-6.79-4.37-4.742-1.455.934-1.481 2.412-1.636 3.857-.061.561-.192 1.124-.674 1.529-.438.37-.418.127-.5-.227-.154-.633-.111-1.309-.082-1.949.081-1.72.933-5.514-1.677-6.196-1.45-.377-3.325.039-4.514.828-.948.63-1.159 1.682-.975 2.659.251 1.317 1.122 2.55 1.88 3.678.796 1.194 1.764 2.342 1.72 3.794-.04 1.392-.897 2.696-1.57 4-.347 1.261-.335 2.457.098 3.575q.354.607.972 1.16c.704.635 1.57 1.114 2.43 1.566.793.416 1.897.84 2.21 1.68.233.624-.749 1.006-1.274.979-.273-.015-.56-.168-.796-.281-.428-.206-.814-.431-1.279-.563-.513-.143-1.325.026-1.6.477-.888 1.45 1.707 2.077 2.807 2.418 1.905.583 4.2 1.528 3.442 3.685-.565 1.612-2.132 3.26-3.889 3.925-.768.29-1.577.248-2.267-.172-1.502-.916-.577-2.607-.144-3.785.727-1.97-.175-3.394-1.644-4.847-.558-.552-1.163-1.088-1.737-1.642-.698-.62-1.347-1.271-1.775-2.084-.562-1.064-.691-2.503-.1-3.598.317-.897.83-1.778 1.215-2.566.668-1.374 1.25-2.918.783-4.412-.37-1.192-1.523-2.133-2.73-2.667-.922-.411-2.126-.61-2.993-.003-1.06.747-.675 2.3-.239 3.218.455.955 1.195 1.764 1.571 2.755.512 1.351-.282 2.831-.704 4.115-.575 1.75-.501 3.597.427 5.232.792 1.396 2.115 2.545 3.273 3.703.65.648 1.376 1.204 1.907 1.943.521.725.444 1.335.076 1.864-.455 1.037-1.825 2.082-2.005 3.092-.24 1.33.134 2.703.009 4.043-.058.62.01 1.525-.479 2.034-1.062 1.104-1.977-.165-2.062-1.148-.103-1.223.311-2.428.331-3.647.014-.825-.242-1.521-.534-2.228a8.5 8.5 0 0 0-.667-.954c-.507-.638-1.093-1.275-1.15-2.082-.072-1.044.5-2.105.736-3.112.388-1.66-1.052-2.792-1.955-4.101-.596-.868-.71-1.597-.37-2.561.362-1.026.875-2.003 1.211-3.035.56-1.73.707-3.744-1.014-5.003-1.197-.877-3.129-1.381-4.62-.881-1.267.423-1.792 1.721-1.318 2.79.288.657.856 1.21 1.335 1.76.265.3.512.61.728.94.32.494.781 2.069-.47 2.122-.806.035-1.766-1.043-2.329-1.45-1.057-.767-2.466-1.331-3.752-1.713-2.16-.637-4.354-.104-5.938 1.299-1.175 1.039-1.793 2.547-.947 3.899.606.971 1.95 1.322 3.092 1.516 3.096.517 6.85-.086 9.473 1.774.706.5 1.16 1.22 1.421 1.975.394 1.15-.275 2.452-.513 3.58-.405 1.939.795 3.376 2.11 4.79 1.523 1.64 2.657 4.343.554 6.058-.64.524-2.612 1.095-2.993.05-.268-.727-.232-1.964-.03-2.666.204-.703-.113-1.228-.757-1.627-.657-.41-.934-.664-.973-1.445-.032-.645.163-1.292.165-1.94.003-1.808-2.108-2.784-3.89-2.358-1.349.326-2.855 1.811-2.691 3.114.07.585.49.952.986 1.307.798.566 1.614 1.1 2.008 1.973.74 1.636-1.867 2.023-3.08 1.64-2.053-.65-1.563-2.723-1.07-4.14.445-1.27.561-2.408-.807-3.234-.744-.446-1.7-.676-2.584-.753-.877-.081-1.39-.19-1.91-.881-.81-1.08-.894-2.92-2.35-3.502-1.732-.693-4.013-.084-5.525.754-1.47.815-2.496 2.15-2.652 3.686-.108 1.08.31 2.208 1.204 2.894.937.416 2.042.588 3.096.593.588.004 1.19-.03 1.792-.061 1.108-.06 2.225-.12 3.294.044.863.132 2.026.485 2.018 1.41l.03.083.005.016.07.323c.059 1.37-3.159 1.36-4.888 1.349-.328-.001-.602-.004-.79.004-2.25.09-4.466.088-6.182 1.572-.99.857-1.672 2.281-1.059 3.464.788 1.516 3.291 1.078 4.653.679 2.637-.768 5.008-2.022 7.877-1.964 1.392.028 2.764.31 4.021.839 1.235.52 2.315 1.278 3.007 2.333.541.828.48 1.705.141 2.525-.128.423-.319.81-.623 1.193q-.167.21-.353.402c-.714.985-1.565 2.316-.332 3.177.715.5 1.916.503 2.77.533.526.02 1.053.016 1.578.014.54-.003 1.082-.007 1.62.014 6.063.234 12.175.317 18.239.187 4.022-.085 8.146-.327 12.15-.997.638-.155 1.302-.336 1.785-.732.177-.147.313-.308.437-.475.099-.193.159-.41.177-.636.102-1.213-.75-2.54-1.33-3.59l-.295-.543c-.947-1.28-1.61-2.707-1.44-4.257.019-.714.297-1.303.72-1.851.253-.388.55-.75.867-1.058q.192-.187.391-.336l.04-.04-.01.019.044-.03c.145-.125.3-.237.447-.323.268-.16.553-.287.848-.395.501-.23 1.086-.338 1.63-.432 1.346-.237 2.739-.318 3.966-.908 1.202-.579 1.742-1.688 1.881-2.844.193-1.624-.82-2.973-1.644-4.336-.469-.777-.729-1.58-.559-2.463.223-1.14 1.115-1.922 2.023-2.67 1.164-.962 2.799-2.127 2.995-3.633.192-1.473-1.003-2.5-2.626-2.411"/><path fill="#e5d556" d="M110.478 55.624c-.587.888-1.565 1.58-2.407 2.272-1.265 1.046-2.281 2.283-2.268 3.886.014 1.508 1.322 2.749 1.923 4.092.733 1.636.393 3.593-1.577 4.301-1.056.381-2.251.448-3.359.63-1.743.291-3.17 1.194-4.278 2.4-.748.817-1.233 1.791-1.265 2.854-.01.385.023.77.084 1.156.555 1.76 1.645 3.345 2.304 5.075.25.515.46 1.046.591 1.594.125.53.043.84-.264 1.044-.239.308-.794.422-1.283.491-.385.092-.785.144-1.11.184a78 78 0 0 1-1.594.17 91 91 0 0 1-9.864.718c-5.941.125-11.927.016-17.862-.199a44 44 0 0 0-1.855-.017q-.533.003-1.064 0c-1.05-.013-2.479-.013-3.241-.752-.77-.742.565-2.148 1.023-2.779l.19-.272.04.007.11-.167-.042-.008c.364-.58.644-1.225.672-1.88.095-2.149-1.968-3.785-4.096-4.397-.77-.22-1.564-.352-2.365-.435-2.22-.233-4.22-.042-6.274.75-1.921.74-4.173 1.908-6.317 1.302-1.23-.349-1.52-1.45-1.154-2.44.482-1.309 1.914-2.11 3.346-2.429 1.355-.304 2.807-.299 4.243-.295.767.003 1.53.006 2.271-.038 1.294-.075 2.949-.383 3.207-1.71.526-2.676-5.581-2.105-7.208-2.105-.902 0-1.82-.061-2.653-.394-1.135-.452-1.539-1.526-1.656-2.549-.273-2.405 2.477-4.044 4.822-4.436 1.006-.17 2.307-.133 3.167.404.664.414.799 1.358 1.083 1.983.275.605.652 1.398 1.241 1.816.503.361 1.092.352 1.71.408 1.056.095 2.244.484 2.964 1.2.696.687.317 1.685.049 2.452-.434 1.241-.847 2.625.124 3.757 1.333 1.551 5.11.95 4.95-1.249-.109-1.505-1.913-2.09-2.842-3.1-.33-.353-.35-.759-.207-1.155.027-.713.77-1.319 1.467-1.655 1.032-.5 2.127-.734 3.17-.131 1.597.916.916 2.98 1.006 4.608.265.785 1.005.85 1.585 1.553.37.45-.093 1.312-.048 1.844.028.343.076.683.093 1.026.023.478.054.987.512 1.298.569.392 1.731.052 2.288-.15.764-.275 1.303-.876 1.655-1.513.8-1.446.568-3.2-.333-4.552-1.264-1.89-3.359-3.125-2.937-5.592.258-1.513.848-2.783.365-4.148-.814-1.331-2.198-2.268-3.93-2.692-2.057-.505-4.127-.264-6.215-.497-1.4-.16-3.571-.604-4.006-2.034a2.3 2.3 0 0 1-.094-.805 2.3 2.3 0 0 1 .272-.998c.165-.327.39-.633.663-.91.596-.628 1.395-1.14 2.148-1.387 2.643-.862 5.824.58 7.845 2.071.564.416 1.224 1.044 2.02 1.01.56-.026.923-.663 1.057-1.066.41-1.241-.619-2.26-1.41-3.178-.51-.594-1.04-1.24-1.06-2.014-.03-1.221 1.523-1.513 2.57-1.442 1.93.13 3.68 1.22 4.118 2.917.53 2.039-.989 4.218-1.603 6.127-.455 1.422.51 2.574 1.4 3.688.485.609 1.042 1.23 1.096 2.002.065.958-.494 1.967-.715 2.892-.32 1.336.23 2.181 1.08 3.25.441.553.796 1.104 1.048 1.697l-.007.036c.29 1.083.139 2.286.104 3.435-.05.36-.1.713-.127 1.051-.057.722.07 1.42.693 1.922.49.394 1.117.282 1.555-.087 1.02-.856 1.051-2.45.915-3.58-.184-1.576-.51-2.938.608-4.313.344-.42.752-.823 1.06-1.27a2.6 2.6 0 0 0 .34-.384c1.23-1.74-1.103-3.36-2.245-4.498-1.452-1.45-3.065-2.89-3.64-4.816-.706-2.37.841-4.45 1.035-6.75.18-2.129-2.184-3.578-2.14-5.698.035-1.684 2.447-1.003 3.418-.5 1.547.798 2.427 2.16 2.314 3.744-.18 2.565-2.706 4.97-2.358 7.463.123 1.466 1.082 2.664 2.228 3.764 1.595 1.524 4.102 3.027 3.659 5.386-.308 1.65-2.03 3.54-.108 4.941 1.147.838 2.697.192 3.713-.47 2.188-1.428 4.756-4.905 1.855-6.79-.753-.49-1.696-.74-2.567-1.006-.44-.132-3.707-1.16-2.436-1.944.968-.596 1.988.532 2.874.704a1.75 1.75 0 0 0 1.816-.772c.833-1.27-1.354-2.146-2.29-2.636-2.239-1.175-4.252-2.847-3.51-5.217.262-.693.62-1.38.986-2.086.725-1.395 1.327-2.944.65-4.452-.515-1.149-1.391-2.174-2.08-3.24-.718-1.113-1.72-2.665-1.203-3.986.52-1.331 3.033-1.668 4.368-1.532 1.344.137 1.876 1.18 2.041 2.24.283 1.816-.49 3.863-.084 5.681.243.28.581.48.955.532 1.052-.734 1.088-2.016 1.204-3.18.113-1.17.641-2.228 2.001-2.615.968-.273 1.859.33 2.41.968 1.377 1.588 1.118 3.699-.225 5.198-1.225 1.369-2.856 2.434-4.24 3.669-1.138 1.015-2.171 2.181-2.525 3.607q-.124.507-.085 1.01c.075.59.273 1.152.661 1.632 1.064 1.316 2.766 2.191 4.276 3.043 1.092.62 2.338 1.361 2.83 2.479.45 1.017.334 2.016-.082 2.984-.296.737-.664 1.444-.577 2.253.09.821.741 1.47 1.502 1.876l.086.043c1.121.75 2.78.776 3.992.15.288-.129.559-.289.801-.486 1.151-.934 1.206-2.49.766-3.72-.279-.786-.846-1.459-1.478-2.047-.85-.79-1.394-1.353-1.754-2.441-.323-.968-.462-1.988-.954-2.904-.579-1.086-1.408-2.055-2.092-3.087-.796-1.201-1.184-2.585-.22-3.823.723-.928 2.11-1.193 3.287-.981 2.627.473 2.792 3.126 2.501 4.992-.114.737-.274 1.484-.374 2.23-.007.614-.005 1.229.081 1.833.065.461.034 1.088.498 1.416l.235.146c.227.023.465.005.699-.058 1.013-.833 1.236-2.219 1.766-3.338.706-1.493 3.411-2.67 5.09-1.757 1.071.581.964 1.845.412 2.677"/><path fill="#a92c56" d="M60.186 76.675a11 11 0 0 0-4.02-.84h-.188c-.809 0-1.577.1-2.328.267l.002-.002a11 11 0 0 1 2.322-.265h.191c1.392.029 2.764.312 4.021.84M79.018 75.292c-.616 0-1.084-.72-1.208-1.388.124.668.593 1.383 1.208 1.383a1 1 0 0 0 .17-.018q.004 0 .007.003a1 1 0 0 1-.177.02M70.077 75c-.12-.71-.063-1.606.098-2.164-.16.554-.213 1.441-.097 2.15zm-8.316-1.564c-1.842-.712-1.367-2.703-.888-4.076-.478 1.368-.942 3.344.874 4.063zM51.659 72.081l-.407-.001h-.016.07l.352.001z"/><path fill="#f8be88" d="M87.402 68.642q.363-.14.71-.33h.005a6 6 0 0 1-.715.33m11.98-1.571a4.45 4.45 0 0 1-1.937-.457c.617.3 1.281.454 1.93.454q.434 0 .849-.09h.006a3.8 3.8 0 0 1-.848.093"/><path fill="#a92c56" d="M89.983 57.984a1.6 1.6 0 0 0-.29-.46l-.002-.01q.191.212.292.47"/><path fill="#f8be88" d="M102.702 57.88c-.225-.04-.35-.359-.445-.687.095.325.22.644.444.685zm-33.808-4.622c-.274-.2-.538-.433-.773-.636.235.203.5.435.775.635z"/><path fill="#8b1c46" d="M69.15 53.43a4 4 0 0 1-.257-.173h.001a4 4 0 0 0 .256.174m-11.85-.792.003-.005z"/><path fill="#f8be88" d="M96.679 42.79c.389-.95.234-2.319-.316-3.422.552 1.103.706 2.47.316 3.422"/><path fill="#a92c56" d="M89.412 42.693c-.047-.477-.018-.966.004-1.436-.022.469-.05.958-.003 1.434z"/><path fill="#d2621c" d="M61.417 85.415a1.3 1.3 0 0 1-.016-.208c-.001-.693.505-1.456.957-2.078q.186-.193.354-.402c.304-.382.494-.77.622-1.193.162-.39.259-.795.26-1.2a2.4 2.4 0 0 0-.401-1.325 5 5 0 0 0-.175-.25c-.693-.925-1.696-1.605-2.832-2.084a11 11 0 0 0-4.021-.839h-.19c-.809 0-1.577.102-2.323.264.125-.146.229-.3.304-.455a13 13 0 0 1 1.969-.145q.828 0 1.696.093c.801.082 1.596.214 2.365.434 2.128.612 4.191 2.248 4.096 4.396-.028.656-.308 1.301-.672 1.882l.042.007-.11.167-.04-.007-.189.273c-.373.512-1.323 1.537-1.255 2.3q-.225.183-.441.37m37.9-5.039q-.364-.195-.748-.367c-.467-.915-.933-1.828-1.237-2.794a6.3 6.3 0 0 1-.084-1.156c.032-1.063.517-2.037 1.265-2.853 1.107-1.207 2.535-2.11 4.277-2.4 1.108-.183 2.303-.25 3.359-.63 1.971-.709 2.311-2.666 1.577-4.302-.601-1.343-1.909-2.584-1.922-4.092-.014-1.603 1.002-2.84 2.268-3.886.841-.691 1.82-1.384 2.406-2.272.502-.755.635-1.869-.149-2.503a1.04 1.04 0 0 0-.141-.74c.685.329 1.136.933 1.184 1.7l.001.017v.012l.001.01v.018a2 2 0 0 1-.016.368v.001l-.002.016c-.196 1.507-1.831 2.672-2.995 3.634-.908.748-1.8 1.529-2.023 2.67a3 3 0 0 0-.052.549c0 .671.242 1.3.611 1.914.753 1.245 1.665 2.48 1.668 3.924q0 .202-.024.412c-.139 1.156-.679 2.265-1.881 2.844-1.227.59-2.62.67-3.966.908-.544.093-1.129.201-1.63.432a5 5 0 0 0-.848.395 3 3 0 0 0-.447.322l-.044.03.01-.019-.04.041a4 4 0 0 0-.391.336c-.316.307-.614.67-.867 1.057-.423.549-.701 1.138-.72 1.851a4 4 0 0 0-.027.487c-.001 1.362.62 2.625 1.467 3.77zm-29.12-4.125c-.385-.313-.415-.792-.436-1.242-.017-.343-.065-.683-.093-1.026-.046-.532.418-1.395.048-1.844-.58-.704-1.32-.768-1.586-1.553-.089-1.628.591-3.692-1.005-4.608a2.6 2.6 0 0 0-1.336-.36q-.353.002-.705.082a2.5 2.5 0 0 0-.57-.172l.207-.06c.28-.068.568-.1.855-.1 1.537 0 3.036.932 3.034 2.456-.002.598-.168 1.195-.169 1.788q0 .076.004.153c.039.78.316 1.035.973 1.445.514.317.819.716.819 1.22q0 .192-.061.406c-.162.56-.218 1.455-.099 2.164-.043.426-.007.85.12 1.25m8.753-.577a1.1 1.1 0 0 1-.693-.247c-.623-.503-.75-1.2-.692-1.921.027-.339.076-.69.127-1.052.034-1.148.186-2.352-.104-3.435l.006-.036c-.252-.593-.606-1.144-1.048-1.697-.849-1.068-1.4-1.914-1.08-3.25.222-.925.78-1.934.715-2.891-.053-.773-.61-1.394-1.095-2.003-.89-1.114-1.856-2.266-1.401-3.688.615-1.908 2.133-4.088 1.604-6.127-.413-1.597-1.987-2.657-3.78-2.884a2.48 2.48 0 0 0-1.372-.39q-.097 0-.196.006a4.2 4.2 0 0 1 1.108-.142c1.036 0 2.12.33 2.956.833q.193.116.367.244c1.036.757 1.396 1.788 1.396 2.865 0 .713-.159 1.448-.382 2.137-.336 1.032-.849 2.01-1.21 3.035-.127.358-.191.683-.191.995.001.53.185 1.021.56 1.567.799 1.158 2.017 2.178 2.02 3.547q0 .267-.065.554c-.22.948-.742 1.944-.742 2.928q0 .092.007.184c.056.806.643 1.444 1.15 2.082.253.317.474.631.666.954.285.69.536 1.37.536 2.17l-.001.058c-.018 1.085-.348 2.16-.348 3.245q0 .2.016.401.008.094.026.189c.124.667.592 1.388 1.208 1.388a1 1 0 0 0 .178-.02q.247.11.504.154a1.34 1.34 0 0 1-.75.247m-35.354-.487c.224-.58.625-1.12 1.098-1.53 1.716-1.483 3.932-1.481 6.182-1.571q.148-.005.361-.005h.423c.505.143.99.289 1.42.389q-.54.014-1.086.012l-.529-.001-.527-.002c-1.262 0-2.526.03-3.716.296-1.384.308-2.768 1.067-3.293 2.299a8 8 0 0 0-.333.114m19.109-1.054c-.825-.022-1.633-.3-2.119-.864-.97-1.133-.557-2.517-.124-3.758.268-.766.647-1.765-.049-2.452-.72-.716-1.908-1.105-2.964-1.2-.617-.056-1.207-.047-1.71-.408-.589-.418-.966-1.21-1.24-1.816-.285-.625-.42-1.569-1.083-1.982-.575-.36-1.346-.494-2.094-.494a6.6 6.6 0 0 0-1.429.157 4 4 0 0 0-.804-.185c.775-.267 1.623-.44 2.443-.44q.561-.002 1.093.115.307.07.597.185c1.456.581 1.54 2.421 2.35 3.502.52.691 1.033.8 1.91.88.884.078 1.84.308 2.584.754.823.497 1.11 1.107 1.11 1.79 0 .453-.126.937-.303 1.443-.479 1.374-.953 3.364.888 4.076.268.276.588.512.944.697m23.463-4.906a2.1 2.1 0 0 1-1.27-.397c-1.922-1.401-.2-3.292.108-4.941.443-2.36-2.064-3.863-3.658-5.387-1.147-1.1-2.106-2.297-2.228-3.764-.348-2.492 2.178-4.898 2.357-7.462.113-1.585-.767-2.946-2.313-3.745a5.6 5.6 0 0 0-.914-.362 2.2 2.2 0 0 0-.624-.357 2.47 2.47 0 0 0-1.326-.107c.324-.155.68-.22 1.042-.22.57 0 1.156.16 1.66.384 1.208.534 2.362 1.474 2.731 2.666.117.374.17.75.17 1.127.002 1.13-.451 2.256-.953 3.285-.385.788-.898 1.67-1.216 2.567a3.4 3.4 0 0 0-.386 1.617 4.3 4.3 0 0 0 .488 1.98c.428.813 1.076 1.466 1.774 2.085.574.554 1.179 1.09 1.738 1.642 1.113 1.1 1.9 2.185 1.9 3.504 0 .42-.08.865-.256 1.342-.256.697-.683 1.569-.682 2.356.002.548.21 1.054.826 1.43.396.241.833.357 1.278.357.33 0 .663-.062.988-.185q.366-.139.715-.33.07.004.137.003.24 0 .474-.033l-.116.077c-.672.437-1.576.868-2.444.868m13.152-1.812c-.752 0-1.502-.194-2.098-.593l-.085-.043c-.761-.405-1.413-1.055-1.503-1.876-.086-.81.282-1.516.578-2.253.416-.968.532-1.967.082-2.984-.493-1.118-1.738-1.859-2.83-2.478-1.511-.853-3.212-1.728-4.276-3.043-.388-.48-.587-1.043-.662-1.634a3.2 3.2 0 0 1 .086-1.009c.353-1.425 1.386-2.592 2.525-3.607 1.384-1.235 3.015-2.3 4.24-3.669 1.343-1.499 1.601-3.61.224-5.197a3.5 3.5 0 0 0-.745-.657 3.3 3.3 0 0 0-.508-.789c.877.19 1.574.901 2.016 1.786.55 1.102.705 2.471.316 3.421-.614 1.498-1.872 2.59-3.208 3.637q-.364.284-.73.567c-.892.69-1.772 1.39-2.477 2.202a7 7 0 0 0-.712.974c-.368.61-.545 1.25-.544 1.876 0 1.045.496 2.054 1.433 2.85 1.292 1.098 2.947 1.734 4.352 2.694 1.202.817 2.17 1.885 2.202 3.29v.062c-.002 1.039-.61 1.858-.86 2.846q-.076.3-.075.591c0 .547.199 1.06.563 1.472l.112.158c.189.246.436.442.709.605a4.45 4.45 0 0 0 1.937.457q.432.001.848-.092.217.05.446.05.27-.001.546-.062l-.008.004a4.2 4.2 0 0 1-1.894.444m-10.635-8.058q-.17 0-.348-.034c-.703-.137-1.49-.876-2.27-.876-.202 0-.403.05-.603.172l-.042.028c-.164.031-.322.077-.465.139l.085-.172c.211-.347.74-.526 1.206-.526.141 0 .276.015.394.048.466.133.851.358 1.279.563.236.113.523.267.796.282h.055c.478 0 1.256-.3 1.253-.797q.001-.088-.035-.182l-.002-.01-.003-.005-.001-.003a1.6 1.6 0 0 0-.292-.469l-.01-.227a2 2 0 0 0-.086-.405c.604.45.992 1.005.557 1.668a1.75 1.75 0 0 1-1.468.806m14.019-1.247q-.096 0-.192-.01l-.235-.146c-.464-.328-.433-.955-.499-1.416-.085-.604-.088-1.219-.081-1.833.1-.746.26-1.493.375-2.23.29-1.866.125-4.518-2.502-4.992a3 3 0 0 0-.196-.03c-.318-.339-.736-.483-1.193-.483h-.012c.293-.068.595-.104.896-.104a3.4 3.4 0 0 1 1.449.312c1.546.722 2.158 2.115 2.156 3.575q0 .225-.018.454c-.12 1.42-.636 2.927-.639 4.387-.001.437.044.87.16 1.296.027.096.053.2.084.303.095.328.22.648.445.688q.057.117.131.225a2 2 0 0 1-.129.004m-32.959-4.014c-.679-.093-1.252-.627-1.752-.996-1.599-1.18-3.925-2.33-6.136-2.33-.583 0-1.157.08-1.708.26-.753.246-1.552.758-2.148 1.386q-.18.182-.33.38c-.311.151-.582.366-.805.637q.102-.265.252-.515l.004-.007.002-.004a5 5 0 0 1 .177-.268l.003-.005c.198-.276.437-.538.704-.774a6.18 6.18 0 0 1 4.113-1.565c.601 0 1.215.087 1.825.267 1.286.381 2.695.945 3.752 1.714.124.088.267.21.423.346.235.202.499.436.773.636q.128.092.258.173c.177.239.376.464.593.665M89.342 43.6a1.6 1.6 0 0 1-.31-.277c-.406-1.817.366-3.865.084-5.68-.166-1.061-.698-2.104-2.042-2.241a6 6 0 0 0-.977-.018 2.751 2.751 0 0 0-1.057-.262 6.3 6.3 0 0 1 1.542-.199 4.8 4.8 0 0 1 1.158.139c1.54.403 1.874 1.886 1.874 3.39-.001.455-.032.91-.069 1.34-.05.556-.11 1.067-.128 1.466-.021.47-.05.959-.004 1.436q-.069.458-.07.906"/><path fill="#e3a037" d="M61.857 85.046c-.068-.764.881-1.79 1.255-2.301l.19-.273.04.007.108-.166-.041-.008c.364-.58.644-1.226.672-1.882.095-2.147-1.968-3.784-4.096-4.396-.77-.22-1.564-.351-2.365-.434a16 16 0 0 0-1.696-.093q-1-.002-1.97.145c.256-.543.136-1.107-.754-1.5-.668-.296-1.475-.394-2.295-.394-.859 0-1.732.107-2.476.203-1.268.164-2.487.584-3.713.899q-.4.1-.788.221c.525-1.232 1.91-1.99 3.293-2.298 1.19-.267 2.453-.297 3.716-.297l.527.002h.53q.546.001 1.084-.011.191.043.366.073a9.6 9.6 0 0 0 1.59.141c1.354 0 2.631-.36 3.504-1.427.887-1.081.524-2.755-.725-3.462-1.565-.885-3.619-.161-5.135-1.257-1.754-1.266-.18-3.596-1.946-4.805a3.6 3.6 0 0 0-.84-.416q.18-.038.356-.068c.333-.056.701-.09 1.073-.09.748 0 1.519.135 2.093.494.664.413.8 1.357 1.083 1.983.275.605.652 1.397 1.241 1.815.503.362 1.092.352 1.71.409 1.056.094 2.244.483 2.964 1.2.696.686.317 1.685.05 2.451-.434 1.242-.848 2.626.123 3.758.485.564 1.293.843 2.119.864a4.2 4.2 0 0 0 1.905.468h.033c1.948 0 2.92-1.578 2.491-3.11-.333-1.191-1.315-2.102-1.11-3.39.13-.815.265-1.47-.447-2.094a1.9 1.9 0 0 0-.494-.307q.352-.08.706-.082c.448 0 .897.107 1.336.36 1.596.916.916 2.98 1.005 4.608.265.785 1.005.85 1.585 1.553.371.45-.093 1.312-.048 1.844.028.343.076.683.094 1.026.021.45.05.93.436 1.242.176.56.526 1.078 1.084 1.504.52.4 1.104.569 1.69.569.912 0 1.832-.412 2.527-1.007 4.085-3.508-1.108-8.1-2.635-11.408-.613-1.327-.49-2.591-.188-3.962.242-1.08.282-2.116-.084-3.177-.69-2.004-2.589-3.103-4.736-3.679-1.3-.348-2.644-.554-3.946-.891-1.395-.36-2.606-1.071-3.97-1.491a3.7 3.7 0 0 0-1.084-.174c-.434 0-.834.091-1.185.261q.15-.197.33-.38c.597-.627 1.395-1.14 2.149-1.386.55-.18 1.125-.26 1.708-.26 2.21 0 4.537 1.15 6.136 2.33.5.369 1.073.903 1.752.996.302.282.642.517 1.02.68.193.083.408.125.621.125.343 0 .684-.106.943-.308.805-.627 1.014-1.404.892-2.323-.06-.439-.202-.872-.32-1.301-.187-.693-.144-1.381-.143-2.086 0-.906-.341-1.776-1.137-2.362a2 2 0 0 0-.112-.078c1.793.227 3.366 1.287 3.78 2.884.53 2.04-.99 4.219-1.604 6.127-.455 1.423.51 2.575 1.401 3.688.484.61 1.041 1.23 1.095 2.003.065.957-.494 1.966-.715 2.892-.32 1.335.23 2.18 1.08 3.249.441.553.796 1.104 1.048 1.697l-.007.036c.291 1.083.14 2.287.104 3.435-.05.361-.1.713-.126 1.052-.058.721.07 1.419.692 1.921.214.173.454.247.693.247.263 0 .525-.092.75-.247q.173.03.347.03c.832 0 1.668-.48 2.21-1.211 1.274-1.71.236-3.428.221-5.276-.005-1.082.855-2.046 1.283-3.021.317-.725.226-1.561.014-2.296-.489-1.696-2.07-3.053-3.345-4.314-1.697-1.673-2.67-3.67-2.49-5.937.185-2.35 1.685-4.432 1.669-6.82-.007-1.045-.37-2.62-1.359-3.413.353.107.676.24.913.362 1.547.799 2.427 2.16 2.314 3.745-.179 2.565-2.706 4.97-2.358 7.462.123 1.467 1.082 2.664 2.228 3.764 1.595 1.524 4.102 3.028 3.66 5.387-.309 1.65-2.032 3.54-.109 4.94a2.1 2.1 0 0 0 1.27.398c.867 0 1.771-.43 2.443-.868q.059-.037.116-.077c1.274-.177 2.426-1.04 3.24-1.903 1.252-1.329 1.712-3.05.679-4.597-.468-.705-1.261-1.127-2.101-1.403-.71-.236-1.42-.39-2.094-.705-.613-.285-1.144-.68-1.773-.941a2 2 0 0 0-.756-.133 2.6 2.6 0 0 0-.5.047l.041-.028c.2-.123.402-.172.603-.172.78 0 1.568.739 2.27.877q.177.033.349.033a1.75 1.75 0 0 0 1.468-.806c.434-.662.046-1.218-.558-1.668-.322-.985-1.373-1.644-2.172-2.35-1.89-1.676-1.85-3.785-.545-5.742.423-.637.92-1.313 1.205-2.019 1.435-1.982-.784-4.43-1.278-6.357-.406-1.576 1.312-4.086-.708-5.03q.198-.01.384-.011c.213 0 .414.01.593.028 1.344.137 1.876 1.18 2.041 2.24.283 1.816-.489 3.864-.084 5.682q.137.158.311.277 0 .343.05.676c.143.888.809 1.497 1.625 1.497.37 0 .77-.125 1.168-.408 1.781-1.265 2.95-3.637 2.986-5.627.008-.43-.109-.92-.316-1.367.287.185.54.418.746.657 1.377 1.588 1.118 3.698-.224 5.197-1.226 1.37-2.856 2.435-4.24 3.67-1.139 1.014-2.172 2.18-2.526 3.606-.084.337-.109.676-.085 1.01.075.59.273 1.153.661 1.633 1.064 1.316 2.766 2.19 4.276 3.043 1.092.62 2.338 1.36 2.831 2.478.45 1.017.333 2.016-.083 2.984-.296.738-.664 1.444-.577 2.253.09.822.741 1.471 1.503 1.876l.085.043c.596.399 1.345.593 2.097.593.662 0 1.327-.15 1.895-.444l.008-.004c1.188-.252 2.431-1.243 2.96-2.04.873-1.312-.184-2.61-1.036-3.653-1.056-1.298-2.516-2.296-3.197-3.819-.81-1.804-.654-4.213-.23-6.077.282-1.239.62-2.68-.245-3.808a2 2 0 0 0-.1-.117q.097.012.196.03c2.627.474 2.792 3.126 2.501 4.993-.114.737-.274 1.483-.374 2.229-.007.614-.004 1.229.081 1.833.065.462.035 1.088.499 1.416l.234.147a2 2 0 0 0 .322.005q.145.215.372.383c.264.192.538.273.812.273 1.038 0 2.061-1.17 2.444-1.85.52-.926.857-1.818 1.906-2.4.623-.346 1.602-.382 1.882-1.105q.057-.149.08-.286c.784.634.65 1.748.149 2.504-.587.888-1.565 1.58-2.407 2.271-1.265 1.046-2.281 2.283-2.268 3.886.014 1.508 1.322 2.75 1.923 4.092.733 1.636.393 3.593-1.577 4.302-1.056.38-2.251.448-3.359.63-1.743.29-3.17 1.194-4.277 2.4-.748.816-1.234 1.79-1.266 2.853-.01.386.023.77.084 1.156.304.966.771 1.879 1.238 2.794a16.8 16.8 0 0 0-3.747-1.166 13 13 0 0 0-2.395-.221c-3.064 0-6.01 1.099-7.464 3.38-1.044-.957-2.533-1.569-4.385-1.569q-.867-.001-1.835.185c-2.657.524-5.334 1.933-7.414 3.652.117-.336.228-.724.228-1.079 0-.396-.14-.75-.563-.946-.488-.226-1.03-.315-1.59-.315-.829 0-1.697.196-2.482.43-1.837.552-3.619 1.522-5.064 2.686"/><path fill="#f9e1be" d="M86.37 44.737c-.492-2.27-5.52-6.659-1.88-8.628l.015.138c-1.593 1.397-.457 3.266.395 4.76.653 1.142 1.47 2.349 1.588 3.653zM71.5 60.046c-1.594-2.81-5.25-3.024-8.403-3.267-2.014-.156-5.332-.383-5.48-2.713l.112-.073c.574 2.398 4.67 2.173 6.768 2.398 2.788.305 6.199.795 7.118 3.548zM48.43 68.106c-2.914 0-3.075-3.98-1.003-5.247l.04.13c-.748.834-1.239 1.927-.861 2.998.375 1.067 1.197 1.463 2.291 1.858l-.108.242a3 3 0 0 1-.358.019M63.487 68.827a.1.1 0 0 1-.061-.021c-1.087-.76-.168-2.116.767-2.606l.041.143c-.27.302-.624.593-.767.964-.17.436.012.765.222 1.16.048.087-.07.36-.202.36M97.012 52.05a.1.1 0 0 1-.07-.032c-.546-.573-.869-1.463-.717-2.216.17-.837.767-1.243 1.22-1.95l.058.005c-.18.64-.815 1.064-.831 1.77-.013.77.296 1.416.545 2.136.028.083-.095.287-.205.287"/><path fill="#90534f" d="M94.822 78.843c-3.823-.715-8.027.282-9.86 3.158-1.368-1.256-3.502-1.916-6.22-1.384-2.657.524-5.334 1.933-7.414 3.652.25-.71.468-1.653-.335-2.025-1.213-.561-2.755-.278-4.072.116-3.09.927-6.025 3.041-7.466 5.266-1.092 1.693-.47 3.333 2.001 3.703 2.299.344 5.515-.227 7.452-1.374l.043-.038c.401.244.876.433 1.268.591 1.516.609 3.287.893 5.02 1.068 2.884.284 6.221.099 8.833-1.171a4.3 4.3 0 0 0 1.285-.951c.082 1.174 2.368 1.247 3.576 1.172 2.302-.14 4.628-.843 6.746-1.572 2.865-.989 6.627-2.394 6.595-5.06-.036-2.777-4.326-4.569-7.453-5.151"/><path fill="#efb3ba" d="M59.445 88.307c.741-2.117 3.675-3.988 6.117-5.081 1.055-.472 2.216-.81 3.411-.903.721-.056 1.455.05 1.967.41.505.36.3 1.14.166 1.717-1.278 1.09-2.313 2.296-2.949 3.476l.056.08c-.119.352-.15.706-.055 1.05.074.273.284.504.56.706-2.749 1.267-10.64 2.448-9.273-1.455"/><path fill="#ee9897" d="M84.547 89.806c-1.944 1.355-5.306 1.445-7.686 1.372-2.588-.077-5.567-.557-7.561-1.742-1.89-1.127.495-3.093 1.379-4.312l.004-.01c.12-.11.25-.212.374-.316l.097-.061.014-.032a19.8 19.8 0 0 1 6.18-3.404c1.947-.648 4.052-.782 5.86-.078 1.861.725 2.717 2.33 3.063 3.815.366 1.6.034 3.543-1.725 4.768"/><path fill="#d68d8b" d="M95.746 88.648c-1.858.66-3.813 1.194-5.806 1.476-1.186.167-4.092.395-4.351-.831l-.04-.053c.699-.852 1.016-1.887 1.107-2.816a5.27 5.27 0 0 0-1.611-4.348c2.125-2.642 5.776-3.45 9.523-2.814 2.988.507 6.212 1.984 7.144 4.237 1.102 2.667-3.311 4.21-5.966 5.15"/><path fill="#713735" d="M77.549 91.692c-.787 0-1.563-.042-2.31-.116-1.733-.174-3.504-.459-5.02-1.067-.391-.158-.866-.347-1.267-.592l-.043.038c-1.559.924-3.946 1.473-6.016 1.473a10 10 0 0 1-1.436-.099l-.017-.002a5 5 0 0 1-.654-.141 4 4 0 0 1-.372-.126l-.003-.001-.006-.003c-1.273-.508-1.703-1.51-1.335-2.625l.168.247q.04.047.086.09c-.295 1.646 1.34 2.207 3.389 2.207 2.113 0 4.668-.596 6.005-1.213-.275-.202-.485-.433-.559-.706-.096-.344-.064-.698.055-1.05l-.056-.08c.636-1.18 1.67-2.386 2.95-3.476.133-.576.338-1.358-.167-1.716-.428-.301-1.01-.425-1.61-.425h-.07a3.6 3.6 0 0 0-.913-.1c-.398 0-.818.04-1.22.095.733-.208 1.525-.373 2.285-.373.556 0 1.094.088 1.581.313.423.196.563.55.563.947 0 .355-.11.742-.228 1.078 2.08-1.718 4.757-3.127 7.415-3.652a9.7 9.7 0 0 1 1.834-.184c1.852 0 3.341.611 4.385 1.569 1.454-2.281 4.4-3.38 7.465-3.38.797 0 1.603.074 2.394.22 3.127.584 7.416 2.375 7.452 5.151v.031c.003 2.647-3.741 4.046-6.594 5.03-2.118.729-4.445 1.432-6.746 1.573-.198.012-.427.021-.668.021-1.232 0-2.84-.213-2.908-1.194-.345.368-.761.7-1.285.951-1.936.942-4.27 1.287-6.524 1.287m3.01-10.941c-1.069 0-2.163.2-3.212.55a19.8 19.8 0 0 0-6.18 3.403l-.013.032-.097.062c-.124.104-.255.206-.375.316l-.004.01c-.884 1.219-3.27 3.185-1.379 4.311 1.995 1.186 4.974 1.665 7.562 1.743.353.01.728.018 1.116.018 2.23 0 4.913-.237 6.57-1.39 1.758-1.226 2.09-3.168 1.723-4.768-.345-1.486-1.201-3.09-3.062-3.815a7.3 7.3 0 0 0-2.648-.472m11.631-1.696c-2.861 0-5.474.944-7.145 3.021a5.27 5.27 0 0 1 1.61 4.348c-.09.928-.407 1.964-1.106 2.816l.04.052c.162.768 1.36.965 2.525.965.696 0 1.382-.07 1.825-.133 1.994-.282 3.949-.816 5.807-1.476 2.655-.94 7.068-2.482 5.965-5.149-.932-2.253-4.156-3.73-7.144-4.237a14 14 0 0 0-2.377-.207"/><path fill="#b9777a" d="M62.713 90.976c-2.05 0-3.684-.562-3.39-2.207.54.538 1.373.714 2.262.714.301 0 .61-.02.914-.053 1.68-.181 2.788-.97 3.425-2.107.51-.913.978-1.67 1.865-2.449.556-.486 1.326-.792 1.868-1.276.55-.49.495-.98-.247-1.243a2 2 0 0 0-.15-.045l.07-.001c.6 0 1.183.124 1.61.425.506.359.3 1.14.168 1.716-1.28 1.09-2.314 2.296-2.95 3.476l.056.08c-.118.352-.15.707-.055 1.05.074.274.284.505.56.706-1.338.617-3.893 1.214-6.006 1.214"/><path fill="#b86565" d="M77.977 91.196c-.388 0-.763-.007-1.116-.018-2.588-.078-5.567-.557-7.561-1.743-1.89-1.126.495-3.092 1.379-4.312l.004-.009c.12-.11.25-.212.374-.316l.097-.062.014-.031a19.8 19.8 0 0 1 6.18-3.405c1.048-.35 2.142-.55 3.212-.55a7.3 7.3 0 0 1 2.648.473c1.861.724 2.717 2.33 3.063 3.815.366 1.6.034 3.543-1.725 4.768-1.656 1.153-4.34 1.39-6.569 1.39m.815-9.78c-1.517 0-3.299.684-4.4 1.4-1.239.638-2.355 1.386-3.27 2.298-.704.7-1.837 2.205-1.022 3.001.708.692 1.939.95 3.273.95 1.684 0 3.533-.41 4.71-.88 2.865-1.142 4.714-3.93 2.883-5.967-.517-.576-1.3-.802-2.174-.802"/><path fill="#a65e5d" d="M88.114 90.258c-1.165 0-2.362-.198-2.525-.965l-.04-.052c.699-.853 1.016-1.888 1.107-2.817a5.27 5.27 0 0 0-1.611-4.347c1.67-2.078 4.284-3.022 7.145-3.022.779 0 1.576.071 2.378.207 2.988.507 6.212 1.984 7.144 4.237 1.102 2.667-3.311 4.21-5.966 5.15-1.858.66-3.813 1.193-5.806 1.475-.444.064-1.13.134-1.826.134m3.812-10.977c-2.308 0-5.17.808-5.197 2.686-.025 1.79 2.693 2.363 4.732 2.363h.144c2.424-.036 4.813-.825 4.73-2.864-.04-.994-1.797-1.835-2.91-2.053a8 8 0 0 0-1.499-.132"/></svg>