<svg xmlns="http://www.w3.org/2000/svg" width="96" height="55" fill="none" viewBox="0 0 96 55"><path fill="#65337c" d="M76.9 8.582c-7.157-4.945-16.571-5.748-22.789.238-1.697-4.365-5.464-7.8-11.45-8.61-5.709-.772-12.18.635-17.804 3.28-2.068 1.485-4.478 2.446-6.556 3.939a25 25 0 0 0-2.097 1.667c-2.265 2.313-3.319 5.066-.881 8.198l.057.115a30 30 0 0 0 1.369 1.59c2.556 2.807 5.913 4.98 9.288 6.825 5.616 3.068 12.567 5.277 18.98 4.096 1.283-.236 2.417-.763 3.44-1.44-.855 3.118 3.736 5.154 6.255 5.937 4.802 1.488 10.143 1.543 15.083 1.36 6.682-.252 15.555-.864 17.796-7.812 2.333-7.233-4.837-15.348-10.69-19.383"/><path fill="#d7e19e" d="M18.301 7.428a26 26 0 0 0-2.085 1.657c-.283.288-.548.586-.788.886a28 28 0 0 1 3.06-2.668z"/><path fill="#8c43a7" d="M46.497 28.744c-5.129 1.948-12.041-.536-16.82-2.643-5.195-2.29-10.842-5.94-13.866-10.63-2.87-4.453 3.684-7.623 6.536-10.078l.02-.024c.336-.185.69-.346 1.035-.515l.252-.079.055-.076C28.546 2.36 34.043.977 39.227.852 43.75.74 48.142 2.1 51.212 5.382c3.16 3.38 3.512 8.239 2.922 12.375-.64 4.45-2.995 9.225-7.637 10.987"/><path fill="#8c43a7" d="M70.279 34.781c-4.35.21-8.788.02-13.087-.859-2.554-.522-8.664-2.276-8.125-5.67l-.038-.168c2.158-1.65 3.705-4.082 4.693-6.416 1.74-4.128 1.917-8.705.49-12.586 6.616-5.146 14.738-4.298 21.808.375 5.638 3.73 10.914 10.168 10.858 16.767-.066 7.813-10.381 8.254-16.6 8.557"/><path fill="#502163" d="M87.139 29.104a36 36 0 0 0-.65-.522c.245-.7.38-1.482.388-2.358.056-6.6-5.22-13.038-10.858-16.767-3.754-2.481-7.804-3.884-11.768-3.884-3.501 0-6.937 1.095-10.04 3.509 1.29 3.51 1.27 7.59-.034 11.39q-.286-.114-.582-.217c.242-.83.42-1.67.54-2.498.59-4.136.237-8.996-2.922-12.376C48.258 2.224 44.08.845 39.74.845q-.255 0-.512.007c-5.184.125-10.682 1.507-15.519 3.847l-.055.076-.252.079c-.345.17-.698.33-1.035.515l-.02.024c-2.852 2.455-9.406 5.625-6.535 10.077q.265.411.556.812-.719.224-1.427.482c-.708-1.067-1.014-2.089-1.013-3.062.001-1.684.922-3.223 2.275-4.606l.008-.007q-.424.433-.784.882a28 28 0 0 1 3.06-2.667l-.186.124c2.077-1.492 4.488-2.453 6.556-3.938C29.442 1.333 34.592 0 39.432 0c1.095 0 2.175.068 3.228.21 5.987.81 9.754 4.245 11.451 8.61 3.03-2.916 6.816-4.22 10.732-4.22 4.122 0 8.387 1.446 12.057 3.982 5.076 3.5 11.143 10.066 11.143 16.466 0 .98-.143 1.956-.453 2.917q-.194.6-.451 1.139M16.834 8.555"/><path fill="#aa8287" d="M15.428 9.971q.36-.45.784-.882.304-.272.622-.534.712-.587 1.467-1.127l.187-.125a28 28 0 0 0-3.06 2.668"/><path fill="#762e99" d="M31.783 23.33c.744-1.141 1.546-2.573 1.548-3.873v-.067c.502-.006.98-.032 1.424-.075 6.819-.65 12.996-6.398 11.039-13.164-.99-3.416-4.693-4.623-8.397-4.623-1.967 0-3.933.34-5.496.87-3.072.658-5.988 1.7-8.64 3.324-2.036 1.252-5.648 4.244-4.682 6.968.357 1.005.974 1.884 1.775 2.644-1.337.22-2.674.54-3.986.948a18 18 0 0 1-.557-.812c-2.87-4.452 3.684-7.622 6.536-10.077l.02-.024c.336-.185.69-.346 1.035-.515l.252-.08.055-.075C28.546 2.36 34.043.977 39.227.852q.257-.006.512-.007c4.34 0 8.519 1.379 11.473 4.536 3.16 3.38 3.512 8.24 2.922 12.376a18 18 0 0 1-.54 2.498 16.7 16.7 0 0 0-3.642-.816 24 24 0 0 0-2.662-.145c-5.162 0-10.686 1.561-15.507 4.037"/><path fill="#762e99" d="M86.49 28.582a32 32 0 0 0-2.122-1.527c-3.608-2.377-7.75-3.721-11.75-3.721-4.055 0-7.965 1.38-11.03 4.463-1.33-3.208-3.784-5.882-7.41-7.326 1.303-3.8 1.324-7.88.034-11.39 3.103-2.413 6.538-3.508 10.04-3.508 3.964 0 8.014 1.403 11.767 3.883 5.638 3.73 10.914 10.169 10.858 16.768a7.3 7.3 0 0 1-.388 2.358M64.557 6.151c-3.058 0-5.817 1.088-6.83 4.006-1.637 4.735 3.675 8.483 7.872 10.063 1.8.678 3.674 1.095 5.41 1.095 3.051 0 5.674-1.289 6.69-4.706.778-2.612-2.062-6.215-4.135-7.683-2.198-1.558-5.77-2.775-9.007-2.775"/><path fill="#452352" d="M84.368 27.056c-7.264-4.788-16.692-5.382-22.78.741-1.793-4.327-5.633-7.681-11.635-8.358-5.876-.662-12.508.986-18.17 3.892 1.089-1.671 2.303-3.962.953-5.55-2.029-2.389-5.426-2.824-8.443-2.795-7.093.064-14.82 3.35-19.576 8.072-3.611 3.59-3.663 8.35 1.107 11.207 4.435 2.65 11.495 3.608 16.399 2.083l.118-.063c.625.939 1.445 1.8 2.12 2.51 2.616 2.748 6.022 4.848 9.436 6.618 5.681 2.943 12.68 5.002 19.066 3.678 1.276-.264 2.398-.815 3.406-1.514-.786 3.135 3.849 5.068 6.385 5.795 4.834 1.383 10.175 1.321 15.11 1.03 6.674-.401 15.53-1.21 17.618-8.205 2.174-7.281-5.173-15.235-11.114-19.141"/><path fill="#8c43a7" d="M4.144 24.828c3.237-4.965 10.768-7.626 16.663-8.618 2.543-.431 5.197-.43 7.723.235 1.528.405 2.945 1.244 3.702 2.577.746 1.322-.306 3.205-1.046 4.612-3.507 1.875-6.606 4.239-8.864 6.835-.127.144-.064.263.051.253-.525.834-.88 1.733-.963 2.703-.068.776.174 1.543.574 2.275-6.662 1.22-23.805-1.715-17.84-10.872"/><path fill="#8c43a7" d="M54.416 47.88c-5.083 2.06-12.048-.267-16.874-2.27-5.245-2.177-10.97-5.698-14.096-10.321-2.967-4.39 3.516-7.704 6.314-10.22l.018-.028c.332-.19.681-.357 1.023-.536l.251-.083.053-.078c4.784-2.447 10.25-3.946 15.428-4.19 4.52-.21 8.944 1.052 12.084 4.27 3.231 3.308 3.692 8.157 3.192 12.307-.541 4.46-2.79 9.287-7.393 11.148"/><path fill="#8c43a7" d="M78.323 53.393c-4.344.307-8.786.213-13.104-.57-2.565-.465-8.71-2.085-8.246-5.489l-.041-.168c2.12-1.696 3.613-4.162 4.547-6.518 1.65-4.163 1.727-8.743.216-12.595 6.499-5.29 14.638-4.62 21.81-.103 5.719 3.603 11.134 9.924 11.225 16.524.106 7.812-10.198 8.48-16.407 8.92"/><path fill="#361841" d="M72.794 54.572c-2.263 0-4.547-.126-6.77-.481l.426-.058a8 8 0 0 0 1.4-.29l.103.05c.467-.081.86-.232 1.188-.443 1.567.142 3.14.206 4.71.206 1.497 0 2.99-.059 4.472-.163 6.21-.438 16.514-1.107 16.408-8.919-.091-6.6-5.507-12.92-11.225-16.524-3.69-2.323-7.635-3.629-11.481-3.629-3.631 0-7.174 1.164-10.33 3.732.782 1.993 1.139 4.184 1.072 6.408a8 8 0 0 0-.79-.252c.041-3.482-.767-7.13-3.361-9.785-2.918-2.99-6.944-4.29-11.127-4.29q-.478 0-.957.02c-5.178.244-10.644 1.743-15.428 4.19l-.053.078-.25.083c-.343.179-.692.345-1.024.536l-.018.028c-2.142 1.925-6.441 4.319-7.011 7.304q-.494-.224-.998-.416c.162-.426.373-.839.623-1.235l-.012.002c-.108 0-.162-.116-.039-.255 2.258-2.596 5.356-4.96 8.864-6.835.74-1.407 1.792-3.29 1.046-4.612-.658-1.159-1.815-1.944-3.11-2.396-1.104-.878-2.774-1.337-4.363-1.634 2.897.024 6.05.523 7.976 2.79.427.501.598 1.074.597 1.675-.002 1.3-.805 2.732-1.55 3.874 4.822-2.475 10.346-4.037 15.508-4.037.9 0 1.79.047 2.662.145 6.002.677 9.843 4.031 11.636 8.358 3.064-3.082 6.974-4.463 11.03-4.463 4 0 8.142 1.345 11.749 3.722 5.21 3.425 11.502 9.964 11.505 16.43 0 .908-.123 1.815-.39 2.711-2.088 6.995-10.945 7.804-17.62 8.206-1.655.097-3.356.169-5.068.169m-34.998-7.738q-.544-.796-1.106-1.588a47 47 0 0 0 1.445.607 7 7 0 0 0-.339.981M5.705 34.194A9 9 0 0 1 3.84 32.7l-.004-.004-.01-.011c-2.141-2.29-2.194-5.212-.553-7.823a4 4 0 0 0 .243 1.076c-1.616 3.405.137 5.856 3.206 7.483a15 15 0 0 0-1.018.772"/><path fill="#762e99" d="M6.723 33.421c-3.069-1.627-4.821-4.078-3.205-7.482.9 2.434 3.402 3.574 5.979 4.152a10 10 0 0 0 2.151.247c2.624-.001 4.819-1.173 6.582-3.144 1.782-2 3.36-3.622 5.807-4.982 1.531-.848 3.36-1.06 4.863-1.911 1.528-.865 1.807-2.185.5-3.434a4 4 0 0 0-.278-.24c1.295.45 2.453 1.236 3.11 2.395.746 1.322-.306 3.205-1.046 4.612-3.507 1.875-6.606 4.239-8.864 6.835-.122.139-.068.255.039.255l.012-.002a7 7 0 0 0-.622 1.235 17.7 17.7 0 0 0-6.295-1.177c-3.08 0-6.13.847-8.733 2.641"/><path fill="#762e99" d="M38.135 45.853a55 55 0 0 1-1.444-.607c-3.537-4.972-7.632-9.652-13.128-12.48q-.403-.206-.815-.393c.57-2.985 4.87-5.379 7.011-7.304l.018-.028c.332-.19.681-.357 1.024-.536l.25-.083.053-.078c4.784-2.447 10.25-3.946 15.428-4.19q.48-.021.958-.02c4.182 0 8.209 1.3 11.126 4.29 2.594 2.654 3.402 6.303 3.362 9.785a9 9 0 0 0-2.275-.278q-.499 0-1.007.047c-2.601.236-5.224 1.159-7.653 2.072-2.787 1.046-5.495 2.375-7.934 4.095-1.726 1.217-3.978 3.377-4.974 5.708m6.955-24.985c-2.088 0-4.198.396-5.846.999-3.056.723-5.95 1.83-8.565 3.511-2.01 1.295-5.553 4.367-4.526 7.068 1.75 4.609 8.997 6.387 14.152 6.387.777 0 1.508-.041 2.164-.118 6.803-.8 12.852-6.684 10.746-13.405-1.028-3.28-4.546-4.442-8.125-4.442M73.852 53.556c-1.57 0-3.144-.064-4.71-.206 2.792-1.79.877-7.814.052-10.132-.846-2.368-1.912-4.794-3.553-6.72a7 7 0 0 0-2.873-2.037c.066-2.224-.29-4.415-1.073-6.408 3.156-2.568 6.7-3.732 10.33-3.732 3.846 0 7.792 1.306 11.481 3.63 5.719 3.602 11.134 9.923 11.225 16.524.106 7.811-10.199 8.48-16.408 8.918a64 64 0 0 1-4.47.163m-1.588-28.662c-3.174 0-6.051 1.127-7.028 4.158-1.535 4.768 3.859 8.401 8.091 9.89 1.727.607 3.517.976 5.184.976 3.157 0 5.866-1.325 6.833-4.854.719-2.628-2.2-6.167-4.305-7.59-2.166-1.465-5.617-2.58-8.775-2.58"/><path fill="#452352" d="M69.194 43.218c-.846-2.368-1.912-4.794-3.553-6.72-1.775-2.085-4.29-2.762-6.945-2.52-2.602.237-5.224 1.159-7.653 2.072-2.788 1.046-5.496 2.375-7.934 4.095-1.967 1.388-4.616 3.999-5.313 6.69-3.79-5.549-8.155-10.94-14.233-14.068-5.662-2.914-12.727-2.751-17.757 1.342-2.392 1.948-3.92 4.703-4.969 7.557-.938 2.554-1.364 5.556.224 7.935 1.875 2.812 6.339 3.628 9.414 4.08 4.314.636 8.786.683 13.138.656 4.447-.025 8.739-.637 13.14-1.099.674-.072 2.694-.434 3.027-1.265 2.807 2.047 7.345 2.145 10.523 2.361 3.738.256 7.477.403 11.221.194a63 63 0 0 0 4.926-.495 8 8 0 0 0 1.4-.29l.103.05c4.447-.765 2.163-7.984 1.24-10.575"/><path fill="#8c43a7" d="M36.379 52.538c-2.482.398-4.98.66-7.487.819-4.573.29-9.17.182-13.743-.054-4.048-.21-8.257-.618-11.81-2.736-3.723-2.216-2.974-6.554-1.555-9.958 3.019-7.237 10.42-10.284 17.847-8.301 7.087 1.89 12.59 8.128 16.769 13.817.42.572.826 1.154 1.233 1.737-.067 1.114.253 2.212 1.152 3.222q.222.243.47.462c.114.933-2.318.903-2.876.992M69.489 52.16c-1.285 1.272-3.689 1.158-5.382 1.348-2.44.27-4.902.316-7.353.28a97 97 0 0 1-9.035-.543c-2.474-.263-5.075-.694-7.242-1.978-2.569-1.524-2.54-4.262-1.12-6.624 1.594-2.66 4.533-4.458 7.202-5.871 2.676-1.414 5.549-2.474 8.463-3.279 2.824-.781 5.864-1.306 8.501.304 2.46 1.507 3.727 4.585 4.762 7.134.788 1.945 2.596 6.712 1.388 9.136z"/><path fill="#361841" d="M19.455 32.26h-.008z"/><path fill="#762e99" d="M23.028 53.532h-.005c-2.393 0-4.787-.077-7.175-.194l-.075-.004h-.012l-.612-.03c-4.048-.21-8.258-.62-11.81-2.736-2.015-1.199-2.72-3.02-2.718-4.976.001-1.661.512-3.42 1.163-4.983.15-.359.319-.699.488-1.037-.55 1.62-.339 3.274 1.117 4.537 1.73 1.499 4.312 1.97 6.506 2.25 2.034.26 4.118.38 6.172.38l.555-.003c2.348-.027 4.95-.221 7.018-1.435 2.07-1.215 2.047-3.593 1.34-5.636-1.364-3.93-4.74-6.734-8.62-7.897 1.021.073 2.053.228 3.087.492h.008l.003.002.173.046c7.086 1.89 12.59 8.128 16.769 13.817.42.572.826 1.155 1.233 1.737a5 5 0 0 0-.009.287c.001 1.015.34 2.012 1.161 2.935q.221.243.47.462l.004.064c-.003.868-2.335.842-2.88.928-2.482.398-4.98.66-7.488.82l-.123.007a94 94 0 0 1-5.736.167z"/><path fill="#361841" d="m39.24 50.221-.004-.005zm16.495-14.917h-.003c1.255-.32 2.542-.558 3.808-.558h.002c-1.266 0-2.553.239-3.807.557"/><path fill="#762e99" d="M58.155 53.798h-.003q-.7 0-1.397-.01a97 97 0 0 1-9.035-.543c-2.474-.263-5.075-.695-7.242-1.978a4.6 4.6 0 0 1-1.234-1.042l-.004-.004-.004-.005c-1.112-1.377-1.046-3.2-.23-4.913-.298.753-.377 1.505-.025 2.162.854 1.588 3.138 1.759 4.727 1.867q.878.06 1.77.059c1.562 0 3.14-.127 4.668-.322 4.72-.596 10.694-2.579 10.924-8.193.134-3.3-2.45-5.115-5.335-5.572 1.255-.32 2.54-.558 3.807-.558.53 0 1.056.042 1.575.138a7 7 0 0 1 2.38.895l.027.018c2.46 1.507 3.727 4.585 4.762 7.134.6 1.482 1.792 4.6 1.792 7.073 0 .775-.116 1.485-.404 2.063l-.184.093c-1.285 1.272-3.689 1.158-5.382 1.348l-.145.016-.347.036c-1.811.178-3.634.238-5.455.238z"/><path fill="#a15ab3" d="m20.402 10.76-.142-.044C19.827 8.47 23.953 6.035 25.5 5.26c3.159-1.582 7.024-2.803 10.592-2.84h.004c.445 0-.037.843-.281.92a88 88 0 0 0-8.537 3.137c-1.628.7-3.264 1.472-4.725 2.481-.771.534-1.346 1.353-2.15 1.801M6.64 24.717c-.275 0-.232-.533-.095-.746 2.901-4.615 9.468-6.433 14.519-7.107l.044-.004c.346 0 .052.652-.195.717-2.901.768-5.74 1.73-8.396 3.14-2.076 1.105-3.696 2.75-5.677 3.931a.4.4 0 0 1-.2.07M5.29 40.49c-.38 0-.585-.361-.581-.757.014-1.482 1.09-2.859 2.117-3.827.753-.708 1.715-1.616 2.812-1.616l.09.003c.29.016.076.49-.008.596-.954 1.168-2.632 2.45-2.92 3.924-.128.658-.634 1.453-1.312 1.648a.7.7 0 0 1-.197.03M28.65 30.055c-.303 0-.23-.604-.101-.84 2.057-3.782 7.995-7.377 12.888-7.377 1.027 0 2.01.16 2.9.508.203.08-.08.443-.188.482-3.055 1.058-6.217 1.545-9.115 3.073-2.21 1.167-4.036 2.81-6.154 4.075a.5.5 0 0 1-.23.079M41.8 44.989c-.26 0-.463-.167-.46-.613.02-3.111 5.159-5.254 7.757-5.254h.012c.302.002.008.567-.136.63a21.4 21.4 0 0 0-3.692 2.115c-1.1.78-1.788 1.6-2.595 2.63-.212.27-.586.492-.886.492M66.99 31.343a.7.7 0 0 1-.367-.1c-.566-.327-.39-1.242-.192-1.723.61-1.479 1.776-2.563 3.272-3.11.506-.185 1.229-.412 1.89-.412.428 0 .83.096 1.131.362.287.253-.073.736-.334.85-1.658.707-3.124 1.431-3.89 2.93-.23.45-.888 1.203-1.51 1.203M60.036 13.044c-.319 0-.6-.2-.667-.55-.231-1.243.555-2.82 1.404-3.715.278-.295.9-1.016 1.424-1.016.142 0 .277.053.396.181.107.116.04.365-.007.49-.146.378-.353.781-.44 1.095-.185.65-.19 1.321-.455 1.952-.261.624-.735 1.333-1.43 1.531a.8.8 0 0 1-.225.032"/></svg>