<svg xmlns="http://www.w3.org/2000/svg" width="117" height="97" fill="none" viewBox="0 0 117 97"><path fill="#2a2c69" d="M101.249 30.071c-2.283.137-4.596 1.544-5.86 3.419-.77 1.139-1.085 2.568-1.504 3.857-.262.807-.58 1.575-1.112 2.243-1.14 1.433-1.438-.136-1.69-1.167-.778-3.227.503-6.71.742-9.939.211-2.83-.668-5.65-3.312-7.04-2.383-1.257-5.293-.243-6.894 1.74-2.085 2.591-1.22 5.756.303 8.342 1.055 1.792 2.362 3.45 3.174 5.372.804 1.901.991 4.006 1.71 5.941.467 1.259 1.41 2.099 2.332 3.022 1.243 1.238 2.13 2.722 2.507 4.438.284 1.296.104 2.644-.573 3.72-1.797 2.434-4.804 2.792-7.317 1.412a4 4 0 0 1-1.097-1.054l-.174-.278c-.763-.978-1.055-2.276-.757-3.606.397-1.767 1.368-3.22 1.332-5.091-.047-2.455-1.547-4.32-3.41-5.754-2.177-1.676-4.741-2.792-6.741-4.706-2.327-2.232-2.9-5.417-1.382-8.273 2.68-5.038 9.053-7.427 11.046-12.906 1.423-3.914-1.827-11.878-6.774-8.294-2.256 1.634-2.296 4.218-2.536 6.746-.093.982-.299 1.968-1.043 2.676-.68.644-.649.223-.779-.397-.236-1.105-.172-2.288-.125-3.41.124-3.011 1.446-9.646-2.6-10.837-2.245-.661-5.153.066-6.995 1.447-1.468 1.103-1.794 2.944-1.51 4.653.386 2.3 1.74 4.458 2.91 6.432 1.24 2.09 2.739 4.099 2.671 6.635-.064 2.438-1.393 4.714-2.438 6.997-.535 2.208-.514 4.296.157 6.252a8.4 8.4 0 0 0 1.505 2.034c1.092 1.107 2.433 1.944 3.763 2.733 1.232.733 2.943 1.472 3.425 2.937.362 1.096-1.159 1.764-1.972 1.714-.427-.026-.868-.294-1.235-.491-.661-.355-1.26-.752-1.98-.982-.796-.252-2.056.046-2.483.833-1.374 2.537 2.647 3.638 4.352 4.227 2.952 1.022 6.51 2.672 5.335 6.449-.876 2.816-3.302 5.698-6.027 6.862-1.193.508-2.445.435-3.513-.301-2.329-1.603-.894-4.559-.223-6.615 1.124-3.447-.27-5.94-2.547-8.483-.864-.962-1.805-1.9-2.693-2.87-1.083-1.081-2.087-2.226-2.752-3.647-.871-1.861-1.072-4.376-.156-6.29.49-1.574 1.289-3.11 1.885-4.492 1.037-2.4 1.938-5.102 1.215-7.718-.576-2.081-2.362-3.722-4.235-4.661-1.43-.717-3.294-1.067-4.636-.004-1.643 1.305-1.044 4.018-.368 5.625.701 1.672 1.85 3.088 2.43 4.824.795 2.359-.435 4.95-1.088 7.196-.892 3.06-.78 6.29.66 9.15 1.226 2.442 3.28 4.453 5.075 6.474 1.005 1.135 2.132 2.108 2.954 3.398.806 1.27.687 2.334.116 3.262-.703 1.816-2.828 3.642-3.109 5.408-.368 2.33.21 4.728.017 7.075-.09 1.082.017 2.662-.742 3.555-1.644 1.933-3.066-.29-3.195-2.008-.161-2.14.483-4.245.512-6.38.022-1.442-.376-2.662-.829-3.894a15 15 0 0 0-1.034-1.675c-.784-1.111-1.69-2.225-1.78-3.636-.115-1.828.777-3.685 1.14-5.443.597-2.904-1.631-4.882-3.03-7.175-.923-1.518-1.101-2.792-.574-4.479.562-1.792 1.355-3.502 1.876-5.31.872-3.022 1.095-6.547-1.57-8.748-1.854-1.534-4.848-2.416-7.159-1.543-1.965.742-2.78 3.01-2.046 4.885.45 1.143 1.326 2.115 2.07 3.07.413.529.794 1.07 1.128 1.649.497.864 1.212 3.619-.73 3.71-1.247.06-2.736-1.822-3.606-2.534-1.64-1.34-3.825-2.33-5.818-2.996-3.346-1.117-6.745-.18-9.201 2.273-1.82 1.819-2.778 4.45-1.468 6.819.94 1.698 3.021 2.312 4.794 2.646 4.797.91 10.614-.146 14.682 3.107 1.091.874 1.798 2.135 2.2 3.453.611 2.011-.426 4.288-.793 6.26-.626 3.39 1.23 5.909 3.268 8.383 2.361 2.87 4.118 7.593.86 10.598-.99.911-4.049 1.907-4.64.085-.414-1.276-.359-3.436-.045-4.664.315-1.23-.175-2.148-1.173-2.848-1.02-.712-1.447-1.16-1.51-2.523-.051-1.13.252-2.261.255-3.396.006-3.161-3.267-4.87-6.026-4.121-2.092.568-4.428 3.164-4.174 5.444.114 1.021.76 1.662 1.53 2.281 1.236.996 2.5 1.928 3.113 3.457 1.148 2.86-2.893 3.537-4.776 2.865-3.178-1.133-2.422-4.76-1.656-7.24.691-2.222.87-4.214-1.251-5.657-1.153-.78-2.634-1.178-4.004-1.317-1.36-.139-2.155-.33-2.96-1.54-1.254-1.888-1.385-5.105-3.643-6.123-2.684-1.212-6.221-.148-8.565 1.318-2.279 1.425-3.867 3.76-4.107 6.448-.169 1.89.48 3.862 1.866 5.059 1.45.729 3.165 1.029 4.796 1.038.913.007 1.845-.05 2.782-.108 1.716-.104 3.446-.21 5.104.078 1.335.231 3.138.848 3.124 2.466l.046.147.009.028c.058.175.1.357.108.564.092 2.396-4.891 2.378-7.572 2.36-.51-.003-.936-.007-1.228.006-3.487.158-6.92.154-9.579 2.748C.467 69.253-.59 71.746.362 73.81c1.224 2.656 5.1 1.885 7.21 1.192 4.09-1.344 7.763-3.536 12.209-3.437 2.158.049 4.284.545 6.234 1.469 1.912.91 3.586 2.237 4.657 4.08.84 1.448.743 2.981.22 4.417a6.5 6.5 0 0 1-.965 2.088 10 10 0 0 1-.549.699c-1.107 1.721-2.424 4.055-.514 5.56 1.11.872 2.97.877 4.295.932.812.033 1.624.028 2.438.021.839-.005 1.679-.012 2.519.025 9.393.411 18.866.554 28.264.33 6.237-.15 12.629-.572 18.83-1.743.988-.273 2.018-.594 2.765-1.285.275-.256.488-.535.68-.827.152-.341.248-.721.275-1.113.157-2.124-1.165-4.443-2.062-6.282-.158-.322-.307-.632-.46-.946-1.463-2.243-2.494-4.736-2.228-7.45.028-1.249.458-2.277 1.114-3.236a10.8 10.8 0 0 1 1.344-1.847c.2-.222.403-.412.607-.59l.06-.072-.014.036.067-.055c.227-.217.466-.411.691-.563.42-.28.862-.504 1.317-.692.779-.403 1.685-.59 2.529-.758 2.082-.412 4.242-.553 6.141-1.585 1.864-1.014 2.705-2.952 2.917-4.972.301-2.844-1.27-5.203-2.546-7.587-.727-1.358-1.132-2.763-.865-4.306.346-1.994 1.727-3.36 3.134-4.672 1.803-1.68 4.336-3.72 4.64-6.355.298-2.576-1.553-4.37-4.067-4.215"/><path fill="#4040a0" d="M103.959 36.212c-.912 1.552-2.429 2.764-3.732 3.976-1.961 1.826-3.538 3.99-3.516 6.794.022 2.637 2.05 4.808 2.98 7.154 1.137 2.866.61 6.291-2.445 7.528-1.636.664-3.487.782-5.204 1.102-2.704.506-4.915 2.085-6.628 4.197-1.162 1.43-1.915 3.133-1.962 4.987-.018.672.035 1.352.13 2.025.859 3.079 2.548 5.855 3.573 8.877.382.903.712 1.827.913 2.787.196.93.066 1.475-.41 1.827-.37.541-1.23.737-1.988.86-.597.16-1.215.252-1.721.318a90 90 0 0 1-2.47.296c-5.038.738-10.123 1.14-15.288 1.262-9.208.218-18.482.03-27.684-.348-.942-.039-1.883-.035-2.824-.03-.566.002-1.132.004-1.698-.002-1.626-.023-3.84-.023-5.026-1.312-1.19-1.296.878-3.76 1.59-4.864q.153-.23.293-.475l.063.01.169-.291-.065-.012c.562-1.015.998-2.142 1.041-3.292.147-3.758-3.051-6.616-6.35-7.688-1.193-.387-2.422-.614-3.664-.76-3.438-.407-6.535-.074-9.724 1.312-2.979 1.293-6.465 3.34-9.79 2.276C.618 74.118.169 72.19.735 70.458c.751-2.287 2.965-3.69 5.187-4.25 2.107-.532 4.361-.522 6.593-.513 1.183.004 2.359.01 3.503-.067 2.003-.132 4.568-.672 4.969-2.988.813-4.686-8.651-3.684-11.169-3.684-1.402 0-2.82-.109-4.112-.689-1.759-.792-2.385-2.673-2.566-4.456-.424-4.208 3.839-7.076 7.474-7.763 1.555-.294 3.573-.23 4.905.707 1.033.727 1.238 2.376 1.677 3.468.429 1.057 1.013 2.443 1.926 3.179.78.63 1.692.613 2.649.712 1.635.166 3.478.848 4.594 2.097 1.077 1.203.492 2.948.075 4.29-.669 2.171-1.31 4.59.195 6.57 2.064 2.713 7.915 1.661 7.67-2.184-.168-2.632-2.963-3.656-4.405-5.421-.507-.619-.543-1.328-.319-2.022.044-1.246 1.196-2.306 2.274-2.897 1.6-.872 3.292-1.279 4.915-.228 2.47 1.605 1.42 5.216 1.556 8.064.411 1.37 1.558 1.481 2.456 2.713.574.787-.142 2.3-.075 3.227.044.599.118 1.192.144 1.79.04.837.085 1.729.794 2.277.884.681 2.681.086 3.548-.267 1.183-.483 2.017-1.53 2.563-2.644 1.24-2.532.88-5.599-.518-7.964-1.955-3.307-5.204-5.46-4.55-9.779.4-2.646 1.315-4.869.567-7.254-1.262-2.33-3.407-3.968-6.09-4.71-3.19-.884-6.397-.457-9.634-.87-2.17-.274-5.536-1.055-6.208-3.555a4.6 4.6 0 0 1-.148-1.41c.012-.583.163-1.171.425-1.745a6.2 6.2 0 0 1 1.026-1.589c.924-1.1 2.163-1.997 3.33-2.425 4.096-1.51 9.026 1.008 12.158 3.62.873.728 1.894 1.826 3.13 1.765.87-.044 1.431-1.16 1.638-1.865.638-2.168-.96-3.947-2.186-5.559-.79-1.037-1.612-2.167-1.641-3.521-.05-2.138 2.36-2.647 3.983-2.522 2.993.227 5.701 2.134 6.382 5.1.818 3.57-1.535 7.38-2.485 10.72-.706 2.486.791 4.5 2.17 6.451.75 1.061 1.616 2.152 1.697 3.499.1 1.677-.765 3.442-1.108 5.058-.493 2.336.356 3.814 1.676 5.686.682.966 1.231 1.926 1.624 2.968l-.008.06c.446 1.896.212 4.002.157 6.01-.08.632-.153 1.25-.195 1.84-.088 1.264.107 2.48 1.072 3.356.76.691 1.732.498 2.41-.146 1.582-1.499 1.629-4.284 1.421-6.266-.288-2.753-.794-5.14.942-7.54.534-.736 1.165-1.44 1.641-2.22.193-.206.373-.422.527-.669 1.907-3.047-1.708-5.88-3.48-7.872-2.25-2.532-4.75-5.057-5.64-8.423-1.096-4.145 1.302-7.782 1.604-11.806.28-3.727-3.383-6.259-3.318-9.97.053-2.942 3.792-1.749 5.298-.873 2.396 1.4 3.76 3.78 3.589 6.55-.28 4.49-4.198 8.695-3.655 13.053.186 2.561 1.675 4.66 3.453 6.581 2.469 2.667 6.356 5.297 5.67 9.421-.479 2.888-3.146 6.192-.17 8.644 1.78 1.463 4.18.336 5.756-.822 3.392-2.499 7.371-8.579 2.874-11.876-1.167-.855-2.629-1.296-3.98-1.759-.679-.232-5.743-2.028-3.775-3.399 1.501-1.045 3.083.928 4.456 1.23 1.16.253 2.222-.332 2.815-1.35 1.29-2.22-2.097-3.752-3.549-4.61-3.47-2.055-6.59-4.982-5.44-9.126.406-1.209.963-2.417 1.528-3.649 1.123-2.441 2.055-5.15 1.008-7.788-.799-2.007-2.157-3.803-3.222-5.668-1.115-1.945-2.668-4.656-1.867-6.97.807-2.329 4.7-2.917 6.77-2.678 2.082.241 2.907 2.064 3.163 3.917.44 3.176-.76 6.76-.132 9.935.379.49.901.841 1.48.93 1.63-1.28 1.69-3.522 1.868-5.56.176-2.046.99-3.897 3.101-4.573 1.499-.48 2.881.576 3.735 1.691 2.133 2.781 1.733 6.47-.348 9.096-1.897 2.395-4.426 4.255-6.572 6.412-1.765 1.777-3.364 3.82-3.913 6.31a6.3 6.3 0 0 0-.133 1.765c.114 1.032.424 2.02 1.026 2.857 1.648 2.305 4.287 3.83 6.628 5.324 1.692 1.081 3.62 2.379 4.385 4.333.698 1.783.518 3.527-.126 5.218-.462 1.293-1.029 2.528-.895 3.944.135 1.437 1.147 2.572 2.328 3.284l.13.07c1.74 1.31 4.312 1.36 6.188.263a5.3 5.3 0 0 0 1.243-.848c1.781-1.636 1.866-4.356 1.186-6.51-.432-1.371-1.312-2.549-2.291-3.578-1.316-1.384-2.16-2.368-2.72-4.273-.496-1.69-.714-3.472-1.475-5.078-.899-1.896-2.185-3.59-3.245-5.397-1.232-2.1-1.832-4.524-.34-6.685 1.123-1.626 3.27-2.088 5.097-1.716 4.068.828 4.324 5.468 3.874 8.726-.178 1.292-.428 2.598-.581 3.904-.01 1.072-.004 2.147.127 3.204.101.807.055 1.906.774 2.48q.176.137.365.254c.349.04.72.008 1.081-.102 1.567-1.458 1.917-3.882 2.736-5.838 1.094-2.614 5.289-4.67 7.886-3.074 1.661 1.02 1.496 3.232.644 4.684"/><path fill="#b69ccd" d="M15.885 72.028v-.001a15.678 15.678 0 0 0-.001.001"/><path fill="#222450" d="M30.115 83.335c.363-.58.605-1.17.777-1.804.249-.684.402-1.39.402-2.1 0-.777-.182-1.56-.622-2.317-1.072-1.843-2.746-3.171-4.657-4.08a15.4 15.4 0 0 0-6.235-1.47l-.295-.002q-.39 0-.771.022h-.004q-.006.002-.013.002c-.966.057-1.9.216-2.812.441a3.7 3.7 0 0 0 .47-.796 18 18 0 0 1 3.054-.255q1.285.002 2.627.162c1.242.146 2.471.373 3.664.76 3.299 1.072 6.497 3.93 6.35 7.688-.043 1.15-.479 2.277-1.041 3.292l.065.012-.158.272-.058.012-.016-.003q-.003.002-.004.007a15 15 0 0 0-.723.157m54.086-7.501a21 21 0 0 1-.619-1.859 12 12 0 0 1-.13-2.025c.047-1.854.8-3.558 1.962-4.987q.21-.258.428-.504.183.207.345.43l.036.051c-.335.419-.65.88-.93 1.364-.655.959-1.085 1.987-1.114 3.235a9 9 0 0 0-.04.707c-.172 1.182.083 2.394.062 3.588m4.719-11.115a5 5 0 0 0-.352-.59q.764-.479 1.605-.818c.47.215.997.379 1.435.51-.76.154-1.551.342-2.243.7q-.225.092-.445.198m10.832-4.07a9 9 0 0 0-.414-.3l-.158-.106c1.283-1.62 1.342-4.012.51-6.107-.65-1.644-1.84-3.2-2.502-4.89q.383-.296.763-.594.197.489.456.967c.476.89.994 1.777 1.44 2.688-.094 1.08.379 2.197 1.029 3.177l.05.075a6.8 6.8 0 0 1 .027 1.647c-.131 1.245-.5 2.458-1.2 3.444m.888-19.975a4 4 0 0 0-.404-.494c1.301-1.209 2.813-2.42 3.723-3.968.775-1.32.981-3.268-.234-4.377a2 2 0 0 0-.218-1.295c1.257.682 2.005 2.039 1.809 3.746-.304 2.636-2.837 4.676-4.641 6.354z"/><path fill="#b69ccd" d="M41.34 70.087c-.18-1.24-.094-2.797.154-3.77-.247.973-.329 2.52-.152 3.758z"/><path fill="#222450" d="M41.527 72.291c-.597-.553-.64-1.39-.676-2.177-.027-.599-.1-1.192-.145-1.791-.067-.928.649-2.44.075-3.227-.898-1.232-2.044-1.342-2.456-2.713-.136-2.848.914-6.459-1.556-8.064a3.73 3.73 0 0 0-2.073-.627c-.364 0-.728.051-1.091.142a3.6 3.6 0 0 0-.884-.3l.32-.104a5 5 0 0 1 1.326-.175c2.378 0 4.696 1.625 4.7 4.28v.016c-.003 1.045-.26 2.09-.261 3.13q0 .133.006.266c.063 1.363.49 1.81 1.51 2.523.795.557 1.268 1.254 1.267 2.137q.001.336-.094.71c-.249.973-.335 2.53-.154 3.77a6.2 6.2 0 0 0 .186 2.204M53.224 63.646c.054-1.368.06-2.736-.238-4.008l.007-.06c-.392-1.042-.942-2.002-1.624-2.969-1.32-1.872-2.17-3.349-1.676-5.685.343-1.616 1.208-3.381 1.108-5.059-.08-1.346-.947-2.437-1.697-3.498-1.379-1.95-2.876-3.965-2.17-6.452.95-3.339 3.303-7.15 2.485-10.72-.64-2.792-3.077-4.644-5.857-5.041a3.52 3.52 0 0 0-2.131-.686q-.15 0-.3.01a5.8 5.8 0 0 1 1.714-.246c1.745 0 3.577.681 4.91 1.69q.126.096.244.194c1.603 1.324 2.16 3.128 2.16 5.012 0 1.248-.243 2.534-.59 3.738-.52 1.806-1.315 3.517-1.877 5.309-.195.625-.294 1.195-.293 1.741.001.926.288 1.783.868 2.738 1.24 2.034 3.133 3.818 3.129 6.22q.001.46-.1.954c-.34 1.656-1.152 3.399-1.15 5.123q0 .159.01.321c.09 1.41.996 2.524 1.78 3.636.393.557.74 1.11 1.035 1.675.44 1.199.83 2.385.83 3.777q0 .059-.002.117c-.009.714-.087 1.425-.182 2.134q-.196.012-.393.035"/><path fill="#b69ccd" d="M12.796 64.998q-.062 0-.122-.002.06.002.122.002"/><path fill="#222450" d="M.303 70.428a7 7 0 0 1 1.512-2.484l.01-.01.003-.002q.082-.085.164-.168l.013-.012c2.658-2.594 6.092-2.59 9.578-2.748l.03-.001c.153-.007.34-.008.553-.008l.51.001q.06.002.121.002c.787.249 1.543.506 2.211.678q-.805.023-1.623.022l-.87-.003-.873-.003c-1.943 0-3.888.054-5.72.516-2.147.542-4.287 1.87-5.107 4.023a13 13 0 0 0-.512.197"/><path fill="#b69ccd" d="M28.447 67.363c-2.844-1.245-2.111-4.723-1.369-7.127-.74 2.395-1.461 5.852 1.352 7.108zM15.034 45.52l-.007-.003z"/><path fill="#222450" d="M29.914 68.585c-1.278-.038-2.53-.527-3.28-1.514-1.505-1.98-.864-4.398-.195-6.57.417-1.342 1.002-3.087-.075-4.29-1.116-1.25-2.96-1.93-4.594-2.097-.957-.099-1.87-.081-2.65-.712-.912-.736-1.496-2.121-1.925-3.179-.439-1.092-.644-2.741-1.678-3.468-.89-.626-2.086-.863-3.246-.863a9 9 0 0 0-2.212.276 5.7 5.7 0 0 0-1.245-.324c1.201-.466 2.513-.769 3.783-.769.843 0 1.668.133 2.43.443l.006.002.013.006q.088.035.174.074c2.257 1.018 2.388 4.235 3.642 6.123.805 1.21 1.6 1.401 2.96 1.54 1.37.139 2.852.536 4.004 1.318 1.276.867 1.72 1.934 1.72 3.13.001.792-.193 1.642-.468 2.526-.743 2.404-1.476 5.88 1.368 7.126.418.484.915.896 1.468 1.222M63.858 52.826c.262-.734.508-1.46.624-2.162.686-4.124-3.201-6.754-5.67-9.421-1.778-1.921-3.267-4.02-3.453-6.581-.543-4.358 3.375-8.563 3.654-13.052.172-2.771-1.192-5.151-3.588-6.551a8 8 0 0 0-1.413-.632 3.4 3.4 0 0 0-2.301-.895q-.372 0-.725.082a3.4 3.4 0 0 1 1.614-.383c.884 0 1.794.28 2.575.67 1.872.94 3.658 2.58 4.234 4.662.183.659.262 1.324.262 1.988 0 1.97-.7 3.935-1.476 5.73-.597 1.382-1.395 2.918-1.885 4.493-.412.858-.598 1.84-.6 2.829a8.3 8.3 0 0 0 .755 3.46c.665 1.421 1.67 2.565 2.752 3.647.888.969 1.83 1.908 2.693 2.87 1.726 1.928 2.945 3.826 2.944 6.132 0 .738-.124 1.516-.396 2.351q-.112.337-.242.703-.18.025-.358.06"/><path fill="#b69ccd" d="M86.76 56.232h-.004c.442 0 .88-.053 1.306-.158h.004a5.4 5.4 0 0 1-1.305.158"/><path fill="#222450" d="M86.667 56.834c-1.168 0-2.33-.34-3.256-1.038l-.13-.07q.071-.261.183-.506.141.112.291.21c.39.215.793.388 1.2.517.598.19 1.206.285 1.806.285q.666 0 1.306-.158.171.045.35.065.003.014.01.026.098.17.217.334a6 6 0 0 1-1.977.334M81.1 53.163a3.5 3.5 0 0 1-.147-.721 5 5 0 0 1 .066-1.343l.031.081c.244.644.205 1.315.05 1.983m1.943-8.124a5.208 5.208 0 0 0-.681-.285 6.4 6.4 0 0 0-.388-1.474c-.765-1.955-2.693-3.252-4.385-4.333-2.34-1.495-4.98-3.019-6.628-5.324-.601-.837-.911-1.825-1.025-2.857a6.3 6.3 0 0 1 .133-1.764c.549-2.491 2.147-4.534 3.913-6.311 2.146-2.157 4.675-4.017 6.571-6.412 2.081-2.626 2.482-6.315.348-9.096a5.8 5.8 0 0 0-1.157-1.148 5.9 5.9 0 0 0-.787-1.377c3.053.742 4.705 6.109 3.616 9.105-1.993 5.478-8.366 7.868-11.046 12.905-.569 1.072-.844 2.188-.843 3.284.001 1.827.77 3.595 2.225 4.99 2 1.914 4.564 3.03 6.742 4.706 1.77 1.363 3.211 3.113 3.392 5.39"/><path fill="#b69ccd" d="M72.204 40.367a2.7 2.7 0 0 0-.462-.828v-.02a2.8 2.8 0 0 1 .462.848"/><path fill="#222450" d="M70.18 42.74q-.264.001-.537-.058c-1.09-.24-2.311-1.532-3.52-1.532-.313 0-.626.088-.936.302l-.063.047a3.2 3.2 0 0 0-.72.244l.129-.303c.328-.604 1.147-.92 1.87-.92.218 0 .428.03.613.088.72.23 1.319.627 1.98.982.367.197.808.465 1.235.49q.043.004.088.003c.74 0 1.938-.524 1.939-1.39q.001-.156-.055-.326a2.8 2.8 0 0 0-.46-.848 3.815 3.815 0 0 0-.15-1.105c.936.785 1.538 1.757.864 2.917-.5.859-1.333 1.41-2.278 1.41M90.371 36.605a35 35 0 0 1-.026-2c.154-1.307.404-2.612.582-3.904.45-3.26.193-7.9-3.875-8.727a6 6 0 0 0-.306-.053c-.493-.598-1.146-.847-1.855-.847h-.01a5.4 5.4 0 0 1 1.378-.182 4.8 4.8 0 0 1 2.253.551c2.397 1.26 3.343 3.695 3.342 6.247q0 .397-.03.794c-.184 2.492-.989 5.134-.99 7.694q0 .21.008.417l-.128-.001a6 6 0 0 0-.343.01"/><path fill="#b69ccd" d="M20.867 32.377c.33-.952.905-1.845 1.633-2.606-.727.761-1.304 1.654-1.633 2.606m19.04-.002c-.57-.399-1.128-.958-1.605-1.424.476.465 1.035 1.022 1.604 1.421zm-17.385-2.627.03-.03zm.056-.059q.003-.002.006-.005z"/><path fill="#222450" d="M40.827 33.54c-1.05-.162-1.94-1.097-2.713-1.742-2.478-2.067-6.082-4.076-9.509-4.076-.903 0-1.794.14-2.649.456-1.168.428-2.405 1.325-3.33 2.425a7 7 0 0 0-.513.663c-.48.265-.901.64-1.246 1.112.33-.952.906-1.846 1.633-2.607v-.001l.02-.021h.002l.03-.031.005-.007.011-.01q.005-.006.01-.011l.006-.006.014-.014.005-.004q.007-.008.015-.016 0-.003.003-.003.008-.009.017-.016c1.762-1.76 4.01-2.74 6.377-2.74.93 0 1.88.152 2.824.467 1.992.666 4.177 1.656 5.817 2.996.189.156.407.365.646.597.477.467 1.036 1.026 1.605 1.424.276.417.583.812.92 1.166"/><path fill="#b69ccd" d="M71.31 13.603c-.074-.836-.03-1.693.005-2.52-.034.82-.076 1.675-.004 2.51zM68.715.247l-.108-.03z"/><path fill="#222450" d="M71.199 15.183a2.7 2.7 0 0 1-.483-.488c-.627-3.176.572-6.759.132-9.935-.256-1.853-1.08-3.676-3.164-3.917a8 8 0 0 0-.92-.05q-.288 0-.594.018a4.4 4.4 0 0 0-.784-.316 3.8 3.8 0 0 0-.855-.145 8.9 8.9 0 0 1 2.391-.346 6.4 6.4 0 0 1 1.685.212l.108.031C71.1.95 71.62 3.546 71.619 6.175c0 1.83-.254 3.673-.304 4.908-.035.827-.08 1.684-.006 2.52-.07.53-.11 1.059-.11 1.58"/><path fill="#30317d" d="M36.122 86.083c.217-.457.433-1.001.434-1.492.001-.413-.15-.79-.58-1.048a4.1 4.1 0 0 0-1.047-.436 6.4 6.4 0 0 0-1.655-.197c-.784 0-1.585.106-2.332.248l-.026.004.158-.272-.065-.012c.563-1.015.999-2.142 1.042-3.292.146-3.758-3.052-6.616-6.35-7.688-1.193-.387-2.422-.614-3.665-.76a23 23 0 0 0-2.626-.162c-1.036 0-2.05.082-3.054.255.4-.952.213-1.939-1.169-2.627-1.034-.517-2.286-.686-3.557-.686-1.33 0-2.684.185-3.836.354-1.969.29-3.855 1.02-5.758 1.572a20 20 0 0 0-1.222.387c.82-2.153 2.96-3.481 5.108-4.023 1.832-.462 3.776-.516 5.719-.516l.873.003.87.003q.818.001 1.624-.022.29.075.557.126c.82.154 1.653.25 2.467.25 2.097 0 4.074-.632 5.43-2.498 1.372-1.89.811-4.818-1.127-6.055-2.423-1.547-5.607-.283-7.954-2.197-2.721-2.216-.283-6.291-3.017-8.403a5.2 5.2 0 0 0-1.305-.73q.278-.069.554-.12a9 9 0 0 1 1.658-.157c1.16 0 2.356.236 3.247.863 1.033.727 1.239 2.376 1.677 3.468.43 1.057 1.013 2.443 1.926 3.179.78.63 1.692.613 2.65.712 1.634.166 3.478.848 4.593 2.097 1.078 1.203.493 2.948.075 4.29-.668 2.171-1.31 4.59.195 6.57.751.987 2.003 1.476 3.28 1.513a5.94 5.94 0 0 0 3.005.82c3.021 0 4.525-2.758 3.863-5.441-.517-2.083-2.037-3.677-1.72-5.932.2-1.421.409-2.568-.695-3.657a2.9 2.9 0 0 0-.762-.54 4.5 4.5 0 0 1 1.09-.142c.696 0 1.391.184 2.074.627 2.47 1.605 1.42 5.216 1.556 8.064.412 1.37 1.558 1.481 2.456 2.713.574.787-.142 2.299-.075 3.227.044.599.118 1.192.145 1.79.037.789.08 1.625.676 2.178a5.33 5.33 0 0 0 1.681 2.632c.805.696 1.708.99 2.615.99 1.417 0 2.843-.72 3.92-1.762a8.4 8.4 0 0 0 1.514-1.941q.228.012.453.013h.09c.587 0 1.186-.033 1.787-.065.6-.032 1.203-.066 1.8-.066.56 0 1.112.028 1.654.112.902.138 2.123.507 2.114 1.476l.03.09.007.016c.038.104.068.214.072.337.058 1.312-2.752 1.417-4.619 1.417l-.5-.002h-.047l-.37-.003q-.231.001-.393.005-.01.002-.02.002c-2.358.093-4.68.092-6.478 1.646-1.038.899-1.754 2.39-1.112 3.63.441.846 1.392 1.112 2.398 1.112.884 0 1.813-.204 2.48-.399 1.92-.559 3.704-1.364 5.621-1.783v.002q.525-.115 1.068-.188a10.6 10.6 0 0 1 1.565-.088 11.5 11.5 0 0 1 4.216.877c1.188.501 2.24 1.213 2.965 2.183q-.12-.038-.24-.072a16 16 0 0 0-4.547-.675c-3.205 0-6.23 1.036-8.02 3.281-1.355-1.534-3.514-2.568-6.375-2.568q-.54 0-1.112.051c-3.347.296-6.83 1.687-9.622 3.532m-5.284-2.905q.002-.005.005-.007l.015.003zm43.853-3.443c-.513 0-.957-.164-1.12-.613a3 3 0 0 1-.135-.531v-.012a6 6 0 0 1 .054-2.047v-.002l.003-.011q.022-.095.045-.181l.004-.01a1.5 1.5 0 0 0 .063-.426c0-.53-.321-.947-.86-1.28-.687-.426-.978-.696-1.018-1.514l-.004-.158c0-.624.174-1.248.174-1.875v-.01c0-1.59-1.57-2.563-3.177-2.563-.301 0-.604.034-.898.105-1.414.339-2.992 1.895-2.82 3.261.075.612.513.996 1.034 1.366.837.598 1.692 1.156 2.105 2.07.595 1.318-.88 1.862-2.17 1.862-.39 0-.765-.05-1.06-.143a3 3 0 0 1-.191-.067l-.014-.013c-1.843-.73-1.442-2.7-.958-4.128l.045-.13c.185-.53.316-1.038.316-1.513 0-.716-.3-1.356-1.162-1.874-.74-.446-1.68-.682-2.564-.778 1.72-2.908.2-5.829.181-8.961q-.001-.18.013-.355c.704.458 1.632.676 2.46.815 3.245.545 7.178-.088 9.928 1.861.739.523 1.216 1.279 1.487 2.07.415 1.205-.288 2.569-.535 3.75-.425 2.031.83 3.54 2.208 5.02 1.598 1.722 2.788 4.552.584 6.35-.396.324-1.279.665-2.018.665m8.116-.839c-.707 0-1.229-.901-1.294-1.646a5 5 0 0 1-.017-.419c0-1.139.347-2.265.366-3.401v-.062c0-.838-.26-1.552-.561-2.273a9 9 0 0 0-.7-1.004c-.53-.667-1.145-1.333-1.204-2.18a3 3 0 0 1-.007-.192c0-1.03.546-2.075.777-3.067a2.5 2.5 0 0 0 .068-.581c-.002-1.436-1.278-2.503-2.114-3.719-.394-.57-.587-1.086-.588-1.641 0-.327.066-.667.199-1.041.379-1.074.916-2.099 1.268-3.182.235-.722.4-1.492.4-2.24 0-1.129-.377-2.208-1.462-3.002a5.5 5.5 0 0 0-.906-.532 6.3 6.3 0 0 0-.71-1.731c-.727-1.235-1.957-1.97-3.26-2.457-1.097-.408-2.199-.679-3.245-1.231-.95-.499-1.77-1.19-2.747-1.648-.335-.157-.745-.232-1.167-.232-.26 0-.525.03-.78.084l.064-.047c.31-.214.623-.302.936-.302 1.209 0 2.43 1.293 3.52 1.532q.272.059.536.058c.944 0 1.779-.55 2.278-1.409.674-1.16.072-2.132-.864-2.917-.5-1.724-2.128-2.876-3.366-4.115-2.93-2.928-2.869-6.62-.85-10.04.66-1.113 1.431-2.296 1.87-3.53 2.226-3.467-1.215-7.747-1.982-11.118-.626-2.757 2.036-7.15-1.095-8.8q.306-.018.595-.017c.332 0 .642.017.92.049 2.083.241 2.908 2.064 3.164 3.917.44 3.176-.76 6.759-.133 9.935q.215.28.483.488 0 .6.081 1.181c.22 1.554 1.251 2.619 2.516 2.619.574 0 1.197-.22 1.813-.713 2.756-2.212 4.565-6.363 4.623-9.84.013-.755-.167-1.611-.489-2.395.445.324.839.732 1.157 1.148 2.134 2.781 1.733 6.47-.348 9.096-1.896 2.395-4.425 4.255-6.571 6.412-1.766 1.777-3.364 3.82-3.913 6.31a6.3 6.3 0 0 0-.133 1.765c.114 1.032.424 2.02 1.025 2.857 1.649 2.305 4.287 3.83 6.628 5.324 1.692 1.081 3.62 2.379 4.385 4.333.194.494.32.986.387 1.474a4.2 4.2 0 0 0-1.317-.236c-.495 0-.978.116-1.388.404-1.11.781-.707 2.406-.25 3.369.463.977 1.212 1.805 1.613 2.808-.079.433-.11.879-.066 1.343q.035.374.146.721c-.187.8-.543 1.596-.786 2.33-.602 1.833-.526 3.769.448 5.48.829 1.465 2.216 2.671 3.43 3.88.548.547 1.149 1.033 1.653 1.606q-.22.246-.428.504c-1.163 1.43-1.915 3.133-1.963 4.987-.017.672.035 1.352.13 2.025.177.63.387 1.25.62 1.859a7 7 0 0 1-.026.489c-.061.65.01 1.596-.503 2.13-.236.246-.464.38-.68.427l-.007-.002a1 1 0 0 1-.18.018M51.034 64.21c-1.504-3.554-4.171-7.071-5.373-10.01-.948-2.32-.763-4.53-.288-6.929.371-1.888.434-3.703-.134-5.557-1.07-3.506-4.015-5.427-7.34-6.434-2.015-.609-4.096-.969-6.118-1.561-2.157-.63-4.036-1.872-6.148-2.608a5.1 5.1 0 0 0-1.681-.303 3.8 3.8 0 0 0-1.84.458 7 7 0 0 1 .513-.663c.925-1.1 2.163-1.997 3.33-2.425a7.6 7.6 0 0 1 2.65-.456c3.426 0 7.03 2.009 9.508 4.076.773.645 1.662 1.58 2.714 1.742.47.492.997.904 1.58 1.188.302.146.632.216.963.216.53 0 1.06-.182 1.465-.54 1.243-1.093 1.57-2.452 1.378-4.06-.09-.769-.312-1.524-.494-2.276-.292-1.213-.224-2.416-.223-3.648.002-1.582-.527-3.105-1.76-4.13a3 3 0 0 0-.174-.136c2.78.397 5.217 2.249 5.857 5.041.818 3.57-1.535 7.381-2.484 10.72-.707 2.487.79 4.501 2.17 6.452.75 1.061 1.616 2.152 1.696 3.499.1 1.677-.765 3.442-1.107 5.058-.494 2.336.355 3.814 1.675 5.686.682.966 1.232 1.926 1.624 2.968l-.007.06c.299 1.272.292 2.64.238 4.008a8.8 8.8 0 0 0-2.19.564m37.535-.082c-.33-.484-.749-.952-1.225-1.422-.584-.578-1.22-1.14-1.82-1.719-.734-.65-1.413-1.336-1.863-2.188a4.5 4.5 0 0 1-.509-2.072c0-.34.042-.677.13-1.001l.129.07c.926.698 2.088 1.038 3.256 1.038.672 0 1.345-.114 1.977-.335q.324.455.799.884c.739.664 1.645 1.165 2.544 1.637.657.344 1.512.692 2.006 1.254v.009c.118.133.218.276.287.437l.024.06a.6.6 0 0 1 .037.194c.003.518-.806.836-1.309.836q-.032 0-.062-.003c-.288-.015-.587-.175-.835-.296-.447-.212-.85-.45-1.338-.587a1.6 1.6 0 0 0-.415-.052c-.489 0-1.043.188-1.263.552-.542.884.153 1.476 1.055 1.887q-.842.34-1.605.817m10.611-3.885c-1.438-.947-3.097-1.607-4.403-2.715-.982-.834-1.5-1.893-1.502-2.988q0-.5.146-1.004c.313-.356.578-.714.778-1.053.183-.31.311-.619.394-.927.738-.852 1.66-1.585 2.595-2.31.662 1.69 1.852 3.246 2.503 4.89.831 2.095.773 4.487-.51 6.107m-36.35-7.127c.113-.957-.026-1.956-.26-2.864-.756-2.965-3.207-5.341-5.183-7.54-2.63-2.929-4.136-6.417-3.861-10.386.288-4.11 2.614-7.752 2.589-11.931-.01-1.827-.575-4.577-2.104-5.968a8 8 0 0 1 1.413.632c2.397 1.4 3.76 3.78 3.589 6.55-.28 4.49-4.198 8.695-3.655 13.053.187 2.561 1.676 4.66 3.453 6.581 2.47 2.667 6.356 5.297 5.67 9.421-.116.702-.361 1.428-.624 2.162q-.528.103-1.027.29m31.152-7.406c-.125 0-.137-.192-.194-.431a4 4 0 0 1-.088-.536v-.005c-.047-.5-.018-1.01.003-1.503.02-.419.083-.952.134-1.536l.105.003c.585 0 1.167-.271 1.699-.672-.465.858-.514 1.877-.621 2.881-.063.59-.2 1.18-.706 1.604-.162.137-.264.195-.332.195m6.255-5.53c-.502-.518-1.13-.852-1.854-.852-.463 0-.964.136-1.496.448.362-.461.652-.929.841-1.31.81-1.622 1.33-3.183 2.956-4.202.966-.605 2.481-.665 2.917-1.932q.09-.259.124-.497c1.216 1.11 1.009 3.057.235 4.377-.91 1.548-2.423 2.759-3.723 3.968m-13.124-2.5c-.632-2.86-.372-6.202.17-8.897.436-2.164.96-4.685-.382-6.657a3 3 0 0 0-.154-.206q.154.023.306.054c4.068.828 4.324 5.468 3.874 8.726-.177 1.292-.427 2.598-.58 3.904a35 35 0 0 0 .025 2c-1.14.064-2.312.444-3.156 1.004q-.053.034-.103.072"/><path fill="#6660b6" d="M66.63 17.214q-.03.001-.04-.043c-.761-3.97-8.556-11.645-2.913-15.092a.1.1 0 0 1 .058-.021c.084 0 .02.213-.032.261-2.467 2.444-.709 5.716.611 8.327 1.013 1.997 2.28 4.11 2.464 6.388.004.057-.092.18-.149.18M43.548 43.946c-2.468-4.915-8.134-5.29-13.022-5.715-3.123-.27-8.265-.666-8.493-4.747l.174-.128c.888 4.2 7.239 3.802 10.489 4.2 4.32.53 9.607 1.389 11.028 6.202zM7.796 58.044c-4.518 0-4.768-6.965-1.553-9.18q.036-.025.058-.024c.08 0 .04.202-.002.254-1.16 1.456-1.917 3.37-1.333 5.241.581 1.87 1.854 2.563 3.553 3.25.16.066-.047.41-.167.426a5 5 0 0 1-.556.033M31.13 59.304a.16.16 0 0 1-.095-.036c-1.686-1.333-.26-3.704 1.189-4.56a.14.14 0 0 1 .065-.023c.096 0 .047.215-.003.276-.42.526-.966 1.034-1.19 1.685-.262.762.023 1.338.348 2.029.072.153-.11.63-.315.63M83.088 29.959c-.037 0-.074-.016-.107-.056-.848-1.001-1.348-2.559-1.112-3.877.26-1.463 1.185-2.175 1.892-3.408l.089.006c-.281 1.12-1.264 1.862-1.286 3.099-.025 1.345.456 2.476.84 3.736.045.144-.144.5-.316.5"/><path fill="#90534f" d="M65.799 82.462c-4.621-1.383-9.934-.7-12.567 2.606-1.526-1.727-4.07-2.82-7.488-2.517-3.346.296-6.83 1.686-9.622 3.532.4-.843.797-1.975-.146-2.54-1.42-.848-3.361-.7-5.033-.386-3.935.74-7.829 2.96-9.894 5.517-1.567 1.944-1.017 4.047 1.984 4.826 2.787.724 6.828.44 9.367-.724l.057-.038c.46.352 1.021.647 1.485.893 1.79.948 3.938 1.533 6.052 1.973 3.516.725 7.654.935 11.04-.29a5.4 5.4 0 0 0 1.711-1.01c-.053 1.462 2.758 1.85 4.256 1.915 2.855.127 5.816-.436 8.521-1.057 3.662-.845 8.484-2.089 8.79-5.38.319-3.427-4.737-6.195-8.513-7.32"/><path fill="#efb3ba" d="M20.946 89.51c1.192-2.511 5.052-4.437 8.206-5.465 1.36-.444 2.837-.707 4.323-.668.898.026 1.787.252 2.37.766.576.507.221 1.44-.018 2.133-1.72 1.18-3.154 2.53-4.091 3.901l.06.107c-.192.419-.277.85-.207 1.29.058.345.286.657.596.94-3.55 1.208-13.437 1.63-11.239-3.003"/><path fill="#ee9897" d="M51.696 94.635c-2.573 1.417-6.73 1.088-9.655.69-3.18-.435-6.792-1.414-9.093-3.137-2.185-1.636 1.012-3.746 2.26-5.136l.008-.013c.16-.116.334-.227.504-.34l.127-.061.021-.04c2.36-1.555 5.214-2.763 8.06-3.39 2.487-.544 5.1-.43 7.238.672 2.2 1.134 3.048 3.224 3.277 5.102.246 2.02-.418 4.372-2.747 5.653"/><path fill="#d68d8b" d="M65.656 94.671c-2.377.57-4.856.972-7.352 1.06-1.483.052-5.095-.045-5.253-1.593l-.043-.07c.97-.96 1.5-2.193 1.731-3.328.409-2-.107-4.023-1.418-5.569 2.966-2.98 7.572-3.5 12.106-2.228 3.618 1.015 7.4 3.258 8.257 6.156 1.013 3.432-4.632 4.757-8.028 5.572"/><path fill="#c4a19d" d="M39.994 95.604c-2.114-.44-4.263-1.025-6.052-1.973-.463-.245-1.024-.541-1.485-.893l-.057.038c-1.605.736-3.81 1.12-5.92 1.12-1.227 0-2.422-.13-3.447-.396-.702-.181-1.27-.436-1.707-.745.438.308 1.006.563 1.707.745 1.025.266 2.22.396 3.447.396 2.11 0 4.315-.384 5.92-1.12l.057-.038c.46.352 1.022.648 1.485.893 1.79.948 3.938 1.533 6.052 1.973"/><path fill="#713735" d="M57.83 96.236q-.415 0-.829-.017c-1.483-.064-4.254-.445-4.256-1.872v-.043a5.4 5.4 0 0 1-1.71 1.01c-1.729.625-3.653.877-5.59.877-1.859 0-3.73-.232-5.45-.587-2.115-.44-4.264-1.025-6.053-1.973-.463-.245-1.024-.541-1.485-.893l-.057.038c-1.605.736-3.81 1.12-5.92 1.12-1.227 0-2.422-.13-3.447-.396-.701-.182-1.269-.437-1.707-.745-1.133-.799-1.393-1.956-.858-3.141l.176.328.09.12c-.711 2.448 2.383 3.254 5.693 3.254 2.162 0 4.415-.344 5.76-.801-.31-.284-.538-.596-.596-.941-.071-.44.014-.871.205-1.29l-.059-.106c.937-1.371 2.372-2.722 4.092-3.902.239-.693.593-1.626.018-2.133-.507-.445-1.245-.675-2.02-.745-.591-.227-1.36-.291-2.125-.291q-.253 0-.502.007a12.4 12.4 0 0 1 2.086-.203c.566 0 1.122.056 1.644.196q.557.148 1.046.436c.43.259.582.635.58 1.048 0 .49-.216 1.035-.434 1.492 2.792-1.845 6.276-3.236 9.622-3.532q.573-.051 1.113-.05c2.86 0 5.02 1.033 6.375 2.567 1.789-2.245 4.814-3.281 8.02-3.281 1.513 0 3.065.23 4.547.675q.12.034.24.072.097.128.184.264.152.232.247.47-.522-.18-1.043-.325c-1.515-.425-3.037-.65-4.504-.65-2.924 0-5.627.894-7.602 2.878a6.52 6.52 0 0 1 1.418 5.57c-.231 1.134-.76 2.367-1.731 3.327l.043.07c.14 1.368 2.98 1.602 4.661 1.602.22 0 .42-.004.592-.009 1.55-.055 3.093-.23 4.61-.492q.34.19.785.317c-1.913.387-3.907.68-5.868.68M46.77 82.891c-.943 0-1.9.112-2.84.317-2.847.627-5.701 1.835-8.06 3.391l-.021.039-.127.061c-.17.113-.344.224-.505.34l-.008.013c-1.248 1.39-4.445 3.5-2.26 5.136 2.301 1.723 5.913 2.702 9.093 3.136 1.311.179 2.868.343 4.42.343 1.912 0 3.815-.25 5.235-1.032 2.33-1.281 2.993-3.633 2.747-5.653-.228-1.878-1.077-3.968-3.277-5.102-1.33-.686-2.844-.989-4.397-.989"/><path fill="#b9777a" d="M26.426 93.316c-3.31 0-6.404-.806-5.692-3.254.792.978 2.31 1.233 3.805 1.233l.023-.001c2.098-.004 3.567-.83 4.5-2.15.746-1.06 1.425-1.933 2.62-2.778.746-.526 1.736-.802 2.466-1.327.746-.533.739-1.144-.139-1.563a3 3 0 0 0-.183-.078c.775.07 1.513.3 2.02.745.575.507.22 1.44-.018 2.133-1.72 1.18-3.155 2.531-4.092 3.902l.06.106c-.192.42-.277.85-.206 1.29.058.345.285.657.595.941-1.344.457-3.598.801-5.759.801"/><path fill="#b86565" d="M46.46 95.667c-1.55 0-3.108-.164-4.42-.343-3.179-.434-6.791-1.413-9.092-3.136-2.185-1.636 1.012-3.746 2.26-5.136l.008-.013c.16-.116.334-.227.504-.34l.127-.061.021-.039c2.36-1.556 5.214-2.764 8.06-3.39.94-.206 1.898-.318 2.84-.318 1.554 0 3.068.303 4.398.99 2.2 1.133 3.048 3.223 3.277 5.1.246 2.02-.418 4.373-2.747 5.654-1.42.783-3.323 1.032-5.235 1.032m-1.51-12.165c-1.704 0-3.6.545-4.86 1.189-1.612.627-3.086 1.403-4.33 2.405-.961.775-2.556 2.48-1.656 3.568 1.026 1.24 3.262 1.678 5.489 1.678 1.606 0 3.208-.228 4.345-.548 3.682-1.035 6.326-4.232 4.336-6.983-.69-.952-1.945-1.31-3.325-1.31"/><path fill="#a65e5d" d="M57.712 95.74c-1.68 0-4.521-.234-4.661-1.602l-.043-.07c.97-.96 1.5-2.193 1.731-3.328.409-2-.107-4.024-1.418-5.57 1.975-1.983 4.678-2.878 7.602-2.878 1.467 0 2.99.226 4.504.65q.52.147 1.043.326c.12.303.174.61.174.918q0 .16-.02.32c-.702-.692-1.796-1.271-2.623-1.527-.874-.27-2.016-.428-3.181-.428-2.532 0-5.174.745-5.41 2.704-.27 2.256 3.17 3.315 5.704 3.55.408.037.818.057 1.22.057.75 0 1.475-.068 2.132-.22-.076.22-.12.437-.12.649q0 .11.016.219c-.832.728-1.535 1.516-2.054 2.318-.829 1.283-.716 2.536.39 3.279q.102.07.215.132c-1.516.263-3.059.437-4.609.492q-.26.009-.592.01"/><path fill="#d77d20" d="M113.944 54.612c-1.543.081-3.108.924-3.962 2.047-.52.681-.732 1.538-1.015 2.31-.178.484-.393.946-.753 1.346-.772.857-.973-.08-1.142-.701-.527-1.932.339-4.018.503-5.953.141-1.696-.455-3.386-2.242-4.22-1.611-.751-3.578-.146-4.661 1.044-1.411 1.553-.824 3.447.206 5 .711 1.072 1.598 2.065 2.144 3.215.544 1.137.671 2.403 1.158 3.559.315.755.952 1.26 1.576 1.812.84.741 1.439 1.63 1.695 2.66.192.776.071 1.584-.388 2.228-1.214 1.459-3.249 1.673-4.948.848a2.6 2.6 0 0 1-.741-.633l-.118-.167a2.34 2.34 0 0 1-.51-2.16c.268-1.06.926-1.93.9-3.05-.031-1.471-1.047-2.589-2.306-3.447-1.473-1.006-3.208-1.672-4.562-2.822-1.571-1.336-1.958-3.244-.931-4.954 1.813-3.02 6.121-4.451 7.469-7.732.96-2.346-1.236-7.12-4.581-4.972-1.524.98-1.552 2.528-1.715 4.04-.062.592-.2 1.18-.705 1.605-.459.388-.437.133-.526-.236-.16-.664-.117-1.372-.085-2.044.085-1.803.98-5.779-1.756-6.492-1.52-.396-3.484.037-4.731.865-.993.662-1.214 1.764-1.02 2.787.26 1.381 1.175 2.672 1.967 3.854.838 1.252 1.852 2.456 1.805 3.978-.043 1.459-.94 2.824-1.648 4.19-.362 1.326-.35 2.575.106 3.749q.37.632 1.016 1.217c.74.664 1.646 1.165 2.545 1.637.835.439 1.99.881 2.317 1.76.244.657-.783 1.057-1.334 1.027-.288-.015-.587-.175-.835-.296-.447-.212-.851-.45-1.338-.587-.538-.15-1.39.026-1.679.5-.93 1.52 1.79 2.178 2.943 2.532 1.996.612 4.4 1.6 3.607 3.863-.592 1.688-2.233 3.416-4.075 4.112-.807.305-1.652.261-2.377-.181-1.574-.96-.603-2.73-.15-3.965.76-2.065-.183-3.555-1.722-5.08-.584-.577-1.22-1.14-1.82-1.718-.734-.65-1.413-1.336-1.863-2.188-.587-1.114-.725-2.62-.104-3.768.33-.941.87-1.863 1.272-2.69.703-1.438 1.313-3.057.822-4.626-.387-1.247-1.595-2.23-2.86-2.794-.968-.428-2.23-.637-3.136 0-1.111.782-.707 2.407-.251 3.37.476 1.004 1.253 1.85 1.645 2.89.536 1.415-.294 2.966-.737 4.311-.602 1.834-.526 3.77.448 5.482.829 1.464 2.216 2.67 3.43 3.88.681.678 1.441 1.264 1.998 2.035.546.762.465 1.4.077 1.955-.475 1.088-1.91 2.182-2.1 3.24-.251 1.396.14 2.834.01 4.239-.06.65.012 1.596-.502 2.13-1.11 1.158-2.07-.173-2.16-1.204-.108-1.28.327-2.543.349-3.82.013-.865-.253-1.596-.561-2.334a9 9 0 0 0-.7-1.004c-.531-.667-1.146-1.334-1.204-2.18-.076-1.092.525-2.206.77-3.259.405-1.741-1.101-2.927-2.046-4.3-.627-.908-.746-1.674-.39-2.682.38-1.074.917-2.1 1.269-3.182.589-1.812.741-3.924-1.062-5.242-1.253-.918-3.28-1.447-4.84-.925-1.329.447-1.88 1.803-1.384 2.927.304.686.897 1.267 1.4 1.84.278.315.535.642.761.988.338.517.82 2.167-.491 2.223-.844.036-1.851-1.09-2.439-1.519-1.11-.803-2.586-1.395-3.933-1.793-2.264-.67-4.565-.11-6.223 1.36-1.231 1.088-1.879 2.668-.995 4.085.638 1.019 2.045 1.386 3.242 1.587 3.246.545 7.179-.088 9.929 1.861.738.523 1.216 1.279 1.487 2.07.415 1.205-.288 2.569-.535 3.75-.426 2.03.83 3.54 2.208 5.02 1.598 1.722 2.788 4.552.584 6.35-.671.549-2.738 1.146-3.139.052-.281-.763-.242-2.058-.029-2.794s-.12-1.288-.796-1.707c-.687-.425-.978-.695-1.018-1.513-.035-.676.17-1.353.17-2.033.006-1.895-2.208-2.916-4.075-2.468-1.414.338-2.992 1.894-2.82 3.261.075.612.513.996 1.034 1.366.837.598 1.692 1.156 2.104 2.07.775 1.715-1.958 2.12-3.229 1.719-2.15-.679-1.638-2.852-1.118-4.337.465-1.333.588-2.525-.846-3.389-.781-.469-1.784-.706-2.709-.79-.919-.084-1.458-.199-2.002-.925-.848-1.13-.937-3.056-2.462-3.668-1.814-.726-4.206-.086-5.791.79-1.542.854-2.616 2.255-2.778 3.863-.114 1.132.325 2.313 1.262 3.032.98.437 2.139.617 3.243.624.616.002 1.245-.03 1.877-.066 1.161-.062 2.332-.126 3.454.047.902.138 2.123.507 2.114 1.476l.03.09.006.016c.039.103.069.214.073.337.063 1.436-3.306 1.425-5.118 1.414a20 20 0 0 0-.83.004c-2.359.094-4.68.093-6.479 1.647-1.038.899-1.754 2.39-1.112 3.63.83 1.59 3.45 1.129 4.878.713 2.764-.806 5.247-2.12 8.253-2.058a11.5 11.5 0 0 1 4.217.878c1.293.545 2.424 1.341 3.15 2.447.566.866.502 1.785.148 2.645-.135.442-.335.85-.653 1.25a6 6 0 0 1-.37.42c-.748 1.03-1.64 2.427-.35 3.331.75.524 2.011.525 2.905.557.558.022 1.117.018 1.676.015a39 39 0 0 1 1.674.013c6.355.247 12.76.333 19.115.197 4.214-.088 8.538-.343 12.731-1.043.668-.163 1.364-.355 1.869-.77a2.7 2.7 0 0 0 .46-.494c.102-.206.167-.435.186-.67.106-1.27-.787-2.66-1.393-3.762a42 42 0 0 1-.31-.567c-.993-1.344-1.688-2.837-1.509-4.464.019-.748.311-1.364.753-1.937.266-.407.579-.788.909-1.11.136-.132.273-.245.412-.352l.04-.042-.01.021.046-.035c.152-.126.314-.245.467-.336.282-.166.583-.3.889-.416.528-.238 1.139-.352 1.709-.451 1.41-.249 2.871-.332 4.155-.951 1.26-.607 1.827-1.767 1.972-2.979.204-1.704-.857-3.117-1.721-4.544-.492-.814-.767-1.656-.586-2.581.234-1.194 1.168-2.014 2.119-2.799 1.219-1.005 2.932-2.23 3.137-3.808.202-1.543-1.051-2.62-2.75-2.524"/><path fill="#e5d556" d="M115.777 58.29c-.619.932-1.643 1.657-2.526 2.383-1.323 1.094-2.39 2.392-2.377 4.07.017 1.582 1.388 2.88 2.018 4.288.767 1.715.411 3.768-1.654 4.51-1.108.397-2.359.466-3.52.658-1.826.303-3.323 1.25-4.482 2.516-.784.855-1.294 1.879-1.325 2.988-.013.404.023.81.086 1.212.58 1.845 1.724 3.507 2.417 5.321.259.54.482 1.095.617 1.668.132.558.044.883-.276 1.096-.251.323-.832.443-1.345.514a9 9 0 0 1-1.163.192q-.836.099-1.671.177c-3.41.443-6.843.683-10.336.756-6.228.13-12.497.015-18.72-.21-.65-.022-1.299-.02-1.948-.018q-.555.005-1.11 0c-1.1-.013-2.597-.013-3.397-.788-.806-.777.592-2.252 1.072-2.91l.2-.288.042.007.113-.176-.043-.006c.381-.607.675-1.283.705-1.972.1-2.252-2.063-3.963-4.294-4.606a14.5 14.5 0 0 0-2.477-.456c-2.325-.245-4.42-.044-6.575.786-2.012.774-4.374 2-6.62 1.365-1.29-.367-1.593-1.521-1.208-2.557.505-1.37 2.005-2.212 3.505-2.547 1.427-.319 2.953-.313 4.464-.308.798.003 1.593.005 2.366-.04 1.35-.08 3.086-.401 3.358-1.79.55-2.807-5.849-2.207-7.552-2.207-.948 0-1.907-.064-2.78-.412-1.19-.475-1.614-1.603-1.737-2.67-.288-2.522 2.596-4.24 5.053-4.65 1.053-.179 2.417-.14 3.319.421.695.435.836 1.423 1.134 2.079.288.633.684 1.465 1.3 1.905.528.378 1.147.368 1.792.424 1.107.103 2.352.51 3.107 1.257.729.72.331 1.768.05 2.572-.453 1.3-.886 2.75.132 3.936 1.396 1.626 5.352.996 5.19-1.309-.116-1.575-2.008-2.188-2.982-3.248-.345-.37-.367-.796-.216-1.212.03-.745.808-1.38 1.539-1.734 1.08-.525 2.225-.766 3.32-.136 1.673.96.961 3.125 1.055 4.829.278.821 1.052.89 1.66 1.626.387.472-.097 1.378-.05 1.932.03.362.08.716.098 1.076.024.5.056 1.034.537 1.362.596.41 1.813.052 2.4-.159.799-.29 1.362-.917 1.73-1.584.84-1.517.596-3.355-.35-4.77-1.322-1.982-3.517-3.275-3.076-5.862.27-1.584.89-2.917.382-4.345-.853-1.398-2.302-2.378-4.118-2.823-2.156-.528-4.324-.275-6.512-.521-1.469-.166-3.742-.63-4.198-2.13a2.4 2.4 0 0 1-.1-.845c.006-.35.11-.701.287-1.045.17-.343.409-.664.693-.952.625-.66 1.463-1.195 2.253-1.455 2.769-.904 6.103.605 8.219 2.17.59.438 1.284 1.094 2.117 1.058.588-.025.968-.696 1.107-1.117.434-1.299-.648-2.367-1.477-3.33-.534-.623-1.089-1.3-1.111-2.11-.03-1.28 1.597-1.584 2.695-1.512 2.022.136 3.854 1.28 4.315 3.057.553 2.139-1.038 4.423-1.68 6.421-.478 1.49.535 2.698 1.467 3.864.508.638 1.092 1.291 1.148 2.098.067 1.004-.517 2.063-.75 3.033-.335 1.399.24 2.283 1.135 3.404.46.58.83 1.155 1.095 1.779l-.004.036c.302 1.136.144 2.397.106 3.601-.052.379-.102.75-.132 1.103-.06.756.073 1.485.724 2.012.515.412 1.171.297 1.63-.088 1.07-.9 1.102-2.567.961-3.756-.194-1.648-.537-3.079.637-4.518.362-.44.788-.862 1.11-1.329a2.6 2.6 0 0 0 .358-.404c1.287-1.823-1.157-3.521-2.355-4.712-1.522-1.52-3.213-3.03-3.812-5.05-.742-2.483.879-4.662 1.083-7.073.19-2.232-2.289-3.748-2.243-5.971.036-1.763 2.564-1.05 3.581-.523 1.623.838 2.545 2.264 2.426 3.924-.188 2.69-2.837 5.208-2.47 7.82.127 1.537 1.135 2.792 2.335 3.942 1.67 1.6 4.298 3.175 3.836 5.646-.324 1.73-2.129 3.71-.115 5.179 1.2.877 2.825.202 3.89-.494 2.294-1.496 4.986-5.14 1.942-7.115-.789-.51-1.776-.776-2.689-1.054-.46-.138-3.885-1.215-2.552-2.036 1.014-.627 2.084.556 3.011.736a1.83 1.83 0 0 0 1.903-.81c.874-1.329-1.417-2.245-2.398-2.76-2.345-1.232-4.455-2.983-3.678-5.467.274-.727.65-1.45 1.033-2.187.758-1.463 1.388-3.086.681-4.664-.539-1.204-1.458-2.28-2.18-3.398-.752-1.165-1.802-2.79-1.26-4.175.543-1.396 3.176-1.749 4.576-1.606 1.407.144 1.965 1.236 2.14 2.348.296 1.901-.513 4.048-.09 5.952.256.295.611.504 1 .557 1.102-.769 1.144-2.109 1.263-3.33.12-1.228.672-2.336 2.098-2.74 1.014-.287 1.948.345 2.525 1.012 1.444 1.666 1.172 3.878-.234 5.45-1.284 1.432-2.993 2.547-4.444 3.842-1.193 1.065-2.276 2.288-2.647 3.781-.089.355-.115.708-.089 1.056.078.619.287 1.208.692 1.712 1.117 1.38 2.899 2.295 4.482 3.19 1.145.649 2.45 1.426 2.967 2.596.47 1.069.349 2.114-.087 3.126-.31.776-.695 1.515-.606 2.364.093.86.778 1.541 1.576 1.967l.088.043c1.176.785 2.915.813 4.184.155.303-.13.586-.3.84-.506 1.206-.98 1.263-2.61.803-3.9-.294-.822-.887-1.528-1.549-2.143-.891-.832-1.463-1.419-1.839-2.56-.336-1.013-.483-2.082-.999-3.044-.607-1.137-1.477-2.152-2.193-3.232-.835-1.261-1.24-2.712-.23-4.008.758-.972 2.211-1.25 3.446-1.026 2.75.494 2.924 3.274 2.62 5.227-.121.775-.289 1.556-.394 2.338-.007.642-.002 1.288.087 1.922.068.483.037 1.14.522 1.484l.246.154c.239.022.488.004.733-.062 1.061-.874 1.295-2.325 1.85-3.498.738-1.564 3.575-2.798 5.333-1.842 1.123.612 1.011 1.936.435 2.806"/><path fill="#291f44" d="M56.223 79.75v-.002zm26.583-.849c-.706 0-1.23-.903-1.294-1.651.065.745.588 1.646 1.294 1.646a1 1 0 0 0 .18-.019l.007.003a1 1 0 0 1-.187.022m-9.37-.31a5.9 5.9 0 0 1 .053-2.059 6 6 0 0 0-.053 2.047zm-8.717-1.635c-1.869-.724-1.458-2.708-.972-4.141-.484 1.428-.885 3.397.959 4.128q.006.007.013.013M53.334 75.54a16 16 0 0 1 .764-.002l-.38-.001q-.225 0-.384.003"/><path fill="#f8be88" d="M91.785 71.854q.278-.117.551-.266h.002a6 6 0 0 1-.553.266m12.36-1.567a4.7 4.7 0 0 1-2.031-.48c.65.314 1.349.477 2.03.477q.45.001.883-.095l.003.002a4 4 0 0 1-.885.096m7.292-6.544c.233-1.194 1.168-2.014 2.119-2.799 1.219-1.005 2.931-2.23 3.137-3.808-.206 1.579-1.918 2.803-3.137 3.808-.951.785-1.886 1.605-2.119 2.799m-55.664.17"/><path fill="#291f44" d="M94.28 60.72a1.7 1.7 0 0 0-.287-.437v-.01c.118.137.217.283.286.447"/><path fill="#f8be88" d="M107.626 60.655c-.23-.04-.361-.36-.46-.694.099.331.231.648.458.691zM72.197 55.81c-.326-.237-.638-.52-.906-.75.268.23.58.511.907.749"/><path fill="#1e1a3b" d="M72.467 55.992a5 5 0 0 1-.27-.181l.001-.002a5 5 0 0 0 .269.183m-12.725-.333a4.3 4.3 0 0 1 .654-.928v.001a4.4 4.4 0 0 0-.654.927"/><path fill="#382d58" d="M60.396 54.732v-.001z"/><path fill="#f8be88" d="M101.315 44.842c.441-1.08.215-2.672-.484-3.868.7 1.194.926 2.788.484 3.868"/><path fill="#291f44" d="M93.7 44.743c-.049-.501-.02-1.015.004-1.508-.022.493-.05 1.003-.003 1.503z"/><path fill="#d2621c" d="M64.362 89.51a1.4 1.4 0 0 1-.018-.219c0-.727.53-1.525 1.004-2.177a6 6 0 0 0 .37-.42c.318-.402.517-.808.653-1.25.169-.412.272-.834.272-1.258 0-.467-.124-.935-.42-1.388-.726-1.106-1.857-1.902-3.15-2.447a11.5 11.5 0 0 0-4.436-.88c-.46 0-.907.033-1.346.09q-.54.072-1.067.187c.131-.153.24-.314.317-.477a13.6 13.6 0 0 1 2.064-.152q.87 0 1.778.097c.84.088 1.673.226 2.477.456 2.23.643 4.394 2.354 4.294 4.606-.03.69-.324 1.365-.705 1.972l.043.006-.113.176-.042-.008-.2.288c-.39.535-1.385 1.608-1.313 2.41q-.237.191-.462.388m39.717-5.279a13 13 0 0 0-.784-.387c-.49-.957-.979-1.916-1.298-2.929a6.5 6.5 0 0 1-.086-1.212c.031-1.11.542-2.133 1.326-2.988 1.158-1.265 2.655-2.213 4.481-2.516 1.161-.192 2.412-.261 3.52-.659 2.065-.74 2.421-2.794 1.654-4.509-.63-1.408-2.001-2.707-2.017-4.288-.013-1.679 1.053-2.976 2.377-4.07.882-.726 1.906-1.451 2.525-2.383.524-.79.664-1.956-.158-2.622a1.1 1.1 0 0 0-.148-.776c.627.302 1.068.824 1.201 1.488l.002.007q.07.351.019.75c-.205 1.578-1.918 2.802-3.137 3.807-.951.786-1.885 1.606-2.119 2.8a3 3 0 0 0-.056.574c.001.704.253 1.362.641 2.006.79 1.304 1.745 2.596 1.747 4.111q0 .214-.025.433c-.145 1.212-.712 2.372-1.972 2.98-1.284.618-2.745.702-4.155.95-.571.1-1.181.213-1.709.452a5.6 5.6 0 0 0-.889.416c-.153.09-.315.21-.467.336l-.046.034.01-.02-.04.042c-.139.106-.276.22-.412.352-.33.321-.643.702-.909 1.11-.442.572-.734 1.188-.753 1.936a5 5 0 0 0-.028.511c-.002 1.43.648 2.752 1.536 3.953zm-30.515-4.324c-.406-.33-.436-.832-.459-1.303-.018-.36-.067-.714-.099-1.076-.046-.554.438-1.46.052-1.932-.609-.737-1.382-.805-1.661-1.626-.094-1.704.618-3.868-1.054-4.83a2.76 2.76 0 0 0-1.403-.376c-.246 0-.492.031-.736.084a2.6 2.6 0 0 0-.597-.178l.215-.063c.294-.07.596-.105.897-.105 1.608 0 3.178.973 3.178 2.564v.01c0 .626-.174 1.25-.174 1.874q0 .078.004.158c.04.818.33 1.088 1.018 1.514.538.333.86.75.86 1.28q.001.201-.064.426l-.003.01a4 4 0 0 0-.046.181l-.002.01v.003a5.9 5.9 0 0 0-.054 2.06c-.045.447-.006.892.128 1.315m9.172-.605c-.251 0-.503-.08-.729-.26-.65-.527-.784-1.256-.724-2.012.03-.354.08-.724.132-1.103.038-1.204.197-2.465-.106-3.601l.005-.036c-.265-.624-.636-1.199-1.096-1.779-.894-1.121-1.47-2.005-1.135-3.404.233-.97.817-2.03.75-3.033-.056-.807-.64-1.46-1.147-2.098-.933-1.166-1.946-2.374-1.468-3.864.642-1.998 2.234-4.282 1.68-6.42-.434-1.673-2.083-2.786-3.96-3.024a2.6 2.6 0 0 0-1.44-.409q-.101 0-.204.007c.37-.102.76-.148 1.159-.148 1.252 0 2.572.461 3.485 1.128 1.084.794 1.462 1.873 1.462 3.002 0 .748-.166 1.518-.4 2.24-.352 1.083-.89 2.108-1.269 3.182a3.1 3.1 0 0 0-.199 1.041c.001.555.195 1.07.589 1.641.836 1.216 2.111 2.283 2.114 3.72a2.5 2.5 0 0 1-.068.58c-.23.992-.777 2.036-.777 3.067q0 .096.007.192c.058.847.673 1.513 1.203 2.18.266.335.499.665.7 1.004.301.721.562 1.435.562 2.273v.062c-.02 1.136-.367 2.262-.367 3.401q0 .209.018.419c.064.748.588 1.652 1.293 1.652a1 1 0 0 0 .187-.022q.259.118.528.163a1.4 1.4 0 0 1-.785.259m-37.05-.512a4.2 4.2 0 0 1 1.151-1.602c1.798-1.554 4.12-1.553 6.478-1.646q.01 0 .02-.002.159-.004.384-.004.173 0 .38.002h.035c.531.148 1.041.302 1.493.406q-.547.013-1.102.012h-.575q-.289-.002-.578-.002c-1.32 0-2.642.032-3.886.31-1.45.322-2.9 1.12-3.451 2.408a9 9 0 0 0-.35.118m20.025-1.103c-.864-.023-1.712-.315-2.22-.907-1.018-1.186-.585-2.636-.132-3.936.281-.804.68-1.852-.05-2.572-.754-.748-2-1.154-3.107-1.257-.645-.056-1.263-.047-1.791-.424-.617-.44-1.013-1.272-1.3-1.905-.299-.656-.44-1.644-1.135-2.079-.602-.375-1.41-.517-2.193-.517-.39 0-.776.036-1.126.096q-.184.029-.37.07a4.4 4.4 0 0 0-.845-.197c.812-.277 1.7-.46 2.558-.46.508 0 1.005.064 1.472.208l.013.004.012.004h.002q.139.045.275.099c1.524.612 1.614 2.538 2.462 3.668.544.726 1.083.841 2.002.925.925.084 1.928.321 2.709.79.862.52 1.162 1.16 1.162 1.875 0 .475-.131.983-.316 1.514l-.045.13c-.486 1.432-.897 3.416.971 4.14.283.29.62.536.992.731m24.588-5.143c-.466 0-.922-.118-1.33-.416-2.014-1.468-.21-3.449.116-5.178.46-2.47-2.167-4.047-3.837-5.646-1.2-1.15-2.208-2.405-2.335-3.942-.367-2.612 2.282-5.13 2.47-7.82.12-1.66-.803-3.086-2.426-3.924a5.7 5.7 0 0 0-.957-.382 2.3 2.3 0 0 0-.653-.372 2.6 2.6 0 0 0-1.39-.114c.339-.16.711-.228 1.091-.228.597 0 1.213.166 1.743.4 1.265.562 2.473 1.546 2.86 2.793.125.399.178.8.177 1.201-.002 1.18-.474 2.352-.999 3.426-.403.826-.941 1.748-1.272 2.69a3.6 3.6 0 0 0-.405 1.695 4.5 4.5 0 0 0 .509 2.072c.45.852 1.13 1.539 1.862 2.188.602.579 1.237 1.141 1.82 1.719 1.167 1.154 1.992 2.29 1.992 3.672 0 .441-.085.908-.269 1.408-.267.728-.714 1.642-.713 2.468 0 .572.218 1.102.863 1.496.417.254.874.378 1.34.378.345 0 .695-.068 1.037-.197q.097-.036.193-.077.28-.117.553-.266l.141.003q.252 0 .498-.035l-.118.08c-.704.46-1.652.908-2.56.908m13.782-1.898c-.788 0-1.573-.203-2.199-.622l-.088-.042c-.798-.426-1.482-1.107-1.576-1.967-.089-.85.296-1.588.606-2.364.436-1.012.557-2.057.087-3.127-.517-1.169-1.821-1.946-2.967-2.594-1.583-.896-3.365-1.81-4.482-3.19-.405-.505-.614-1.094-.692-1.713-.026-.348 0-.701.09-1.056.37-1.493 1.453-2.716 2.646-3.781 1.451-1.295 3.16-2.41 4.444-3.843 1.406-1.57 1.679-3.783.234-5.45a3.7 3.7 0 0 0-.781-.686 3.5 3.5 0 0 0-.533-.827c.824.178 1.497.796 1.962 1.59.699 1.196.925 2.788.483 3.868-.644 1.568-1.963 2.713-3.363 3.81q-.382.299-.764.594c-.935.725-1.858 1.458-2.596 2.31-.278.32-.53.658-.746 1.018-.385.641-.571 1.31-.57 1.966 0 1.095.519 2.154 1.501 2.988 1.354 1.15 3.089 1.816 4.562 2.822 1.259.858 2.275 1.976 2.306 3.448l.001.064c-.001 1.09-.639 1.946-.901 2.985a2.5 2.5 0 0 0-.078.619c.001.572.208 1.11.588 1.541l.117.167c.2.257.457.462.742.633.65.316 1.349.48 2.031.48q.451 0 .886-.096.228.052.469.052.281-.002.571-.064l-.004.001a4.36 4.36 0 0 1-1.986.466m-11.146-8.444q-.179 0-.364-.036c-.736-.143-1.561-.918-2.378-.918-.212 0-.424.052-.633.182l-.045.03a2.4 2.4 0 0 0-.485.144l.088-.18c.221-.364.775-.552 1.263-.552.148 0 .29.018.415.052.488.138.891.375 1.339.587.248.121.547.281.835.296q.03.002.062.003c.502 0 1.312-.318 1.309-.836a.6.6 0 0 0-.037-.194l-.024-.06a1.7 1.7 0 0 0-.287-.446l-.012-.24a2 2 0 0 0-.091-.426c.633.472 1.041 1.054.584 1.748a1.83 1.83 0 0 1-1.539.846m14.687-1.307q-.099 0-.196-.01l-.246-.153c-.485-.344-.454-1-.522-1.484-.089-.634-.093-1.28-.087-1.922.105-.782.273-1.563.395-2.338.303-1.953.129-4.733-2.621-5.228a5 5 0 0 0-.207-.032c-.332-.356-.77-.506-1.245-.506h-.016c.305-.07.618-.11.933-.11.517 0 1.036.103 1.522.328 1.62.756 2.261 2.216 2.261 3.746q0 .236-.019.476c-.128 1.496-.674 3.082-.671 4.618 0 .451.048.896.167 1.334.03.11.061.23.096.348.099.333.23.653.46.693q.058.122.136.235a2 2 0 0 1-.14.005M73.087 56.69c-.709-.099-1.312-.658-1.835-1.046-1.675-1.237-4.112-2.44-6.429-2.44-.61 0-1.212.083-1.79.271-.79.26-1.628.795-2.253 1.455a4 4 0 0 0-.346.397 2.5 2.5 0 0 0-.842.665q.063-.163.144-.32l.006-.013a4.4 4.4 0 0 1 .654-.927 5 5 0 0 1 .393-.385 6.47 6.47 0 0 1 4.308-1.64c.63 0 1.274.09 1.915.28 1.347.399 2.823.99 3.933 1.793.103.076.22.174.346.282.268.23.58.512.907.75q.134.095.269.18.28.378.62.698M93.625 45.69a1.7 1.7 0 0 1-.326-.292c-.424-1.904.385-4.05.09-5.952-.175-1.112-.734-2.204-2.14-2.348a6.905 6.905 0 0 0-1.025-.019 3 3 0 0 0-.53-.189 2.7 2.7 0 0 0-.577-.085 6.6 6.6 0 0 1 1.618-.21q.361 0 .708.047.258.035.504.1c1.608.419 1.962 1.967 1.962 3.536 0 .483-.032.965-.072 1.42-.052.584-.115 1.117-.134 1.536-.023.493-.052 1.007-.004 1.508a6 6 0 0 0-.074.948"/><path fill="#e3a037" d="M64.824 89.122c-.072-.802.924-1.875 1.314-2.41l.2-.288.042.008.113-.176-.043-.006c.381-.607.675-1.283.705-1.972.1-2.252-2.064-3.963-4.294-4.606a14.5 14.5 0 0 0-2.477-.456 17 17 0 0 0-1.778-.097c-.7 0-1.385.048-2.064.152.27-.57.145-1.161-.79-1.573-.7-.31-1.547-.411-2.408-.411-.898 0-1.812.11-2.591.212-1.331.175-2.607.612-3.892.941q-.42.105-.826.232c.552-1.29 2.001-2.086 3.451-2.41 1.245-.276 2.566-.308 3.887-.308h.577l.576.002q.555.001 1.102-.012.197.046.379.076c.555.094 1.118.15 1.668.15 1.418 0 2.755-.378 3.671-1.496.928-1.134.55-2.888-.76-3.631-1.64-.925-3.792-.167-5.38-1.315-1.839-1.33-.19-3.77-2.04-5.036a3.7 3.7 0 0 0-.88-.436q.188-.041.372-.07c.35-.06.735-.096 1.126-.096.783 0 1.59.142 2.193.517.695.435.836 1.423 1.134 2.079.288.633.684 1.465 1.3 1.905.528.377 1.147.368 1.792.424 1.107.103 2.352.51 3.107 1.257.729.72.33 1.768.05 2.572-.453 1.3-.886 2.75.132 3.936.508.592 1.356.884 2.22.907.593.308 1.28.484 1.996.49h.036c2.043 0 3.057-1.653 2.61-3.26-.35-1.247-1.378-2.203-1.163-3.553.135-.853.278-1.538-.47-2.192a2 2 0 0 0-.517-.324c.245-.053.491-.084.737-.084.47 0 .941.11 1.403.376 1.672.962.96 3.126 1.054 4.83.278.82 1.052.889 1.66 1.626.386.472-.097 1.378-.051 1.932.032.362.08.716.099 1.076.022.47.053.974.458 1.303.185.588.552 1.13 1.134 1.577a2.86 2.86 0 0 0 1.769.594c.958 0 1.922-.432 2.65-1.058 4.281-3.674-1.158-8.486-2.758-11.952-.644-1.39-.516-2.716-.198-4.152.253-1.13.294-2.218-.088-3.33-.725-2.1-2.716-3.251-4.965-3.854-1.36-.365-2.77-.581-4.134-.936-1.46-.376-2.73-1.121-4.16-1.561a3.8 3.8 0 0 0-1.136-.183c-.456 0-.876.096-1.243.275q.158-.208.346-.397c.625-.66 1.463-1.195 2.253-1.455a5.8 5.8 0 0 1 1.79-.272c2.316 0 4.754 1.204 6.429 2.441.523.388 1.126.947 1.835 1.046.317.294.674.54 1.07.712.203.086.427.129.65.129.36 0 .718-.11.99-.323.84-.656 1.062-1.47.933-2.432-.062-.461-.21-.914-.333-1.365-.198-.728-.153-1.447-.152-2.184.002-.95-.358-1.861-1.19-2.477a3 3 0 0 0-.118-.082c1.878.238 3.527 1.35 3.96 3.023.554 2.139-1.037 4.423-1.68 6.421-.477 1.49.536 2.698 1.468 3.864.508.638 1.092 1.29 1.148 2.098.067 1.004-.517 2.062-.75 3.033-.335 1.399.24 2.283 1.135 3.404.46.58.83 1.155 1.095 1.779l-.004.036c.302 1.136.143 2.397.106 3.6-.052.38-.102.75-.132 1.104-.06.756.073 1.485.724 2.012.226.18.478.26.729.26.275 0 .55-.096.784-.26q.182.031.365.032c.87 0 1.747-.504 2.315-1.268 1.335-1.795.249-3.595.233-5.528-.008-1.136.894-2.146 1.342-3.168.333-.76.239-1.638.016-2.408-.514-1.775-2.17-3.2-3.506-4.52-1.777-1.751-2.796-3.844-2.61-6.22.193-2.463 1.767-4.644 1.75-7.147-.008-1.097-.39-2.747-1.426-3.579.371.112.71.252.958.382 1.623.838 2.545 2.264 2.426 3.924-.188 2.689-2.837 5.208-2.47 7.82.127 1.537 1.135 2.792 2.335 3.942 1.67 1.599 4.298 3.175 3.836 5.646-.324 1.729-2.129 3.71-.115 5.178.407.298.864.416 1.33.416.909 0 1.856-.45 2.56-.91q.06-.037.119-.078c1.334-.188 2.544-1.09 3.397-1.997 1.312-1.39 1.796-3.193.713-4.816-.492-.737-1.323-1.179-2.203-1.47-.743-.246-1.487-.409-2.193-.74-.643-.298-1.198-.711-1.858-.986a2.1 2.1 0 0 0-.788-.139c-.177 0-.358.018-.531.05.014-.008.029-.02.045-.028.21-.13.42-.182.633-.182.816 0 1.642.775 2.378.918q.184.036.364.036c.639 0 1.203-.33 1.539-.846.457-.694.05-1.276-.585-1.748-.337-1.03-1.438-1.721-2.275-2.464-1.981-1.754-1.94-3.965-.572-6.013.444-.67.965-1.377 1.263-2.117 1.504-2.076-.821-4.642-1.337-6.662-.426-1.65 1.373-4.284-.745-5.272a7 7 0 0 1 1.025.019c1.407.144 1.965 1.236 2.14 2.348.296 1.901-.513 4.048-.09 5.952q.145.167.327.292 0 .36.053.708c.15.93.848 1.57 1.702 1.57.388 0 .808-.133 1.224-.429 1.866-1.325 3.09-3.81 3.13-5.894.009-.452-.114-.966-.332-1.435.301.193.566.437.782.687 1.444 1.666 1.171 3.878-.234 5.449-1.284 1.433-2.993 2.548-4.444 3.843-1.193 1.065-2.276 2.288-2.647 3.78a3.3 3.3 0 0 0-.089 1.057c.078.619.287 1.208.692 1.712 1.117 1.38 2.899 2.295 4.482 3.19 1.145.649 2.449 1.426 2.967 2.595.47 1.07.349 2.115-.087 3.127-.31.776-.695 1.515-.606 2.364.093.86.778 1.541 1.576 1.967l.088.042c.626.419 1.411.622 2.199.622.694 0 1.391-.158 1.985-.466l.005-.001c1.245-.264 2.55-1.305 3.105-2.139.915-1.374-.191-2.737-1.084-3.83-1.107-1.36-2.638-2.406-3.353-4.002-.846-1.89-.682-4.413-.24-6.37.294-1.295.651-2.806-.257-3.987a1 1 0 0 0-.104-.123q.104.015.207.032c2.75.495 2.924 3.275 2.62 5.228-.122.775-.289 1.556-.394 2.338-.007.642-.002 1.288.087 1.922.068.483.037 1.14.522 1.484l.246.154a2 2 0 0 0 .335.004q.153.227.392.402c.277.202.564.287.85.287 1.089-.001 2.161-1.227 2.561-1.937.545-.972.899-1.907 1.999-2.52.651-.36 1.678-.396 1.971-1.155q.06-.156.085-.299c.822.666.682 1.83.158 2.622-.619.932-1.643 1.657-2.526 2.382-1.323 1.095-2.39 2.392-2.377 4.07.017 1.582 1.388 2.88 2.017 4.289.768 1.715.412 3.768-1.653 4.51-1.108.397-2.359.466-3.521.658-1.826.303-3.322 1.25-4.481 2.516-.784.855-1.294 1.879-1.325 2.988-.013.404.023.81.086 1.212.318 1.013.807 1.972 1.298 2.93a17.7 17.7 0 0 0-3.928-1.222 13.7 13.7 0 0 0-2.512-.233c-3.21 0-6.295 1.153-7.82 3.544-1.093-1.004-2.654-1.646-4.595-1.646q-.907-.002-1.92.195c-2.786.548-5.591 2.027-7.774 3.827.124-.354.24-.76.24-1.131 0-.415-.145-.785-.59-.992-.51-.236-1.077-.33-1.663-.33-.869 0-1.778.206-2.602.453-1.925.577-3.793 1.593-5.308 2.812"/><path fill="#f9e1be" d="M90.51 46.883c-.516-2.379-5.786-6.976-1.972-9.043l.018.144c-1.67 1.463-.48 3.424.413 4.987.685 1.197 1.54 2.464 1.665 3.828zM74.928 62.923c-1.667-2.944-5.5-3.168-8.805-3.422-2.11-.163-5.586-.4-5.742-2.843l.118-.078c.6 2.516 4.894 2.278 7.092 2.516 2.922.318 6.495.832 7.458 3.716zM50.754 71.371c-3.053 0-3.223-4.17-1.05-5.5l.038.139c-.782.873-1.297 2.018-.902 3.141.396 1.117 1.256 1.532 2.402 1.945l-.112.255q-.195.02-.376.02M66.53 72.126a.1.1 0 0 1-.063-.022c-1.139-.799-.175-2.217.803-2.732a.1.1 0 0 1 .045-.013c.065 0 .033.128 0 .165-.284.316-.654.619-.805 1.01-.178.458.015.8.234 1.214.048.093-.075.377-.213.377M101.664 54.544a.1.1 0 0 1-.073-.033c-.573-.601-.91-1.533-.751-2.323.176-.876.802-1.302 1.279-2.042l.061.005c-.189.67-.856 1.113-.871 1.855-.016.806.308 1.484.569 2.238.031.086-.097.3-.214.3"/><path fill="#90534f" d="M99.367 82.623c-4.006-.75-8.41.296-10.331 3.31-1.434-1.315-3.67-2.009-6.517-1.45-2.785.548-5.59 2.027-7.773 3.827.263-.748.494-1.732-.35-2.123-1.268-.587-2.886-.29-4.265.123-3.24.97-6.316 3.185-7.824 5.518-1.146 1.774-.494 3.491 2.096 3.88 2.408.36 5.778-.238 7.81-1.441l.044-.037c.419.253.917.452 1.329.617 1.587.639 3.445.939 5.261 1.119 3.021.3 6.518.104 9.257-1.226a4.6 4.6 0 0 0 1.346-.998c.085 1.232 2.484 1.308 3.747 1.229 2.413-.147 4.85-.884 7.069-1.648 3.003-1.033 6.947-2.51 6.91-5.303-.037-2.908-4.532-4.786-7.809-5.397"/><path fill="#efb3ba" d="M62.297 92.54c.778-2.217 3.852-4.18 6.41-5.325 1.105-.493 2.323-.847 3.574-.945.757-.059 1.524.053 2.06.432.53.373.315 1.193.176 1.796-1.34 1.142-2.426 2.408-3.093 3.642l.061.086c-.124.368-.158.738-.058 1.098.078.29.299.532.584.74-2.879 1.332-11.15 2.566-9.714-1.524"/><path fill="#ee9897" d="M88.6 94.112c-2.038 1.419-5.56 1.513-8.053 1.436-2.713-.081-5.836-.583-7.925-1.827-1.98-1.18.52-3.237 1.445-4.517l.004-.012c.125-.112.261-.22.392-.33l.105-.063.01-.034c1.848-1.52 4.14-2.789 6.477-3.569 2.04-.679 4.247-.815 6.142-.079 1.95.758 2.848 2.44 3.208 3.996.385 1.678.04 3.712-1.805 5"/><path fill="#d68d8b" d="M100.337 92.898c-1.949.69-3.997 1.252-6.085 1.546-1.242.175-4.288.416-4.558-.87l-.041-.056c.728-.892 1.063-1.978 1.157-2.95a5.51 5.51 0 0 0-1.687-4.554c2.228-2.774 6.052-3.619 9.979-2.955 3.13.532 6.509 2.081 7.486 4.441 1.157 2.794-3.469 4.411-6.251 5.398"/><path fill="#c4a19d" d="M64.39 95.706a5.356 5.356 0 0 0 0 0"/><path fill="#582524" d="M63.698 95.556a3.817 3.817 0 0 0 0 0"/><path fill="#713735" d="M81.27 96.088c-.825 0-1.64-.044-2.422-.122-1.816-.18-3.674-.48-5.262-1.119-.412-.165-.91-.364-1.328-.617l-.044.037c-1.636.968-4.14 1.545-6.31 1.545-.526 0-1.031-.034-1.5-.104l-.016-.002a5 5 0 0 1-.689-.15 3.8 3.8 0 0 1-.785-.317 3 3 0 0 1-.217-.132c-.86-.577-1.115-1.467-.794-2.437l.176.26q.042.049.088.093c-.309 1.725 1.404 2.313 3.553 2.313 2.214 0 4.89-.624 6.29-1.272-.285-.208-.505-.45-.583-.74-.1-.36-.066-.73.058-1.098l-.06-.086c.666-1.234 1.752-2.5 3.092-3.642.14-.603.354-1.423-.176-1.796-.448-.316-1.057-.447-1.687-.447h-.076a3.8 3.8 0 0 0-.958-.105c-.414 0-.853.042-1.274.1.768-.218 1.598-.39 2.394-.39.583 0 1.148.092 1.657.327.445.207.59.577.59.992 0 .37-.117.777-.24 1.13 2.183-1.8 4.987-3.278 7.773-3.826a10 10 0 0 1 1.92-.195c1.942 0 3.503.642 4.596 1.646 1.524-2.391 4.61-3.544 7.82-3.544.837 0 1.683.078 2.512.233 3.277.61 7.772 2.49 7.809 5.397l.001.034c.005 2.772-3.92 4.238-6.911 5.269-2.219.764-4.657 1.501-7.07 1.648-.208.013-.448.021-.703.021-1.289 0-2.972-.222-3.043-1.25a4.6 4.6 0 0 1-1.347.998c-2.028.986-4.473 1.348-6.833 1.348m3.147-11.465c-1.12 0-2.264.208-3.362.573-2.337.78-4.63 2.05-6.476 3.57l-.011.033-.106.064c-.13.11-.267.217-.391.33l-.004.011c-.925 1.28-3.425 3.338-1.445 4.518 2.088 1.244 5.211 1.745 7.924 1.826.373.011.77.019 1.18.019 2.334 0 5.14-.248 6.873-1.455 1.845-1.286 2.19-3.321 1.806-4.998-.36-1.556-1.258-3.239-3.208-3.996a7.7 7.7 0 0 0-2.78-.495m12.194-1.779c-2.998 0-5.737.99-7.488 3.17a5.51 5.51 0 0 1 1.687 4.554c-.094.972-.429 2.058-1.157 2.95l.04.056c.169.804 1.42 1.012 2.639 1.012.732 0 1.453-.076 1.92-.142 2.088-.294 4.136-.856 6.085-1.546 2.782-.987 7.408-2.604 6.251-5.398-.977-2.36-4.356-3.909-7.486-4.44a15 15 0 0 0-2.49-.216"/><path fill="#b9777a" d="M65.72 95.336c-2.149 0-3.862-.588-3.553-2.313.567.565 1.441.75 2.374.75.314 0 .635-.02.953-.055 1.763-.19 2.925-1.016 3.59-2.207.535-.959 1.027-1.752 1.954-2.568.583-.51 1.39-.83 1.958-1.337.578-.515.52-1.028-.258-1.302a3 3 0 0 0-.16-.049h.076c.63 0 1.24.13 1.687.447.53.373.315 1.193.176 1.796-1.34 1.142-2.426 2.408-3.093 3.642l.061.086c-.124.368-.158.738-.058 1.098.077.29.298.532.584.74-1.4.648-4.077 1.272-6.29 1.272"/><path fill="#b86565" d="M81.726 95.567q-.617-.001-1.18-.019c-2.712-.081-5.835-.582-7.924-1.826-1.98-1.18.52-3.238 1.445-4.518l.004-.012c.125-.112.261-.22.392-.33l.105-.063.01-.033c1.848-1.52 4.14-2.79 6.477-3.57 1.098-.365 2.243-.573 3.362-.573.962 0 1.904.155 2.78.495 1.95.757 2.848 2.44 3.208 3.996.385 1.677.04 3.712-1.805 4.998-1.734 1.207-4.54 1.455-6.874 1.455m.844-10.248c-1.59 0-3.459.715-4.611 1.467-1.3.67-2.467 1.454-3.427 2.406-.736.735-1.925 2.314-1.07 3.147.74.724 2.032.995 3.432.995 1.763 0 3.7-.43 4.933-.92 3.001-1.198 4.939-4.122 3.022-6.256-.542-.603-1.364-.84-2.279-.84"/><path fill="#a65e5d" d="M92.332 94.585c-1.218 0-2.47-.207-2.638-1.011l-.041-.057c.728-.892 1.063-1.977 1.157-2.949a5.51 5.51 0 0 0-1.687-4.555c1.751-2.18 4.49-3.169 7.489-3.169.816 0 1.65.074 2.49.215 3.13.532 6.509 2.081 7.486 4.441 1.157 2.793-3.469 4.41-6.251 5.397-1.949.691-3.997 1.252-6.085 1.547-.467.066-1.188.141-1.92.141m4.004-11.505c-2.42 0-5.422.848-5.448 2.817-.027 1.872 2.811 2.475 4.945 2.475l.163-.001c2.54-.036 5.045-.864 4.956-3-.042-1.04-1.881-1.922-3.048-2.152a8.3 8.3 0 0 0-1.568-.139"/></svg>