<svg xmlns="http://www.w3.org/2000/svg" width="123" height="78" fill="none" viewBox="0 0 123 78"><path fill="#bd3f20" d="M117.169 16.479c-4.752-3.706-10.905-5.336-16.77-6.177-3.115-.445-6.3-.68-9.49-.753-1.106-3.748-4.653-5.982-8.117-7.27C78.44.659 73.673.192 69.065.04a81 81 0 0 0-12.333.552c-4.728.568-9.703 1.883-13.535 4.833-7.429 5.722-.981 12.4 5.96 17.288-5.129-1.098-10.386-1.542-15.642-1.508-6.176.038-12.57.696-18.463 2.625-3.841 1.253-8.492 3.153-10.801 6.68-2.538 3.869-.128 7.82 3.09 10.381 1.262 1.004 2.647 1.833 4.11 2.538-2.072.4-4.08 1.584-5.715 2.827-2.165 1.645-4 3.616-5.041 6.159-1.915 4.68.377 9.596 3.842 12.826 4.116 3.837 10.25 5.533 15.662 6.445 5.741.97 11.652.912 17.376-.106l.097-.05c1.515 1.053 3.232 1.88 4.936 2.518 6.379 2.382 13.333 3.082 20.1 3.012 11.177-.116 22.767-2.165 33.055-6.642 7.362-3.203 16.534-8.72 17.085-17.684.475-7.722-5.353-10.679-11.88-11.745a37.1 37.1 0 0 0 12.008-4.378c3.604-2.07 7.344-4.988 8.804-9.027 1.608-4.448-1.213-8.455-4.611-11.106"/><path fill="#e4831d" d="M43.322 17.686c-1.913-1.872-3.72-4.453-3.245-7.27.416-2.467 2.704-4.196 4.724-5.377 4.19-2.442 9.117-3.289 13.885-3.71 4.502-.4 9.051-.451 13.555-.067 6.172.528 15.207 2.059 17.703 8.674a104 104 0 0 0-9.48.293c-7.07.534-14.166 2.065-20.662 4.952-3.597 1.598-8.253 3.839-10.566 7.386-2.079-1.49-4.078-3.082-5.914-4.88"/><path fill="#a32820" d="M61.804 77.065c-6.48 0-13.101-.741-19.196-3.016-1.704-.637-3.421-1.465-4.936-2.519l-.097.051c-2.979.53-6.008.799-9.039.799-2.792 0-5.584-.228-8.337-.693-5.412-.912-11.546-2.608-15.662-6.446C1.94 62.821 0 59.45 0 55.94c0-1.17.216-2.353.695-3.524 1.041-2.543 2.876-4.514 5.041-6.159 1.635-1.243 3.643-2.426 5.715-2.827-1.463-.705-2.848-1.534-4.11-2.538-2.274-1.812-4.146-4.317-4.15-6.997-.003-1.11.316-2.25 1.06-3.384 2.309-3.527 6.96-5.427 10.801-6.68 5.893-1.929 12.287-2.587 18.463-2.625q.277-.002.556-.002c5.07 0 10.137.45 15.086 1.51-4.752-3.346-9.272-7.531-9.268-11.674.003-1.91.966-3.81 3.308-5.614 3.832-2.95 8.807-4.265 13.535-4.833A82 82 0 0 1 66.524 0q1.273 0 2.541.041c4.608.151 9.375.619 13.727 2.237 3.464 1.288 7.01 3.523 8.117 7.271 3.19.074 6.375.308 9.49.753 5.865.84 12.018 2.471 16.77 6.177 2.722 2.122 5.072 5.116 5.075 8.508a7.6 7.6 0 0 1-.464 2.598c-1.46 4.039-5.2 6.957-8.804 9.027a37.1 37.1 0 0 1-12.008 4.377c6.279 1.025 11.911 3.802 11.908 10.884q0 .422-.028.862c-.551 8.965-9.723 14.481-17.085 17.683-10.288 4.478-21.878 6.527-33.055 6.643q-.452.004-.904.004m-.881-34.463q.914 0 1.832.057c-2.31.181-4.628.21-6.919.573-2.49.394-4.893 1.204-7.207 2.19-2.5 1.063-4.858 2.466-7.06 4.054-1.356.977-2.62 2.042-3.632 3.344-1.209 1.227-2.277 2.58-3.088 4.084-1.296 2.405-1.96 5.262-1.252 7.962.763 2.912 2.968 5.082 5.518 6.557 5.668 3.281 12.688 4.381 19.14 4.695q1.873.09 3.748.09c6.092 0 12.182-.695 18.157-1.864 4.585-.897 9.079-2.087 13.43-3.804 7.662-3.026 19.243-8.859 18.595-18.704-.513-7.832-7.306-9.759-14.124-10.401a88 88 0 0 1-11.529.765 83 83 0 0 1-5.39-.174c-6.082-.391-12.371-1.267-17.987-3.753-.127-.059.026-.35.168-.35q.016 0 .033.007c5.763 2.171 11.904 3.153 18.039 3.446q2.379.114 4.768.114c2.265 0 4.532-.078 6.792-.242l.134.044.239-.07c.24-.02.481-.035.721-.057l-.037-.001c.912-.05 1.808-.127 2.701-.248 1.328-.104 2.655-.244 3.936-.576l.263-.04c4.636-.794 9.1-2.456 13.084-4.98 3.593-2.278 8.34-6.123 7.621-10.956-.833-5.608-6.988-9.134-11.809-10.93-5.668-2.111-11.781-2.88-17.805-3.041a7.6 7.6 0 0 0-1.092-.084q-.392 0-.779.048-1.048-.014-2.095-.014c-6.172 0-12.309.414-18.345 1.883-3.68.897-7.303 2.082-10.732 3.698-2.657 1.252-5.34 2.694-7.48 4.741-.475.455-.91.95-1.285 1.466-.719.857-1.196 1.838-1.272 2.883-.186 1.26.133 2.558 1.229 3.788 1.693 1.904 4.163 2.991 6.541 3.906a14.5 14.5 0 0 1-2.82-.713c-3.338-1.535-6.548-4.022-5.276-7.795.134-.393.303-.768.488-1.135a73.3 73.3 0 0 0-14.256-1.378q-2.287 0-4.561.136c-6.61.389-13.455 1.37-19.481 4.273-4.008 1.932-9.243 5.65-6.24 10.659 2.824 4.709 8.626 6.911 13.692 8.196 5.274 1.336 10.706 1.922 16.113 2.426 3.048.286 6.096.42 9.143.432 2.19-1.522 4.716-2.661 7.129-3.473 3.332-1.122 6.797-1.734 10.299-1.734m-49.046 1.03C7.075 45.307 1.395 48.926.676 54.397c-.659 5.015 2.772 9.638 6.91 12.102 6.238 3.713 13.771 5.168 21.167 5.168 2.812 0 5.607-.21 8.3-.589-2.484-1.906-4.289-4.487-4.33-7.915-.026-2.218.585-4.304 1.589-6.208.617-1.723 2.152-3.378 3.27-4.61.88-.974 1.762-1.974 2.815-2.767.624-.467 1.331-.836 2.01-1.234-4.627-.07-9.252-.41-13.86-.938-5.408-.62-11.51-1.405-16.67-3.774M66.341.604c-2.433 0-4.868.114-7.288.328-4.768.421-9.694 1.268-13.885 3.71-2.02 1.18-4.308 2.91-4.724 5.378-.476 2.816 1.332 5.398 3.245 7.27 1.836 1.798 3.835 3.391 5.914 4.88 2.313-3.547 6.969-5.787 10.566-7.386 6.496-2.887 13.591-4.417 20.662-4.952 2.614-.197 5.27-.306 7.932-.306q.774 0 1.548.013C87.815 2.924 78.78 1.393 72.608.865a74 74 0 0 0-6.267-.261"/><path fill="#e4831d" d="M6.992 66.867C2.853 64.403-.578 59.78.082 54.765.8 49.295 6.48 45.675 11.281 44c5.16 2.37 11.262 3.155 16.67 3.773 4.608.53 9.233.868 13.86.94-.679.398-1.385.766-2.01 1.233-1.053.793-1.934 1.793-2.815 2.766-1.118 1.233-2.652 2.888-3.27 4.61-1.004 1.905-1.614 3.991-1.589 6.209.041 3.428 1.847 6.01 4.33 7.915-9.777 1.37-20.857.546-29.466-4.58"/><path fill="#f8a11b" d="M114.339 35.01c-3.984 2.524-8.448 4.186-13.084 4.98l-.263.04c-1.281.332-2.608.472-3.936.576-.893.121-1.789.198-2.701.248l.037.002q-.36.028-.721.055l-.239.071-.134-.044c-3.848.279-7.72.312-11.56.128-6.135-.293-12.276-1.274-18.039-3.446-.148-.055-.339.28-.201.343 5.616 2.486 11.905 3.362 17.986 3.754 5.632.364 11.32.148 16.92-.592 6.818.643 13.611 2.57 14.124 10.4.648 9.846-10.933 15.68-18.594 18.705-4.352 1.717-8.846 2.907-13.431 3.804-7.2 1.41-14.568 2.128-21.905 1.775-6.452-.315-13.472-1.415-19.14-4.696-2.55-1.475-4.755-3.644-5.518-6.556-.708-2.7-.044-5.558 1.252-7.963.811-1.504 1.88-2.857 3.088-4.084 1.012-1.302 2.276-2.366 3.632-3.344 2.202-1.588 4.56-2.99 7.06-4.055 2.314-.985 4.718-1.794 7.207-2.189 2.29-.363 4.61-.392 6.919-.573-4.123-.255-8.219.36-12.131 1.677-2.413.812-4.939 1.95-7.13 3.473a103 103 0 0 1-9.142-.431c-5.407-.505-10.839-1.091-16.113-2.427-5.066-1.284-10.868-3.487-13.692-8.196-3.003-5.01 2.232-8.727 6.24-10.659 6.026-2.903 12.87-3.884 19.481-4.273 6.265-.37 12.639.014 18.817 1.243a9 9 0 0 0-.488 1.134c-1.272 3.773 1.938 6.26 5.276 7.795.918.337 1.86.566 2.82.713-2.378-.915-4.848-2.002-6.541-3.906-1.096-1.23-1.415-2.527-1.23-3.788.077-1.045.554-2.026 1.273-2.883.376-.517.81-1.01 1.285-1.465 2.14-2.048 4.823-3.49 7.48-4.742 3.43-1.616 7.052-2.801 10.732-3.698 6.719-1.635 13.563-1.963 20.44-1.869a7 7 0 0 1 1.87.036c6.025.162 12.138.93 17.806 3.04 4.821 1.797 10.976 5.323 11.809 10.931.719 4.833-4.028 8.679-7.621 10.956"/><path fill="#c6511f" d="M49.236 22.567c-2.079-1.49-4.078-3.083-5.914-4.881-1.913-1.872-3.72-4.454-3.245-7.27.416-2.468 2.704-4.197 4.724-5.377 4.19-2.443 9.117-3.29 13.885-3.71A83 83 0 0 1 65.974 1c2.094 0 4.184.084 6.267.262 6.172.527 15.207 2.058 17.703 8.673a95 95 0 0 0-1.548-.012c-2.662 0-5.318.108-7.932.305-7.07.535-14.166 2.065-20.662 4.953-3.597 1.598-8.253 3.838-10.566 7.386m-2.81-14.081c-1.116 0-2.198.222-2.83.948-.795.91 1.417 1.609 1.9 1.771 2.512.84 5.064 1.526 7.57 2.398-1.57.528-3.256 1.65-3.726 3.201-.042.136.048.267.174.307.168.056.342.08.516.08.547 0 1.11-.232 1.587-.444 1.24-.55 2.4-1.255 3.575-1.93 3.128-1.794 6.832-2.817 10.318-3.64 4.175-.988 8.45-1.5 12.726-1.766 2.452-.152 5.71-.05 7.452-2.095.1-.118.1-.31-.05-.392-.745-.398-1.498-.532-2.258-.532-.75 0-1.507.13-2.267.259-.76.13-1.524.259-2.288.259q-.317 0-.633-.033c.754-.76 1.748-1.378 2.088-2.426.186-.57-.255-.779-.694-.779q-.12 0-.234.019c-1.136.193-2.267.947-3.262 1.484-.809.435-1.894 1.283-2.862 1.499.177-1.235 1.212-4.369-.546-4.369q-.078 0-.164.009c-.764.074-1.246 1.086-1.554 1.662-.563 1.06-.939 2.223-1.61 3.223-.174.259-.309.359-.428.359-.188 0-.336-.253-.538-.51-.483-.619-.64-1.364-1.175-1.95-.767-.842-2.104-1.979-3.32-1.979h-.005c-.659.003-.835.74-.902 1.248-.14 1.095.132 2.213-.093 3.295-1.921-1.267-2.725-4.543-5.32-4.543q-.204 0-.424.028c-.139.018-.244.1-.25.25-.06 1.635 1.96 3.938 1.017 5.471-1.412-1.572-2.867-2.912-4.79-3.849-.776-.378-2.097-1.059-3.197-1.059-.415 0-.797.096-1.107.342-1.206.954.231 1.92 1.09 2.436 1.925 1.15 3.925 2.267 5.29 4.062-1.913-.821-3.878-1.521-5.918-1.959-.752-.16-1.819-.355-2.859-.355M28.159 72.034c-7.396 0-14.93-1.455-21.167-5.168-4.139-2.463-7.57-7.087-6.91-12.101.718-5.47 6.398-9.09 11.2-10.765 5.16 2.37 11.262 3.154 16.67 3.773 4.608.53 9.233.868 13.86.939-.679.398-1.385.766-2.01 1.234-1.053.792-1.934 1.792-2.815 2.766-1.118 1.233-2.652 2.888-3.27 4.61-1.004 1.904-1.614 3.99-1.589 6.209.041 3.427 1.847 6.009 4.33 7.915a60 60 0 0 1-8.3.588M23.74 57.085c-.27.572-.494 1.168-.688 1.767-.377 1.17-.516 2.377-.566 3.597-.04.973-.288 4.692 1.374 4.735h.038c1.856 0 2.12-3.465 2.292-4.706.153-1.108.237-2.225.336-3.338.081-.904-.074-2.343.337-3.267.19 1.316.528 2.615.753 3.924.211 1.235.507 2.506 1.41 3.425l.302.039c1.254-.744 1.06-2.681.895-3.901q-.163-1.221-.487-2.405a10 10 0 0 0-.508-1.373c.916.41 1.838.785 2.855.791h.005c.864 0 1.148-.665.584-1.37-.466-.583-1.24-.831-1.997-.977l.216-.035c1.32-.245 3.419-.58 4.267-1.762.841-1.173-.284-1.647-1.29-1.647q-.233 0-.446.032c-1.163.178-2.346.467-3.443.931l.344-.268c.483-.343 1.457-.668 1.704-1.26.357-.861-.835-1.104-1.585-1.104-.13 0-.25.008-.343.021-1.065.146-2.93.748-4.265 1.703.142-.585.184-1.168-.096-1.753l-.282-.115c-.862.341-1.482 1.26-1.764 2.246-.384-.838-.725-1.691-1.48-2.32-.553-.457-1.542-.958-2.326-.958q-.129 0-.247.018c-.828.13-.748.917-.359 1.462.207.29.428.556.652.816a36 36 0 0 0-3.216-1.908c-.666-.355-2.41-1.301-3.6-1.301-.377 0-.697.093-.912.33-.346.382.015.903.528 1.375a17 17 0 0 0-1.816-.215 4 4 0 0 0-.229-.006c-1.615 0-6.095.742-5.57 3.005.16.69.731.88 1.346.88.177 0 .357-.016.532-.038 2.073-.282 4.168-.517 6.257-.603 1.076-.043 2.148-.096 3.224-.096q.342 0 .688.008c.223.004.464.014.706.025l.26.121c-2.474.133-4.978.671-7.31 1.157-2.13.445-6.56 1.524-6.917 4.273-.105.809.476 1.06 1.24 1.06 1.028 0 2.388-.454 2.855-.615 2.034-.703 3.97-1.687 5.928-2.582a12.4 12.4 0 0 0-2.47 2.471c-.774 1.045-3.63 5.381-.686 5.706q.097.01.197.01c1.741 0 3.54-2.468 4.508-3.601 1.177-1.375 2.393-2.793 3.741-4.045a18 18 0 0 0-1.877 2.287 10.6 10.6 0 0 0-1.69 4.006c-.173.904-.34 2.459.29 3.244.219.273.467.386.73.386 1.011 0 2.223-1.682 2.66-2.262 1.517-2.002 2.883-4.062 4.411-6.02"/><path fill="#d8631c" d="M62.346 75.899q-1.875 0-3.748-.09c-6.452-.314-13.472-1.414-19.14-4.695-2.55-1.476-4.755-3.645-5.518-6.557-.708-2.7-.044-5.557 1.252-7.962.811-1.504 1.88-2.858 3.088-4.084 1.012-1.303 2.276-2.367 3.632-3.344 2.202-1.588 4.56-2.99 7.06-4.055 2.314-.986 4.718-1.795 7.207-2.19 2.29-.362 4.61-.391 6.919-.573a30 30 0 0 0-1.832-.056c-3.502 0-6.967.612-10.299 1.733-2.413.813-4.939 1.951-7.13 3.474a103 103 0 0 1-9.142-.432c-5.407-.504-10.839-1.09-16.113-2.426-5.066-1.285-10.868-3.487-13.692-8.197-3.003-5.01 2.232-8.726 6.24-10.658 6.026-2.903 12.87-3.884 19.481-4.273a77 77 0 0 1 4.561-.136c4.776 0 9.572.448 14.256 1.378a9 9 0 0 0-.488 1.135c-1.272 3.773 1.938 6.26 5.276 7.794.918.338 1.86.567 2.82.714-2.378-.915-4.848-2.003-6.541-3.906-1.096-1.23-1.415-2.527-1.23-3.788.077-1.045.554-2.026 1.273-2.884.376-.516.81-1.01 1.285-1.465 2.14-2.048 4.823-3.49 7.48-4.741 3.43-1.616 7.052-2.802 10.732-3.698 6.036-1.47 12.173-1.884 18.345-1.884q1.047 0 2.095.015.387-.048.779-.048.547.001 1.092.084c6.024.161 12.137.93 17.805 3.04 4.821 1.796 10.976 5.323 11.809 10.93.719 4.834-4.028 8.68-7.621 10.957-3.984 2.524-8.448 4.185-13.084 4.98l-.263.04c-1.281.332-2.608.472-3.936.576a34 34 0 0 1-2.701.248l.037.001c-.24.021-.481.037-.721.056l-.239.07-.134-.044c-2.26.165-4.527.243-6.792.243q-2.39 0-4.768-.114c-6.135-.294-12.276-1.275-18.039-3.447a.1.1 0 0 0-.033-.006c-.142 0-.295.291-.168.35 5.616 2.485 11.905 3.361 17.986 3.753 1.792.116 3.592.174 5.391.174 3.855 0 7.712-.261 11.53-.765 6.817.642 13.61 2.569 14.123 10.4.648 9.846-10.933 15.68-18.594 18.705-4.352 1.717-8.846 2.907-13.431 3.804-5.975 1.17-12.065 1.864-18.157 1.864m-.487-15.99c-1.275 2.867-1.927 6.171-2.228 8.854-.11.986-.133 3.334 1.408 3.334q.035 0 .07-.002c1.37-.06 1.967-1.726 2.409-2.793 1.19-2.876 2.39-5.662 4.121-8.264.356-.534.755-1.035 1.172-1.517-1.837 3.252-2.787 6.982-1.544 10.442.159.444.563 1.185 1.12 1.185q.153.002.32-.08c1.107-.559 1.453-2.125 1.781-3.2.687-2.256 1.039-4.59 1.388-6.921.135 1.277.326 2.552.495 3.807.225 1.676.647 5.527 3.05 5.527h.005c1.722-.005 1.329-3.892 1.26-4.866-.154-2.152-.704-4.222-1.443-6.235 1.324 1.736 2.413 3.699 3.316 5.537.57 1.16 1.956 4.876 3.808 4.875q.3.002.616-.137c1.893-.852.987-4.29.293-5.674-.972-1.934-2.742-3.497-4.365-4.874-.19-.164-.381-.334-.572-.5 2.085.817 3.93 2.03 5.716 3.374 1.015.76 1.993 1.568 2.981 2.364.626.503 1.29 1.133 2.042 1.431.282.112.578.17.865.17.825 0 1.567-.477 1.624-1.478.181-3.126-2.597-6.188-5.033-7.742a14 14 0 0 0-2.391-1.209q1.61.087 3.224.302c2.54.342 4.988 1.013 7.488 1.536.776.162 2.492.49 4.105.49 2.046 0 3.93-.525 3.532-2.569-.228-1.167-1.796-1.65-2.761-1.912-1.875-.51-3.881-.596-5.813-.641q-.569-.015-1.136-.015c-3.73 0-7.398.442-11.046 1.17q.243-.159.484-.318c1.872-.625 3.851-.964 5.794-1.248 1.874-.275 3.71-.484 5.601-.535 1.85-.049 3.712-.109 5.547-.366 1.418-.2 3.21-.424 4.265-1.508.848-.87.285-1.992-.72-2.391-1.049-.416-2.227-.563-3.407-.563-1.038 0-2.078.115-3.036.26-1.974.3-3.92.795-5.802 1.463 1.836-1.073 5.54-3.593 2.501-4.799a3.3 3.3 0 0 0-1.21-.206c-1.082 0-2.267.377-3.143.678-2.158.743-4.198 2.01-6.051 3.32l-.581.407q.212-.22.422-.447c.728-.786 2.976-3.647.703-4.117a2 2 0 0 0-.416-.041c-1.65 0-3.619 1.814-4.71 2.76a17.6 17.6 0 0 0-2.253 2.373c.446-.892.886-1.83 1.007-2.8.161-1.283-.667-2.445-1.755-2.445-.361 0-.749.128-1.141.421-1.481 1.111-2.015 3.502-2.433 5.183-.038.144-.066.289-.102.434-.017-1.584-.168-3.145-.665-4.554-.388-1.099-1.323-3.068-2.72-3.068q-.074 0-.15.008c-1.909.192-1.36 2.884-.987 3.986.146.437.321.87.506 1.303a14 14 0 0 0-1.204-1.48c-.974-1.02-2.813-2.79-4.49-2.79-.287 0-.568.053-.84.168-2.299.977-.787 2.98.538 3.974.968.725 2.1 1.214 3.048 1.957.844.66 1.728 1.548 2.414 2.54-1.926-1.953-4.479-3.342-7.064-4.166-1.784-.568-3.612-1.027-5.464-1.304-.671-.1-1.423-.204-2.166-.204-.821 0-1.633.127-2.316.524-.782.455-1.053 1.49-.35 2.118 1.152 1.034 3.245 1.215 4.693 1.462 1.623.277 3.27.413 4.877.766 1.766.39 3.499.912 5.152 1.65.828.367 2.044.929 2.991 1.647l-.187.082c-2.112-1.182-4.449-1.908-6.836-2.395-2.865-.587-5.837-.94-8.78-.94q-1.099 0-2.189.067c-1.117.07-9.683.98-7.508 3.423.439.492 1.27.613 2.09.613.626 0 1.245-.07 1.673-.1a37 37 0 0 0 2.993-.357c-3.257.833-6.43 2.276-8.663 4.633-.997 1.053-.529 2.315.794 2.315q.212 0 .453-.045c3.033-.584 5.98-2.133 8.873-3.184 3.2-1.167 6.442-2.207 9.816-2.72 1.114-.172 2.412-.365 3.723-.447l-.1.049c-3.981.515-7.897 1.685-11.523 3.352-1.822.839-3.605 1.773-5.289 2.864-1.341.868-2.859 1.93-3.57 3.414-.503 1.045-.098 2.257.96 2.757.305.144.629.204.96.204 1.206 0 2.527-.795 3.434-1.344 1.777-1.079 3.375-2.455 4.95-3.803a55 55 0 0 1 4.645-3.559c-1.419 1.35-2.708 2.846-3.89 4.363-1.277 1.635-2.47 3.558-2.513 5.691-.019 1.012.424 2.528 1.604 2.656q.067.007.136.007c.992 0 1.95-1.167 2.505-1.815 1.006-1.17 1.836-2.495 2.623-3.819 1.1-1.853 2.147-3.729 3.379-5.501zM35.775 35.981c1.856 1.945 2.893 4.384 3.988 6.834.164.37 1.096 2.834 1.99 2.834.177 0 .354-.099.522-.332 1.073-1.484.327-4.087-.232-5.605a12 12 0 0 0-1.816-3.212 10 10 0 0 0-.443-.52c1.602 1.262 2.984 2.76 4.37 4.279.808.886 1.598 1.885 2.518 2.66.199.165.483.3.751.3a.64.64 0 0 0 .467-.187c.984-.985-.815-3.966-1.336-4.79-.756-1.198-1.858-2.152-3.024-3.026a16.7 16.7 0 0 1 2.95 1.572c1.346.904 2.812 1.627 4.255 2.357 1.205.612 2.31 1.404 3.668 1.631q.03.005.056.005c.12 0 .205-.07.241-.184l.164-.228c-.012-.776-.264-1.521-.657-2.224-1.393-2.232-3.57-3.666-6.052-4.584l-.01-.005c-2.189-1.276-4.818-1.626-7.422-1.626-.625 0-1.25.02-1.868.051a23 23 0 0 1 3.875-.336c1.72 0 3.437.204 5.098.64.38.1.771.242 1.168.4 1.443.326 2.872.695 4.306 1.106q.032.009.065.009c.204 0 .347-.272.177-.428-1.337-1.23-2.75-2.225-4.316-2.95-1.033-.427-2.112-.7-3.196-.753q-.307-.014-.616-.014c-1.654 0-3.296.312-4.874.829q.557-.273 1.125-.52c.668-.19 1.341-.356 2.015-.51 1.03-.238 2.114-.314 3.125-.595.397-.111.668-.55.557-.95-.196-.714-.877-.936-1.668-.936-1.044 0-2.278.387-2.836.532-2.145.563-3.861 1.706-5.742 2.758.47-.39.958-.768 1.468-1.12.958-.701 1.946-1.36 2.996-1.918.913-.488 1.865-.869 2.794-1.318.407-.198 1.671-.777 1.907-1.33l-.057-.104c-.282-.288-.602-.447-1.04-.447-1.176 0-3.206 1.145-7.646 4.033l-.26.255-.334.282a143 143 0 0 0-3.212 2.95c1.068-1.643 2.438-3.133 3.882-4.449.768-.697 1.555-1.37 2.403-1.972.553-.393 1.125-.768 1.648-1.205.617-.516.513-.921-.08-1.21a4 4 0 0 0-.51-.031c-1.75 0-3.689 1.08-4.937 2.045a16 16 0 0 0-2.382 2.292c-.97 1.436-1.874 3.167-1.847 4.893l-.019.06c-.244-.944.36-2.436.592-3.248.236-.833.552-1.636.86-2.448.24-.628.632-1.63.534-2.431.09-.611-.088-1.128-1-1.155q-.024-.002-.048-.002c-1.502 0-2.675 2.129-3.144 3.26-.404.975-.458 1.98-.463 2.99-.043.832-.047 1.667-.092 2.497a6 6 0 0 1-.172.839l-.073-.036c-.056-.359-.1-.727-.136-1.096a16 16 0 0 0-.07-1.027q-.019-.438-.008-.877l-.082.19q-.098-.65-.251-1.294a23 23 0 0 0-.284-1.355c-.308-1.268-1.123-3.128-2.647-3.279a1 1 0 0 0-.14-.006c-1.042 0-.76 1.333-.552 2.035.044.146.1.288.152.43l.024.147.076.117c.238.579.524 1.144.76 1.715q.616 1.496.851 3.07c-.3-.877-.547-1.778-.985-2.606-.328-.619-.723-1.174-1.139-1.71-1.443-1.375-3.215-2.352-5.37-2.601a2 2 0 0 0-.207-.012c-.379 0-.827.113-.959.49-.21.597.28.97.703 1.322 1.152.959 2.394 1.65 3.373 2.581 1.377.81 2.616 1.842 3.599 3.24l-.059.22a12 12 0 0 0-2.16-1.705l-.124-.115-.052-.044.032.068q-.315-.192-.644-.366a13.75 13.75 0 0 0-5.177-2.292c-.94-.203-2.054-.372-3.164-.372-1.59 0-3.174.348-4.222 1.445a.253.253 0 0 0 .11.419c.97.296 1.966.441 2.969.536a34 34 0 0 1 2.879-.06c.977.022 1.933.099 2.87.25l.876.19c.91.196 1.783.422 2.58.925.324.203.612.44.903.67a19 19 0 0 0-4.964-1.266c-2.008.007-4.016.12-6.004.395-1.459.202-4.061.332-5.46 1.412-.317.604-.304 1.252.523 1.344.937-.015 1.924-.321 2.812-.383h.025a19.7 19.7 0 0 1 3.57-.34q.297-.004.595-.004c1.832 0 3.663.075 5.495.095 1.803.02 3.597.033 5.383.299-1.163.063-2.34.06-3.492.218a14 14 0 0 0-.847.142c-.345.02-.69.04-1.036.069-1.516.273-3.019.64-4.497 1.073-1.419.415-2.842.888-4.195 1.482-.633.278-1.54.75-1.475 1.561.058.704.596.946 1.326.946 1.505 0 3.82-1.036 4.381-1.2 1.859-.546 3.707-1.11 5.55-1.706 1.033-.337 2.087-.652 3.16-.836q.738-.282 1.491-.512c-.548.288-1.081.608-1.618.906-.526.292-1.032.6-1.511.94a19.7 19.7 0 0 0-2.943 2.307c-.872.836-1.616 1.827-2.005 2.976-.157.464-.392 1.412.168 1.712a.7.7 0 0 0 .33.079c1.12 0 2.926-2.24 3.446-2.77a29 29 0 0 1 4.225-3.568 13.5 13.5 0 0 1 2.12-1.592 11.4 11.4 0 0 0-2.033 2.8c-1.136 1.579-1.885 3.351-1.641 5.308l.1.18c1.514-.858 2.602-2.177 3.73-3.505.667-.83 1.326-1.665 2.043-2.441.325-.43.636-.87.897-1.34.244-.436.608-.97.846-1.516-.147 1.27-.7 2.622-1.015 3.707-.46 1.587-.745 3.29-.593 4.942.066.739.384 1.632 1.134 1.933.174.07.334.103.48.11l.042.005h.017c.47 0 .805-.31 1.013-.845l-.025-.204c.343-.691.467-1.526.567-2.246.194-1.393.152-2.808.294-4.205-.044-.798.008-1.593.22-2.361.186 1.712.315 3.38.734 5.032.106.517.233 1.028.394 1.528.379 1.5.867 2.66 1.48 2.66a.54.54 0 0 0 .238-.056c.952-.454.521-2.788.452-3.512-.168-1.808-.706-3.556-1.363-5.25m48.905-6.993c-.013.524-.037 1.048-.06 1.573-.056 1.32-.018 2.656.047 3.976.041.84.485 5.003 2.03 5.003.235 0 .498-.097.789-.32.626-.478.702-1.476.762-2.193.12-1.437-.053-2.91-.233-4.336a65 65 0 0 0-.528-3.476c.63 1.72 1.27 3.437 2.037 5.113.55 1.197 1.2 2.341 2.06 3.341.442.518 1.386 1.43 2.207 1.43a1 1 0 0 0 .317-.05c2.022-.684.55-4.388.1-5.595-.657-1.763-1.572-3.426-2.633-4.993q.255.215.513.426c1.828 1.52 3.483 3.241 5.02 5.05.622.734 1.336 1.52 1.762 2.387.268.551.529 1.116.954 1.561.138.145.283.206.42.206.322 0 .603-.324.663-.67.157-.938-.268-2.052-.544-2.926-.423-1.336-1.104-2.539-1.93-3.67-.963-1.314-2.15-2.432-3.469-3.378 2.23.838 4.371 1.844 6.408 3.086 1.032.633 4.015 3.534 5.936 3.532.731 0 1.308-.42 1.566-1.544.338-1.488-.967-3-1.904-3.977-1.102-1.148-2.547-1.914-4.028-2.476 1.908.253 3.808.62 5.71 1.13 1.187.32 2.392.589 3.603.589.579 0 1.159-.061 1.739-.21.757-.194 2.276-.834 1.989-1.89-.352-1.295-1.932-1.947-3.083-2.335-1.492-.503-3.121-.614-4.706-.614q-.553 0-1.095.016c-.717.013-1.433.05-2.148.095q.993-.164 1.984-.345c1.509-.277 3.013-.632 4.46-1.147.945-.336 2.141-.791 2.657-1.721.491-.886-.404-1.705-1.084-2.122-.818-.505-1.88-.665-2.972-.665-1.218 0-2.476.2-3.472.348-3.01.442-5.828 1.4-8.484 2.71 1.286-.79 2.584-1.565 3.872-2.386 1.099-.698 3.774-2.98 1.707-4.091-.58-.313-1.208-.445-1.859-.445-2.476 0-5.268 1.92-6.948 3.16-1.773 1.307-3.62 2.724-5.216 4.347.49-.824 1.008-1.625 1.634-2.379 1.03-1.241 2.285-2.337 3.152-3.706.864-1.365.472-2.612-.85-2.612a2.8 2.8 0 0 0-.765.117c-4.541 1.293-6.056 5.757-7.141 9.926l.008-.117c.062-1.216.129-2.43.166-3.646.059-1.942.287-4.382-.576-6.194-.17-.36-.518-.677-.925-.677a1 1 0 0 0-.187.022c-.894.216-1.186 1.2-1.365 1.991-.433 1.903-.272 3.816-.035 5.728-.326-1.48-.762-2.926-1.524-4.272-.697-1.231-2.376-2.925-3.976-2.925-.218 0-.434.03-.648.1-1.922.621-.146 3.084.48 3.916.679.9 1.476 1.708 1.994 2.716.386.757.694 1.55.969 2.358-1.416-1.89-3.404-3.47-5.199-4.824-1.18-.893-3.74-2.588-5.778-2.588-.743 0-1.418.226-1.93.798-1.142 1.279 2.659 3.118 3.355 3.499 2.143 1.176 4.624 2.394 6.403 4.192-2.483-2.219-5.456-3.716-8.774-4.583-1.262-.33-3.113-.724-4.886-.724-1.867 0-3.651.436-4.578 1.843-1.612 2.449 2.658 2.644 4.086 2.713 2.838.141 5.845.505 8.668 1.333a29.7 29.7 0 0 0-7.494.084c-1.488.206-2.969.487-4.424.863-1.189.31-2.533.681-3.48 1.507-.6.524-.546 1.218-.06 1.787.38.446.947.6 1.576.6 1.095 0 2.374-.466 3.156-.66 3.198-.79 6.578-1.317 9.864-1.436q.656-.024 1.31-.022c1.12 0 2.238.037 3.36.043l.201.001q.312 0 .624-.004.307-.002.616-.003c.816 0 1.628.026 2.43.173-1.474.426-3.098.28-4.598.573-1.652.323-3.29.714-4.897 1.213-2.547.79-6.443 2.185-7.342 5.015-.353 1.113.783 1.725 1.684 1.732h.02c1.364 0 2.842-.928 4.04-1.483 3.507-1.62 7.002-3.268 10.531-4.841-1.797 1.415-3.373 3.187-4.681 4.97-.731.996-3.072 5.142-.891 5.884a1.2 1.2 0 0 0 .396.064c1.284 0 2.919-1.768 3.6-2.524 1.713-1.893 3.052-4.084 4.255-6.342-.458 1.505-.826 3.036-1.044 4.602-.076.546-.699 4.622.513 4.622h.028c1.365-.067 1.892-2.81 2.172-3.734.63-2.064 1.152-4.155 1.841-6.193"/></svg>