<svg width="123" height="78" viewBox="0 0 123 78" fill="none" xmlns="http://www.w3.org/2000/svg">
<path d="M117.169 16.4785C112.417 12.7733 106.264 11.1426 100.399 10.3024C97.284 9.85722 94.0987 9.62282 90.9094 9.54935C89.8027 5.80148 86.256 3.56655 82.792 2.27855C78.44 0.659753 73.6734 0.192017 69.0654 0.0414841C64.9534 -0.0933159 60.8174 0.102421 56.732 0.593087C52.004 1.16135 47.0294 2.47589 43.1974 5.42642C35.768 11.1478 42.216 17.8253 49.1574 22.7144C44.028 21.616 38.7707 21.1723 33.5147 21.2056C27.3387 21.2441 20.9454 21.9024 15.052 23.8305C11.2107 25.0843 6.56004 26.9843 4.25071 30.5108C1.71337 34.38 4.1227 38.3305 7.34136 40.892C8.6027 41.8963 9.98804 42.7253 11.4507 43.4296C9.37871 43.8305 7.37071 45.0144 5.73604 46.2572C3.57071 47.9024 1.73603 49.8733 0.694701 52.416C-1.2201 57.0963 1.07204 62.0119 4.53738 65.2415C8.65338 69.0785 14.7867 70.7749 20.1987 71.6868C25.94 72.6561 31.8507 72.5988 37.5747 71.5811L37.672 71.5306C39.1867 72.5842 40.904 73.4118 42.608 74.0493C48.9867 76.4306 55.9414 77.1306 62.708 77.0613C73.8854 76.9452 85.4747 74.8962 95.7627 70.4186C103.125 67.216 112.297 61.6999 112.848 52.7348C113.323 45.0133 107.495 42.0561 100.968 40.9895C105.212 40.2264 109.22 38.7707 112.976 36.6119C116.58 34.5425 120.32 31.6239 121.78 27.5853C123.388 23.1373 120.567 19.1296 117.169 16.4785Z" fill="#BD3F20"/>
<path d="M43.3224 17.6862C41.4091 15.8143 39.6011 13.2325 40.0771 10.4169C40.4931 7.94872 42.7811 6.21951 44.8011 5.03925C48.9917 2.59658 53.9184 1.75018 58.6864 1.32885C63.1877 0.929913 67.7371 0.87778 72.2411 1.26218C78.4131 1.78978 87.4477 3.32058 89.9437 9.93565C86.7651 9.88458 83.5851 9.99298 80.4637 10.2288C73.3931 10.7632 66.2984 12.2939 59.8024 15.181C56.2051 16.7794 51.5491 19.0195 49.2357 22.5674C47.1571 21.0778 45.1584 19.4846 43.3224 17.6862Z" fill="#E4831D"/>
<path d="M61.804 77.0654C55.324 77.0654 48.7027 76.3238 42.608 74.0493C40.904 73.4118 39.1867 72.5842 37.672 71.5305L37.5747 71.5811C34.596 72.1107 31.5667 72.38 28.536 72.38C25.744 72.38 22.952 72.1519 20.1987 71.6868C14.7867 70.7748 8.65334 69.0785 4.53734 65.2414C1.93867 62.8201 0 59.4493 0 55.94C0 54.7706 0.215995 53.5868 0.694661 52.416C1.73599 49.8733 3.57067 47.9024 5.736 46.2572C7.37067 45.0144 9.37867 43.8305 11.4507 43.4296C9.988 42.7253 8.60266 41.8962 7.34132 40.892C5.06666 39.08 3.19466 36.5748 3.19066 33.8946C3.18799 32.7842 3.50667 31.6441 4.25067 30.5108C6.56 26.9842 11.2107 25.0842 15.052 23.8305C20.9453 21.9024 27.3387 21.2441 33.5147 21.2056C33.7 21.204 33.8853 21.204 34.0707 21.204C39.1413 21.204 44.208 21.6545 49.1573 22.7144C44.4053 19.3681 39.8853 15.1826 39.8893 11.04C39.892 9.13049 40.8547 7.23049 43.1973 5.42636C47.0293 2.47582 52.004 1.16129 56.732 0.593022C59.9773 0.203955 63.2533 -0.000174443 66.524 -0.000174443C67.372 -0.000174443 68.22 0.0132856 69.0653 0.041419C73.6733 0.191952 78.44 0.659688 82.792 2.27849C86.256 3.56649 89.8027 5.80142 90.9093 9.54929C94.0987 9.62275 97.284 9.85716 100.399 10.3024C106.264 11.1425 112.417 12.7733 117.169 16.4785C119.891 18.6014 122.241 21.5946 122.244 24.9868C122.244 25.8305 122.1 26.6998 121.78 27.5853C120.32 31.6238 116.58 34.5425 112.976 36.6118C109.22 38.7706 105.212 40.2264 100.968 40.9894C107.247 42.0144 112.879 44.7905 112.876 51.8733C112.876 52.1545 112.867 52.4414 112.848 52.7348C112.297 61.6998 103.125 67.216 95.7627 70.4185C85.4747 74.8962 73.8853 76.9451 62.708 77.0613C62.4067 77.0639 62.1053 77.0654 61.804 77.0654ZM60.9227 42.6024C61.532 42.6024 62.1427 42.6212 62.7547 42.6586C60.4453 42.84 58.1267 42.869 55.836 43.2321C53.3467 43.6264 50.9427 44.4357 48.6293 45.4212C46.1293 46.4853 43.7707 47.8878 41.5693 49.4758C40.2133 50.4534 38.9493 51.5176 37.9373 52.8201C36.728 54.0466 35.66 55.3998 34.8493 56.904C33.5533 59.3092 32.8893 62.1665 33.5973 64.8665C34.36 67.7785 36.5653 69.9477 39.1147 71.4227C44.7827 74.704 51.8027 75.804 58.2547 76.1185C59.504 76.1784 60.7533 76.2081 62.0027 76.2081C68.0947 76.2081 74.1853 75.5133 80.16 74.3441C84.7453 73.4467 89.2387 72.2571 93.5907 70.5399C101.252 67.5144 112.833 61.681 112.185 51.8357C111.672 44.0039 104.879 42.0774 98.0613 41.4348C94.244 41.9389 90.3867 42.1998 86.532 42.1998C84.7333 42.1998 82.9333 42.1425 81.1413 42.0264C75.06 41.6348 68.7707 40.7586 63.1547 38.2733C63.028 38.2144 63.1813 37.9228 63.3227 37.9228C63.3333 37.9228 63.3453 37.9253 63.356 37.9296C69.1187 40.1014 75.26 41.0826 81.3947 41.3758C82.98 41.452 84.5707 41.4905 86.1627 41.4905C88.428 41.4905 90.6947 41.4118 92.9547 41.2477L93.0893 41.292L93.328 41.2212C93.568 41.2024 93.8093 41.1868 94.0493 41.1654L94.012 41.1638C94.924 41.1144 95.82 41.0373 96.7133 40.916C98.0413 40.8118 99.368 40.6722 100.649 40.34L100.912 40.2998C105.548 39.5056 110.012 37.8441 113.996 35.3201C117.589 33.0425 122.336 29.1972 121.617 24.3638C120.784 18.7561 114.629 15.2296 109.808 13.4332C104.14 11.3228 98.0267 10.5545 92.0027 10.393C91.64 10.34 91.2747 10.3092 90.9107 10.3092C90.6507 10.3092 90.3893 10.3253 90.132 10.3572C89.4333 10.3477 88.7347 10.3425 88.0373 10.3425C81.8653 10.3425 75.728 10.7572 69.692 12.2264C66.012 13.1228 62.3893 14.3081 58.96 15.9238C56.3027 17.1758 53.62 18.6176 51.48 20.6654C51.0053 21.1201 50.5707 21.6144 50.1947 22.1305C49.476 22.9878 48.9987 23.969 48.9227 25.0144C48.7373 26.2748 49.056 27.5722 50.152 28.8024C51.8453 30.7056 54.3147 31.793 56.6933 32.7081C55.7333 32.5613 54.7907 32.3321 53.8733 31.9946C50.5347 30.4597 47.3253 27.9733 48.5973 24.1998C48.7307 23.8066 48.9 23.4321 49.0853 23.0654C44.4013 22.1348 39.6053 21.6868 34.8293 21.6868C33.3053 21.6868 31.7827 21.7332 30.268 21.8228C23.6573 22.2118 16.8133 23.193 10.7867 26.0962C6.77867 28.028 1.544 31.7452 4.54666 36.7545C7.37066 41.4638 13.1733 43.6665 18.2387 44.9509C23.5133 46.2868 28.9453 46.8733 34.352 47.3774C37.4 47.6629 40.448 47.7962 43.4947 47.8092C45.6853 46.2868 48.2107 45.1477 50.624 44.3357C53.956 43.2144 57.4213 42.6024 60.9227 42.6024ZM11.8773 43.6321C7.07466 45.3066 1.39467 48.9263 0.676001 54.3971C0.0173343 59.4118 3.448 64.0348 7.58667 66.4988C13.824 70.2118 21.3573 71.6665 28.7533 71.6665C31.5653 71.6665 34.36 71.4561 37.0533 71.0784C34.5693 69.1722 32.764 66.5905 32.7227 63.1629C32.6973 60.9452 33.308 58.8586 34.312 56.9545C34.9293 55.2321 36.464 53.5774 37.5813 52.3441C38.4627 51.3706 39.344 50.3706 40.3973 49.5785C41.0213 49.1108 41.728 48.7425 42.4067 48.3441C37.78 48.2733 33.1547 47.9348 28.5467 47.4056C23.1387 46.7868 17.0373 46.0014 11.8773 43.6321ZM66.3413 0.603951C63.908 0.603951 61.4733 0.717551 59.0533 0.932085C54.2853 1.35342 49.3587 2.19982 45.168 4.64248C43.148 5.82275 40.86 7.55196 40.444 10.0201C39.968 12.8357 41.776 15.4176 43.6893 17.2894C45.5253 19.0878 47.524 20.681 49.6027 22.1706C51.916 18.6228 56.572 16.3826 60.1693 14.7842C66.6653 11.8972 73.76 10.3665 80.8307 9.83208C83.4453 9.63475 86.1013 9.52635 88.7627 9.52635C89.2787 9.52635 89.7947 9.53049 90.3107 9.53889C87.8147 2.92382 78.78 1.39302 72.608 0.865418C70.5253 0.687818 68.4347 0.603951 66.3413 0.603951Z" fill="#A32820"/>
<path d="M6.9921 66.8667C2.85343 64.4027 -0.577238 59.7798 0.081429 54.7651C0.800096 49.2943 6.48009 45.6746 11.2828 44.0001C16.4428 46.3694 22.5441 47.1547 27.9521 47.7735C32.5601 48.3027 37.1854 48.6413 41.8121 48.7121C41.1334 49.1105 40.4268 49.4787 39.8028 49.9465C38.7494 50.7386 37.8681 51.7386 36.9868 52.7121C35.8694 53.9454 34.3348 55.6001 33.7174 57.3225C32.7134 59.2266 32.1028 61.3131 32.1281 63.5309C32.1694 66.9585 33.9748 69.5402 36.4588 71.4464C26.6814 72.8157 15.6014 71.9918 6.9921 66.8667Z" fill="#E4831D"/>
<path d="M114.339 35.0102C110.355 37.5342 105.891 39.1957 101.255 39.99L100.992 40.0301C99.711 40.3624 98.3844 40.502 97.0564 40.6061C96.163 40.7274 95.267 40.8045 94.355 40.854L94.3924 40.8556C94.1524 40.8769 93.911 40.8925 93.671 40.9113L93.4324 40.9821L93.2977 40.9378C89.4497 41.2165 85.5777 41.2498 81.7377 41.066C75.603 40.7728 69.4617 39.7916 63.6991 37.6197C63.5511 37.5649 63.3604 37.9009 63.4977 37.9634C69.1137 40.4488 75.403 41.3249 81.4844 41.7165C87.1164 42.0806 92.8044 41.8649 98.4044 41.1249C105.222 41.7676 112.015 43.6941 112.528 51.5258C113.176 61.3712 101.595 67.2045 93.9337 70.23C89.5817 71.9472 85.0884 73.1368 80.503 74.0342C73.303 75.4436 65.9351 76.1623 58.5977 75.8087C52.1457 75.4941 45.1257 74.3941 39.4577 71.1129C36.9084 69.6378 34.703 67.4686 33.9404 64.5566C33.2324 61.8566 33.8964 58.9993 35.1924 56.5941C36.003 55.09 37.0711 53.7368 38.2804 52.5102C39.2924 51.2077 40.5564 50.1436 41.9124 49.166C44.1137 47.578 46.4724 46.1754 48.9724 45.1113C51.2857 44.1258 53.6897 43.3165 56.179 42.9222C58.4697 42.5592 60.7884 42.5301 63.0977 42.3488C58.9751 42.0941 54.879 42.7088 50.967 44.0258C48.5537 44.8378 46.0284 45.9769 43.8377 47.4993C40.791 47.4864 37.7431 47.353 34.6951 47.0676C29.2884 46.5634 23.8564 45.9769 18.5817 44.641C13.5164 43.3566 7.71371 41.154 4.88971 36.4446C1.88705 31.4353 7.12172 27.7181 11.1297 25.7864C17.1564 22.8832 24.0004 21.902 30.6111 21.5129C36.8764 21.1421 43.2497 21.5274 49.4284 22.7556C49.243 23.1222 49.0737 23.4968 48.9404 23.89C47.6684 27.6634 50.8777 30.1498 54.2164 31.6848C55.1337 32.0222 56.0764 32.2514 57.0364 32.3982C54.6577 31.4832 52.1884 30.3957 50.495 28.4925C49.399 27.2624 49.0804 25.9649 49.2657 24.7045C49.3417 23.6592 49.819 22.678 50.5377 21.8206C50.9137 21.3045 51.3484 20.8102 51.823 20.3556C53.963 18.3077 56.6457 16.866 59.303 15.614C62.7324 13.9982 66.355 12.8129 70.035 11.9165C76.7537 10.2806 83.5977 9.95303 90.475 10.0473C91.095 9.97009 91.7257 9.99156 92.3457 10.0832C98.3697 10.2446 104.483 11.0129 110.151 13.1233C114.972 14.9197 121.127 18.4462 121.96 24.054C122.679 28.8873 117.932 32.7326 114.339 35.0102Z" fill="#F8A11B"/>
<path d="M49.2357 22.5669C47.1571 21.0773 45.1584 19.4841 43.3224 17.6857C41.4091 15.8138 39.6011 13.232 40.0771 10.4164C40.4931 7.94823 42.7811 6.21902 44.8011 5.03876C48.9917 2.59609 53.9184 1.74969 58.6864 1.32836C61.1064 1.11382 63.5411 1.00023 65.9744 1.00023C68.0677 1.00023 70.1584 1.08409 72.2411 1.26169C78.4131 1.78929 87.4477 3.32009 89.9437 9.93516C89.4277 9.92676 88.9117 9.92263 88.3957 9.92263C85.7344 9.92263 83.0784 10.031 80.4637 10.2284C73.3931 10.7628 66.2984 12.2934 59.8024 15.1805C56.2051 16.7789 51.5491 19.019 49.2357 22.5669ZM46.4251 8.4857C45.3104 8.4857 44.2277 8.70809 43.5957 9.43356C42.8011 10.344 45.0131 11.0429 45.4957 11.2054C48.0077 12.0456 50.5597 12.731 53.0651 13.6029C51.4957 14.131 49.8104 15.2534 49.3397 16.8044C49.2984 16.9404 49.3877 17.071 49.5144 17.1106C49.6824 17.1669 49.8557 17.1909 50.0304 17.1909C50.5771 17.1909 51.1397 16.9592 51.6171 16.7472C52.8571 16.1961 54.0171 15.4925 55.1917 14.8174C58.3197 13.0226 62.0237 12.0002 65.5104 11.1762C69.6851 10.1893 73.9597 9.67622 78.2357 9.41062C80.6877 9.25916 83.9464 9.3601 85.6877 7.31636C85.7877 7.1977 85.7877 7.00543 85.6384 6.92423C84.8931 6.52583 84.1397 6.39249 83.3797 6.39249C82.6304 6.39249 81.8731 6.52156 81.1131 6.65076C80.3531 6.7805 79.5891 6.90956 78.8251 6.90956C78.6144 6.90956 78.4024 6.90023 78.1917 6.87729C78.9464 6.11743 79.9397 5.49863 80.2797 4.45076C80.4664 3.8805 80.0251 3.67209 79.5864 3.67209C79.5064 3.67209 79.4277 3.6789 79.3517 3.6909C78.2157 3.8841 77.0851 4.63769 76.0904 5.17476C75.2811 5.60956 74.1957 6.45756 73.2277 6.67369C73.4051 5.43876 74.4397 2.30543 72.6824 2.30543C72.6304 2.30543 72.5757 2.3081 72.5184 2.31383C71.7544 2.38823 71.2717 3.40023 70.9637 3.97623C70.4011 5.03516 70.0251 6.19863 69.3531 7.19863C69.1797 7.45756 69.0451 7.55757 68.9264 7.55757C68.7384 7.55757 68.5904 7.30543 68.3877 7.04716C67.9051 6.42943 67.7477 5.6841 67.2131 5.09863C66.4464 4.25596 65.1091 3.11903 63.8931 3.11903C63.8917 3.11903 63.8891 3.11903 63.8877 3.11903C63.2291 3.12157 63.0531 3.85916 62.9864 4.36689C62.8451 5.46169 63.1184 6.58049 62.8931 7.66169C60.9717 6.39502 60.1677 3.11903 57.5731 3.11903C57.4371 3.11903 57.2957 3.12837 57.1491 3.14717C57.0104 3.1653 56.9051 3.24716 56.8984 3.39769C56.8384 5.03196 58.8584 7.33516 57.9157 8.86849C56.5037 7.29609 55.0491 5.95597 53.1264 5.01903C52.3504 4.64143 51.0291 3.9601 49.9291 3.9601C49.5144 3.9601 49.1317 4.05596 48.8224 4.30183C47.6157 5.25596 49.0531 6.22263 49.9117 6.73769C51.8371 7.88823 53.8371 9.00542 55.2011 10.8002C53.2891 9.97889 51.3237 9.27889 49.2837 8.84143C48.5317 8.68049 47.4651 8.4857 46.4251 8.4857Z" fill="#C6511F"/>
<path d="M28.1588 72.0342C20.7628 72.0342 13.2294 70.5795 6.9921 66.8665C2.85343 64.4025 -0.577238 59.7795 0.081429 54.7649C0.800096 49.2941 6.48009 45.6743 11.2828 43.9998C16.4428 46.3691 22.5441 47.1545 27.9521 47.7733C32.5601 48.3025 37.1854 48.641 41.8121 48.7118C41.1334 49.1102 40.4268 49.4785 39.8028 49.9462C38.7494 50.7383 37.8681 51.7383 36.9868 52.7118C35.8694 53.9451 34.3348 55.5998 33.7174 57.3222C32.7134 59.2263 32.1028 61.3129 32.1281 63.5306C32.1694 66.9582 33.9748 69.5399 36.4588 71.4462C33.7654 71.8238 30.9708 72.0342 28.1588 72.0342ZM23.7414 57.0853C23.4708 57.6571 23.2468 58.253 23.0534 58.8519C22.6761 60.0211 22.5374 61.229 22.4868 62.4487C22.4468 63.4222 22.1988 67.141 23.8614 67.1837C23.8734 67.1837 23.8868 67.1837 23.8988 67.1837C25.7548 67.1837 26.0188 63.7186 26.1908 62.4785C26.3441 61.3701 26.4281 60.253 26.5268 59.1399C26.6081 58.2358 26.4534 56.7973 26.8641 55.8733C27.0548 57.1889 27.3921 58.4878 27.6174 59.7973C27.8281 61.0315 28.1241 62.3034 29.0268 63.2222L29.3294 63.2607C30.5828 62.517 30.3894 60.5795 30.2241 59.3597C30.1134 58.5451 29.9548 57.7451 29.7374 56.9545C29.6081 56.4821 29.4268 56.029 29.2294 55.5821C30.1454 55.9915 31.0668 56.3675 32.0841 56.3733C32.0854 56.3733 32.0868 56.3733 32.0894 56.3733C32.9534 56.3733 33.2374 55.7077 32.6734 55.0025C32.2068 54.4197 31.4321 54.1717 30.6761 54.0263L30.8921 53.9915C32.2121 53.7462 34.3108 53.4118 35.1588 52.229C36.0001 51.0555 34.8748 50.5821 33.8681 50.5821C33.7148 50.5821 33.5641 50.593 33.4228 50.6143C32.2601 50.7915 31.0774 51.081 29.9801 51.5451L30.3241 51.2769C30.8068 50.9342 31.7814 50.6091 32.0281 50.017C32.3854 49.1555 31.1934 48.9129 30.4428 48.9129C30.3121 48.9129 30.1934 48.9211 30.1001 48.9342C29.0348 49.0795 27.1708 49.6821 25.8348 50.6367C25.9774 50.0519 26.0188 49.4691 25.7388 48.8837L25.4574 48.7691C24.5948 49.1102 23.9748 50.029 23.6934 51.0154C23.3094 50.1769 22.9681 49.3238 22.2121 48.6957C21.6601 48.2383 20.6708 47.7367 19.8868 47.7367C19.8014 47.7367 19.7188 47.7425 19.6401 47.7555C18.8121 47.8853 18.8921 48.6717 19.2814 49.217C19.4881 49.5077 19.7094 49.7733 19.9334 50.0331C18.8854 49.3249 17.7814 48.6905 16.7174 48.1249C16.0508 47.7701 14.3068 46.8238 13.1161 46.8238C12.7401 46.8238 12.4201 46.917 12.2054 47.1545C11.8588 47.5358 12.2201 48.0571 12.7334 48.529C12.1308 48.4274 11.5254 48.3487 10.9174 48.3143C10.8494 48.3102 10.7734 48.3077 10.6881 48.3077C9.07343 48.3077 4.59342 49.0503 5.11742 51.3129C5.27742 52.0034 5.84942 52.193 6.46409 52.193C6.64142 52.193 6.82142 52.1769 6.99609 52.1545C9.06942 51.8733 11.1641 51.6383 13.2534 51.5519C14.3294 51.5091 15.4014 51.4555 16.4774 51.4555C16.7054 51.4555 16.9348 51.4582 17.1654 51.4639C17.3881 51.4675 17.6294 51.4785 17.8708 51.4889L18.1308 51.6102C15.6574 51.7425 13.1534 52.281 10.8214 52.7675C8.69076 53.2118 4.26009 54.2915 3.90409 57.0399C3.79876 57.8487 4.3801 58.0998 5.1441 58.0998C6.1721 58.0998 7.53209 57.6462 7.99875 57.4853C10.0334 56.7821 11.9681 55.7982 13.9268 54.9034C12.9988 55.6091 12.1601 56.4274 11.4574 57.3743C10.6828 58.4186 7.82676 62.7555 10.7708 63.0795C10.8361 63.0863 10.9014 63.0905 10.9681 63.0905C12.7094 63.0905 14.5081 60.6222 15.4761 59.4889C16.6534 58.1143 17.8694 56.6957 19.2174 55.4435C18.5334 56.1571 17.9001 56.917 17.3401 57.7315C16.5121 58.9342 15.9241 60.3009 15.6494 61.7367C15.4774 62.641 15.3108 64.1957 15.9401 64.981C16.1588 65.2545 16.4068 65.3665 16.6694 65.3665C17.6814 65.3665 18.8934 63.6853 19.3308 63.105C20.8468 61.1025 22.2134 59.0425 23.7414 57.0853Z" fill="#C6511F"/>
<path d="M62.3457 75.8989C61.0964 75.8989 59.8471 75.8692 58.5977 75.8093C52.1457 75.4948 45.1257 74.3948 39.4577 71.1135C36.9084 69.6385 34.703 67.4693 33.9404 64.5573C33.2324 61.8573 33.8964 58.9999 35.1924 56.5947C36.003 55.0906 37.0711 53.7374 38.2804 52.5109C39.2924 51.2083 40.5564 50.1442 41.9124 49.1666C44.1137 47.5786 46.4724 46.1761 48.9724 45.1119C51.2857 44.1265 53.6897 43.3171 56.179 42.9229C58.4697 42.5598 60.7884 42.5307 63.0977 42.3494C62.4857 42.3119 61.8751 42.2931 61.2657 42.2931C57.7644 42.2931 54.299 42.9051 50.967 44.0265C48.5537 44.8385 46.0284 45.9775 43.8377 47.4999C40.791 47.487 37.7431 47.3537 34.6951 47.0682C29.2884 46.5641 23.8564 45.9775 18.5817 44.6417C13.5164 43.3573 7.71371 41.1546 4.88971 36.4453C1.88705 31.4359 7.12172 27.7187 11.1297 25.787C17.1564 22.8838 24.0004 21.9026 30.6111 21.5135C32.1257 21.4239 33.6484 21.3775 35.1724 21.3775C39.9484 21.3775 44.7444 21.8255 49.4284 22.7562C49.243 23.1229 49.0737 23.4974 48.9404 23.8906C47.6684 27.6641 50.8777 30.1505 54.2164 31.6854C55.1337 32.0229 56.0764 32.2521 57.0364 32.3989C54.6577 31.4838 52.1884 30.3963 50.495 28.4931C49.399 27.263 49.0804 25.9655 49.2657 24.7051C49.3417 23.6598 49.819 22.6786 50.5377 21.8213C50.9137 21.3051 51.3484 20.8109 51.823 20.3562C53.963 18.3083 56.6457 16.8666 59.303 15.6146C62.7324 13.9989 66.355 12.8135 70.035 11.9171C76.071 10.4479 82.2084 10.0333 88.3804 10.0333C89.0777 10.0333 89.7764 10.0385 90.475 10.0479C90.7324 10.0161 90.9937 9.99994 91.2537 9.99994C91.6177 9.99994 91.983 10.0307 92.3457 10.0838C98.3697 10.2453 104.483 11.0135 110.151 13.1239C114.972 14.9203 121.127 18.4469 121.96 24.0546C122.679 28.8879 117.932 32.7333 114.339 35.0109C110.355 37.5349 105.891 39.1963 101.255 39.9906L100.992 40.0307C99.711 40.363 98.3844 40.5026 97.0564 40.6067C96.163 40.7281 95.267 40.8051 94.355 40.8546L94.3924 40.8562C94.1524 40.8775 93.911 40.8931 93.671 40.9119L93.4324 40.9827L93.2977 40.9385C91.0377 41.1026 88.771 41.1813 86.5057 41.1813C84.9137 41.1813 83.323 41.1427 81.7377 41.0666C75.603 40.7734 69.4617 39.7922 63.6991 37.6203C63.6884 37.6161 63.6764 37.6135 63.6657 37.6135C63.5244 37.6135 63.3711 37.9051 63.4977 37.9641C69.1137 40.4494 75.403 41.3255 81.4844 41.7171C83.2764 41.8333 85.0764 41.8906 86.875 41.8906C90.7297 41.8906 94.587 41.6297 98.4044 41.1255C105.222 41.7682 112.015 43.6947 112.528 51.5265C113.176 61.3718 101.595 67.2051 93.9337 70.2307C89.5817 71.9479 85.0884 73.1375 80.503 74.0349C74.5284 75.2041 68.4377 75.8989 62.3457 75.8989ZM61.859 59.9094C60.5844 62.7761 59.9324 66.0802 59.6311 68.763C59.5204 69.7494 59.4977 72.0974 61.039 72.0974C61.0617 72.0974 61.0857 72.0963 61.1084 72.0948C62.479 72.0359 63.0764 70.3692 63.5177 69.3015C64.7084 66.4265 65.9084 63.6401 67.639 61.0385C67.995 60.5041 68.3937 60.0026 68.811 59.5213C66.9737 62.7734 66.0244 66.5026 67.267 69.963C67.4257 70.4067 67.8297 71.1479 68.387 71.1479C68.4884 71.1479 68.5964 71.1239 68.707 71.0682C69.8137 70.5093 70.1604 68.9427 70.4884 67.8682C71.175 65.6119 71.527 63.2786 71.8764 60.9469C72.011 62.2239 72.2017 63.4989 72.371 64.7537C72.5964 66.4297 73.0177 70.2812 75.4204 70.2812C75.423 70.2812 75.4244 70.2812 75.4257 70.2812C77.1484 70.276 76.755 66.3895 76.6857 65.4146C76.5324 63.263 75.9817 61.1931 75.243 59.1802C76.567 60.9161 77.6564 62.8786 78.559 64.7171C79.1297 65.8775 80.515 69.5931 82.367 69.5922C82.567 69.5922 82.7724 69.5494 82.9831 69.4546C84.8764 68.6026 83.9697 65.1641 83.2764 63.7813C82.3044 61.8469 80.5337 60.2838 78.911 58.9067C78.7204 58.7427 78.5297 58.5734 78.339 58.4067C80.4244 59.2239 82.2684 60.4374 84.055 61.7813C85.0697 62.5417 86.0484 63.3494 87.0364 64.1453C87.6617 64.6479 88.3257 65.2775 89.0777 65.5761C89.3604 65.6879 89.6564 65.7453 89.943 65.7453C90.7684 65.7453 91.5097 65.2693 91.567 64.2682C91.7484 61.1417 88.9697 58.0802 86.5337 56.5265C85.7764 56.0427 84.9737 55.6479 84.143 55.3171C85.2164 55.375 86.291 55.475 87.367 55.6187C89.907 55.9614 92.355 56.6322 94.855 57.1546C95.631 57.3171 97.347 57.6442 98.9604 57.6442C101.006 57.6442 102.89 57.1203 102.492 55.0761C102.264 53.9094 100.696 53.4265 99.731 53.1641C97.8564 52.6537 95.8497 52.5682 93.9177 52.5229C93.539 52.5135 93.1604 52.5083 92.7817 52.5083C89.0511 52.5083 85.3844 52.9505 81.7364 53.6775C81.8977 53.5707 82.059 53.4666 82.2204 53.3598C84.0924 52.7349 86.071 52.3963 88.0137 52.1119C89.8884 51.8374 91.7244 51.6281 93.615 51.5775C95.4644 51.5281 97.327 51.4682 99.1617 51.2109C100.58 51.0119 102.372 50.787 103.427 49.7026C104.275 48.8322 103.712 47.7109 102.707 47.3119C101.658 46.8963 100.48 46.7494 99.3004 46.7494C98.2617 46.7494 97.2217 46.8641 96.2644 47.0083C94.2897 47.3083 92.3444 47.8041 90.4617 48.4718C92.2977 47.3989 96.0017 44.8786 92.963 43.6734C92.5924 43.5265 92.1804 43.4666 91.7524 43.4666C90.671 43.4666 89.4857 43.8442 88.6097 44.1453C86.4524 44.8879 84.4124 46.1546 82.559 47.4641C82.3697 47.5974 82.175 47.7349 81.9777 47.8718C82.1204 47.7255 82.2604 47.5761 82.4004 47.4255C83.1284 46.6385 85.3764 43.7775 83.103 43.3083C82.967 43.2786 82.8284 43.2666 82.687 43.2666C81.0364 43.2666 79.0684 45.0813 77.9764 46.0265C77.1524 46.7401 76.4057 47.5417 75.7244 48.3999C76.1697 47.5083 76.6097 46.5707 76.7311 45.5999C76.8924 44.3171 76.0644 43.1546 74.9764 43.1546C74.615 43.1546 74.227 43.2827 73.835 43.5761C72.3537 44.687 71.8204 47.0775 71.4017 48.7589C71.3644 48.9026 71.3364 49.0479 71.3004 49.1931C71.283 47.6094 71.1324 46.0479 70.635 44.6385C70.247 43.5401 69.3124 41.5707 67.9151 41.5707C67.8657 41.5707 67.8164 41.5734 67.7657 41.5786C65.8564 41.7707 66.4057 44.463 66.7777 45.5655C66.9244 46.0015 67.099 46.4359 67.2844 46.8682C66.9124 46.3469 66.5177 45.8479 66.0804 45.3879C65.1057 44.3682 63.267 42.5989 61.5897 42.5989C61.303 42.5989 61.0217 42.6505 60.7497 42.7655C58.4511 43.7427 59.963 45.7469 61.2884 46.7401C62.2564 47.4655 63.3884 47.9537 64.3364 48.6974C65.1804 49.3573 66.0644 50.2453 66.7497 51.2374C64.8244 49.2838 62.271 47.8947 59.6857 47.0707C57.9017 46.5026 56.0737 46.0442 54.2217 45.7666C53.551 45.6666 52.799 45.563 52.0564 45.563C51.235 45.563 50.423 45.6895 49.7404 46.087C48.9577 46.5417 48.687 47.5775 49.3897 48.2051C50.5417 49.2385 52.6351 49.4203 54.0831 49.6666C55.7057 49.9442 57.3524 50.0802 58.9604 50.4333C60.7257 50.8229 62.459 51.3453 64.1124 52.0827C64.9404 52.4505 66.1564 53.0119 67.103 53.7297L66.9164 53.8119C64.8044 52.6297 62.4671 51.9041 60.0804 51.4171C57.2151 50.8297 54.2431 50.4775 51.2991 50.4775C50.5671 50.4775 49.8377 50.4989 49.111 50.5442C47.9937 50.6146 39.4284 51.5239 41.603 53.9666C42.0417 54.4589 42.8737 54.5802 43.6924 54.5802C44.319 54.5802 44.9377 54.5094 45.3657 54.4802C46.3684 54.4083 47.3644 54.2775 48.359 54.1229C45.1017 54.9562 41.9284 56.3989 39.6964 58.7562C38.6991 59.8094 39.167 61.0707 40.4897 61.0707C40.631 61.0707 40.783 61.0562 40.943 61.0255C43.9764 60.4417 46.9231 58.8931 49.8164 57.8417C53.0151 56.675 56.2577 55.6349 59.6324 55.1213C60.7457 54.9505 62.0444 54.7573 63.355 54.675L63.255 54.7239C59.2737 55.2385 55.3577 56.4094 51.7324 58.0761C49.9097 58.9146 48.127 59.8494 46.443 60.9401C45.1017 61.8083 43.5844 62.8707 42.8737 64.3537C42.3697 65.3989 42.775 66.6109 43.8337 67.1109C44.1377 67.2546 44.4617 67.3146 44.7937 67.3146C45.999 67.3146 47.3204 66.5203 48.227 65.9707C50.0044 64.8922 51.6017 63.5161 53.1764 62.1682C54.6524 60.9067 56.2097 59.7135 57.8217 58.6094C56.403 59.9589 55.1137 61.4546 53.9311 62.9718C52.6551 64.6067 51.4617 66.5297 51.419 68.663C51.4004 69.675 51.843 71.1906 53.023 71.3187C53.0684 71.3239 53.1137 71.3265 53.159 71.3265C54.151 71.3265 55.1097 70.1588 55.6644 69.5109C56.6697 68.3417 57.5004 67.0161 58.287 65.6922C59.387 63.8385 60.4337 61.963 61.6657 60.1906L61.859 59.9094ZM35.775 35.9813C37.631 37.9265 38.6684 40.3655 39.7631 42.8146C39.9271 43.1854 40.859 45.6494 41.7524 45.6494C41.9297 45.6494 42.107 45.5505 42.275 45.3171C43.3484 43.8333 42.6017 41.2297 42.043 39.7119C41.619 38.5655 40.9817 37.4614 40.227 36.4999C40.0844 36.3187 39.9364 36.1479 39.7844 35.9802C41.3857 37.2417 42.7684 38.7401 44.1537 40.2589C44.9617 41.1453 45.7524 42.1442 46.6724 42.9187C46.871 43.0838 47.155 43.2187 47.423 43.2187C47.5937 43.2187 47.7577 43.1641 47.8897 43.0322C48.8737 42.0469 47.075 39.0655 46.5537 38.2417C45.7977 37.0442 44.6964 36.0895 43.5297 35.2161C44.5351 35.6297 45.5151 36.1427 46.4791 36.7879C47.8257 37.6922 49.2924 38.4146 50.735 39.1453C51.9404 39.7573 53.0457 40.5494 54.403 40.7761C54.423 40.7802 54.4417 40.7813 54.459 40.7813C54.579 40.7813 54.6644 40.7109 54.7004 40.5974L54.8644 40.3693C54.8524 39.5931 54.6004 38.8479 54.207 38.1453C52.8137 35.9135 50.6377 34.4786 48.155 33.5614L48.1444 33.5562C45.9564 32.2802 43.327 31.9297 40.723 31.9297C40.0977 31.9297 39.4724 31.9494 38.855 31.9813C40.1324 31.7614 41.4311 31.6453 42.7297 31.6453C44.4497 31.6453 46.167 31.8494 47.8284 32.2854C48.2084 32.3854 48.5991 32.5265 48.9964 32.6854C50.4391 33.0109 51.8684 33.3802 53.3017 33.7906C53.323 33.7974 53.3457 33.7999 53.367 33.7999C53.571 33.7999 53.7137 33.5281 53.5444 33.3718C52.207 32.1427 50.7937 31.1469 49.2284 30.4213C48.195 29.9947 47.1164 29.7213 46.0324 29.6693C45.8271 29.6598 45.6217 29.6546 45.4164 29.6546C43.7617 29.6546 42.1204 29.9666 40.5417 30.4838C40.9137 30.3026 41.2884 30.1281 41.667 29.9641C42.335 29.7734 43.0084 29.6083 43.6817 29.4546C44.7124 29.2161 45.7964 29.1401 46.807 28.8589C47.2044 28.7479 47.4751 28.3083 47.3644 27.9083C47.1684 27.1947 46.4871 26.9734 45.6964 26.9734C44.6524 26.9734 43.4177 27.3598 42.8604 27.5051C40.715 28.0682 38.999 29.2109 37.1177 30.263C37.5884 29.8734 38.0764 29.4947 38.5857 29.1427C39.5444 28.4417 40.5324 27.7838 41.5817 27.2255C42.4951 26.7374 43.447 26.3562 44.3764 25.9067C44.783 25.7094 46.0471 25.1297 46.2831 24.5761L46.2257 24.4734C45.9444 24.1854 45.6244 24.0255 45.1857 24.0255C44.0097 24.0255 41.9804 25.1707 37.5404 28.0589L37.2791 28.3135L36.9457 28.5963C35.8631 29.5666 34.7857 30.5427 33.7337 31.5453C34.8017 29.9026 36.1724 28.4135 37.6164 27.0974C38.3844 26.3999 39.171 25.7265 40.019 25.1255C40.5724 24.7322 41.1444 24.3573 41.667 23.9203C42.2844 23.4041 42.1804 22.9989 41.587 22.7109C41.419 22.6895 41.2497 22.6786 41.0777 22.6786C39.327 22.6786 37.3884 23.7598 36.1404 24.7239C35.2524 25.4094 34.471 26.1854 33.7577 27.0161C32.7884 28.4521 31.8844 30.1827 31.9111 31.9094L31.8924 31.9682C31.6484 31.0255 32.2524 29.5333 32.4844 28.7213C32.7204 27.8879 33.0364 27.0854 33.3444 26.2734C33.5831 25.6453 33.9764 24.6427 33.8777 23.8417C33.9671 23.2307 33.7897 22.7135 32.8777 22.687C32.8617 22.6854 32.8457 22.6854 32.8297 22.6854C31.3284 22.6854 30.155 24.8135 29.6857 25.9442C29.2817 26.9203 29.2284 27.9255 29.223 28.9349C29.1804 29.7666 29.1764 30.6015 29.1311 31.4322C29.0937 31.7135 29.0377 31.9931 28.9591 32.2707L28.8857 32.2349C28.8297 31.8761 28.7857 31.5083 28.7497 31.1385C28.7377 30.7963 28.7137 30.4546 28.6791 30.1119C28.6684 29.8203 28.6644 29.5281 28.6724 29.2349L28.5897 29.4255C28.5257 28.9906 28.4404 28.5598 28.339 28.1307C28.2564 27.6775 28.1657 27.2255 28.055 26.7761C27.747 25.5083 26.9324 23.6479 25.4084 23.4974C25.359 23.4922 25.3124 23.4906 25.2684 23.4906C24.2257 23.4906 24.5071 24.8239 24.7164 25.5265C24.7604 25.6718 24.8164 25.8135 24.8684 25.9562L24.8924 26.1026L24.9684 26.2203C25.2057 26.7989 25.4924 27.3641 25.7284 27.9349C26.1377 28.9322 26.4231 29.9562 26.5791 31.0051C26.2791 30.1281 26.0324 29.2265 25.5937 28.3989C25.2657 27.7802 24.871 27.2255 24.455 26.6895C23.0124 25.3135 21.2404 24.3374 19.0857 24.0879C19.0204 24.0802 18.9497 24.0761 18.8777 24.0761C18.4991 24.0761 18.051 24.1895 17.919 24.5655C17.7097 25.163 18.199 25.5359 18.6217 25.8879C19.7737 26.8469 21.0164 27.5374 21.9951 28.4693C23.3724 29.2786 24.6111 30.3109 25.5937 31.7083L25.535 31.9297C24.871 31.263 24.1444 30.7026 23.375 30.2239L23.251 30.1094L23.1991 30.0655L23.2311 30.1333C23.0204 30.0051 22.8057 29.8827 22.587 29.7666C21.0604 28.6718 19.3457 27.8922 17.4097 27.475C16.4697 27.2718 15.3564 27.1026 14.2457 27.1026C12.6551 27.1026 11.0724 27.4505 10.0244 28.5479C9.89238 28.6879 9.95238 28.9119 10.1337 28.9666C11.1044 29.263 12.1004 29.4083 13.103 29.5026C13.8324 29.4562 14.5551 29.4349 15.2457 29.4349C15.4951 29.4349 15.7404 29.4374 15.9817 29.4427C16.9591 29.4655 17.915 29.5417 18.8524 29.6931C19.1444 29.7562 19.4364 29.8203 19.7284 29.8827C20.6377 30.0786 21.511 30.3051 22.3084 30.8083C22.6324 31.0109 22.9204 31.2479 23.2111 31.4786C21.6337 30.8322 19.9524 30.4146 18.2471 30.2119C16.2391 30.2187 14.2311 30.3322 12.2431 30.6067C10.7844 30.8094 8.18172 30.9385 6.78306 32.0187C6.46572 32.6229 6.47905 33.2707 7.30571 33.363C8.24305 33.3479 9.22971 33.0417 10.1177 32.9802H10.1431C11.3217 32.7562 12.4897 32.6494 13.7137 32.6401C13.9111 32.6374 14.1097 32.6359 14.3084 32.6359C16.1404 32.6359 17.971 32.7109 19.803 32.7307C21.6057 32.7505 23.4004 32.7641 25.1857 33.0297C24.023 33.0931 22.8457 33.0895 21.6937 33.2479C21.4097 33.2854 21.1284 33.3349 20.8471 33.3895C20.5017 33.4094 20.1564 33.4297 19.8111 33.4589C18.2951 33.7322 16.7924 34.0989 15.3137 34.5322C13.8951 34.9469 12.4724 35.4203 11.119 36.0135C10.4857 36.2922 9.57905 36.7641 9.64439 37.575C9.70172 38.2786 10.2404 38.5213 10.9697 38.5213C12.475 38.5213 14.7897 37.4854 15.351 37.3213C17.2097 36.775 19.0577 36.2119 20.9017 35.6146C21.9337 35.2775 22.9884 34.963 24.0604 34.7786C24.5524 34.5906 25.051 34.4203 25.5524 34.2666C25.0044 34.5546 24.471 34.875 23.9337 35.1734C23.4084 35.4655 22.9017 35.7734 22.423 36.1135C21.3657 36.7947 20.3711 37.5682 19.4804 38.4203C18.6084 39.2562 17.8644 40.2469 17.475 41.3963C17.3177 41.8598 17.0831 42.8083 17.6431 43.1083C17.7444 43.163 17.855 43.187 17.9724 43.187C19.0937 43.187 20.899 40.9469 21.419 40.4161C22.7004 39.1041 24.1231 37.9041 25.6444 36.8494C26.2991 36.2453 27.0151 35.7135 27.7631 35.2573C26.9471 36.0707 26.2644 37.0322 25.7311 38.0573C24.5951 39.6359 23.8457 41.4083 24.0897 43.3655L24.1897 43.5442C25.7044 42.687 26.7924 41.3682 27.9204 40.0401C28.587 39.2109 29.2457 38.375 29.9631 37.5989C30.2884 37.1693 30.5991 36.7297 30.8604 36.2598C31.1044 35.8229 31.4684 35.2895 31.7057 34.7427C31.559 36.0135 31.0057 37.3655 30.691 38.4505C30.231 40.0374 29.9457 41.7401 30.0977 43.3922C30.1644 44.1307 30.4817 45.0239 31.2324 45.3255C31.4057 45.3947 31.5657 45.4281 31.7124 45.4359L31.7537 45.4401C31.7604 45.4401 31.7657 45.4401 31.771 45.4401C32.2404 45.4401 32.5764 45.1307 32.7844 44.5947L32.759 44.3906C33.1017 43.6999 33.2257 42.8655 33.3257 42.1453C33.5204 40.7521 33.4777 39.3374 33.6204 37.9401C33.5764 37.1417 33.6284 36.3469 33.8404 35.5786C34.0257 37.2906 34.155 38.9589 34.5737 40.6109C34.6804 41.1281 34.807 41.6385 34.9684 42.1385C35.347 43.6385 35.8351 44.7989 36.4484 44.7989C36.5257 44.7989 36.6057 44.7813 36.6857 44.7427C37.6377 44.2895 37.207 41.9546 37.1377 41.2307C36.9697 39.4229 36.4324 37.675 35.775 35.9813ZM84.6804 28.9879C84.667 29.5119 84.643 30.0359 84.6204 30.5614C84.5644 31.8813 84.6017 33.2171 84.667 34.5374C84.7084 35.3775 85.1524 39.5401 86.6964 39.5401C86.9324 39.5401 87.195 39.4427 87.4857 39.2203C88.1124 38.7417 88.1884 37.7442 88.2484 37.0265C88.3684 35.5895 88.1951 34.1161 88.0151 32.6906C87.8697 31.5385 87.6977 30.375 87.487 29.2146C88.1164 30.9359 88.7564 32.6521 89.5244 34.3281C90.0737 35.5255 90.7244 36.6693 91.5831 37.6693C92.0257 38.187 92.9697 39.0999 93.791 39.0999C93.899 39.0999 94.0057 39.0838 94.1084 39.0494C96.1297 38.3655 94.6577 34.6614 94.2084 33.4537C93.551 31.6906 92.6364 30.0281 91.575 28.4614C91.7457 28.6026 91.9164 28.7469 92.0884 28.887C93.9164 30.4067 95.571 32.1281 97.1084 33.9374C97.7297 34.6707 98.4444 35.4562 98.8697 36.3239C99.1377 36.875 99.399 37.4401 99.8244 37.8854C99.9617 38.0297 100.107 38.0906 100.244 38.0906C100.566 38.0906 100.847 37.7666 100.907 37.4203C101.064 36.4827 100.639 35.3693 100.363 34.4947C99.9404 33.1589 99.2591 31.9562 98.4324 30.8255C97.4697 29.5109 96.283 28.3931 94.9644 27.4469C97.1937 28.2854 99.335 29.2906 101.372 30.5333C102.404 31.1655 105.387 34.0666 107.308 34.0655C108.039 34.0655 108.616 33.6453 108.874 32.5213C109.212 31.0333 107.907 29.5213 106.97 28.5442C105.868 27.3963 104.423 26.6297 102.942 26.0682C104.85 26.3213 106.75 26.6879 108.652 27.1989C109.839 27.5171 111.044 27.787 112.255 27.787C112.834 27.787 113.414 27.7255 113.994 27.5775C114.751 27.3827 116.27 26.7427 115.983 25.687C115.631 24.3922 114.051 23.7401 112.9 23.3521C111.408 22.8494 109.779 22.7385 108.194 22.7385C107.826 22.7385 107.46 22.7442 107.099 22.7537C106.382 22.7666 105.666 22.8041 104.951 22.8494C105.612 22.7401 106.275 22.6255 106.935 22.5041C108.444 22.2265 109.948 21.8718 111.395 21.3573C112.34 21.0213 113.536 20.5655 114.052 19.6359C114.543 18.7505 113.648 17.9307 112.968 17.5135C112.15 17.0094 111.088 16.8494 109.996 16.8494C108.778 16.8494 107.52 17.0494 106.524 17.1974C103.514 17.6385 100.696 18.5963 98.0404 19.9067C99.3257 19.1171 100.624 18.3417 101.912 17.5213C103.011 16.8229 105.686 14.5417 103.619 13.4297C103.039 13.1171 102.411 12.9854 101.76 12.9854C99.2844 12.9854 96.4924 14.9051 94.8124 16.1442C93.039 17.4521 91.1924 18.8693 89.5964 20.4922C90.0857 19.6682 90.6044 18.8666 91.2297 18.1135C92.2604 16.8718 93.5151 15.7761 94.3817 14.4067C95.2457 13.0417 94.8537 11.7947 93.5324 11.7947C93.3044 11.7947 93.0484 11.8322 92.767 11.9119C88.2257 13.2051 86.711 17.6693 85.6257 21.8385L85.6337 21.7213C85.6964 20.5051 85.763 19.2906 85.8004 18.075C85.859 16.1333 86.087 13.6931 85.2244 11.8813C85.0537 11.5203 84.7057 11.2041 84.2991 11.2041C84.2377 11.2041 84.175 11.2119 84.1124 11.2265C83.2177 11.4417 82.9257 12.4265 82.747 13.2171C82.3137 15.1203 82.475 17.0333 82.7124 18.9453C82.3857 17.4641 81.9497 16.0187 81.1884 14.6734C80.491 13.4417 78.8124 11.7479 77.2124 11.7479C76.9937 11.7479 76.7777 11.7786 76.5644 11.8479C74.6417 12.4693 76.4177 14.9322 77.0444 15.7641C77.723 16.6641 78.5204 17.4718 79.0377 18.4802C79.4244 19.2374 79.7324 20.0307 80.007 20.8385C78.591 18.9479 76.603 17.3682 74.8084 16.0135C73.6284 15.1213 71.0684 13.4255 69.0297 13.4255C68.287 13.4255 67.6124 13.6521 67.1004 14.2239C65.9577 15.5026 69.759 17.3417 70.455 17.7229C72.5977 18.8989 75.079 20.1171 76.8577 21.9146C74.375 19.6963 71.4017 18.1989 68.0844 17.3322C66.8217 17.0026 64.9711 16.6083 63.1977 16.6083C61.3311 16.6083 59.547 17.0442 58.6204 18.4505C57.0084 20.8999 61.2777 21.0947 62.7057 21.1641C65.5444 21.3051 68.551 21.6693 71.3737 22.4974C70.239 22.3655 69.0937 22.2999 67.9537 22.2999C66.5764 22.2999 65.2071 22.3947 63.8804 22.5813C62.3924 22.787 60.911 23.0682 59.4564 23.4442C58.267 23.7537 56.923 24.1255 55.9764 24.9505C55.3764 25.475 55.4297 26.1693 55.9151 26.7385C56.2951 27.1838 56.863 27.3374 57.4924 27.3374C58.587 27.3374 59.8657 26.8718 60.6484 26.6786C63.8457 25.8879 67.2257 25.3614 70.5124 25.2417C70.9497 25.2255 71.3857 25.2203 71.8217 25.2203C72.9417 25.2203 74.0604 25.2573 75.1817 25.263C75.2484 25.2641 75.3151 25.2641 75.3831 25.2641C75.5911 25.2641 75.799 25.263 76.007 25.2598C76.2124 25.2589 76.4177 25.2573 76.623 25.2573C77.439 25.2573 78.251 25.2827 79.0537 25.4297C77.579 25.8562 75.955 25.7109 74.455 26.0026C72.803 26.3255 71.1657 26.7171 69.5577 27.2161C67.011 28.0067 63.1151 29.4015 62.2164 32.2307C61.8631 33.3442 62.999 33.9562 63.9004 33.963C63.907 33.963 63.9137 33.963 63.9204 33.963C65.2844 33.963 66.7617 33.0349 67.9604 32.4802C71.467 30.8598 74.9617 29.2119 78.491 27.6385C76.6937 29.0537 75.1177 30.8255 73.8097 32.6094C73.079 33.6051 70.7377 37.7505 72.919 38.4931C73.047 38.5374 73.1791 38.5573 73.3151 38.5573C74.5991 38.5573 76.2337 36.7895 76.9151 36.0333C78.6284 34.1401 79.967 31.9494 81.1697 29.6906C80.7124 31.1963 80.3444 32.7265 80.1257 34.2931C80.0497 34.8385 79.427 38.9146 80.639 38.9146C80.6484 38.9146 80.6577 38.9146 80.667 38.9146C82.0324 38.8479 82.559 36.1051 82.839 35.1813C83.4684 33.1171 83.991 31.0255 84.6804 28.9879Z" fill="#D8631C"/>
</svg>
