<svg xmlns="http://www.w3.org/2000/svg" width="125" height="169" fill="none" viewBox="0 0 125 169"><path fill="#350c14" d="M0 148.062v-.002z"/><path fill="#9b4f6a" d="M.133 168.16c.31-.109.618-.26.928-.469q.361-.246.71-.511c-.506.428-1.024.776-1.638.98"/><path fill="#89155c" d="M118.884 31.158c-1.605-.503-2.821-.242-3.732.466.303-2.152.24-4.424.311-6.59.075-2.286.036-4.57-.2-6.846-.376-3.65-1.429-8.458-5.383-9.76-1.626-.534-4.025-.362-5.28.916-1.228 1.25-1.418 3.074-1.366 4.746.068 2.162.594 4.288 1.001 6.405.595 3.09.689 6.299.787 9.435.1 3.317-.02 6.625-.188 9.932-.06-2.824-.251-5.643-.838-8.394-.413-1.936-1.081-4-2.58-5.377-1.614-1.479-4.22-1.148-6.114-.515a6.4 6.4 0 0 0-1.546.756C93.124 19.675 92.644 12.97 90.83 6.5c-.663-2.354-1.597-5.446-4.162-6.3-2.043-.68-4.31.45-5.41 2.179-1.374 2.161-.82 5.327-.387 7.67.65 3.522 1.348 7.025 1.964 10.555 1.445 8.288 2.133 16.659 2.233 25.074.028 2.4-.01 4.805-.08 7.208-.296-1.84-.565-3.682-.784-5.531-.492-4.135-.79-8.29-1.235-12.43-.332-3.071-.574-6.32-1.402-9.305-.583-2.098-2.015-3.696-4.33-3.573-2.156.117-3.956 1.157-4.82 3.184-.882 2.059-.922 4.348-.745 6.544.305 3.723 1.08 7.433 1.873 11.076.142.655.295 1.307.44 1.96-1.846-6.685-3.845-13.332-5.391-20.101a55 55 0 0 1-1.407-11.7c-.03-2.364-.09-5.678-2.412-7.032-1.956-1.144-5.026-.13-6.448 1.4-1.728 1.869-1.89 5.076-1.977 7.465-.26 7.184 2.009 14.275 4.218 21.019.803 2.454 1.707 4.982 3.132 7.165-1.345-.21-2.737.33-3.541 1.514-1.899 2.797-1.242 6.878-.17 10.071-2.824-5.79-4.707-12.29-4.826-18.678-.057-3.042.545-13.2-5.01-11.72-2.34.622-3.87 2.714-4.26 5-.538 3.154-.252 6.552.127 9.708a52.8 52.8 0 0 0 2.142 9.817c-1.32-2.11-3.397-5.125-6.209-5.073-2.151.036-3.138 2.813-3.318 4.578-.492 4.784 3.658 9.53 6.601 12.806 8.484 9.438 19.454 16.53 25.63 27.926 2.162 3.987 3.688 8.524 4.962 12.871.664 2.265 1.213 4.577 1.466 6.929.047.453.089.947.1 1.455a3.4 3.4 0 0 0-.032 1.197l-.002.026c.263.833.634 1.63 1.454 2.024 1.031.496 2.083.712 3.226.706 1.492-.012 2.983-.13 4.432-.45 2.01-.503 3.968-1.336 5.648-2.528l.327-.243.002-.003.166-.135c.4-.351.77-.733 1.09-1.155.61-.809 1.01-1.698 1.32-2.626.011-2.536.07-5.074.532-7.578.687-3.74 2.623-7.083 4.666-10.232 3.774-5.82 8.63-10.887 12.23-16.82 4.223-6.958 7.643-14.722 9.94-22.522 1.691-5.747 4.232-16.295-3.508-18.735"/><path fill="#bb3289" d="M105.002 22.195c-.184-2.093-.779-4.144-1.095-6.218-.309-2.026-.655-4.814 1.161-6.253 1.692-1.341 4.56-.92 6.187.284 1.779 1.316 2.581 3.679 3.052 5.744 1.003 4.415.636 8.93.592 13.407-.012.943-.015 1.879-.135 2.815-1.1 1.12-1.677 2.96-1.928 4.75-.289 2.055-.274 4.147-.289 6.218-.015 2.249-.235 4.41-.627 6.626-1.728 9.756-5.718 20.139-12.465 27.597 1.14-2.818 2.197-5.67 2.98-8.628 1.923-7.238 2.417-14.768 2.415-22.23q.001-1.432.01-2.873c.814-7.058.772-14.17.142-21.24M84.711 31.14c-.363-3.97-.965-7.877-1.652-11.803-.603-3.457-1.333-6.878-1.943-10.329-.541-3.07-.665-7.072 2.972-8.11 3.568-1.02 5.131 2.643 6.026 5.365 2.156 6.564 2.408 13.495 3.341 20.277-.932.73-1.56 1.736-1.65 3.046-.163 2.454.93 5.058 1.589 7.37.986 3.463 1.185 7.19 1.338 10.77.179 4.2.004 8.432-.512 12.602-1.029 8.341-2.162 16.668-3.258 25-.322-4.381-1.116-8.716-2.068-13.045-1.334-6.07-2.703-12.16-3.731-18.3.5-7.608.244-15.26-.452-22.843M60.429 33.784c-1.114-3.634-2.206-7.265-2.911-11.006C56.57 17.762 55.019 4.8 63.786 6.44c3.459.65 2.933 6.123 2.953 8.655.03 3.676.8 7.43 1.647 10.995.937 3.958 1.99 7.905 3.133 11.814 1.144 3.903 2.259 7.848 3.523 11.716l.056.062c1.258 5.366 2.575 10.72 3.75 16.109 1.11 5.093 3.295 10.621 2.867 15.955-1.304-4.578-3.061-9.04-4.91-13.402-1.591-3.765-3.282-7.49-4.886-11.252-1.096-2.57-1.97-5.19-2.974-7.792-.807-2.088-1.842-4.457-3.786-5.718a3.7 3.7 0 0 0-.992-.456c-1.752-2.872-2.76-6.143-3.739-9.342M46.619 39.973c-.495-3.24-.652-6.536-.402-9.802.123-1.613.587-2.961 1.839-4.042 1.045-.9 2.485-1.576 3.861-1.17 2.424.716 2.552 4.95 2.678 6.927.158 2.475.044 4.961.262 7.433.264 2.988 1.174 6.026 2.112 8.86 1.01 3.052 2.322 6.128 3.99 8.892 1.3 2.912 3.048 5.646 4.746 8.33 2.008 3.174 3.712 6.532 5.258 9.948.924 2.045 1.816 4.12 2.658 6.217-3.232-4.795-7.653-8.81-11.734-12.836-2.928-2.89-5.743-5.925-7.92-9.432-1.507-2.428-2.728-5.017-4.074-7.54-1.508-3.772-2.641-7.672-3.274-11.785"/><path fill="#d640a0" d="M77.803 111.275c.236-2.188-.281-4.678-.65-6.414-.855-4.062-2.28-7.991-3.783-11.853-2.578-6.62-6.776-12.169-11.72-17.21-4.508-4.594-9.488-8.693-14.019-13.26-3.328-3.356-6.978-7.292-8.281-11.953-.687-2.454.168-6.96 3.61-5.992 3.036.853 4.954 4.786 6.34 7.293l.013.022c1.062 2.618 2.367 5.114 3.934 7.368l.015.007c.443.763.908 1.512 1.408 2.243 1.98 2.896 4.476 5.422 6.985 7.862 4.457 4.337 9.344 8.634 12.668 13.954 1.579 4.103 2.935 8.299 3.882 12.565.67 3.027 1.013 6.134 1.404 9.208.322 2.55.63 5.329-.02 7.864-.844-.324-1.502-.861-1.786-1.704"/><path fill="#d640a0" d="M79.777 113.047c.653-2.258.509-4.734.3-7.044-.31-3.472-.744-6.986-1.452-10.397-.648-3.132-1.535-6.239-2.58-9.304l.085-.29a28 28 0 0 0-.675-1.383c-1.49-4.115-3.246-8.144-5.096-12.036-1.717-3.61-3.777-6.98-5.861-10.383-2.072-3.385-4.248-7.021-4.853-11.008-.338-2.207-.416-5.57 1.628-7.01 2.497-1.758 5.029 1.114 6.1 3.049.989 1.78 1.612 3.757 2.268 5.678.805 2.35 1.832 4.623 2.82 6.9 2.482 5.722 5.082 11.394 7.184 17.274a75 75 0 0 1 1.888 6.088l-.04.257c-.034.183.077.25.16.18 1.005 3.91 1.66 7.9 1.813 11.96.228 5.969-.607 11.893-1.085 17.826-.914.004-1.827-.093-2.604-.357"/><path fill="#d640a0" d="M85.733 113.029c-.848.184-1.967.349-3.1.372 1.024-7.342 1.79-14.815.986-22.22-.321-2.96-.921-5.87-1.705-8.735.78-5.315-1.255-10.956-2.456-16.042-.877-3.729-1.556-7.502-2.457-11.226-1.02-4.206-2.115-8.39-3.055-12.612-.832-3.74-1.595-7.55-1.913-11.372-.227-2.72-.025-6.167 2.511-7.788 1.2-.766 2.907-.864 4.23-.438 1.464.472 2.105 2.084 2.476 3.431.906 3.296 1.075 6.956 1.418 10.339.697 6.856 1.31 13.662 2.566 20.45 1.235 6.68 2.856 13.275 4.172 19.936 1.112 5.636 1.52 11.396 1.027 17.126-.028.305-.071.61-.1.917-.334 1.995-.77 3.97-1.216 5.947-.223 1.185-.453 2.37-.642 3.564a38 38 0 0 1-1.06 4.742 44 44 0 0 0-.392 3.287 31 31 0 0 1-1.29.322"/><path fill="#d640a0" d="M87.436 112.587c.52-3.774 1.502-7.54 2.313-11.318.308-1.34.568-2.689.77-4.046.21-1.341.368-2.685.453-4.033l.026-.28c.156-2.167.157-4.313.04-6.452 1.368-8.147 2.398-16.35 3.42-24.547.966-7.71 1.046-15.403-.108-23.101-.394-2.64-1.524-5.124-1.982-7.758-.26-1.497-.155-2.78 1.086-3.796l.114-.08c.06.08.166-.03.214-.158 1.062-.724 2.419-1.048 3.666-1.186 5.928-.646 6.502 7.146 6.776 11.351.342 5.323.25 10.787-.019 16.104-.368 7.29-1.64 14.463-4.216 21.306-1.272 3.38-2.76 6.683-4.13 10.028-1.275 3.117-2.311 6.304-3.354 9.508-1.51 4.635-3.261 9.85-2.79 14.842-.114.849.033 1.875.415 2.587-.872.422-1.794.763-2.694 1.029"/><path fill="#d640a0" d="M117.301 61.747c-1.505 3.324-3.142 6.608-5 9.753-3.365 5.7-7.985 10.576-11.697 16.047-2.235 3.303-4.315 6.777-5.317 10.667-.727 2.82-.82 5.756-.806 8.672-.476 2.035-2.038 3.452-3.908 4.446q-.05-.19-.098-.376l-.004-.101a14 14 0 0 1-.335-2.498l.001-.119-.014-.06c-.107-2.695.444-5.432 1.088-8.026.83-3.354 1.966-6.649 3.053-9.925 1.428-4.296 3.297-8.42 5.004-12.601 4.464-4.467 7.444-10.219 9.699-16.067 2.045-5.303 3.772-11.213 3.968-16.93.072-2.046-.006-4.093.11-6.14.11-1.994.303-4.374 1.64-5.967l.179-.186c.077.026.168-.03.208-.186 1.439-1.171 3.68-.574 5.168.269 1.391.787 2.299 2.115 2.808 3.604 1.299 3.788.275 8.288-.692 12.025-1.219 4.714-3.047 9.276-5.055 13.699"/><path fill="#dc99bc" d="M85.067 45.678c-.017-1.37-.054-2.739-.102-4.104q.002.004.007.012.072 2.043.095 4.092m19.767-5.816c.083-1.659.156-3.32.195-4.983v.001a184 184 0 0 1-.195 4.982M86.667.2"/><path fill="#750f41" d="M95.826 98.252a18 18 0 0 0-.47-.3c1.027-3.782 3.064-7.177 5.248-10.405 3.712-5.47 8.332-10.347 11.698-16.047 1.857-3.145 3.494-6.429 5-9.753 2.008-4.423 3.836-8.985 5.054-13.699.967-3.737 1.991-8.237.692-12.025-.509-1.49-1.417-2.817-2.808-3.604a7 7 0 0 0-.341-.183c-.12-.306-.263-.6-.435-.87 5.268 2.084 5.21 8.313 4.156 13.658l-.002.01v.001c-.351 1.779-.812 3.46-1.224 4.857-2.298 7.8-5.718 15.564-9.94 22.522-3.6 5.933-8.456 11.001-12.231 16.82-1.819 2.805-3.555 5.764-4.397 9.018M78.89 96.958a9 9 0 0 0-.661-.934l-.026-.117c-.912-4.11-2.204-8.156-3.709-12.116q.114-.57.221-1.143.38.987.74 1.98.357.682.675 1.383l-.085.29c1.045 3.066 1.932 6.173 2.58 9.305q.14.675.265 1.352m13.35-.508a12 12 0 0 0-.44-.15c.234-.736.471-1.46.703-2.172 1.043-3.204 2.079-6.39 3.355-9.508 1.37-3.344 2.857-6.646 4.13-10.028 2.575-6.842 3.847-14.016 4.215-21.305.27-5.317.362-10.781.019-16.104-.257-3.96-.781-11.099-5.79-11.38a6 6 0 0 0-.974-.67l-.045-.031q.458-.054.917-.055c1.137 0 2.245.275 3.087 1.044 1.498 1.377 2.166 3.441 2.58 5.377.586 2.751.777 5.57.837 8.394.084-1.659.156-3.32.195-4.982l.057.254c.073.278.184.557.327.821a94 94 0 0 1-.554 7.479q-.009 1.442-.01 2.873c.002 7.463-.492 14.992-2.415 22.23-.783 2.958-1.84 5.81-2.98 8.629 6.747-7.459 10.737-17.842 12.465-27.598.392-2.216.612-4.377.627-6.626.015-2.07 0-4.163.289-6.218.251-1.79.828-3.63 1.928-4.75.12-.936.123-1.872.135-2.815.044-4.476.411-8.992-.592-13.407-.471-2.065-1.273-4.428-3.052-5.744a5.5 5.5 0 0 0-1.399-.734c-.585-.616-1.309-1.018-2.2-1.115q.183-.01.362-.01c.494 0 .981.054 1.428.158q.226.053.436.121c3.953 1.302 5.006 6.111 5.382 9.76.167 1.6.235 3.204.235 4.81q0 1.017-.035 2.036c-.07 2.166-.008 4.438-.31 6.59a3.4 3.4 0 0 1 1.124-.58 4.5 4.5 0 0 0-1.166 1.075l-.04.03q-.004.02-.01.037a3 3 0 0 0-.099.14.13.13 0 0 1-.063.017.1.1 0 0 1-.036-.007l-.178.186c-1.338 1.593-1.531 3.973-1.64 5.968-.116 2.046-.039 4.093-.111 6.14-.196 5.716-1.923 11.626-3.968 16.93-2.255 5.847-5.235 11.6-9.699 16.066-1.706 4.181-3.576 8.305-5.004 12.601-.684 2.064-1.388 4.135-2.024 6.223m-8.753-.188a40 40 0 0 0-.021-.684c-.153-4.06-.808-8.05-1.813-11.96a.1.1 0 0 1-.067.028c-.064 0-.117-.074-.092-.208l.039-.258a75 75 0 0 0-1.888-6.088c-1.158-3.237-2.466-6.412-3.822-9.566a89 89 0 0 0-.044-1.578q.52 1.197 1.027 2.396c1.848 4.362 3.605 8.824 4.91 13.402.427-5.334-1.758-10.862-2.869-15.955-1.174-5.388-2.49-10.743-3.749-16.11l-.056-.06c-1.264-3.869-2.379-7.814-3.523-11.717a236 236 0 0 1-3.133-11.814c-.847-3.566-1.617-7.319-1.647-10.995-.02-2.532.506-8.005-2.953-8.655a8 8 0 0 0-1.443-.142c-1.533 0-2.673.542-3.506 1.441a4.8 4.8 0 0 0-1.127.465c.181-.294.385-.572.616-.825.997-1.073 2.804-1.893 4.47-1.893.709 0 1.393.15 1.978.492 2.321 1.354 2.383 4.668 2.412 7.033a55 55 0 0 0 1.407 11.699c1.546 6.77 3.545 13.416 5.392 20.101l-.012-.061c1.148 4.17 2.37 8.322 3.502 12.496l.02.07c.674 3.024 1.252 6.071 1.963 9.088 1.201 5.086 3.236 10.727 2.456 16.042.784 2.865 1.384 5.774 1.705 8.736.179 1.64.279 3.284.318 4.928q-.226.072-.45.152m7.208-.276q-.243-.06-.485-.11.064-.354.123-.709c.029-.307.072-.612.1-.917.493-5.73.085-11.49-1.027-17.126-1.316-6.66-2.937-13.257-4.172-19.937-1.256-6.787-1.87-13.593-2.565-20.45-.344-3.382-.512-7.042-1.42-10.338-.37-1.347-1.011-2.959-2.475-3.43a5.4 5.4 0 0 0-1.653-.253c-.914 0-1.842.22-2.576.69q-.075.047-.146.096-.553.11-1.193.426c.896-1.08 2.176-1.692 3.65-1.85q.007 0 .013-.002h.012q.003 0 .008-.002.009 0 .018-.002h.004l.048-.005h.002l.248-.019h.026q.126-.008.247-.008c2.17 0 3.523 1.558 4.084 3.58.828 2.986 1.07 6.234 1.403 9.304.445 4.142.742 8.296 1.234 12.431.219 1.85.488 3.69.784 5.53.055-1.838.09-3.68.09-5.518q0-.846-.01-1.69-.024-2.048-.096-4.091c.118.194.25.377.404.534.104 3.956.048 7.915-.212 11.863 1.028 6.14 2.398 12.23 3.731 18.3.952 4.33 1.747 8.664 2.068 13.045 1.096-8.332 2.23-16.658 3.259-25 .516-4.17.69-8.402.512-12.602-.154-3.58-.352-7.307-1.339-10.77-.659-2.312-1.752-4.916-1.588-7.37.09-1.31.717-2.316 1.65-3.046-.934-6.782-1.186-13.713-3.342-20.277-.79-2.403-2.1-5.539-4.853-5.539-.364 0-.755.055-1.172.174a5 5 0 0 0-.259.081 1.8 1.8 0 0 0-1.028-.053l-.265.088c.765-.576 1.688-.95 2.636-1.007h.01l.004-.001q.115-.006.23-.006c.42 0 .84.063 1.25.2 2.566.854 3.499 3.946 4.162 6.3 1.814 6.47 2.294 13.175 2.928 19.832a6.4 6.4 0 0 1 1.234-.629v.001c-1.637.654-2.385 1.828-2.628 3.2-.122.476-.137.988-.082 1.532.053 1.11.318 2.264.63 3.326 1.543 5.254 2.223 10.481 2.214 15.95-.004 2.458-.13 4.896-.268 7.347-.015.272-.044.55-.074.835a28 28 0 0 0-.486 2.29c-.17 1.06-.33 2.335-.055 3.444-.953 7.624-1.933 15.251-3.205 22.83a51 51 0 0 1-.04 6.452l-.027.28a41 41 0 0 1-.275 2.796m-17.405-3.18q-.326-.096-.667-.172l-.044-.103q.098-.478.202-.953.262.607.509 1.228M40.453 45.066q-.16-.27-.32-.543c.474-.504 1.07-.84 1.804-.856h.001l.016-.001h.072c.992 0 1.892.38 2.699.965a8 8 0 0 0-.68.416 5 5 0 0 0-1.084-.454 3.4 3.4 0 0 0-.908-.134c-.65 0-1.179.23-1.6.607m21.188-1.727-.01-.03q.016-.005.031-.012l-.013.025q0 .001-.002.003-.004.007-.006.014m1.41-1.402q-.1-.18-.196-.36l.045.029q.19.118.398.215a4 4 0 0 0-.248.116m-8.098-12.058a18 18 0 0 0-.602-.738c-.248-1.668-.78-3.398-2.054-4.034a3.2 3.2 0 0 0-.744-.801 2 2 0 0 0-.4-.237h.04c2.481 0 3.412 2.824 3.76 5.81"/><path fill="#a22265" d="M99.455 77.166c1.14-2.82 2.197-5.671 2.98-8.629 1.923-7.238 2.417-14.768 2.415-22.23q.001-1.432.01-2.873a94 94 0 0 0 .554-7.48c.445.829 1.194 1.502 2.01 1.502.435 0 .888-.19 1.324-.65 1.812-1.907 2.37-4.798 2.695-7.316.308-2.406.469-4.855.649-7.278.244-3.299.356-10.216-2.236-12.938.518.186.996.437 1.399.734 1.779 1.316 2.581 3.679 3.052 5.744 1.003 4.415.636 8.93.592 13.407-.012.943-.015 1.879-.135 2.815-1.1 1.12-1.677 2.96-1.928 4.75-.289 2.055-.274 4.147-.289 6.218-.015 2.249-.235 4.41-.627 6.626-1.728 9.756-5.718 20.139-12.465 27.597M90.962 85.328c-.321-4.381-1.116-8.716-2.068-13.045-1.333-6.07-2.703-12.16-3.73-18.3.26-3.948.315-7.907.211-11.863q.116.118.25.216c.201.145.394.21.582.21 1.191 0 2.088-2.587 2.306-3.294.93-3.015.57-6.317.568-9.416-.006-4.398.001-8.794-.299-13.185-.272-3.973-.695-8.218-2.132-11.962-.423-1.102-1.42-3.216-2.82-3.71q.126-.044.259-.082A4.3 4.3 0 0 1 85.26.724c2.753 0 4.062 3.136 4.853 5.539 2.156 6.564 2.408 13.495 3.341 20.277-.932.73-1.56 1.736-1.649 3.046-.164 2.454.93 5.058 1.588 7.37.987 3.463 1.185 7.19 1.339 10.77.178 4.2.004 8.432-.512 12.602-1.03 8.341-2.163 16.668-3.259 25M81.717 81.746c-1.304-4.578-3.062-9.04-4.91-13.402q-.507-1.2-1.026-2.396c-.126-3.456-.45-6.9-.971-10.258-.752-4.86-2.447-13.17-8.068-14.172q.09-.083.172-.178c1.53-1.74.773-4.262.176-6.242-1.21-4.006-2.219-8.074-2.821-12.215-.516-3.54-.26-7.041-.53-10.579-.178-2.35-1.23-4.186-3.65-4.632a2.7 2.7 0 0 0-.458-.04c-.265 0-.53.039-.793.107.833-.899 1.973-1.441 3.507-1.441a8 8 0 0 1 1.442.142c3.459.65 2.934 6.123 2.954 8.655.029 3.676.8 7.43 1.646 10.995a236 236 0 0 0 3.134 11.814c1.144 3.903 2.258 7.848 3.522 11.716l.056.062c1.259 5.366 2.575 10.72 3.75 16.109 1.11 5.093 3.296 10.621 2.868 15.955M56.29 54.229a69 69 0 0 0-.448-.886 17 17 0 0 0-.413-1.184q.435 1.033.861 2.07M54.352 29.14c-.4-.46-.824-.898-1.278-1.288-.068-1.03-.285-1.994-.777-2.746 1.275.636 1.806 2.366 2.055 4.034"/><path fill="#b82e79" d="M78.229 96.024c-1.174-1.46-2.814-2.6-4.94-3.218a45 45 0 0 0-.508-1.228c.555-2.599 1.189-5.183 1.713-7.787 1.505 3.96 2.797 8.005 3.71 12.116q.012.06.025.117M42.47 46.39a3.17 3.17 0 0 0-1.661-.716l-.359-.608c.422-.378.95-.607 1.6-.607q.42-.001.908.133c.379.107.74.262 1.084.455-.468.319-.898.679-1.273 1.037a6 6 0 0 0-.299.306M79.72 98.622a10 10 0 0 0-.829-1.664 65 65 0 0 0-.265-1.352c-.648-3.132-1.535-6.24-2.58-9.304l.085-.291a28 28 0 0 0-.674-1.383q-.36-.993-.74-1.98c.27-1.44.496-2.888.65-4.346a87 87 0 0 0 .472-9.102q0-.836-.014-1.674c1.356 3.154 2.664 6.329 3.821 9.566a75 75 0 0 1 1.888 6.088l-.038.258c-.026.134.028.208.092.208.02 0 .045-.01.066-.028 1.005 3.91 1.66 7.9 1.814 11.96q.014.342.02.684a10.7 10.7 0 0 0-3.767 2.36"/><path fill="#b82e79" d="M83.938 96.11a58 58 0 0 0-.318-4.928c-.321-2.962-.921-5.87-1.705-8.736.78-5.315-1.255-10.956-2.456-16.041-.71-3.018-1.29-6.065-1.963-9.089.491 1.808.932 3.646 1.482 5.44.362 1.172.897 2.522 2.069 3.083a.34.34 0 0 0 .148.032.3.3 0 0 0 .253-.118c.959-1.373.739-3.162.54-4.734-.349-2.75-.678-5.486-.945-8.248-.603-6.225-1.141-12.394-1.507-18.637-.196-3.337-.721-10.7-4.488-10.7q-.307-.001-.648.068.072-.05.146-.096c.734-.47 1.662-.69 2.576-.69.574 0 1.142.087 1.653.252 1.464.473 2.105 2.084 2.476 3.431.907 3.296 1.075 6.956 1.419 10.339.696 6.856 1.309 13.663 2.565 20.45 1.235 6.68 2.856 13.275 4.172 19.936 1.112 5.636 1.52 11.397 1.027 17.126-.028.305-.07.61-.1.917q-.06.356-.123.71a13.6 13.6 0 0 0-2.767-.292c-1.197 0-2.377.17-3.506.525M91.8 96.3q-.55-.18-1.105-.314.185-1.396.275-2.796l.027-.28a51 51 0 0 0 .04-6.452c1.272-7.579 2.252-15.206 3.205-22.83.117.471.312.911.619 1.291.345.43.717.601 1.089.601 1.036-.001 2.079-1.322 2.601-2.082 1.506-2.195 2.278-4.855 2.798-7.436.568-2.824.701-5.723.85-8.592.187-3.616.227-7.242-.064-10.852-.284-3.499-.837-8.342-3.702-10.755 5.008.281 5.532 7.42 5.789 11.38.343 5.323.251 10.787-.019 16.104-.368 7.29-1.64 14.463-4.216 21.305-1.272 3.382-2.76 6.684-4.129 10.028-1.276 3.118-2.312 6.304-3.355 9.508q-.35 1.067-.704 2.172m.48-65.864c-.054-.544-.04-1.056.083-1.532a7 7 0 0 0-.082 1.532"/><path fill="#b82e79" d="M95.356 97.952a16.7 16.7 0 0 0-3.116-1.502c.636-2.088 1.34-4.16 2.024-6.223 1.428-4.296 3.298-8.42 5.004-12.602 4.464-4.466 7.444-10.218 9.699-16.066 2.045-5.303 3.772-11.213 3.968-16.93.072-2.046-.005-4.093.111-6.14.109-1.994.302-4.374 1.64-5.967l.178-.186a.1.1 0 0 0 .036.007.13.13 0 0 0 .063-.018c-1.344 1.95-1.496 4.96-1.489 7.382.005 3.47-.342 6.852-.838 10.284-.278 1.943-.61 3.89-.754 5.848-.066.907-.039 2.12.472 2.92.34.538.729.748 1.13.748 1.019 0 2.118-1.344 2.704-2.13 2.088-2.796 2.875-6.6 3.58-9.94a41 41 0 0 0 .792-11.187c-.084-1.283-.177-2.767-.661-4.014q.176.088.341.183c1.391.787 2.299 2.114 2.808 3.604 1.299 3.788.275 8.288-.692 12.025-1.218 4.713-3.046 9.276-5.054 13.699-1.506 3.324-3.143 6.608-5 9.753-3.366 5.7-7.986 10.576-11.698 16.047-2.184 3.228-4.221 6.623-5.248 10.405m19.706-65.767q.006-.017.01-.035l.04-.031z"/><path fill="#e26cbc" d="M48.904 44.464a6 6 0 0 0-.405-.184c-.525-2.452-1.08-4.929-1.405-7.418q.391.526.781 1.05c.327 2.187.73 4.364 1.03 6.552m.355-18.366a5 5 0 0 0-.416-.016h-.08q.327-.32.732-.576a.1.1 0 0 1 .04-.015c.079 0 .057.208.015.259q-.153.171-.29.348M62.787 36.786c-2.417-5.24-3.88-10.964-4.78-16.648-.599-3.76-1.245-8.28.901-11.686.028-.045.055-.062.079-.062.063 0 .097.136.066.221-1.52 4.063-.883 8.255-.203 12.419.874 5.357 2.389 10.481 4.034 15.641z"/><path fill="#e77cc4" d="M79.238 61.31q-.031.002-.055-.067c-2.445-7.784-4.053-15.836-5.797-23.797-.886-4.044-2.404-10.267 1.233-13.466q.033-.027.056-.028c.088 0 .063.3.02.362-3.235 4.557-1.095 10.632-.065 15.6 1.46 7.066 3.098 14.082 4.736 21.11.02.083-.06.286-.128.286"/><path fill="#e26cbc" d="M85.966 33.626q-.03.002-.045-.062c-1.479-6.574-2.108-13.321-3.41-19.93-.748-3.784-1.69-8.622 1.056-11.853q.058-.063.098-.062c.11 0 .129.308.07.41-2.497 4.324-.796 9.26-.1 13.838.886 5.825 1.444 11.688 2.414 17.505.012.063-.04.154-.083.154"/><path fill="#e77cc4" d="M95.569 61.06c-.05 0-.094-.046-.092-.15.174-7.312 1.458-15.202-.531-22.372-.817-2.938-3.356-8.476-.796-11.178q.037-.038.063-.037c.074 0 .088.193.044.261-1.348 2.063-.2 5.318.417 7.466.585 2.041 1.18 4.016 1.444 6.133.821 6.552.353 13.184-.416 19.715-.012.101-.076.161-.133.161"/><path fill="#e26cbc" d="M106.703 32.67c-.03 0-.054-.027-.058-.104-.279-4.914-.433-9.847-1.185-14.722-.415-2.693-1.204-6.141.789-8.426q.036-.041.065-.04c.072 0 .096.169.067.24-1.484 3.416-.302 6.996.06 10.537.413 4.05.695 8.235.424 12.304-.005.088-.099.212-.162.212"/><path fill="#e77cc4" d="M114.22 52.195c-.068 0-.124-.064-.111-.21.386-4.063.348-8.125.58-12.193.151-2.612.183-5.373 1.783-7.572q.029-.037.051-.036c.054 0 .08.146.056.199-1.311 3.01-1.174 6.453-1.316 9.674-.144 3.304-.215 6.655-.836 9.911-.026.139-.126.227-.207.227"/><path fill="#89155c" d="M64.556 41.49c-1.531.208-2.436.902-2.916 1.85-.592-1.906-1.534-3.774-2.326-5.6-.83-1.928-1.757-3.814-2.844-5.61-1.742-2.887-4.5-6.475-8.297-6.007-1.56.19-3.487 1.272-4.03 2.828-.53 1.521.023 3.11.723 4.479.904 1.772 2.174 3.333 3.34 4.932 1.704 2.336 3.04 4.965 4.347 7.535 1.383 2.718 2.579 5.516 3.736 8.331-1.156-2.325-2.419-4.593-3.983-6.65-1.102-1.447-2.468-2.902-4.252-3.458-1.92-.598-3.957.694-5.284 1.965a5.9 5.9 0 0 0-.99 1.233c-3.131-5.285-6.158-10.672-10.198-15.339-1.472-1.697-3.46-3.9-5.925-3.608-1.967.234-3.407 2.063-3.644 3.93-.296 2.337 1.405 4.75 2.683 6.527 1.917 2.672 3.87 5.311 5.765 8.003 4.447 6.324 8.296 13.015 11.673 19.97a157 157 0 0 1 2.755 6.023c-.965-1.412-1.91-2.84-2.816-4.29-2.028-3.244-3.903-6.582-5.895-9.85-1.476-2.422-2.95-5.029-4.81-7.183-1.304-1.515-3.12-2.284-4.995-1.274-1.747.94-2.836 2.508-2.763 4.532.076 2.057.936 3.975 1.947 5.73 1.71 2.976 3.808 5.758 5.892 8.476.375.487.759.968 1.136 1.454-4.153-4.834-8.42-9.577-12.355-14.594a50.4 50.4 0 0 1-5.75-9.175c-.95-1.953-2.3-4.685-4.762-4.901-2.07-.187-4.225 1.858-4.806 3.688-.708 2.227.414 4.96 1.277 6.98 2.599 6.072 7.261 11.077 11.736 15.818 1.63 1.727 3.37 3.474 5.412 4.728-1.201.354-2.148 1.348-2.353 2.648-.483 3.068 1.662 6.201 3.802 8.436-4.613-3.71-8.725-8.372-11.324-13.635-1.24-2.508-4.716-11.188-8.753-7.78-1.704 1.434-2.155 3.77-1.584 5.822.79 2.835 2.357 5.547 3.907 8.02a48.2 48.2 0 0 0 5.625 7.321c-1.927-1.236-4.83-2.927-7.15-1.787-1.773.874-1.505 3.569-.965 5.107 1.463 4.17 6.774 6.488 10.503 8.059 10.747 4.525 22.643 6.124 32.237 13.176 3.358 2.468 6.404 5.643 9.166 8.756 1.44 1.625 2.8 3.33 3.929 5.187.219.359.447.752.656 1.169.088.372.24.71.441 1.007l.01.024c.544.589 1.164 1.106 2 1.113 1.05.009 2.012-.223 2.958-.678 1.235-.591 2.427-1.276 3.507-2.11 1.473-1.202 2.776-2.663 3.705-4.311l.176-.329.002-.006.084-.174c.197-.448.356-.911.453-1.388.19-.911.177-1.806.068-2.697-.983-2.116-1.924-4.248-2.524-6.511-.893-3.378-.59-6.914-.125-10.335.857-6.314 2.909-12.424 3.577-18.765.787-7.44.588-15.23-.556-22.612-.841-5.44-2.863-15.201-10.253-14.2"/><path fill="#bb3289" d="M49.509 39.478c-.974-1.671-2.271-3.142-3.346-4.742-1.05-1.562-2.428-3.746-1.481-5.652.883-1.777 3.428-2.55 5.252-2.188 1.995.402 3.587 2.047 4.788 3.582 2.561 3.274 4.024 7.172 5.74 10.913.361.787.724 1.565.99 2.392-.475 1.361-.235 3.115.258 4.703.565 1.821 1.397 3.554 2.196 5.281a36 36 0 0 1 2.072 5.752c2.384 8.785 3.132 18.977.444 27.821-.155-2.789-.393-5.573-.9-8.337-1.239-6.77-3.772-13.224-6.699-19.425l-1.118-2.392C55.622 51 52.8 45.104 49.509 39.478M36.147 54.857c-1.856-3.158-3.889-6.169-5.994-9.163-1.854-2.638-3.804-5.199-5.662-7.828-1.65-2.339-3.322-5.616-.706-7.904 2.568-2.244 5.3.19 7.11 2.103 4.363 4.61 7.286 10.272 10.72 15.544-.491.969-.62 2.054-.18 3.177.823 2.104 2.753 3.841 4.205 5.504 2.177 2.492 3.803 5.514 5.33 8.43a70 70 0 0 1 4.51 10.674c2.41 7.336 4.73 14.701 7.081 22.057-1.984-3.517-4.341-6.81-6.827-10.034-3.486-4.526-7.009-9.051-10.267-13.752-2.563-6.517-5.773-12.778-9.32-18.809M17 66.56c-2.35-2.584-4.68-5.175-6.731-8.01-2.75-3.794-9.116-13.964-1.188-16.032 3.132-.814 4.837 3.94 5.845 6.04 1.463 3.044 3.575 5.86 5.672 8.49a217 217 0 0 0 7.23 8.596c2.48 2.796 4.951 5.64 7.517 8.359l.07.03c3.148 3.968 6.34 7.903 9.427 11.922 2.916 3.801 6.899 7.537 8.63 12.136-2.877-3.29-6.085-6.312-9.329-9.217-2.798-2.504-5.662-4.94-8.468-7.436-1.917-1.707-3.672-3.547-5.524-5.312-1.485-1.422-3.274-2.986-5.384-3.274a3.5 3.5 0 0 0-1.002.01c-2.583-1.7-4.7-4.026-6.766-6.302M7.94 77.11c-1.68-2.495-3.1-5.174-4.173-7.986-.528-1.389-.67-2.69-.052-4.078.516-1.159 1.448-2.283 2.752-2.486 2.295-.353 4.06 3.115 4.938 4.71 1.1 1.993 1.978 4.105 3.128 6.076 1.389 2.377 3.334 4.548 5.222 6.534 2.038 2.143 4.332 4.186 6.799 5.83 2.223 1.913 4.745 3.5 7.21 5.068 2.908 1.85 5.64 3.973 8.263 6.206a146 146 0 0 1 4.647 4.13c-4.567-2.72-9.812-4.33-14.782-6.076-3.566-1.255-7.094-2.676-10.276-4.739-2.205-1.428-4.233-3.103-6.338-4.67-2.73-2.547-5.2-5.342-7.339-8.52"/><path fill="#d640a0" d="M61.781 124.171c-.66-1.913-2.065-3.779-3.052-5.079-2.301-3.042-5.025-5.749-7.785-8.37-4.736-4.495-10.396-7.462-16.479-9.714-5.548-2.057-11.292-3.513-16.848-5.534-4.079-1.486-8.656-3.329-11.565-6.694-1.53-1.77-2.584-5.85.657-6.395 2.857-.478 5.99 2.04 8.125 3.58l.022.015c1.906 1.757 3.968 3.324 6.153 4.585h.015a34 34 0 0 0 2.05 1.31c2.778 1.633 5.844 2.757 8.883 3.802 5.403 1.86 11.147 3.515 15.992 6.635 2.92 2.795 5.69 5.751 8.147 8.927 1.744 2.254 3.245 4.701 4.773 7.102 1.268 1.994 2.61 4.182 3.065 6.544-.83.064-1.588-.127-2.153-.714"/><path fill="#d640a0" d="M64.117 124.869c-.34-2.133-1.431-4.131-2.509-5.973-1.615-2.762-3.353-5.514-5.277-8.072-1.766-2.35-3.719-4.586-5.79-6.724l-.04-.274q-.541-.46-1.106-.888c-2.848-2.835-5.885-5.496-8.946-8.005-2.84-2.329-5.874-4.326-8.94-6.338-3.047-2.002-6.278-4.17-8.344-7.25-1.142-1.7-2.526-4.469-1.39-6.465 1.387-2.438 4.616-1.04 6.266.147 1.518 1.096 2.811 2.495 4.107 3.834 1.59 1.637 3.334 3.123 5.046 4.63 4.304 3.784 8.688 7.481 12.736 11.543a70 70 0 0 1 3.953 4.322l.067.23c.041.165.161.181.204.09 2.367 2.855 4.472 5.915 6.19 9.228 2.526 4.872 4.15 10.125 6.08 15.242-.76.361-1.56.638-2.308.723"/><path fill="#d640a0" d="M69.058 122.522a15.4 15.4 0 0 1-2.43 1.526c-2.022-6.507-4.311-13.019-7.88-18.857-1.427-2.336-3.064-4.521-4.836-6.594-1.435-4.723-5.335-8.616-8.323-12.372-2.19-2.756-4.232-5.624-6.441-8.37-2.494-3.097-5.042-6.142-7.476-9.285-2.156-2.784-4.283-5.65-6.044-8.703-1.252-2.174-2.435-5.12-.962-7.46.696-1.104 2.076-1.854 3.344-2.018 1.402-.182 2.568.909 3.402 1.882 2.045 2.384 3.618 5.36 5.228 8.036 3.265 5.428 6.44 10.846 10.138 15.996 3.644 5.068 7.575 9.914 11.276 14.936 3.13 4.25 5.726 8.879 7.558 13.832.098.267.185.536.277.803.504 1.788.916 3.602 1.315 5.42.282 1.073.557 2.147.864 3.212.42 1.445.748 2.89.977 4.357.288.972.599 1.937.961 2.885q-.481.414-.948.774"/><path fill="#d640a0" d="M70.3 121.49c-1.046-3.342-1.703-6.856-2.508-10.315a47 47 0 0 0-.946-3.663 40 40 0 0 0-1.2-3.532l-.09-.242a46 46 0 0 0-2.492-5.378c-2.054-7.308-4.41-14.53-6.767-21.744-2.219-6.788-5.165-13.212-9.139-19.16-1.358-2.04-3.272-3.661-4.682-5.67-.806-1.143-1.219-2.252-.584-3.582l.062-.113c.08.043.126-.088.116-.213.598-1.018 1.6-1.82 2.584-2.42 4.672-2.858 8.203 3.392 10.075 6.784 2.37 4.286 4.433 8.865 6.29 13.39 2.549 6.204 4.3 12.666 4.84 19.36.266 3.31.32 6.636.493 9.952.16 3.092.548 6.147.934 9.216.56 4.448 1.148 9.464 3.491 13.429.24.751.763 1.548 1.36 1.991a16.4 16.4 0 0 1-1.837 1.91"/><path fill="#d640a0" d="M75.22 67.536c.049 3.352-.025 6.723-.335 10.064-.567 6.058-2.5 11.919-3.44 17.919-.566 3.62-.935 7.323-.244 10.951.5 2.627 1.572 5.105 2.725 7.523.401 1.873-.343 3.667-1.508 5.222l-.228-.27-.043-.084a13.4 13.4 0 0 1-1.257-1.944l-.046-.1-.034-.045c-1.144-2.199-1.758-4.692-2.239-7.1-.623-3.11-.97-6.293-1.348-9.442-.497-4.13-.555-8.29-.776-12.432 1.962-5.463 2.187-11.414 1.77-17.154-.375-5.21-1.254-10.798-3.33-15.628-.741-1.73-1.606-3.401-2.312-5.145-.688-1.7-1.461-3.756-.972-5.605l.076-.223c.073-.01.125-.09.099-.236.737-1.537 2.834-1.917 4.397-1.8 1.466.11 2.742.857 3.75 1.895 2.56 2.64 3.473 6.782 4.133 10.268.832 4.394 1.1 8.906 1.162 13.366"/><path fill="#dc99bc" d="M42.134 66.802a150 150 0 0 0-1.693-3.374l.01.007a162 162 0 0 1 1.683 3.367m-9.549 3.617-.036-.045.004.005q.015.02.032.04"/><path fill="#750f41" d="m47.96 26.155.08-.014z"/><path fill="#a22265" d="M48.041 26.142v-.002l.132-.017z"/><path fill="#750f41" d="M50.434 104.772a105 105 0 0 0-2.486-2.46c-4.845-3.12-10.589-4.776-15.992-6.634-3.038-1.046-6.105-2.17-8.884-3.803a34 34 0 0 1-2.049-1.31h-.015c-2.185-1.26-4.246-2.827-6.153-4.584l-.021-.015c-1.954-1.41-4.744-3.64-7.395-3.64q-.369 0-.73.06c-1.394.235-1.994 1.121-2.103 2.197a1.8 1.8 0 0 0-.435.857c-.139-1.358.112-2.828 1.336-3.432a3.8 3.8 0 0 1 1.695-.377c1.924 0 3.976 1.216 5.454 2.164a47 47 0 0 1-2.39-2.784 98 98 0 0 0 2.018 1.602 53 53 0 0 0 2.994 3.015c2.105 1.568 4.133 3.243 6.338 4.671 3.182 2.063 6.71 3.484 10.276 4.739 4.97 1.746 10.215 3.356 14.782 6.076a146 146 0 0 0-4.647-4.13c-2.623-2.233-5.355-4.356-8.263-6.206-2.465-1.568-4.988-3.155-7.21-5.068-2.467-1.644-4.762-3.687-6.799-5.83-1.888-1.986-3.833-4.157-5.223-6.534-1.149-1.97-2.028-4.083-3.128-6.076-.829-1.505-2.449-4.683-4.56-4.733a2.9 2.9 0 0 0-.937-.38 2 2 0 0 0-.425-.038 2.5 2.5 0 0 1 1.117-.268c3.197 0 5.815 6.438 6.857 8.552l.006.01c2.598 5.262 6.71 9.925 11.324 13.634q-.402-.42-.799-.879l-.004-.005c2.37 2.287 5.388 4.063 7.997 5.85 1.478 1.011 3.026 2.09 4.631 3.017a67 67 0 0 1 3.836 2.903c3.061 2.509 6.099 5.17 8.947 8.005q.565.428 1.105.888l.041.274q.218.225.434.451-.273.107-.54.221m2.576-6.433a70 70 0 0 0-3.082-3.305c-4.048-4.062-8.432-7.759-12.736-11.543-1.712-1.507-3.456-2.993-5.045-4.63-1.296-1.34-2.59-2.738-4.108-3.834-.983-.708-2.528-1.49-3.908-1.49-.932 0-1.788.355-2.35 1.329-.307.105-.553.28-.74.504a3.31 3.31 0 0 1 2.295-2.407l-.021-.013q-.644-.402-1.25-.862l.046.009a4 4 0 0 0 .595.017q.516.391 1.057.748a3.447 3.447 0 0 1 1.003-.01c2.109.288 3.898 1.852 5.384 3.274 1.852 1.765 3.606 3.605 5.524 5.312 2.805 2.497 5.669 4.932 8.468 7.436 3.221 2.885 6.408 5.885 9.268 9.148q-.202.156-.4.317m.426-.336c-1.749-4.557-5.698-8.272-8.596-12.048-3.086-4.019-6.278-7.953-9.426-11.922l-.071-.03c-2.565-2.719-5.036-5.563-7.516-8.359a217 217 0 0 1-7.23-8.596c-2.098-2.629-4.21-5.446-5.673-8.49-.929-1.936-2.453-6.134-5.142-6.134q-.339 0-.703.094c-2.07.54-3.165 1.632-3.605 3.02a4.4 4.4 0 0 0-.752.827c.034-.317.094-.627.189-.928.556-1.751 2.555-3.7 4.54-3.7q.133 0 .267.011c2.461.217 3.812 2.949 4.761 4.902a50.4 50.4 0 0 0 5.75 9.174c3.935 5.018 8.202 9.76 12.355 14.595l-.032-.04c2.584 3.016 5.226 5.986 7.802 9.008l.036.043c1.746 2.254 3.424 4.561 5.198 6.794 2.827 3.554 6.468 7.228 8.068 11.612zm6.65-3.835a62 62 0 0 0-2.032-2.929c-3.702-5.023-7.632-9.868-11.276-14.936-3.699-5.15-6.874-10.568-10.139-15.996-1.61-2.676-3.183-5.652-5.228-8.036-.772-.901-1.828-1.903-3.093-1.903q-.152 0-.308.02c-1.268.165-2.648.915-3.344 2.02a3 3 0 0 0-.084.138 4.5 4.5 0 0 0-.824.821c.293-1.133.998-2.07 1.994-2.761l.015-.01h.001q.286-.199.604-.369a3.6 3.6 0 0 1 1.726-.457c1.234 0 2.373.688 3.27 1.73 1.859 2.155 3.334 4.762 4.81 7.185 1.992 3.267 3.866 6.605 5.894 9.849.907 1.45 1.851 2.878 2.816 4.29a157 157 0 0 0-2.754-6.022q-.823-1.695-1.683-3.367c.175.119.356.219.547.29a119 119 0 0 1 4.468 9.94c3.258 4.7 6.781 9.226 10.268 13.751 1.66 2.155 3.262 4.34 4.736 6.6q-.195.074-.384.152m1.273-.48c-1.944-6.103-3.88-12.209-5.88-18.294a70 70 0 0 0-4.51-10.675c-1.527-2.914-3.153-5.937-5.33-8.43-1.452-1.662-3.381-3.4-4.204-5.503-.44-1.123-.312-2.208.179-3.178-3.434-5.272-6.356-10.933-10.72-15.544-1.294-1.368-3.059-3-4.899-3-.733 0-1.479.258-2.21.898a5 5 0 0 0-.185.17 1.6 1.6 0 0 0-.872.358l-.189.174c.63-1.186 1.747-2.128 3.117-2.293q.225-.025.446-.025c2.26 0 4.097 2.04 5.48 3.633 4.04 4.667 7.066 10.054 10.198 15.339.207-.343.462-.667.75-.972-1.076 1.174-1.232 2.433-.899 3.656.084.444.272.872.528 1.302.48.902 1.152 1.76 1.828 2.52 3.34 3.764 5.953 7.842 8.085 12.391.959 2.043 1.811 4.121 2.655 6.213.093.232.18.475.264.72.144.703.296 1.403.496 2.095.272.948.64 2.074 1.304 2.888 1.676 5.133 3.34 10.273 4.885 15.448q-.158.054-.317.11m11.203-1.069q-.281-.062-.571-.113c1.004-4.962 2.421-9.865 2.892-14.906.31-3.34.384-6.712.336-10.063-.063-4.46-.33-8.973-1.163-13.367-.66-3.486-1.572-7.628-4.133-10.268-1.008-1.038-2.284-1.784-3.75-1.895a7 7 0 0 0-.353-.017 4.5 4.5 0 0 0-.7-.552q.238-.015.467-.015c6.55 0 8.419 9.09 9.221 14.267.684 4.41 1.031 8.97 1.03 13.51 0 3.058-.156 6.108-.474 9.102a55 55 0 0 1-.649 4.346q-.106.573-.221 1.143c-.524 2.604-1.158 5.188-1.714 7.787q-.103.476-.201.953zm-6.323-.132c-.1-2.5-.18-5.001-.381-7.495-.539-6.694-2.291-13.156-4.839-19.36-1.857-4.525-3.92-9.104-6.29-13.39-1.54-2.79-4.2-7.51-7.695-7.51-.508 0-1.032.098-1.574.318a5.6 5.6 0 0 0-1.07-.176l-.051-.01c.836-.52 1.772-.893 2.716-.893a3.3 3.3 0 0 1 .999.15c1.784.555 3.149 2.01 4.252 3.457 1.564 2.057 2.826 4.325 3.982 6.65q-.428-1.04-.864-2.077-.236-.558-.477-1.115-.221-.513-.45-1.028l.149.188c.169.203.37.391.59.555a85 85 0 0 1 2.467 6.435l1.119 2.392c2.926 6.201 5.46 12.654 6.698 19.425.507 2.764.746 5.548.9 8.337 2.688-8.844 1.94-19.035-.444-27.82a36 36 0 0 0-2.072-5.753c-.798-1.727-1.63-3.46-2.196-5.281-.493-1.588-.733-3.341-.257-4.703-.267-.827-.63-1.605-.99-2.392-1.717-3.741-3.18-7.639-5.74-10.913-1.202-1.535-2.794-3.18-4.789-3.582a4.8 4.8 0 0 0-.928-.088q-.26.001-.526.026c-.4-.154-.81-.239-1.227-.239q-.509-.002-1.033.176a5.8 5.8 0 0 1 1.742-.616q.04-.008.08-.013.066-.011.132-.019.341-.041.67-.041c3.453 0 5.989 3.333 7.628 6.048 1.086 1.796 2.013 3.682 2.844 5.61.792 1.826 1.733 3.694 2.325 5.6q.002-.008.007-.016l.001-.002c.175-.339.405-.643.699-.907-.27.42-.447.875-.55 1.352l-.02.04.006.033q-.016.078-.028.156a.1.1 0 0 1-.076.047l-.076.223c-.49 1.85.284 3.905.972 5.605.705 1.744 1.57 3.416 2.312 5.145 2.076 4.83 2.954 10.418 3.33 15.628.416 5.74.191 11.691-1.77 17.154.082 1.543.142 3.088.21 4.635a16 16 0 0 0-.417.054"/><path fill="#a22265" d="M66.421 87.34c-.155-2.789-.393-5.573-.9-8.337-1.239-6.77-3.772-13.224-6.699-19.425l-1.118-2.392a85 85 0 0 0-2.467-6.435c.488.361 1.07.601 1.61.601.637 0 1.212-.334 1.497-1.197.761-2.297.09-4.919-.627-7.136-.685-2.123-1.51-4.221-2.308-6.305-1.09-2.84-3.706-8.635-6.93-9.88q.266-.025.526-.026c.322 0 .635.03.928.088 1.995.402 3.587 2.047 4.788 3.582 2.562 3.274 4.024 7.172 5.74 10.913.361.787.724 1.565.99 2.392-.475 1.361-.235 3.115.258 4.703.566 1.821 1.397 3.554 2.196 5.281a36 36 0 0 1 2.072 5.752c2.384 8.785 3.132 18.977.444 27.821M60.47 94.017c-1.472-2.262-3.075-4.446-4.735-6.6-3.487-4.526-7.01-9.051-10.268-13.752a119 119 0 0 0-4.468-9.94q.143.05.29.08.114.02.215.02c1.398 0 1.083-2.971.978-3.716-.407-2.868-2-5.471-3.214-8.046-1.728-3.654-3.442-7.313-5.412-10.844-1.781-3.194-3.794-6.56-6.454-9.108-.746-.714-2.284-1.99-3.602-1.99q-.1 0-.198.01.088-.085.184-.17c.732-.64 1.477-.898 2.21-.898 1.84 0 3.606 1.634 4.899 3.002 4.364 4.61 7.287 10.272 10.72 15.544-.49.969-.619 2.054-.179 3.177.823 2.104 2.752 3.841 4.204 5.504 2.178 2.492 3.803 5.515 5.33 8.43a70 70 0 0 1 4.51 10.674c2 6.085 3.936 12.19 5.88 18.295q-.447.156-.89.328M53.41 98.022c-2.86-3.263-6.046-6.263-9.267-9.148-2.8-2.504-5.663-4.94-8.468-7.436-1.918-1.707-3.672-3.547-5.524-5.312-1.486-1.422-3.275-2.986-5.384-3.274a3.5 3.5 0 0 0-1.003.01 19 19 0 0 1-1.057-.748c1.14-.056 2.298-.623 2.64-1.811.59-2.044-1.03-3.847-2.3-5.256-2.572-2.859-5.004-5.843-7.127-9.05-1.815-2.74-2.973-5.751-4.583-8.585-.877-1.545-2.106-2.575-3.725-2.575q-.532-.001-1.121.154c-.375.1-.714.294-1.016.547.44-1.388 1.536-2.48 3.605-3.02q.364-.094.703-.094c2.689 0 4.213 4.197 5.142 6.133 1.463 3.044 3.575 5.862 5.672 8.491a217 217 0 0 0 7.231 8.596c2.48 2.796 4.95 5.64 7.516 8.359l.07.03c3.149 3.968 6.34 7.903 9.427 11.922 2.898 3.776 6.847 7.49 8.596 12.048zM46.675 101.114c-4.567-2.72-9.812-4.33-14.781-6.076-3.567-1.255-7.095-2.676-10.276-4.739-2.206-1.428-4.234-3.103-6.339-4.67a53 53 0 0 1-2.993-3.017 58 58 0 0 0 3.112 2.252c1.43.955 3.17 2.21 4.925 2.44q.15.019.285.02c.944 0 1.478-.666.991-1.64-.455-.908-1.335-1.657-2.047-2.356-1.004-.98-1.938-2.024-2.856-3.085-2.906-3.36-4.716-6.941-6.297-11.055-.737-1.917-1.561-5.42-3.553-6.652 2.11.051 3.73 3.228 4.56 4.734 1.1 1.993 1.978 4.105 3.128 6.076 1.39 2.377 3.334 4.548 5.222 6.534 2.038 2.143 4.332 4.186 6.799 5.83 2.223 1.913 4.745 3.5 7.21 5.068 2.909 1.85 5.64 3.973 8.263 6.206a146 146 0 0 1 4.647 4.13"/><path fill="#b82e79" d="M47.026 106.585a5 5 0 0 0-.059-.761c-.395-2.484-3.704-4.275-5.685-5.311-2.885-1.51-6.07-2.39-9.152-3.404a134 134 0 0 1-11.152-4.2c-3.635-1.565-7.083-3.373-10.136-5.918-1.372-1.144-2.676-3.016-4.564-3.016q-.34-.002-.708.085c-.419.102-.735.283-.963.523.11-1.076.71-1.963 2.103-2.198q.362-.06.73-.06c2.651 0 5.442 2.231 7.395 3.64l.022.015c1.906 1.757 3.968 3.324 6.153 4.585h.015a34 34 0 0 0 2.05 1.31c2.778 1.633 5.844 2.757 8.883 3.802 5.403 1.86 11.147 3.515 15.992 6.635q1.264 1.209 2.485 2.46a22 22 0 0 0-3.409 1.813M50.975 104.551q-.216-.226-.433-.45l-.041-.275a26 26 0 0 0-1.106-.888c-2.848-2.835-5.885-5.496-8.946-8.005a67 67 0 0 0-3.837-2.903c.934.54 1.887 1.027 2.858 1.42.316.128.67.203.988.203.721 0 1.263-.386.765-1.412-.832-1.712-2.414-2.956-3.666-4.344-2.591-2.868-5.12-5.796-7.882-8.5-1.897-1.86-4.017-4.311-6.821-4.624a3 3 0 0 0-.341-.02q-.41.002-.73.113c.561-.973 1.418-1.33 2.35-1.33 1.38 0 2.925.783 3.908 1.491 1.518 1.096 2.811 2.495 4.107 3.834 1.59 1.637 3.334 3.124 5.046 4.63 4.304 3.784 8.688 7.482 12.736 11.543a70 70 0 0 1 3.081 3.305q-.114.092-.224.186-.173.145-.344.297c-.972.993-1.634 2.101-1.636 3.313-.001.7.219 1.435.728 2.203q-.282.103-.56.213M53.657 97.836c-1.6-4.384-5.242-8.058-8.068-11.612-1.775-2.233-3.452-4.54-5.199-6.794 1.119 1.314 2.207 2.673 3.368 3.948.761.834 1.733 1.748 2.928 1.757h.003c.129 0 .276-.096.297-.23.259-1.517-.624-2.917-1.405-4.147a252 252 0 0 1-4.016-6.486c-2.938-4.937-5.8-9.856-8.548-14.9-1.311-2.408-4.095-7.37-6.902-7.37-.513 0-1.026.165-1.533.544q.04-.071.084-.139c.696-1.104 2.076-1.855 3.344-2.019q.156-.02.308-.02c1.265 0 2.321 1.002 3.093 1.903 2.046 2.384 3.619 5.36 5.228 8.036 3.266 5.428 6.44 10.845 10.139 15.996 3.644 5.068 7.575 9.913 11.276 14.936a62 62 0 0 1 2.032 2.93q-.718.29-1.416.618c-1.488 1.068-3.224 1.759-4.717 2.833q-.149.106-.296.216M61.678 93.58c-1.545-5.176-3.21-10.316-4.885-15.449.281.345.616.633 1.019.83.249.12.473.174.677.174 1.203 0 1.652-1.88 1.81-2.852.391-2.413-.009-4.928-.587-7.277-.634-2.57-1.66-5.032-2.66-7.474-1.26-3.08-2.643-6.108-4.3-8.996-1.605-2.797-3.963-6.605-7.29-7.486a4.1 4.1 0 0 1 1.573-.319c3.495 0 6.155 4.721 7.695 7.51 2.37 4.287 4.434 8.866 6.29 13.391 2.549 6.204 4.3 12.666 4.84 19.36.2 2.494.28 4.995.38 7.495a25.7 25.7 0 0 0-4.562 1.092M42.161 51.303c-.256-.43-.444-.858-.528-1.302.118.44.302.876.528 1.302"/><path fill="#750f41" d="m42.531 46.346.03-.034.004-.001q-.018.016-.034.035"/><path fill="#b82e79" d="M71.993 92.506q-.253-.045-.511-.08a17.5 17.5 0 0 0-2.32-.15c-.825 0-1.663.053-2.504.157-.068-1.547-.128-3.093-.21-4.635 1.96-5.463 2.186-11.413 1.77-17.154-.376-5.21-1.255-10.798-3.33-15.628-.742-1.729-1.608-3.4-2.313-5.145-.688-1.7-1.461-3.756-.972-5.605l.076-.223a.1.1 0 0 0 .076-.047c-.353 2.148.7 4.709 1.653 6.72 1.364 2.88 2.4 5.827 3.332 8.875.526 1.723 1.013 3.475 1.662 5.156.3.778.799 1.778 1.534 2.244.3.19.568.273.807.273 1.148 0 1.633-1.906 1.84-2.925.64-3.14-.193-6.61-.917-9.665a37.8 37.8 0 0 0-3.72-9.608c-.573-1.032-1.233-2.23-2.124-3.076q.182.005.353.017c1.466.11 2.742.858 3.75 1.895 2.56 2.64 3.473 6.782 4.133 10.268.832 4.395 1.1 8.907 1.162 13.367.049 3.351-.025 6.722-.335 10.063-.471 5.04-1.889 9.945-2.892 14.906M61.783 43.84l-.005-.034.02-.04z"/><path fill="#e77cc4" d="M37.085 101.402c-3.104-1.153-6.2-2.261-9.372-3.222-3.016-.913-6.07-1.64-9.018-2.776-5.166-1.992-11.268-4.362-13.35-9.989-.023-.057 0-.173.045-.173.016 0 .035.013.055.048 3.205 5.578 9.461 8.288 15.295 10.32 2.84.987 5.674 1.95 8.554 2.821 2.59.783 5.403 1.486 7.787 2.796z"/><path fill="#e26cbc" d="M12.534 81.707q-.027.001-.065-.05c-2.495-3.38-5.345-6.709-7.155-10.529-1.004-2.12-2.038-4.982-.648-7.166l.14.182c-.894 3.075.391 5.951 1.972 8.57 1.811 3.002 3.984 5.774 5.786 8.778.04.07.026.215-.03.215"/><path fill="#e77cc4" d="M33.446 89.273c-4.783-3.118-11.034-7.17-11.48-13.46-.006-.073.023-.106.058-.106.037 0 .08.038.095.106 1.282 6.147 7.006 9.402 11.357 13.269z"/><path fill="#e26cbc" d="M20.135 68.134c-4.065-3.41-7.52-7.592-10.496-11.967-1.97-2.892-4.275-6.396-3.824-10.065.008-.063.03-.087.057-.087.052 0 .119.088.126.16.328 3.975 2.497 7.21 4.692 10.404 2.825 4.11 6.092 7.776 9.478 11.422z"/><path fill="#e77cc4" d="M43.397 82.08q-.023 0-.059-.038c-5.081-5.515-9.57-11.575-14.137-17.508-2.32-3.016-6.019-7.596-4.248-11.676q.024-.051.05-.05c.074 0 .157.232.146.296-.905 5.055 3.252 9.267 6.052 12.991 3.983 5.304 8.092 10.493 12.204 15.695.052.065.063.29-.008.29"/><path fill="#e26cbc" d="M38.099 56.397c-3.803-4.884-6.968-10.246-10.639-15.23-2.103-2.85-4.779-6.505-3.76-10.266.019-.069.047-.095.077-.095.09 0 .206.22.198.32-.384 4.573 2.962 8.006 5.333 11.54 3.017 4.496 5.779 9.15 8.863 13.605z"/><path fill="#e77cc4" d="M56.856 75.479c-.036 0-.075-.027-.104-.095C54.032 69.24 52.01 62.18 47.548 57c-1.83-2.124-6.108-5.73-5.039-8.98.015-.043.035-.06.055-.06.061 0 .133.136.122.203-.313 2.245 1.919 4.5 3.27 6.044 1.286 1.465 2.556 2.877 3.604 4.532 3.248 5.124 5.453 10.82 7.373 16.549.035.107-.016.192-.077.192"/><path fill="#e26cbc" d="M55.01 47.52c-.021 0-.048-.02-.075-.069-2.156-3.973-4.216-8.014-6.75-11.77-1.399-2.076-3.407-4.635-2.644-7.314.014-.045.034-.062.057-.062.059 0 .13.114.13.175.106 3.422 2.491 5.935 4.178 8.738 1.928 3.204 3.801 6.574 5.17 10.057.034.083-.002.245-.066.245"/><path fill="#e77cc4" d="M68.88 60.81c-.049 0-.1-.04-.134-.14-1.272-3.53-2.893-6.888-4.293-10.363-.9-2.228-1.953-4.535-1.485-6.99.007-.037.022-.051.04-.051.046 0 .111.096.114.146.09 3.016 1.55 5.823 2.695 8.556 1.17 2.806 2.426 5.612 3.185 8.564.038.148-.037.278-.123.278"/><path fill="#3e477f" d="M96.118 98.45c-5.149-3.56-11.924-4.134-16.398.171-1.22-3.14-3.932-5.613-8.239-6.195-4.108-.555-8.764.458-12.81 2.36-1.489 1.069-3.225 1.76-4.718 2.834-.525.377-1.032.775-1.51 1.201-1.627 1.663-2.386 3.646-.634 5.898l.041.083c.328.416.678.805.986 1.143 1.84 2.019 4.256 3.584 6.684 4.912 4.04 2.207 9.041 3.798 13.658 2.948.922-.172 1.74-.549 2.474-1.037-.616 2.244 2.688 3.709 4.501 4.272 3.455 1.07 7.299 1.112 10.852.978 4.808-.18 11.192-.622 12.805-5.621 1.679-5.204-3.48-11.043-7.692-13.946"/><path fill="#efb3ba" d="M53.953 97.62c-.52.374-1.025.77-1.5 1.192a8 8 0 0 0-.566.64c.658-.673 1.4-1.314 2.2-1.924z"/><path fill="#5962b7" d="M74.243 112.956c-3.69 1.403-8.664-.383-12.104-1.9-3.737-1.649-7.801-4.273-9.977-7.649-2.064-3.204 2.652-5.484 4.704-7.25l.014-.018c.242-.135.496-.25.746-.372l.18-.055.04-.057c3.48-1.683 7.436-2.675 11.165-2.768 3.255-.079 6.416.899 8.625 3.26 2.274 2.432 2.526 5.929 2.102 8.905-.46 3.201-2.155 6.638-5.495 7.904"/><path fill="#5962b7" d="M91.355 117.301c-3.132.151-6.325.015-9.419-.617-1.838-.375-6.234-1.638-5.845-4.079l-.026-.122c1.55-1.187 2.663-2.938 3.375-4.617 1.254-2.968 1.38-6.264.354-9.058 4.76-3.701 10.604-3.09 15.69.272 4.058 2.684 7.855 7.316 7.814 12.064-.047 5.622-7.47 5.94-11.943 6.157"/><path fill="#29346a" d="M103.487 113.217a26 26 0 0 0-.468-.376 5.2 5.2 0 0 0 .278-1.697c.042-4.748-3.756-9.38-7.813-12.064-2.701-1.785-5.616-2.794-8.468-2.794-2.52 0-4.99.786-7.223 2.522.928 2.527.914 5.464-.025 8.199a13 13 0 0 0-.419-.158c.175-.597.303-1.201.388-1.797.424-2.976.172-6.473-2.101-8.905-2.127-2.273-5.136-3.264-8.261-3.264q-.183 0-.364.004c-3.73.093-7.686 1.085-11.166 2.768l-.04.057-.18.055c-.249.121-.504.237-.745.372l-.015.017c-2.052 1.767-6.768 4.047-4.704 7.251q.193.296.4.584-.516.16-1.026.346c-.51-.768-.73-1.502-.728-2.202.001-1.212.664-2.32 1.636-3.314l.009-.009a8 8 0 0 0-.565.639 20 20 0 0 1 2.2-1.923l-.134.092c1.494-1.075 3.23-1.765 4.718-2.833 3.301-1.552 7.008-2.512 10.49-2.512q1.183 0 2.32.15c4.307.583 7.019 3.055 8.239 6.197 2.18-2.098 4.905-3.038 7.724-3.038 2.965 0 6.033 1.041 8.675 2.867 3.652 2.517 8.017 7.242 8.017 11.848a6.8 6.8 0 0 1-.649 2.918"/><path fill="#987ba1" d="M51.887 99.451q.26-.326.565-.638.164-.147.335-.288.563-.474 1.166-.904l.134-.093c-.8.61-1.542 1.251-2.2 1.923"/><path fill="#3e4ba0" d="M63.655 109.06c.536-.82 1.113-1.85 1.115-2.785v-.048q.544-.008 1.024-.053c4.906-.467 9.35-4.604 7.942-9.474-.712-2.457-3.377-3.326-6.042-3.326-1.415 0-2.83.245-3.952.626-2.214.474-4.31 1.224-6.218 2.394-1.466.898-4.065 3.051-3.369 5.013.257.723.701 1.355 1.276 1.903-.963.157-1.924.388-2.87.681a14 14 0 0 1-.4-.584c-2.063-3.204 2.653-5.484 4.705-7.25l.014-.018c.242-.135.496-.25.746-.372l.18-.055.04-.057c3.48-1.683 7.436-2.675 11.165-2.768q.182-.004.364-.004c3.125 0 6.135.99 8.261 3.264 2.274 2.432 2.526 5.929 2.102 8.905-.086.596-.214 1.2-.388 1.798-.8-.279-1.674-.479-2.622-.586a17 17 0 0 0-1.917-.106c-3.713 0-7.687 1.125-11.156 2.902"/><path fill="#3e4ba0" d="M103.018 112.841a23 23 0 0 0-1.526-1.098c-2.596-1.71-5.576-2.677-8.455-2.677-2.919 0-5.732.993-7.937 3.21-.956-2.309-2.723-4.232-5.332-5.269.938-2.735.953-5.672.025-8.199 2.232-1.736 4.703-2.522 7.223-2.522 2.852 0 5.766 1.009 8.468 2.794 4.057 2.684 7.854 7.316 7.813 12.064a5.2 5.2 0 0 1-.279 1.697m-15.782-16.14c-2.2 0-4.184.783-4.912 2.883-1.18 3.406 2.644 6.104 5.664 7.24 1.293.488 2.64.788 3.89.788 2.196 0 4.084-.928 4.815-3.386.56-1.879-1.484-4.471-2.975-5.527-1.582-1.121-4.153-1.997-6.482-1.997"/><path fill="#293156" d="M101.492 111.743c-5.226-3.443-12.011-3.872-16.392.533-1.289-3.114-4.053-5.525-8.371-6.012-4.227-.478-9 .708-13.074 2.796.784-1.198 1.657-2.85.685-3.99-1.46-1.718-3.902-2.032-6.074-2.012-5.104.046-10.666 2.412-14.087 5.81-2.599 2.582-2.636 6.008.796 8.062 3.192 1.907 8.272 2.597 11.801 1.5l.084-.045c.449.675 1.04 1.294 1.527 1.805 1.882 1.977 4.332 3.488 6.788 4.762 4.088 2.118 9.124 3.598 13.72 2.644.918-.188 1.727-.585 2.45-1.088-.564 2.256 2.77 3.649 4.595 4.171 3.478.996 7.322.95 10.871.742 4.803-.288 11.176-.871 12.679-5.904 1.564-5.24-3.723-10.963-7.998-13.774"/><path fill="#5962b7" d="M43.767 110.139c2.328-3.573 7.748-5.487 11.99-6.201 1.83-.31 3.738-.307 5.557.17 1.099.291 2.119.894 2.663 1.855.536.949-.22 2.305-.752 3.317-2.523 1.35-4.755 3.052-6.378 4.919l.036.185c-.377.596-.633 1.244-.692 1.943-.05.558.124 1.11.412 1.636-4.793.878-17.129-1.234-12.836-7.824"/><path fill="#5962b7" d="M79.941 126.727c-3.66 1.482-8.672-.192-12.143-1.634-3.774-1.565-7.893-4.1-10.144-7.426-2.134-3.157 2.531-5.543 4.543-7.354l.015-.018c.237-.139.489-.258.736-.387l.18-.06.037-.057c3.443-1.759 7.376-2.838 11.103-3.012 3.252-.152 6.433.756 8.694 3.071 2.326 2.379 2.656 5.868 2.298 8.854-.39 3.209-2.008 6.683-5.319 8.023"/><path fill="#5962b7" d="M97.142 130.693c-3.125.222-6.321.155-9.428-.409-1.847-.333-6.27-1.5-5.935-3.95l-.029-.12c1.525-1.221 2.6-2.995 3.273-4.69 1.187-2.996 1.242-6.292.154-9.061 4.677-3.808 10.534-3.327 15.693-.076 4.116 2.593 8.013 7.141 8.077 11.89.078 5.622-7.337 6.101-11.805 6.416"/><path fill="#a4a6d5" d="M43.587 115.845q-.001-.003-.005-.005z"/><path fill="#1c2446" d="M93.155 131.542c-1.625 0-3.265-.09-4.861-.346q.153-.019.306-.041c.356-.048.692-.11 1.008-.208l.074.035c.336-.059.617-.167.853-.319 1.125.103 2.255.148 3.383.148 1.08 0 2.157-.042 3.225-.117 4.468-.316 11.883-.795 11.805-6.417-.064-4.749-3.961-9.297-8.077-11.89-2.653-1.672-5.49-2.611-8.259-2.611-2.613 0-5.162.838-7.434 2.687.562 1.433.82 3.008.772 4.609a6 6 0 0 0-.568-.182c.03-2.505-.552-5.13-2.419-7.04-2.1-2.151-4.996-3.087-8.003-3.087q-.344 0-.692.016c-3.726.175-7.66 1.253-11.102 3.012l-.038.057-.18.06c-.246.129-.498.249-.736.387l-.014.018c-1.54 1.386-4.634 3.108-5.044 5.256a13 13 0 0 0-.718-.299c.116-.308.268-.603.448-.886l-.036-.185c1.623-1.867 3.855-3.568 6.378-4.918.532-1.012 1.288-2.369.752-3.318-.474-.836-1.307-1.401-2.239-1.725-.796-.631-1.996-.962-3.139-1.175 2.084.016 4.354.376 5.74 2.007.308.361.431.773.43 1.205-.002.935-.579 1.965-1.115 2.785 3.47-1.777 7.443-2.902 11.156-2.902.648 0 1.29.034 1.917.106 4.32.487 7.083 2.898 8.372 6.012 2.206-2.217 5.02-3.209 7.938-3.209 2.878 0 5.858.966 8.454 2.676 3.75 2.465 8.276 7.169 8.278 11.824a6.8 6.8 0 0 1-.28 1.95c-1.503 5.033-7.876 5.616-12.679 5.904a63 63 0 0 1-3.656.121m-25.173-5.567a65 65 0 0 0-.795-1.141q.308.134.612.26.209.087.427.176-.151.35-.244.705m-23.09-9.097a6.5 6.5 0 0 1-1.304-1.033l-.005-.005c-1.584-1.655-1.635-3.778-.443-5.675a3 3 0 0 0 .176.773c-1.162 2.45.1 4.214 2.307 5.385q-.336.233-.659.495z"/><path fill="#3e4ba0" d="M45.623 116.323c-2.208-1.171-3.47-2.935-2.307-5.385.648 1.754 2.447 2.574 4.303 2.99a7 7 0 0 0 1.545.178c1.89 0 3.47-.844 4.739-2.264 1.283-1.438 2.417-2.606 4.179-3.585 1.102-.611 2.417-.763 3.498-1.375 1.1-.622 1.3-1.571.36-2.47a3 3 0 0 0-.201-.174c.932.324 1.765.889 2.239 1.725.536.949-.22 2.306-.752 3.318-2.523 1.35-4.755 3.051-6.378 4.918l.036.185c-.18.283-.332.578-.448.886a12.7 12.7 0 0 0-4.53-.848c-2.218 0-4.411.609-6.283 1.901"/><path fill="#3e4ba0" d="m68.224 125.27-.426-.176a41 41 0 0 1-.612-.26c-2.544-3.579-5.492-6.947-9.447-8.982q-.29-.15-.587-.284c.411-2.147 3.504-3.869 5.044-5.255l.015-.018c.237-.139.49-.258.736-.387l.18-.06.037-.057c3.443-1.759 7.376-2.837 11.103-3.012q.347-.016.692-.016c3.007 0 5.903.936 8.003 3.087 1.866 1.91 2.448 4.535 2.418 7.04a6.5 6.5 0 0 0-1.642-.201 8 8 0 0 0-.718.033c-1.873.172-3.76.836-5.508 1.492-2.006.754-3.954 1.711-5.708 2.948-1.242.874-2.862 2.432-3.58 4.108m5.004-17.979c-1.502 0-3.02.285-4.205.717-2.201.521-4.281 1.317-6.164 2.528-1.447.931-3.996 3.142-3.256 5.086 1.26 3.315 6.475 4.596 10.184 4.596.559 0 1.084-.029 1.556-.084 4.896-.576 9.247-4.81 7.732-9.646-.741-2.361-3.272-3.197-5.847-3.197M93.918 130.812c-1.128 0-2.258-.046-3.383-.149 2.013-1.285.633-5.622.039-7.29-.607-1.704-1.375-3.45-2.556-4.837a5.04 5.04 0 0 0-2.068-1.464c.048-1.601-.21-3.176-.772-4.609 2.272-1.849 4.821-2.687 7.434-2.687 2.768 0 5.606.939 8.259 2.612 4.116 2.592 8.013 7.14 8.077 11.889.078 5.623-7.337 6.101-11.805 6.417a46 46 0 0 1-3.225.118m-1.135-20.624c-2.283 0-4.353.811-5.056 2.992-1.105 3.43 2.776 6.044 5.82 7.115 1.243.438 2.532.704 3.73.704 2.273 0 4.222-.954 4.918-3.495.517-1.888-1.583-4.437-3.097-5.46-1.559-1.054-4.042-1.856-6.315-1.856"/><path fill="#293156" d="M90.573 123.373c-.606-1.705-1.374-3.45-2.556-4.837-1.277-1.499-3.086-1.986-4.996-1.814-1.873.172-3.76.836-5.508 1.492-2.006.754-3.954 1.711-5.708 2.948-1.416.996-3.32 2.878-3.824 4.813-2.726-3.992-5.868-7.873-10.24-10.123-4.076-2.096-9.158-1.98-12.777.966-1.721 1.401-2.821 3.384-3.576 5.439-.676 1.838-.983 3.999.161 5.71 1.35 2.021 4.56 2.609 6.774 2.935 3.104.458 6.321.49 9.453.47 3.2-.017 6.288-.457 9.456-.789.484-.05 1.937-.313 2.177-.911 2.02 1.474 5.286 1.544 7.572 1.7 2.691.183 5.38.288 8.074.139a45 45 0 0 0 3.545-.356c.356-.048.692-.11 1.008-.208l.073.035c3.2-.553 1.558-5.746.892-7.609"/><path fill="#5962b7" d="M66.96 130.079a57 57 0 0 1-5.387.59c-3.29.207-6.6.133-9.887-.038-2.913-.152-5.943-.447-8.5-1.969-2.679-1.593-2.14-4.717-1.118-7.166 2.172-5.208 7.498-7.4 12.842-5.973 5.099 1.359 9.059 5.848 12.064 9.941.304.411.596.831.89 1.25-.049.803.182 1.593.828 2.319l.337.334c.082.669-1.667.648-2.068.712M90.786 129.807c-.927.915-2.655.834-3.872.969-1.756.196-3.528.227-5.293.203a71 71 0 0 1-6.5-.389c-1.78-.191-3.651-.5-5.211-1.427-1.848-1.095-1.828-3.065-.807-4.767 1.148-1.913 3.263-3.207 5.184-4.221 1.924-1.019 3.992-1.783 6.088-2.362 2.034-.561 4.222-.937 6.116.22 1.772 1.082 2.683 3.299 3.427 5.132.57 1.401 1.87 4.827 1 6.575z"/><path fill="#3e4ba0" d="M57.344 130.795h-.006c-1.885 0-3.772-.067-5.651-.164-2.914-.152-5.943-.447-8.5-1.969-1.45-.862-1.958-2.172-1.956-3.582 0-1.194.369-2.461.838-3.585.108-.257.23-.502.35-.746-.394 1.166-.243 2.356.805 3.264 1.245 1.079 3.102 1.42 4.681 1.62 1.47.188 2.976.272 4.462.272l.378-.001c1.688-.02 3.562-.159 5.05-1.033 1.489-.874 1.473-2.585.963-4.053-.98-2.83-3.408-4.847-6.2-5.684a12.6 12.6 0 0 1 2.352.389c5.1 1.359 9.06 5.848 12.064 9.941.304.411.596.831.89 1.25a3 3 0 0 0-.007.197c-.001.734.242 1.455.836 2.122l.336.334a.3.3 0 0 1 .004.045c-.002.624-1.68.604-2.072.667a57 57 0 0 1-5.461.595 68 68 0 0 1-4.154.121z"/><path fill="#1c2446" d="M81.621 130.979a71 71 0 0 1-6.5-.389c-1.78-.191-3.65-.5-5.21-1.427-.516-.305-.887-.679-1.13-1.096.243.416.614.791 1.13 1.096 1.56.927 3.43 1.236 5.21 1.427 2.155.229 4.336.358 6.5.389m4.871-12.946c-.796-.486-1.643-.701-2.508-.746.865.044 1.713.26 2.508.746"/><path fill="#3e4ba0" d="M82.584 130.987h-.002q-.4-.001-.8-.005l-.161-.003a71 71 0 0 1-6.5-.389c-1.78-.191-3.65-.5-5.21-1.427-.517-.305-.887-.68-1.13-1.096l-.001-.001-.003-.006c-.544-.937-.447-2.093.073-3.187-.213.542-.269 1.082-.017 1.555.615 1.143 2.257 1.268 3.401 1.343q.63.043 1.268.043c1.127 0 2.263-.092 3.364-.231 3.398-.429 7.696-1.856 7.862-5.895.097-2.377-1.766-3.682-3.842-4.009.904-.229 1.831-.402 2.742-.402q.177 0 .356.01c.865.045 1.712.26 2.508.746 1.772 1.082 2.682 3.299 3.426 5.132.434 1.067 1.292 3.31 1.291 5.09 0 .557-.084 1.069-.29 1.485l-.133.067c-.926.915-2.654.834-3.872.969-1.434.16-2.88.21-4.324.211z"/><path fill="#747bc6" d="m55.465 100.018-.1-.032c-.314-1.615 2.656-3.368 3.768-3.926 2.273-1.138 5.054-2.017 7.622-2.045h.003c.319 0-.026.608-.203.663a63 63 0 0 0-6.142 2.258c-1.17.504-2.35 1.058-3.401 1.786-.554.382-.967.973-1.547 1.296M45.564 110.062c-.198 0-.167-.384-.07-.54 2.09-3.317 6.815-4.628 10.448-5.113l.03-.003c.252 0 .041.471-.139.519-2.085.552-4.13 1.242-6.04 2.258-1.495.794-2.66 1.977-4.085 2.829a.3.3 0 0 1-.144.05M44.592 121.41c-.273 0-.421-.261-.42-.545.01-1.065.784-2.057 1.524-2.754.541-.508 1.233-1.16 2.02-1.16l.068.001c.21.009.056.353-.005.426-.687.841-1.894 1.764-2.1 2.826-.094.472-.456 1.044-.946 1.184a.5.5 0 0 1-.141.022M61.402 113.901c-.219 0-.167-.434-.075-.605 1.48-2.719 5.754-5.306 9.275-5.306.739 0 1.445.114 2.087.365.145.057-.058.319-.136.346-2.198.762-4.472 1.112-6.559 2.212-1.59.838-2.904 2.02-4.427 2.93a.34.34 0 0 1-.165.058M70.862 124.647c-.187 0-.333-.119-.33-.438.014-2.242 3.71-3.783 5.58-3.783h.009c.218 0 .005.406-.096.453-.931.414-1.828.932-2.658 1.521-.79.561-1.285 1.152-1.868 1.892-.153.195-.421.355-.637.355M88.989 114.828a.5.5 0 0 1-.264-.072c-.408-.236-.28-.894-.14-1.238.44-1.065 1.28-1.846 2.356-2.238.364-.134.885-.298 1.36-.298.308 0 .597.069.813.26.207.181-.052.531-.24.612-1.192.508-2.248 1.03-2.799 2.107-.165.326-.638.867-1.086.867M83.985 101.66a.47.47 0 0 1-.48-.393c-.168-.896.398-2.03 1.009-2.676.2-.21.648-.73 1.025-.73.103 0 .199.036.284.129l-.004.352c-.105.272-.255.565-.317.789-.132.466-.137.952-.327 1.402-.19.452-.53.961-1.03 1.105a.7.7 0 0 1-.16.022"/></svg>