<svg width="96" height="55" viewBox="0 0 96 55" fill="none" xmlns="http://www.w3.org/2000/svg">
<path d="M76.9004 8.58171C69.7432 3.63691 60.329 2.83424 54.1113 8.82024C52.4145 4.45464 48.6473 1.01971 42.6604 0.210378C36.9525 -0.561622 30.4801 0.84504 24.8572 3.49051C22.789 4.97544 20.3785 5.93638 18.3009 7.42851C17.5713 7.95038 16.8666 8.50504 16.2036 9.09624C13.9394 11.4088 12.8853 14.1624 15.3228 17.2941L15.3796 17.4088C15.8348 17.9869 16.3213 18.5285 16.7489 18.9998C19.3052 21.8061 22.6624 23.9785 26.0374 25.8238C31.653 28.8916 38.6036 31.1009 45.0176 29.9197C46.3 29.6837 47.4337 29.1572 48.4572 28.4796C47.6025 31.5984 52.1926 33.6342 54.7118 34.417C59.514 35.905 64.8552 35.9598 69.7952 35.777C76.4765 35.5249 85.35 34.9129 87.5905 27.965C89.9244 20.7317 82.7541 12.617 76.9004 8.58171Z" fill="#65337C"/>
<path d="M18.3011 7.42839C17.5767 7.94879 16.8761 8.49719 16.2157 9.08466C15.9329 9.37319 15.6683 9.67066 15.4277 9.97119C16.3444 9.04039 17.3735 8.14559 18.4881 7.30346L18.3011 7.42839Z" fill="#D7E19E"/>
<path d="M46.4971 28.7439C41.3684 30.6918 34.4559 28.2079 29.6763 26.1011C24.482 23.8105 18.8351 20.1609 15.8111 15.4704C12.9408 11.0183 19.4949 7.84801 22.3471 5.39335L22.3663 5.36881C22.7033 5.18388 23.0564 5.02349 23.4017 4.85429L23.6539 4.77509L23.7085 4.69948C28.5455 2.35948 34.0429 0.977218 39.2272 0.851884C43.7492 0.739884 48.1419 2.10055 51.2121 5.38135C54.3711 8.76149 54.7241 13.6209 54.134 17.7568C53.4939 22.2063 51.1392 26.9824 46.4971 28.7439Z" fill="#8C43A7"/>
<path d="M70.2788 34.7811C65.9298 34.9904 61.4913 34.8008 57.1918 33.9222C54.6377 33.3998 48.5278 31.6462 49.0674 28.2514L49.0293 28.0836C51.1866 26.4342 52.7336 24.0024 53.7216 21.6675C55.4626 17.5404 55.6393 12.9634 54.2126 9.08164C60.8278 3.93631 68.9502 4.78364 76.02 9.45658C81.658 13.1863 86.9341 19.6248 86.8778 26.2238C86.8121 34.0368 76.497 34.4784 70.2788 34.7811Z" fill="#8C43A7"/>
<path d="M87.1388 29.1035C86.9225 28.9264 86.7055 28.7514 86.4888 28.5822C86.7335 27.8822 86.8695 27.0998 86.8768 26.2238C86.9331 19.6248 81.6569 13.1863 76.0189 9.45658C72.2653 6.97592 68.2153 5.57271 64.2512 5.57271C60.7497 5.57271 57.3143 6.66805 54.2116 9.08165C55.5012 12.592 55.4804 16.6712 54.1773 20.4716C53.9867 20.3956 53.7924 20.3238 53.5949 20.2546C53.8372 19.4248 54.0159 18.5853 54.1345 17.7566C54.7247 13.6207 54.3716 8.76125 51.2127 5.38112C48.2585 2.22379 44.0799 0.844989 39.7397 0.844989C39.5695 0.844989 39.3987 0.847654 39.2277 0.851654C34.0435 0.976987 28.546 2.35925 23.7091 4.69925L23.6544 4.77485L23.4023 4.85405C23.0569 5.02325 22.7039 5.18365 22.3668 5.36858L22.3476 5.39312C19.4955 7.84778 12.9413 11.0181 15.8116 15.4702C15.9888 15.744 16.1741 16.015 16.3684 16.2822C15.8892 16.4311 15.4127 16.5921 14.9408 16.7639C14.2331 15.6967 13.9268 14.6754 13.9277 13.7019C13.9293 12.018 14.8501 10.4785 16.2033 9.09618C16.2055 9.09405 16.2085 9.09151 16.2111 9.08938C15.9293 9.37698 15.6664 9.67218 15.4273 9.97125C16.344 9.04045 17.3731 8.14565 18.4877 7.30352L18.3007 7.42845C20.3783 5.93632 22.7888 4.97538 24.8569 3.49045C29.4424 1.33298 34.5919 -0.0003482 39.432 -0.0003482C40.5268 -0.0003482 41.6069 0.0676541 42.6601 0.210321C48.6471 1.01965 52.4143 4.45458 54.1111 8.82018C57.1403 5.90405 60.9273 4.59925 64.8429 4.59925C68.9648 4.59925 73.2299 6.04565 76.9001 8.58165C81.9763 12.0811 88.0429 18.6483 88.0429 25.0478C88.0429 26.0274 87.9001 27.0035 87.5903 27.965C87.4611 28.365 87.3101 28.7436 87.1388 29.1035ZM16.8335 8.55498C17.3075 8.16285 17.7981 7.78792 18.3007 7.42845C17.7987 7.78939 17.3075 8.16338 16.8335 8.55498Z" fill="#502163"/>
<path d="M15.4277 9.97119C15.6668 9.67212 15.9297 9.37692 16.2115 9.08932C16.4152 8.90759 16.6229 8.72946 16.8339 8.55492C17.3079 8.16332 17.7991 7.78933 18.3011 7.42839L18.4881 7.30346C17.3735 8.14559 16.3444 9.04039 15.4277 9.97119Z" fill="#AA8287"/>
<path d="M31.7825 23.3306C32.5268 22.1888 33.3293 20.7571 33.3315 19.4571C33.3315 19.4342 33.3315 19.4128 33.3309 19.3904C33.8329 19.3836 34.3111 19.3582 34.7553 19.3155C41.5736 18.665 47.7512 12.9175 45.7935 6.15083C44.8039 2.7347 41.1012 1.52764 37.3971 1.52764C35.4304 1.52764 33.4637 1.8675 31.9012 2.3983C28.8288 3.05603 25.9127 4.09777 23.2601 5.72217C21.2247 6.97377 17.6127 9.9659 18.5788 12.6899C18.9361 13.6951 19.5533 14.5738 20.3539 15.3342C19.0168 15.5546 17.6804 15.8738 16.3679 16.2822C16.1736 16.015 15.9883 15.744 15.8111 15.4702C12.9408 11.018 19.4949 7.84776 22.3471 5.3931L22.3663 5.36856C22.7033 5.18363 23.0564 5.02324 23.4017 4.85404L23.6539 4.77484L23.7085 4.69923C28.5455 2.35923 34.0429 0.976968 39.2272 0.851635C39.3981 0.847635 39.5689 0.84497 39.7392 0.84497C44.0793 0.84497 48.258 2.22377 51.2121 5.3811C54.3711 8.76124 54.7241 13.6207 54.134 17.7566C54.0153 18.5852 53.8367 19.4248 53.5944 20.2546C52.484 19.8664 51.27 19.5888 49.9517 19.4394C49.0799 19.341 48.1903 19.294 47.2903 19.294C42.1277 19.294 36.6039 20.8555 31.7825 23.3306Z" fill="#762E99"/>
<path d="M86.4892 28.582C85.7745 28.0236 85.0615 27.5116 84.3677 27.0554C80.7605 24.6783 76.6183 23.334 72.6183 23.334C68.5625 23.334 64.6532 24.7143 61.5887 27.7971C60.2589 24.5887 57.8043 21.9154 54.1777 20.4715C55.4808 16.6711 55.5016 12.5919 54.212 9.0815C57.3147 6.6679 60.7501 5.57256 64.2516 5.57256C68.2157 5.57256 72.2657 6.97576 76.0193 9.45643C81.6573 13.1862 86.9335 19.6247 86.8772 26.2236C86.8699 27.0996 86.7339 27.882 86.4892 28.582ZM64.5584 6.15069C61.4996 6.15069 58.7407 7.23923 57.7287 10.157C56.0907 14.8919 61.4032 18.6403 65.6005 20.2195C67.3991 20.8982 69.2735 21.3154 71.0095 21.3154C74.0615 21.3154 76.6844 20.0263 77.7001 16.6091C78.4781 13.9971 75.6376 10.3939 73.5647 8.92577C71.3668 7.36843 67.7948 6.15069 64.5584 6.15069Z" fill="#762E99"/>
<path d="M84.3678 27.0556C77.1038 22.2676 67.6756 21.6744 61.5887 27.7973C59.7954 23.4702 55.9548 20.1156 49.9527 19.4394C44.0772 18.777 37.4448 20.4249 31.7835 23.3306C32.872 21.6598 34.0855 19.3692 32.736 17.7812C30.7074 15.3921 27.3095 14.9566 24.2934 14.9858C17.2002 15.0504 9.47256 18.3369 4.71723 23.0582C1.10589 26.6478 1.0543 31.4077 5.82403 34.265C10.2595 36.9156 17.3188 37.8728 22.2226 36.3478L22.3407 36.2848C22.9658 37.2238 23.786 38.0848 24.4615 38.7957C27.0772 41.5426 30.483 43.6426 33.897 45.4129C39.5782 48.3556 46.5767 50.4145 52.9626 49.0905C54.2392 48.8265 55.3615 48.276 56.3694 47.577C55.583 50.7118 60.2178 52.6452 62.7543 53.3717C67.5876 54.7546 72.9292 54.6932 77.8631 54.4025C84.5376 54.0009 93.3944 53.1916 95.4824 46.1973C97.6563 38.9156 90.309 30.9624 84.3678 27.0556Z" fill="#452352"/>
<path d="M4.14415 24.8276C7.38122 19.8625 14.9119 17.2016 20.8067 16.21C23.3504 15.7787 26.0036 15.7803 28.5302 16.4453C30.0583 16.85 31.4755 17.6885 32.2318 19.0224C32.978 20.3439 31.926 22.2267 31.1859 23.6344C27.6786 25.5095 24.5796 27.8729 22.3223 30.4693C22.1947 30.6131 22.2583 30.7319 22.3734 30.7224C21.8479 31.5557 21.4932 32.4548 21.4104 33.4251C21.3422 34.2011 21.5843 34.9677 21.9843 35.7C15.3223 36.9199 -1.82144 33.9849 4.14415 24.8276Z" fill="#8C43A7"/>
<path d="M54.416 47.8795C49.3332 49.9393 42.368 47.6128 37.5415 45.6092C32.2967 43.4331 26.5728 39.9117 23.4456 35.2888C20.479 30.8997 26.9623 27.5847 29.7598 25.0691L29.778 25.0409C30.1098 24.8503 30.4592 24.6836 30.8014 24.5049L31.0524 24.4221L31.1051 24.3436C35.889 21.8972 41.3551 20.3983 46.5332 20.1545C51.0535 19.9436 55.477 21.206 58.6171 24.4237C61.8483 27.7316 62.3087 32.5811 61.8092 36.7305C61.268 41.1915 59.0196 46.018 54.416 47.8795Z" fill="#8C43A7"/>
<path d="M78.3227 53.3931C73.979 53.6998 69.5368 53.606 65.2191 52.8222C62.6535 52.3582 56.5082 50.7383 56.9727 47.3342L56.9316 47.1664C59.0514 45.4702 60.5446 43.0035 61.479 40.6478C63.129 36.4847 63.2055 31.905 61.6946 28.053C68.1935 22.7639 76.3331 23.4331 83.5055 27.9503C89.2238 31.553 94.6394 37.8743 94.73 44.4743C94.8363 52.2863 84.5316 52.9546 78.3227 53.3931Z" fill="#8C43A7"/>
<path d="M5.70479 34.1934C4.96519 33.7386 4.34586 33.236 3.84119 32.7C4.34586 33.236 4.96573 33.7386 5.70479 34.1934Z" fill="#C790CE"/>
<path d="M72.7936 54.5718C70.5305 54.5718 68.2472 54.4463 66.0243 54.0906C66.1664 54.0718 66.3082 54.0531 66.4498 54.0332C66.9446 53.9692 67.4123 53.8812 67.8503 53.7438L67.953 53.7932C68.4202 53.7119 68.8134 53.5608 69.1415 53.3504C70.7076 53.4916 72.2811 53.5556 73.8519 53.5556C75.3478 53.5556 76.8415 53.4974 78.3232 53.3932C84.5321 52.9547 94.8368 52.2864 94.7306 44.4744C94.6399 37.8744 89.2243 31.5531 83.506 27.9504C79.8164 25.6266 75.8712 24.3214 72.0248 24.3214C68.394 24.3214 64.8508 25.4849 61.6951 28.0531C62.477 30.0463 62.8336 32.237 62.7675 34.4608C62.5098 34.364 62.2462 34.2797 61.9779 34.2094C62.018 30.7266 61.2098 27.0786 58.616 24.4239C55.6983 21.4343 51.6722 20.1332 47.4894 20.1332C47.1712 20.1332 46.8514 20.1395 46.5322 20.1547C41.354 20.3984 35.8879 21.8974 31.104 24.3438L31.0514 24.4223L30.8003 24.5051C30.4582 24.6838 30.1087 24.8504 29.777 25.0411L29.7587 25.0692C27.6175 26.9942 23.318 29.388 22.7478 32.3728C22.4186 32.2239 22.0863 32.0848 21.7503 31.9572C21.9118 31.5307 22.1232 31.1182 22.3732 30.7223C22.3691 30.7223 22.365 30.7239 22.3607 30.7239C22.2535 30.7239 22.1994 30.6078 22.3222 30.4692C24.5795 27.8728 27.6784 25.5094 31.1858 23.6343C31.9259 22.2266 32.9779 20.3438 32.2316 19.0223C31.5743 17.863 30.417 17.0775 29.1218 16.6261C28.018 15.7479 26.3478 15.289 24.7587 14.9922C27.656 15.0156 30.8087 15.5146 32.7352 17.7813C33.1623 18.2833 33.3327 18.8556 33.3316 19.4572C33.3295 20.7572 32.527 22.189 31.7827 23.3307C36.604 20.8556 42.1279 19.2942 47.2904 19.2942C48.1904 19.2942 49.08 19.3411 49.9519 19.4395C55.954 20.1156 59.7946 23.4703 61.5879 27.7974C64.6524 24.7146 68.5618 23.3343 72.6175 23.3343C76.6175 23.3343 80.7597 24.6786 84.3669 27.0556C89.5769 30.4812 95.8691 37.0198 95.8717 43.4865C95.8721 44.3942 95.7488 45.301 95.4816 46.1974C93.3936 53.1916 84.5368 54.001 77.8623 54.4026C76.2071 54.4999 74.506 54.5718 72.7936 54.5718ZM37.7962 46.8343C37.4331 46.3036 37.065 45.7728 36.6904 45.2463C36.9748 45.3718 37.2587 45.4917 37.5404 45.6094C37.7352 45.6906 37.9331 45.7718 38.1347 45.8531C37.9962 46.1771 37.8816 46.5051 37.7962 46.8343ZM5.70456 34.1932C4.96549 33.7384 4.34563 33.2359 3.84096 32.6999C3.83989 32.6984 3.83842 32.6974 3.83736 32.6958C3.83416 32.6916 3.83109 32.689 3.82789 32.6848C1.68576 30.3942 1.63269 27.4728 3.27429 24.8624C3.29616 25.1214 3.34203 25.3761 3.41803 25.6427C3.44883 25.7427 3.48216 25.8411 3.51749 25.9384C1.90136 29.3427 3.65403 31.7942 6.72323 33.4214C6.41123 33.637 6.10549 33.8666 5.80656 34.1094C5.77269 34.137 5.73843 34.1651 5.70456 34.1932Z" fill="#361841"/>
<path d="M6.72349 33.4214C3.65429 31.7942 1.90163 29.3427 3.51776 25.9385C4.41723 28.3729 6.91989 29.513 9.49696 30.0906C10.2439 30.2573 10.9606 30.3385 11.648 30.3385C14.272 30.337 16.4667 29.1651 18.2303 27.1942C20.0115 25.1933 21.5891 23.5718 24.0366 22.2119C25.5683 21.3641 27.3964 21.1515 28.8996 20.301C30.4276 19.4359 30.7074 18.1161 29.3991 16.8671C29.3115 16.7833 29.2188 16.7031 29.122 16.6261C30.4172 17.0775 31.5746 17.863 32.2319 19.0223C32.9782 20.3438 31.9262 22.2266 31.186 23.6343C27.6787 25.5094 24.5798 27.8729 22.3224 30.4693C22.1996 30.6078 22.2538 30.7239 22.361 30.7239C22.3652 30.7239 22.3694 30.7223 22.3735 30.7223C22.1235 31.1182 21.912 31.5307 21.7506 31.9573C19.7287 31.1838 17.585 30.7797 15.4563 30.7797C12.3751 30.7797 9.32509 31.6266 6.72349 33.4214Z" fill="#762E99"/>
<path d="M38.135 45.853C37.9334 45.7717 37.7355 45.6905 37.5407 45.6093C37.259 45.4916 36.9751 45.3717 36.6907 45.2462C33.1543 40.2744 29.059 35.5941 23.5631 32.7665C23.2943 32.629 23.0224 32.4973 22.748 32.3728C23.3183 29.388 27.6178 26.9941 29.759 25.0692L29.7772 25.041C30.109 24.8504 30.4584 24.6837 30.8006 24.505L31.0516 24.4222L31.1043 24.3437C35.8882 21.8973 41.3543 20.3984 46.5324 20.1546C46.8516 20.1394 47.1715 20.1332 47.4896 20.1332C51.6724 20.1332 55.6986 21.4342 58.6163 24.4238C61.21 27.0785 62.0183 30.7265 61.9782 34.2093C61.25 34.0197 60.4866 33.9306 59.7032 33.9306C59.3704 33.9306 59.035 33.9462 58.6964 33.9785C56.0948 34.2145 53.472 35.1369 51.0434 36.0504C48.2558 37.0957 45.5475 38.4249 43.109 40.1452C41.383 41.3624 39.1314 43.5222 38.135 45.853ZM45.0902 20.8676C43.0016 20.8676 40.8918 21.264 39.2443 21.8665C36.1876 22.5905 33.2934 23.6973 30.6787 25.3785C28.6699 26.6728 25.1256 29.7452 26.1527 32.4462C27.9038 37.0546 35.1496 38.8332 40.3048 38.8332C41.0824 38.8332 41.8131 38.7916 42.4694 38.7145C49.272 37.9156 55.321 32.0306 53.2152 25.3104C52.1866 22.0306 48.6688 20.8676 45.0902 20.8676Z" fill="#762E99"/>
<path d="M73.8521 53.5557C72.2813 53.5557 70.7078 53.4917 69.1417 53.3505C71.9344 51.5599 70.0193 45.5359 69.1938 43.2182C68.3485 40.8505 67.2824 38.4239 65.6412 36.4974C64.8214 35.5343 63.8438 34.8718 62.7677 34.4609C62.8338 32.237 62.4772 30.0463 61.6953 28.0531C64.851 25.4849 68.3942 24.3214 72.025 24.3214C75.8714 24.3214 79.8166 25.6266 83.5062 27.9505C89.2245 31.5531 94.6401 37.8745 94.7308 44.4745C94.8371 52.2865 84.5324 52.9547 78.3234 53.3933C76.8417 53.4974 75.348 53.5557 73.8521 53.5557ZM72.2641 24.8942C69.0901 24.8942 66.2125 26.0214 65.236 29.0515C63.7011 33.8198 69.0948 37.4531 73.3272 38.9411C75.0537 39.549 76.8442 39.9182 78.5109 39.9182C81.6682 39.9182 84.3772 38.5933 85.3442 35.0641C86.063 32.4359 83.1442 28.8974 81.039 27.4745C78.8734 26.0094 75.422 24.8942 72.2641 24.8942Z" fill="#762E99"/>
<path d="M69.1935 43.2182C68.3482 40.8504 67.282 38.4239 65.6408 36.4974C63.8659 34.413 61.3512 33.7359 58.696 33.9786C56.0944 34.2146 53.4716 35.137 51.043 36.0504C48.2554 37.0958 45.5471 38.425 43.1086 40.1452C41.1419 41.5332 38.4935 44.1437 37.796 46.8343C34.0059 41.2864 29.6408 35.8941 23.5627 32.7665C17.9012 29.8531 10.8362 30.0156 5.80642 34.1094C3.41376 36.0572 1.88616 38.8119 0.837222 41.6665C-0.101311 44.2197 -0.527444 47.2223 1.06109 49.6009C2.93616 52.4129 7.39962 53.2291 10.4752 53.6812C14.7892 54.3171 19.2606 54.364 23.6127 54.337C28.0602 54.3119 32.3518 53.6999 36.7539 53.2384C37.4268 53.1665 39.4466 52.8036 39.7799 51.9728C42.5867 54.0197 47.1252 54.1181 50.3028 54.3343C54.0414 54.5905 57.7799 54.737 61.5241 54.5275C63.1673 54.4359 64.819 54.2547 66.4496 54.0332C66.9444 53.9692 67.4122 53.8812 67.8502 53.7438L67.9528 53.7932C72.3996 53.0275 70.1159 45.8094 69.1935 43.2182Z" fill="#452352"/>
<path d="M36.3785 52.5382C33.8967 52.9357 31.3999 53.1982 28.8915 53.357C24.3191 53.6477 19.7213 53.5393 15.1494 53.3034C11.1014 53.093 6.89154 52.6846 3.33848 50.5674C-0.383924 48.3513 0.365008 44.0128 1.78367 40.6092C4.80301 33.3716 12.2046 30.3248 19.6311 32.3076C26.7175 34.1982 32.2207 40.4357 36.3999 46.1248C36.8207 46.6972 37.2259 47.2794 37.6327 47.8622C37.5661 48.9758 37.8863 50.0742 38.7853 51.0836C38.9317 51.2461 39.0905 51.3997 39.2546 51.5461C39.3691 52.4794 36.9374 52.4488 36.3785 52.5382Z" fill="#8C43A7"/>
<path d="M69.4885 52.16C68.2035 53.4319 65.8003 53.3183 64.1071 53.5079C61.6675 53.7787 59.2051 53.824 56.7535 53.7882C53.7457 53.748 50.7129 53.5667 47.7191 53.2454C45.2451 52.9824 42.6437 52.5506 40.477 51.2667C37.9082 49.7428 37.9369 47.0052 39.3561 44.6428C40.9509 41.9824 43.8899 40.185 46.5587 38.7719C49.2347 37.3584 52.1077 36.2975 55.0218 35.4934C57.8457 34.712 60.8863 34.1866 63.5233 35.7975C65.9831 37.3038 67.2503 40.3824 68.2847 42.9308C69.0733 44.8762 70.8806 49.6428 69.6727 52.0667L69.4885 52.16Z" fill="#8C43A7"/>
<path d="M19.455 32.2608C19.4518 32.2608 19.4498 32.2599 19.4471 32.2599C19.4498 32.2599 19.4523 32.2608 19.455 32.2608Z" fill="#361841"/>
<path d="M23.0278 53.5317C23.0263 53.5317 23.0247 53.5317 23.0231 53.5317C20.6299 53.5317 18.2356 53.4547 15.8476 53.3384C15.8226 53.3369 15.7982 53.3359 15.7731 53.3343C15.769 53.3343 15.7648 53.3343 15.7611 53.3343C15.557 53.3239 15.3534 53.3145 15.1492 53.3036C11.1012 53.0932 6.89137 52.6848 3.3383 50.5676C1.32417 49.3692 0.618965 47.5489 0.621099 45.5916C0.622165 43.9307 1.13257 42.1717 1.7835 40.6093C1.93403 40.2504 2.10283 39.9104 2.27217 39.5717C1.72217 41.1916 1.9331 42.8463 3.38923 44.1093C5.11897 45.6077 7.70123 46.0796 9.89497 46.3599C11.9294 46.6181 14.0127 46.7384 16.0668 46.7384C16.2523 46.7384 16.4372 46.7369 16.6216 46.7359C18.9695 46.7093 21.5711 46.5145 23.6398 45.3009C25.7096 44.0864 25.6867 41.7077 24.9799 39.6651C23.6164 35.7343 20.2408 32.9307 16.3607 31.7676C17.381 31.8411 18.4132 31.9957 19.4471 32.2599C19.4498 32.2599 19.4518 32.2608 19.455 32.2608C19.4559 32.2608 19.4564 32.2608 19.4575 32.2624C19.5154 32.2771 19.5731 32.2916 19.631 32.3077C26.7174 34.1984 32.2206 40.4359 36.3998 46.1249C36.8206 46.6973 37.2258 47.2796 37.6326 47.8624C37.6268 47.9572 37.6242 48.0531 37.6242 48.1489C37.6252 49.164 37.9632 50.1608 38.7851 51.0837C38.9315 51.2463 39.0903 51.3999 39.2544 51.5463C39.257 51.5692 39.2586 51.5905 39.2586 51.6104C39.2559 52.4785 36.9242 52.4515 36.3783 52.5384C33.8966 52.9359 31.3998 53.1984 28.8914 53.3572C28.8502 53.3599 28.8091 53.3624 28.7679 53.3651C26.8591 53.4823 24.9455 53.5317 23.0315 53.5317C23.0299 53.5317 23.0288 53.5317 23.0278 53.5317Z" fill="#762E99"/>
<path d="M39.2405 50.2213C39.239 50.2197 39.2379 50.2181 39.2363 50.2155C39.2379 50.2181 39.2395 50.2197 39.2405 50.2213ZM55.7353 35.3035C55.7342 35.3035 55.7333 35.3035 55.7317 35.3035C56.9869 34.9847 58.2738 34.7462 59.5399 34.7462C60.0707 34.7462 60.5973 34.7879 61.1171 34.8837C60.5978 34.7879 60.0718 34.7462 59.5415 34.7462C58.2759 34.7462 56.9895 34.9847 55.7353 35.3035Z" fill="#361841"/>
<path d="M58.1546 53.7983C58.154 53.7983 58.1535 53.7983 58.1524 53.7983C57.6863 53.7983 57.2202 53.7941 56.7546 53.7879C53.7467 53.7478 50.7139 53.5665 47.7202 53.2451C45.2462 52.9822 42.6447 52.5503 40.478 51.2665C39.9666 50.9639 39.5582 50.6118 39.2436 50.2249C39.2426 50.2238 39.2415 50.2222 39.2404 50.2213C39.2395 50.2197 39.2379 50.2181 39.2363 50.2155C38.1238 48.8394 38.1899 47.0155 39.0051 45.3035C38.7076 46.0555 38.6295 46.8077 38.9811 47.465C39.8352 49.053 42.1186 49.2238 43.7076 49.3317C44.2931 49.3717 44.8842 49.3905 45.478 49.3905C47.0399 49.3905 48.618 49.2639 50.1462 49.0691C54.866 48.4727 60.8404 46.4905 61.0702 40.8759C61.204 37.5759 58.6191 35.7607 55.7352 35.3035C56.9895 34.9847 58.2759 34.7462 59.5415 34.7462C60.0718 34.7462 60.5978 34.7879 61.1171 34.8837C61.9338 35.0342 62.7316 35.3181 63.4962 35.7795C63.5056 35.7847 63.515 35.7915 63.5243 35.7973C65.9842 37.3035 67.2514 40.3822 68.2858 42.9306C68.8863 44.4129 70.078 47.5306 70.078 50.0035C70.078 50.7785 69.9618 51.4889 69.6738 52.0665L69.4895 52.1598C68.2046 53.4317 65.8014 53.3181 64.1082 53.5077C64.0598 53.5129 64.0118 53.5181 63.9634 53.5238C63.8478 53.5358 63.7322 53.5478 63.616 53.5598C61.8046 53.7383 59.9816 53.7983 58.1614 53.7983C58.1592 53.7983 58.1566 53.7983 58.1546 53.7983Z" fill="#762E99"/>
<path d="M20.4024 10.7593L20.2602 10.7159C19.8269 8.47128 23.9529 6.03474 25.4988 5.26034C28.6576 3.67794 32.5228 2.45661 36.0914 2.41914C36.093 2.41914 36.0936 2.41914 36.0946 2.41914C36.5404 2.41914 36.0576 3.26288 35.8138 3.33994C32.8769 4.25768 30.1138 5.26034 27.2769 6.47741C25.6493 7.17794 24.0128 7.94888 22.5518 8.95821C21.781 9.49208 21.2061 10.3113 20.4024 10.7593Z" fill="#A15AB3"/>
<path d="M6.63957 24.7173C6.36517 24.7173 6.40836 24.184 6.54476 23.9705C9.44636 19.3558 16.013 17.5377 21.0636 16.8637C21.0792 16.861 21.0942 16.8601 21.1078 16.8601C21.4537 16.8601 21.1605 17.5116 20.9125 17.5768C18.012 18.3449 15.1734 19.3064 12.5172 20.7173C10.4406 21.8216 8.8209 23.4678 6.8401 24.6481C6.75997 24.696 6.69383 24.7173 6.63957 24.7173Z" fill="#A15AB3"/>
<path d="M5.29077 40.4902C4.9101 40.4902 4.70543 40.1288 4.70903 39.7329C4.72303 38.2512 5.7981 36.8741 6.8257 35.9058C7.5793 35.1981 8.54076 34.2902 9.6377 34.2902C9.66783 34.2902 9.6981 34.2913 9.72823 34.2929C10.0184 34.309 9.80436 34.7834 9.7205 34.8886C8.76583 36.0569 7.08823 37.3392 6.80063 38.8126C6.67156 39.4714 6.16636 40.2662 5.48823 40.4605C5.41783 40.4809 5.35223 40.4902 5.29077 40.4902Z" fill="#A15AB3"/>
<path d="M28.6508 30.0547C28.3472 30.0547 28.4201 29.4515 28.5488 29.2146C30.6056 25.4332 36.5436 21.8384 41.4368 21.8384C42.4644 21.8384 43.4466 21.9974 44.3368 22.3463C44.5398 22.4266 44.257 22.789 44.1488 22.8275C41.0945 23.8864 37.9316 24.3728 35.0336 25.901C32.8237 27.0676 30.9977 28.7104 28.8795 29.976C28.7868 30.0307 28.7112 30.0547 28.6508 30.0547Z" fill="#A15AB3"/>
<path d="M41.8004 44.9888C41.5409 44.9888 41.3368 44.8221 41.3399 44.3758C41.3603 41.2649 46.4988 39.1221 49.0972 39.1221C49.1008 39.1221 49.1051 39.1221 49.1087 39.1221C49.4108 39.1237 49.1165 39.6888 48.9732 39.7529C47.68 40.3264 46.4341 41.0477 45.2811 41.8674C44.1816 42.6477 43.4931 43.4674 42.6863 44.4972C42.4743 44.7664 42.1004 44.9888 41.8004 44.9888Z" fill="#A15AB3"/>
<path d="M66.99 31.3428C66.865 31.3428 66.7416 31.312 66.6233 31.2438C66.0566 30.9157 66.2328 30.001 66.4306 29.5198C67.0405 28.0412 68.2066 26.9573 69.703 26.4105C70.2093 26.225 70.9317 25.9985 71.5926 25.9985C72.0213 25.9985 72.4238 26.0942 72.7244 26.36C73.0113 26.613 72.6509 27.0958 72.39 27.2094C70.7322 27.9172 69.2661 28.6412 68.5009 30.1396C68.2708 30.5906 67.6124 31.3428 66.99 31.3428Z" fill="#A15AB3"/>
<path d="M60.0364 13.0439C59.7171 13.0439 59.4359 12.8449 59.3692 12.4934C59.1375 11.2511 59.9244 9.67461 60.7733 8.77874C61.0509 8.48448 61.6728 7.76314 62.1973 7.76314C62.3389 7.76314 62.4739 7.81581 62.5927 7.94434C62.7004 8.06008 62.6337 8.30901 62.5859 8.43341C62.44 8.81154 62.2332 9.21528 62.1457 9.52874C61.9613 10.1782 61.9551 10.8501 61.6911 11.4809C61.4296 12.1053 60.9556 12.8142 60.2603 13.0121C60.1848 13.0334 60.1093 13.0439 60.0364 13.0439Z" fill="#A15AB3"/>
</svg>
