<svg width="125" height="169" viewBox="0 0 125 169" fill="none" xmlns="http://www.w3.org/2000/svg">
<path d="M0 148.062C0 148.06 0 148.06 0 148.06C0.12 147.989 0.234645 147.934 0.343978 147.903C0.234645 147.935 0.118667 147.99 0 148.062Z" fill="#350C14"/>
<path d="M0.132812 168.16C0.443479 168.051 0.751474 167.9 1.06081 167.691C1.30214 167.528 1.53812 167.356 1.77012 167.18C1.26478 167.608 0.747479 167.956 0.132812 168.16Z" fill="#9B4F6A"/>
<path d="M118.884 31.1575C117.279 30.6549 116.063 30.9162 115.152 31.6242C115.455 29.4722 115.392 27.2002 115.463 25.0336C115.538 22.7482 115.499 20.4642 115.263 18.1882C114.887 14.5389 113.834 9.72955 109.88 8.42822C108.254 7.89355 105.855 8.06555 104.6 9.34422C103.372 10.5949 103.182 12.4175 103.234 14.0895C103.302 16.2522 103.828 18.3776 104.235 20.4949C104.83 23.5842 104.924 26.7936 105.022 29.9296C105.122 33.2469 105.002 36.5549 104.834 39.8616C104.774 37.0376 104.583 34.2189 103.996 31.4682C103.583 29.5322 102.915 27.4682 101.416 26.0909C99.8018 24.6122 97.1964 24.9429 95.3018 25.5762C94.7391 25.7642 94.2205 26.0202 93.7565 26.3322C93.1231 19.6749 92.6431 12.9696 90.8285 6.50023C90.1658 4.14556 89.2324 1.05356 86.6671 0.200227C84.6244 -0.479773 82.3578 0.650889 81.2578 2.37889C79.8831 4.54022 80.4364 7.70556 80.8698 10.0496C81.5204 13.5709 82.2178 17.0736 82.8338 20.6042C84.2791 28.8922 84.9671 37.2629 85.0671 45.6776C85.0951 48.0789 85.0578 50.4829 84.9871 52.8856C84.6911 51.0456 84.4218 49.2042 84.2031 47.3549C83.7111 43.2202 83.4138 39.0655 82.9684 34.9242C82.6364 31.8535 82.3938 28.6056 81.5658 25.6202C80.9831 23.5216 79.5511 21.9242 77.2351 22.0469C75.0804 22.1642 73.2805 23.2042 72.4151 25.2309C71.5338 27.2896 71.4938 29.5789 71.6711 31.7749C71.9764 35.4975 72.7511 39.2082 73.5445 42.8509C73.6858 43.5056 73.8391 44.1576 73.9845 44.8109C72.1378 38.1256 70.1391 31.4789 68.5925 24.7096C67.7098 20.8496 67.2285 16.9696 67.1858 13.0109C67.1565 10.6456 67.0951 7.33222 64.7738 5.97755C62.8178 4.83355 59.7485 5.84822 58.3258 7.37889C56.5978 9.24689 56.4365 12.4536 56.3485 14.8429C56.0898 22.0269 58.3578 29.1176 60.5671 35.8616C61.3698 38.3162 62.2738 40.8442 63.6991 43.0269C62.3538 42.8162 60.9618 43.3575 60.1578 44.5415C58.2591 47.3375 58.9165 51.4189 59.9871 54.6122C57.1645 48.8215 55.2805 42.3229 55.1618 35.9336C55.1045 32.8922 55.7071 22.7336 50.1525 24.2136C47.8111 24.8362 46.2818 26.9282 45.8925 29.2136C45.3538 32.3682 45.6405 35.7656 46.0191 38.9216C46.4111 42.1682 47.1178 45.5082 48.1605 48.7389C46.8405 46.6282 44.7645 43.6136 41.9525 43.6656C39.8005 43.7016 38.8138 46.4789 38.6338 48.2442C38.1418 53.0282 42.2924 57.7749 45.2351 61.0496C53.7191 70.4882 64.6885 77.5802 70.8645 88.9762C73.0271 92.9629 74.5525 97.5002 75.8271 101.847C76.4911 104.112 77.0405 106.424 77.2925 108.776C77.3405 109.229 77.3818 109.723 77.3938 110.231C77.3098 110.639 77.3018 111.042 77.3605 111.428L77.3591 111.454C77.6218 112.287 77.9925 113.084 78.8125 113.478C79.8445 113.974 80.8964 114.19 82.0391 114.184C83.5311 114.172 85.0218 114.054 86.4711 113.734C88.4804 113.231 90.4391 112.398 92.1191 111.206L92.4458 110.963L92.4485 110.96L92.6138 110.825C93.0138 110.474 93.3844 110.092 93.7031 109.67C94.3138 108.861 94.7138 107.972 95.0231 107.044C95.0351 104.508 95.0938 101.97 95.5565 99.4656C96.2431 95.7256 98.1791 92.3829 100.222 89.2336C103.996 83.4149 108.852 78.3469 112.452 72.4135C116.675 65.4562 120.095 57.6922 122.392 49.8922C124.083 44.1455 126.624 33.5975 118.884 31.1575Z" fill="#89155C"/>
<path d="M105.002 22.1949C104.818 20.1015 104.223 18.0509 103.907 15.9775C103.598 13.9509 103.252 11.1628 105.068 9.72418C106.76 8.38285 109.628 8.80418 111.255 10.0082C113.034 11.3242 113.836 13.6869 114.307 15.7522C115.31 20.1669 114.943 24.6829 114.899 29.1589C114.887 30.1015 114.884 31.0375 114.764 31.9735C113.664 33.0935 113.087 34.9335 112.836 36.7242C112.547 38.7789 112.562 40.8709 112.547 42.9415C112.532 45.1909 112.312 47.3522 111.92 49.5682C110.192 59.3242 106.202 69.7069 99.4551 77.1655C100.595 74.3469 101.652 71.4949 102.435 68.5375C104.358 61.2989 104.852 53.7695 104.85 46.3069C104.85 45.3535 104.855 44.3935 104.86 43.4335C105.674 36.3762 105.632 29.2642 105.002 22.1949Z" fill="#BB3289"/>
<path d="M84.711 31.1401C84.3483 27.1708 83.7457 23.2628 83.059 19.3375C82.4563 15.8801 81.7256 12.4588 81.1163 9.00812C80.575 5.93745 80.451 1.93612 84.0883 0.897457C87.6563 -0.12121 89.219 3.54146 90.1136 6.26279C92.2696 12.8268 92.5217 19.7575 93.455 26.5401C92.523 27.2695 91.895 28.2761 91.8056 29.5855C91.6416 32.0401 92.735 34.6441 93.3937 36.9561C94.3803 40.4188 94.579 44.1455 94.7323 47.7255C94.911 51.9255 94.7363 56.1575 94.2203 60.3281C93.191 68.6695 92.0577 76.9961 90.9617 85.3281C90.6403 80.9468 89.8457 76.6121 88.8937 72.2828C87.5603 66.2121 86.191 60.1228 85.163 53.9828C85.663 46.3748 85.407 38.7228 84.711 31.1401Z" fill="#BB3289"/>
<path d="M60.4285 33.7843C59.3152 30.1496 58.2232 26.5189 57.5179 22.7776C56.5712 17.7616 55.0192 4.80027 63.7859 6.44027C67.2445 7.0896 66.7192 12.5629 66.7392 15.0949C66.7685 18.7709 67.5392 22.5243 68.3859 26.0896C69.3232 30.0483 70.3765 33.995 71.5192 37.9043C72.6632 41.8069 73.7779 45.7523 75.0419 49.6203L75.0979 49.6816C76.3565 55.0483 77.6725 60.4029 78.8472 65.7909C79.9579 70.8843 82.1432 76.4123 81.7152 81.7456C80.4112 77.1683 78.6539 72.7056 76.8059 68.3443C75.2139 64.5789 73.5232 60.8536 71.9192 57.0923C70.8232 54.5216 69.9485 51.9016 68.9445 49.3003C68.1379 47.2123 67.1032 44.8429 65.1592 43.5816C64.8432 43.3749 64.5098 43.2256 64.1672 43.1256C62.4152 40.2536 61.4072 36.9829 60.4285 33.7843Z" fill="#BB3289"/>
<path d="M46.6186 39.9726C46.1239 36.7339 45.9666 33.4366 46.2172 30.1713C46.3399 28.5579 46.8039 27.2099 48.0559 26.1286C49.1013 25.2299 50.5412 24.5526 51.9172 24.9592C54.3412 25.6752 54.4693 29.9099 54.5946 31.8859C54.7533 34.3606 54.6386 36.8473 54.8573 39.3193C55.1213 42.3073 56.0306 45.3446 56.9692 48.1793C57.9799 51.2312 59.2906 54.3073 60.9586 57.0713C62.2586 59.9833 64.0066 62.7166 65.7052 65.4019C67.7132 68.5753 69.4173 71.9326 70.9626 75.3486C71.8866 77.3939 72.7786 79.4686 73.6212 81.5659C70.3892 76.7713 65.9679 72.7566 61.8866 68.7299C58.9586 65.8406 56.1439 62.8046 53.9666 59.2979C52.4599 56.8699 51.2386 54.2806 49.8933 51.7579C48.3853 47.9859 47.2519 44.0859 46.6186 39.9726Z" fill="#BB3289"/>
<path d="M77.8032 111.275C78.0392 109.087 77.5219 106.597 77.1539 104.861C76.2979 100.799 74.8725 96.8698 73.3699 93.0085C70.7925 86.3872 66.5939 80.8392 61.6499 75.7979C57.1419 71.2045 52.1619 67.1045 47.6312 62.5379C44.3032 59.1819 40.6525 55.2459 39.3499 50.5845C38.6632 48.1312 39.5179 43.6259 42.9605 44.5925C45.9965 45.4459 47.9139 49.3792 49.2992 51.8859L49.3125 51.9085C50.3752 54.5258 51.6805 57.0219 53.2472 59.2765L53.2619 59.2832C53.7045 60.0459 54.1699 60.7952 54.6699 61.5258C56.6499 64.4218 59.1459 66.9485 61.6552 69.3885C66.1125 73.7245 70.9992 78.0218 74.3232 83.3418C75.9019 87.4445 77.2579 91.6405 78.2045 95.9072C78.8752 98.9338 79.2179 102.041 79.6085 105.115C79.9312 107.665 80.2392 110.444 79.5899 112.979C78.7445 112.655 78.0872 112.118 77.8032 111.275Z" fill="#D640A0"/>
<path d="M79.7766 113.047C80.4299 110.789 80.2859 108.313 80.0779 106.003C79.7672 102.531 79.3326 99.0166 78.6246 95.6059C77.9766 92.4739 77.0899 89.3672 76.0446 86.3019L76.1299 86.0112C75.9179 85.5432 75.6926 85.0832 75.4552 84.6286C73.9646 80.5139 72.2086 76.4846 70.3592 72.5926C68.6419 68.9832 66.5819 65.6139 64.4979 62.2099C62.4259 58.8246 60.2499 55.1886 59.6446 51.2019C59.3072 48.9952 59.2286 45.6312 61.2726 44.1912C63.7699 42.4339 66.3019 45.3059 67.3726 47.2406C68.3619 49.0219 68.9846 50.9979 69.6406 52.9192C70.4459 55.2699 71.4726 57.5419 72.4619 59.8192C74.9432 65.5406 77.5432 71.2126 79.6446 77.0926C80.3606 79.0979 80.9912 81.1286 81.5326 83.1806L81.4939 83.4379C81.4592 83.6206 81.5699 83.6886 81.6526 83.6179C82.6579 87.5286 83.3126 91.5179 83.4659 95.5779C83.6939 101.547 82.8592 107.471 82.3806 113.404C81.4672 113.408 80.5539 113.311 79.7766 113.047Z" fill="#D640A0"/>
<path d="M85.7326 113.029C84.8846 113.213 83.7659 113.378 82.6326 113.401C83.6566 106.059 84.4232 98.5858 83.6192 91.1818C83.2979 88.2204 82.6979 85.3111 81.9139 82.4458C82.6939 77.1311 80.6592 71.4898 79.4579 66.4044C78.5806 62.6751 77.9019 58.9018 77.0005 55.1778C75.9805 50.9724 74.8859 46.7871 73.9459 42.5658C73.1139 38.8258 72.3512 35.0151 72.0326 31.1938C71.8059 28.4738 72.0085 25.0271 74.5445 23.4058C75.7432 22.6404 77.4512 22.5418 78.7739 22.9684C80.2379 23.4404 80.8792 25.0524 81.2499 26.3991C82.1565 29.6951 82.3245 33.3551 82.6685 36.7378C83.3645 43.5938 83.9779 50.4004 85.2339 57.1871C86.4685 63.8671 88.0899 70.4631 89.4059 77.1244C90.5179 82.7604 90.9259 88.5204 90.4326 94.2498C90.4046 94.5551 90.3619 94.8604 90.3326 95.1671C89.9992 97.1618 89.5632 99.1378 89.1165 101.114C88.8939 102.299 88.6645 103.484 88.4752 104.678C88.2165 106.294 87.8712 107.871 87.4152 109.42C87.2485 110.508 87.1072 111.604 87.0232 112.707C86.5819 112.828 86.1486 112.934 85.7326 113.029Z" fill="#D640A0"/>
<path d="M87.4355 112.587C87.9555 108.813 88.9382 105.047 89.7489 101.269C90.0569 99.9285 90.3169 98.5805 90.5182 97.2232C90.7289 95.8818 90.8875 94.5378 90.9715 93.1898L90.9982 92.9098C91.1542 90.7432 91.1555 88.5965 91.0382 86.4578C92.4062 78.3112 93.4356 70.1072 94.4582 61.9112C95.4236 54.2018 95.5036 46.5085 94.3502 38.8098C93.9556 36.1698 92.8262 33.6859 92.3676 31.0525C92.1076 29.5552 92.2129 28.2712 93.4542 27.2565L93.5676 27.1752C93.6289 27.2552 93.7342 27.1459 93.7822 27.0179C94.8436 26.2939 96.2009 25.9698 97.4476 25.8325C103.376 25.1858 103.95 32.9779 104.224 37.1832C104.566 42.5058 104.474 47.9699 104.205 53.2872C103.837 60.5765 102.565 67.7498 99.9889 74.5925C98.7169 77.9738 97.2289 81.2765 95.8596 84.6205C94.5836 87.7379 93.5475 90.9245 92.5049 94.1285C90.9942 98.7645 89.2436 103.979 89.7142 108.971C89.6009 109.82 89.7476 110.846 90.1302 111.558C89.2582 111.98 88.3355 112.321 87.4355 112.587Z" fill="#D640A0"/>
<path d="M117.301 61.747C115.796 65.071 114.159 68.355 112.301 71.5003C108.936 77.2003 104.316 82.0763 100.604 87.547C98.3693 90.8497 96.2893 94.3243 95.2867 98.2137C94.56 101.034 94.4667 103.97 94.4813 106.886C94.0053 108.921 92.4427 110.338 90.5733 111.332C90.5387 111.206 90.5067 111.08 90.4747 110.956L90.4707 110.855C90.2813 110.032 90.176 109.196 90.136 108.357L90.1373 108.238L90.1227 108.178C90.016 105.483 90.5667 102.746 91.2107 100.152C92.0413 96.7977 93.1773 93.503 94.264 90.227C95.692 85.931 97.5613 81.807 99.268 77.6257C103.732 73.159 106.712 67.407 108.967 61.559C111.012 56.2563 112.739 50.3457 112.935 44.6297C113.007 42.583 112.929 40.5363 113.045 38.4897C113.155 36.495 113.348 34.115 114.685 32.5217L114.864 32.3363C114.941 32.3617 115.032 32.3057 115.072 32.1497C116.511 30.979 118.752 31.5763 120.24 32.419C121.631 33.2057 122.539 34.5337 123.048 36.023C124.347 39.811 123.323 44.311 122.356 48.0483C121.137 52.7617 119.309 57.3243 117.301 61.747Z" fill="#D640A0"/>
<path d="M85.0674 45.6778C85.0501 44.3071 85.0128 42.9391 84.9648 41.5738C84.9661 41.5778 84.9688 41.5804 84.9715 41.5858C85.0195 42.9484 85.0514 44.3124 85.0674 45.6778ZM104.834 39.8618C104.917 38.2031 104.99 36.5418 105.029 34.8791V34.8804C104.99 36.5418 104.918 38.2031 104.834 39.8618ZM86.6674 0.200445C86.2568 0.063112 85.8368 0.000445309 85.4181 0.000445309C85.3408 0.000445309 85.2635 0.00178385 85.1875 0.00578385C85.2648 0.00178385 85.3421 0.000445309 85.4195 0.000445309C85.8368 0.000445309 86.2568 0.063112 86.6674 0.200445Z" fill="#DC99BC"/>
<path d="M95.8256 98.2524C95.671 98.1498 95.5136 98.0498 95.3563 97.9524C96.383 94.1698 98.4203 90.7751 100.604 87.5471C104.316 82.0764 108.936 77.2004 112.302 71.5004C114.159 68.3551 115.796 65.0711 117.302 61.7471C119.31 57.3244 121.138 52.7618 122.356 48.0484C123.323 44.3111 124.347 39.8111 123.048 36.0231C122.539 34.5338 121.631 33.2058 120.24 32.4191C120.13 32.3564 120.016 32.2951 119.899 32.2364C119.779 31.9298 119.636 31.6364 119.464 31.3658C124.732 33.4498 124.674 39.6791 123.62 45.0244C123.619 45.0271 123.619 45.0311 123.618 45.0338V45.0351C123.267 46.8138 122.806 48.4951 122.394 49.8924C120.096 57.6924 116.676 65.4564 112.454 72.4138C108.854 78.3471 103.998 83.4151 100.223 89.2338C98.4043 92.0391 96.6683 94.9978 95.8256 98.2524ZM78.891 96.9578C78.691 96.6351 78.4696 96.3231 78.2296 96.0244C78.2216 95.9858 78.2123 95.9458 78.2043 95.9071C77.2923 91.7964 76.0003 87.7511 74.495 83.7911C74.571 83.4111 74.6456 83.0298 74.7163 82.6484C74.9696 83.3058 75.2163 83.9658 75.4563 84.6284C75.6936 85.0831 75.919 85.5431 76.131 86.0111L76.0456 86.3018C77.0909 89.3671 77.9776 92.4738 78.6256 95.6058C78.719 96.0551 78.807 96.5058 78.891 96.9578ZM92.2403 96.4498C92.0949 96.3978 91.9483 96.3471 91.8003 96.3004C92.035 95.5644 92.2723 94.8391 92.5043 94.1284C93.5469 90.9244 94.583 87.7378 95.859 84.6204C97.2283 81.2764 98.7163 77.9738 99.9883 74.5924C102.564 67.7498 103.836 60.5764 104.204 53.2871C104.474 47.9698 104.566 42.5058 104.223 37.1831C103.966 33.2231 103.442 26.0844 98.4336 25.8031C98.135 25.5511 97.811 25.3258 97.459 25.1324L97.4136 25.1018C97.7176 25.0671 98.0256 25.0471 98.331 25.0471C99.4683 25.0471 100.576 25.3218 101.418 26.0911C102.916 27.4684 103.584 29.5324 103.998 31.4684C104.584 34.2191 104.775 37.0378 104.835 39.8618C104.919 38.2031 104.991 36.5418 105.03 34.8804L105.087 35.1338C105.16 35.4124 105.271 35.6911 105.414 35.9551C105.327 38.4524 105.147 40.9471 104.86 43.4338C104.855 44.3938 104.85 45.3538 104.85 46.3071C104.852 53.7698 104.358 61.2991 102.435 68.5378C101.652 71.4951 100.595 74.3471 99.455 77.1658C106.202 69.7071 110.192 59.3244 111.92 49.5684C112.312 47.3524 112.532 45.1911 112.547 42.9418C112.562 40.8711 112.547 38.7791 112.836 36.7244C113.087 34.9338 113.664 33.0938 114.764 31.9738C114.884 31.0378 114.887 30.1018 114.899 29.1591C114.943 24.6831 115.31 20.1671 114.307 15.7524C113.836 13.6871 113.034 11.3244 111.255 10.0084C110.852 9.7111 110.374 9.46043 109.856 9.27377C109.271 8.65777 108.547 8.25644 107.656 8.1591C107.778 8.15244 107.898 8.14978 108.018 8.14978C108.512 8.14978 108.999 8.2031 109.446 8.3071C109.596 8.34177 109.742 8.38311 109.882 8.42844C113.835 9.72977 114.888 14.5391 115.264 18.1884C115.431 19.7884 115.499 21.3924 115.499 22.9978C115.499 23.6764 115.487 24.3551 115.464 25.0338C115.394 27.2004 115.456 29.4724 115.154 31.6244C115.487 31.3671 115.86 31.1684 116.278 31.0431C115.819 31.3324 115.435 31.6978 115.112 32.1191C115.099 32.1284 115.086 32.1391 115.072 32.1498C115.07 32.1631 115.066 32.1738 115.062 32.1858C115.028 32.2311 114.995 32.2778 114.963 32.3258C114.943 32.3364 114.922 32.3431 114.9 32.3431C114.888 32.3431 114.876 32.3404 114.864 32.3364L114.686 32.5218C113.348 34.1151 113.155 36.4951 113.046 38.4898C112.93 40.5364 113.007 42.5831 112.935 44.6298C112.739 50.3458 111.012 56.2564 108.967 61.5591C106.712 67.4071 103.732 73.1591 99.2683 77.6258C97.5616 81.8071 95.6923 85.9311 94.2643 90.2271C93.5803 92.2911 92.8763 94.3618 92.2403 96.4498ZM83.4883 96.2618C83.4829 96.0338 83.4763 95.8058 83.467 95.5778C83.3136 91.5178 82.6589 87.5284 81.6536 83.6178C81.6323 83.6364 81.6083 83.6458 81.5869 83.6458C81.5229 83.6458 81.4696 83.5724 81.495 83.4378L81.5336 83.1804C80.9923 81.1284 80.3616 79.0978 79.6456 77.0924C78.4883 73.8551 77.1803 70.6804 75.8243 67.5258C75.8136 67.0004 75.8003 66.4738 75.7803 65.9484C76.1256 66.7458 76.4696 67.5444 76.8069 68.3444C78.6549 72.7058 80.4123 77.1684 81.7163 81.7458C82.1443 76.4124 79.9589 70.8844 78.8483 65.7911C77.6736 60.4031 76.3576 55.0484 75.099 49.6818L75.0429 49.6204C73.7789 45.7524 72.6643 41.8071 71.5203 37.9044C70.3776 33.9951 69.3243 30.0484 68.3869 26.0898C67.5403 22.5244 66.7696 18.7711 66.7403 15.0951C66.7203 12.5631 67.2456 7.08977 63.7869 6.44044C63.2709 6.34444 62.7909 6.29778 62.3443 6.29778C60.8109 6.29778 59.6709 6.84045 58.8376 7.73912C58.4496 7.83912 58.0696 8.00445 57.7109 8.20445C57.8923 7.90978 58.0963 7.63244 58.327 7.37911C59.3243 6.30577 61.131 5.48578 62.7963 5.48578C63.5056 5.48578 64.1896 5.63511 64.7749 5.97777C67.0963 7.33244 67.1576 10.6458 67.1869 13.0111C67.2296 16.9698 67.711 20.8498 68.5936 24.7098C70.1403 31.4791 72.1389 38.1258 73.9856 44.8111L73.9736 44.7498C75.1216 48.9191 76.3443 53.0724 77.4763 57.2458C77.4829 57.2684 77.4896 57.2924 77.4963 57.3164C78.1696 60.3404 78.7483 63.3871 79.459 66.4044C80.6603 71.4898 82.6949 77.1311 81.9149 82.4458C82.6989 85.3111 83.2989 88.2204 83.6203 91.1818C83.7989 92.8218 83.8989 94.4658 83.9376 96.1098C83.7869 96.1578 83.6376 96.2084 83.4883 96.2618ZM90.6963 95.9858C90.535 95.9458 90.3723 95.9098 90.2109 95.8764C90.2536 95.6404 90.2936 95.4044 90.3336 95.1671C90.363 94.8604 90.4056 94.5551 90.4336 94.2498C90.927 88.5204 90.5189 82.7604 89.4069 77.1244C88.0909 70.4631 86.4696 63.8671 85.2349 57.1871C83.9789 50.4004 83.3656 43.5938 82.6696 36.7378C82.3256 33.3551 82.1576 29.6951 81.2509 26.3991C80.8803 25.0524 80.2389 23.4404 78.7749 22.9684C78.2643 22.8031 77.6963 22.7164 77.1216 22.7164C76.2083 22.7164 75.2803 22.9364 74.5456 23.4058C74.4963 23.4364 74.4483 23.4698 74.4003 23.5018C74.031 23.5764 73.6336 23.7164 73.2069 23.9284C74.1029 22.8471 75.383 22.2364 76.8563 22.0778H76.8576C76.8616 22.0778 76.8656 22.0778 76.8696 22.0764C76.8736 22.0764 76.8776 22.0764 76.8816 22.0751C76.8843 22.0751 76.887 22.0751 76.8896 22.0738C76.8963 22.0738 76.9016 22.0738 76.9083 22.0724C76.9096 22.0724 76.9109 22.0724 76.9123 22.0724C76.9283 22.0711 76.9443 22.0698 76.9603 22.0671C76.9603 22.0671 76.9603 22.0671 76.9616 22.0671C77.043 22.0604 77.1256 22.0538 77.2096 22.0484C77.2109 22.0484 77.2109 22.0484 77.2123 22.0484C77.2203 22.0484 77.2283 22.0471 77.2363 22.0471C77.3203 22.0431 77.4016 22.0404 77.4829 22.0404C79.6536 22.0404 81.0056 23.5978 81.567 25.6204C82.395 28.6058 82.6376 31.8538 82.9696 34.9244C83.4149 39.0658 83.7123 43.2204 84.2043 47.3551C84.4229 49.2044 84.6923 51.0458 84.9883 52.8858C85.0429 51.0471 85.0776 49.2058 85.0776 47.3671C85.0776 46.8031 85.0749 46.2404 85.0683 45.6778C85.0523 44.3124 85.0203 42.9484 84.9723 41.5858C85.0896 41.7804 85.2216 41.9631 85.3763 42.1204C85.4803 46.0764 85.4243 50.0351 85.1643 53.9831C86.1923 60.1231 87.5616 66.2124 88.895 72.2831C89.847 76.6124 90.6416 80.9471 90.963 85.3284C92.059 76.9964 93.1923 68.6698 94.2216 60.3284C94.7376 56.1578 94.9123 51.9258 94.7336 47.7258C94.5803 44.1458 94.3816 40.4191 93.395 36.9564C92.7363 34.6444 91.6429 32.0404 91.8069 29.5858C91.8963 28.2764 92.5243 27.2698 93.4563 26.5404C92.523 19.7578 92.2709 12.8271 90.1149 6.26311C89.3243 3.86044 88.015 0.724436 85.2616 0.724436C84.8976 0.724436 84.507 0.779109 84.0896 0.897776C84.0016 0.923109 83.915 0.949774 83.831 0.979107C83.639 0.911107 83.439 0.873769 83.2323 0.873769C83.0923 0.873769 82.9496 0.891104 82.8029 0.925771L82.5376 1.01378C83.3029 0.437775 84.2256 0.0631022 85.1736 0.00710221C85.1763 0.00710221 85.1803 0.00710221 85.1843 0.00710221C85.1856 0.00576888 85.1869 0.00578385 85.1883 0.00578385C85.2643 0.00178385 85.3416 0.000445309 85.4189 0.000445309C85.8376 0.000445309 86.2576 0.063112 86.6683 0.200445C89.2336 1.05378 90.167 4.14578 90.8296 6.50044C92.6443 12.9698 93.1243 19.6751 93.7576 26.3324C94.1323 26.0818 94.5523 25.8751 94.9923 25.7031V25.7044C93.355 26.3578 92.607 27.5324 92.3643 28.9044C92.2416 29.3804 92.2269 29.8924 92.2816 30.4364C92.3349 31.5458 92.6003 32.7004 92.9123 33.7618C94.4549 39.0164 95.135 44.2431 95.1256 49.7124C95.1216 52.1698 94.9963 54.6084 94.8576 57.0591C94.843 57.3311 94.8136 57.6098 94.7843 57.8938C94.5976 58.6511 94.4216 59.4111 94.2976 60.1831C94.1283 61.2431 93.9683 62.5191 94.2429 63.6284C93.2896 71.2524 92.3096 78.8791 91.0376 86.4578C91.1549 88.5964 91.1536 90.7431 90.9976 92.9098L90.9709 93.1898C90.9123 94.1244 90.819 95.0551 90.6963 95.9858ZM73.291 92.8058C73.0736 92.7431 72.851 92.6844 72.6243 92.6338C72.6096 92.5991 72.5949 92.5644 72.5803 92.5311C72.6456 92.2124 72.7123 91.8951 72.7816 91.5778C72.9563 91.9831 73.127 92.3924 73.291 92.8058Z" fill="#750F41"/>
<path d="M40.4528 45.0659C40.3461 44.8846 40.2395 44.7046 40.1328 44.5232C40.6075 44.0192 41.2035 43.6833 41.9368 43.6673C41.9368 43.6673 41.9368 43.6673 41.9381 43.6673C41.9435 43.6659 41.9488 43.6659 41.9541 43.6659C41.9781 43.6659 42.0021 43.6659 42.0261 43.6659C43.0181 43.6659 43.9181 44.0459 44.7248 44.6313C44.4915 44.7579 44.2635 44.8979 44.0448 45.0472C43.7008 44.8539 43.3395 44.6992 42.9608 44.5926C42.6355 44.5019 42.3328 44.4592 42.0528 44.4592C41.4035 44.4592 40.8741 44.6886 40.4528 45.0659ZM61.6408 43.3393C61.6368 43.3299 61.6341 43.3192 61.6315 43.3099C61.6421 43.3059 61.6515 43.3006 61.6621 43.2966C61.6581 43.3046 61.6541 43.3126 61.6488 43.3219C61.6488 43.3219 61.6488 43.3246 61.6475 43.3246C61.6448 43.3299 61.6421 43.3339 61.6408 43.3393ZM63.0501 41.9366C62.9848 41.8166 62.9195 41.6979 62.8555 41.5779L62.8995 41.6059C63.0261 41.6846 63.1608 41.7566 63.2981 41.8206C63.2128 41.8566 63.1301 41.8953 63.0501 41.9366ZM54.9528 29.8792C54.7595 29.6286 54.5595 29.3819 54.3515 29.1406C54.1035 27.4726 53.5715 25.7432 52.2968 25.1072C52.0968 24.8019 51.8515 24.5313 51.5528 24.3059C51.4261 24.2073 51.2901 24.1339 51.1528 24.0686C51.1661 24.0686 51.1795 24.0686 51.1928 24.0686C53.6741 24.0686 54.6048 26.8926 54.9528 29.8792Z" fill="#750F41"/>
<path d="M99.4551 77.1655C100.595 74.3469 101.652 71.4949 102.435 68.5375C104.358 61.2989 104.852 53.7695 104.85 46.3069C104.85 45.3535 104.855 44.3935 104.86 43.4335C105.147 40.9469 105.327 38.4522 105.414 35.9549C105.859 36.7829 106.608 37.4562 107.424 37.4562C107.859 37.4562 108.312 37.2655 108.748 36.8069C110.56 34.8989 111.118 32.0082 111.443 29.4895C111.751 27.0842 111.912 24.6349 112.092 22.2122C112.336 18.9135 112.448 11.9962 109.856 9.27352C110.374 9.46019 110.852 9.71086 111.255 10.0082C113.034 11.3242 113.836 13.6869 114.307 15.7522C115.31 20.1669 114.943 24.6829 114.899 29.1589C114.887 30.1015 114.884 31.0375 114.764 31.9735C113.664 33.0935 113.087 34.9335 112.836 36.7242C112.547 38.7789 112.562 40.8709 112.547 42.9415C112.532 45.1909 112.312 47.3522 111.92 49.5682C110.192 59.3242 106.202 69.7069 99.4551 77.1655Z" fill="#A22265"/>
<path d="M90.9621 85.3281C90.6407 80.9468 89.8461 76.6121 88.8941 72.2828C87.5607 66.2121 86.1914 60.1228 85.1634 53.9828C85.4234 50.0348 85.4794 46.0761 85.3754 42.1201C85.4527 42.1988 85.5354 42.2708 85.6247 42.3361C85.8261 42.4815 86.0194 42.5455 86.2074 42.5455C87.3981 42.5455 88.2954 39.9588 88.5127 39.2521C89.4421 36.2375 89.0834 32.9348 89.0807 29.8361C89.0754 25.4375 89.0821 21.0415 88.7821 16.6508C88.5101 12.6775 88.0874 8.43345 86.6501 4.68945C86.2274 3.58678 85.2301 1.47345 83.8301 0.978788C83.9141 0.949455 84.0007 0.92279 84.0887 0.897457C84.5061 0.77879 84.8967 0.724117 85.2607 0.724117C88.0141 0.724117 89.3234 3.86012 90.1141 6.26279C92.2701 12.8268 92.5221 19.7575 93.4554 26.5401C92.5234 27.2695 91.8954 28.2761 91.8061 29.5855C91.6421 32.0401 92.7354 34.6441 93.3941 36.9561C94.3807 40.4188 94.5794 44.1455 94.7327 47.7255C94.9114 51.9255 94.7367 56.1575 94.2207 60.3281C93.1914 68.6695 92.0581 76.9961 90.9621 85.3281Z" fill="#A22265"/>
<path d="M81.7166 81.7456C80.4126 77.1683 78.6552 72.7056 76.8072 68.3443C76.4699 67.5443 76.1259 66.7456 75.7806 65.9483C75.6552 62.4923 75.3312 59.0483 74.8099 55.6896C74.0579 50.8309 72.3632 42.5203 66.7419 41.5176C66.8019 41.4629 66.8592 41.4029 66.9139 41.3403C68.4446 39.6003 67.6872 37.0776 67.0899 35.0976C65.8806 31.0923 64.8712 27.0243 64.2686 22.8829C63.7526 19.3429 64.0099 15.8416 63.7392 12.3043C63.5606 9.95361 62.5086 8.11761 60.0899 7.67228C59.9379 7.64561 59.7846 7.63227 59.6312 7.63227C59.3659 7.63227 59.1006 7.67094 58.8379 7.73894C59.6712 6.84028 60.8112 6.2976 62.3446 6.2976C62.7912 6.2976 63.2712 6.34426 63.7872 6.44026C67.2459 7.0896 66.7206 12.5629 66.7406 15.0949C66.7699 18.7709 67.5406 22.5243 68.3872 26.0896C69.3246 30.0483 70.3779 33.9949 71.5206 37.9043C72.6646 41.8069 73.7792 45.7523 75.0432 49.6203L75.0993 49.6816C76.3579 55.0483 77.6739 60.4029 78.8486 65.7909C79.9592 70.8843 82.1446 76.4123 81.7166 81.7456Z" fill="#A22265"/>
<path d="M56.2902 54.2285C56.1422 53.9325 55.9942 53.6365 55.8422 53.3432C55.7235 52.9418 55.5755 52.5445 55.4289 52.1592C55.7195 52.8472 56.0062 53.5378 56.2902 54.2285ZM54.3515 29.1405C53.9529 28.6805 53.5275 28.2432 53.0742 27.8525C53.0062 26.8232 52.7889 25.8592 52.2969 25.1072C53.5715 25.7432 54.1035 27.4725 54.3515 29.1405Z" fill="#A22265"/>
<path d="M78.2285 96.0244C77.0552 94.5644 75.4152 93.4231 73.2898 92.8058C73.1258 92.3924 72.9552 91.9831 72.7805 91.5778C73.3365 88.9791 73.9698 86.3951 74.4938 83.7911C75.9992 87.7511 77.2912 91.7964 78.2032 95.9071C78.2112 95.9457 78.2205 95.9857 78.2285 96.0244ZM42.4712 46.3897C42.0885 46.0697 41.6272 45.8324 41.0592 45.7138C40.9738 45.6964 40.8912 45.6831 40.8098 45.6737C40.6898 45.4711 40.5712 45.2684 40.4512 45.0658C40.8725 44.6884 41.4018 44.4591 42.0512 44.4591C42.3312 44.4591 42.6338 44.5018 42.9592 44.5924C43.3378 44.6991 43.6992 44.8538 44.0432 45.0471C43.5752 45.3658 43.1445 45.7258 42.7698 46.0844C42.6658 46.1831 42.5658 46.2857 42.4712 46.3897Z" fill="#B82E79"/>
<path d="M79.7208 98.6216C79.4955 98.0416 79.2195 97.4842 78.8915 96.9576C78.8075 96.5056 78.7195 96.0549 78.6261 95.6056C77.9781 92.4736 77.0915 89.3669 76.0461 86.3016L76.1315 86.0109C75.9195 85.5429 75.6941 85.0829 75.4568 84.6282C75.2168 83.9656 74.9701 83.3056 74.7168 82.6482C74.9861 81.2082 75.2128 79.7602 75.3661 78.3016C75.6835 75.3082 75.8395 72.2576 75.8395 69.2002C75.8395 68.6429 75.8355 68.0842 75.8248 67.5256C77.1808 70.6802 78.4888 73.8549 79.6461 77.0922C80.3621 79.0976 80.9928 81.1282 81.5341 83.1802L81.4955 83.4376C81.4701 83.5722 81.5235 83.6456 81.5875 83.6456C81.6088 83.6456 81.6328 83.6362 81.6541 83.6176C82.6595 87.5282 83.3141 91.5176 83.4675 95.5776C83.4768 95.8056 83.4835 96.0336 83.4888 96.2616C82.1288 96.7576 80.8515 97.5336 79.7208 98.6216Z" fill="#B82E79"/>
<path d="M83.9377 96.1099C83.899 94.4659 83.799 92.8219 83.6204 91.1819C83.299 88.2205 82.699 85.3112 81.915 82.4459C82.695 77.1312 80.6604 71.4899 79.459 66.4045C78.7484 63.3872 78.1697 60.3405 77.4964 57.3165C77.9871 59.1245 78.4284 60.9619 78.9777 62.7552C79.3404 63.9285 79.875 65.2779 81.047 65.8392C81.091 65.8605 81.1431 65.8712 81.1951 65.8712C81.2924 65.8712 81.3924 65.8339 81.4484 65.7525C82.407 64.3805 82.187 62.5912 81.9884 61.0192C81.639 58.2699 81.3097 55.5325 81.043 52.7712C80.4404 46.5459 79.9017 40.3765 79.5364 34.1339C79.3404 30.7965 78.815 23.4339 75.0484 23.4339C74.843 23.4339 74.6271 23.4552 74.4004 23.5019C74.4484 23.4699 74.4964 23.4365 74.5457 23.4059C75.2804 22.9365 76.2084 22.7165 77.1217 22.7165C77.6964 22.7165 78.2644 22.8032 78.775 22.9685C80.239 23.4405 80.8804 25.0525 81.251 26.3992C82.1577 29.6952 82.3257 33.3552 82.6697 36.7379C83.3657 43.5939 83.979 50.4005 85.235 57.1872C86.4697 63.8672 88.091 70.4632 89.407 77.1245C90.519 82.7605 90.9271 88.5205 90.4337 94.2499C90.4057 94.5552 90.3631 94.8605 90.3337 95.1672C90.2937 95.4045 90.2537 95.6405 90.211 95.8765C89.2897 95.6845 88.3617 95.5845 87.4444 95.5845C86.247 95.5845 85.067 95.7552 83.9377 96.1099Z" fill="#B82E79"/>
<path d="M91.7993 96.3003C91.434 96.1803 91.0646 96.0763 90.6953 95.9856C90.818 95.055 90.9113 94.1243 90.97 93.1896L90.9966 92.9096C91.1526 90.743 91.154 88.5963 91.0366 86.4576C92.3086 78.879 93.2886 71.2523 94.242 63.6283C94.3593 64.099 94.554 64.539 94.8606 64.919C95.206 65.3496 95.578 65.5203 95.95 65.5203C96.986 65.519 98.0286 64.1976 98.5513 63.4376C100.057 61.243 100.829 58.583 101.349 56.0016C101.917 53.1776 102.05 50.279 102.199 47.4096C102.386 43.7936 102.426 40.1683 102.135 36.5576C101.851 33.059 101.298 28.2163 98.4327 25.803C103.441 26.0843 103.965 33.223 104.222 37.183C104.565 42.5056 104.473 47.9696 104.203 53.287C103.835 60.5763 102.563 67.7496 99.9873 74.5923C98.7153 77.9736 97.2273 81.2763 95.858 84.6203C94.582 87.7376 93.546 90.9243 92.5033 94.1283C92.2713 94.839 92.034 95.5643 91.7993 96.3003ZM92.2806 30.4363C92.226 29.8923 92.2406 29.3803 92.3633 28.9043C92.2766 29.395 92.2553 29.9096 92.2806 30.4363Z" fill="#B82E79"/>
<path d="M95.3562 97.9521C94.3589 97.3388 93.3122 96.8335 92.2402 96.4495C92.8762 94.3615 93.5803 92.2908 94.2643 90.2268C95.6923 85.9308 97.5616 81.8068 99.2682 77.6255C103.732 73.1588 106.712 67.4068 108.967 61.5588C111.012 56.2561 112.739 50.3455 112.935 44.6295C113.007 42.5828 112.93 40.5361 113.046 38.4895C113.155 36.4948 113.348 34.1148 114.686 32.5215L114.864 32.3362C114.876 32.3402 114.888 32.3428 114.9 32.3428C114.922 32.3428 114.943 32.3361 114.963 32.3255C113.619 34.2748 113.467 37.2841 113.474 39.7068C113.479 43.1775 113.132 46.5588 112.636 49.9908C112.358 51.9335 112.026 53.8815 111.882 55.8388C111.816 56.7455 111.843 57.9588 112.354 58.7588C112.694 59.2975 113.083 59.5068 113.484 59.5068C114.503 59.5068 115.602 58.1628 116.188 57.3761C118.276 54.5815 119.063 50.7762 119.768 47.4362C120.544 43.7588 120.808 39.9975 120.56 36.2495C120.476 34.9668 120.383 33.4828 119.899 32.2362C120.016 32.2948 120.13 32.3562 120.24 32.4188C121.631 33.2055 122.539 34.5335 123.048 36.0228C124.347 39.8108 123.323 44.3108 122.356 48.0481C121.138 52.7615 119.31 57.3241 117.302 61.7468C115.796 65.0708 114.159 68.3548 112.302 71.5001C108.936 77.2001 104.316 82.0761 100.604 87.5468C98.4202 90.7748 96.3829 94.1695 95.3562 97.9521ZM115.062 32.1855C115.066 32.1735 115.07 32.1628 115.072 32.1495C115.086 32.1388 115.099 32.1282 115.112 32.1188C115.095 32.1402 115.079 32.1628 115.062 32.1855Z" fill="#B82E79"/>
<path d="M48.9044 44.4644C48.7724 44.3977 48.6364 44.3364 48.4991 44.2804C47.9738 41.8284 47.4191 39.351 47.0938 36.8617C47.3537 37.2137 47.6164 37.5617 47.8751 37.9124C48.2017 40.099 48.6057 42.2764 48.9044 44.4644ZM49.2591 26.0977C49.1217 26.087 48.9831 26.0817 48.8431 26.0817C48.8164 26.0817 48.7898 26.0817 48.7631 26.0817C48.9818 25.8697 49.2244 25.6764 49.4951 25.5057C49.5111 25.495 49.5244 25.491 49.5351 25.491C49.6137 25.491 49.5924 25.699 49.5497 25.7497C49.4484 25.8644 49.3511 25.9804 49.2591 26.0977Z" fill="#E26CBC"/>
<path d="M62.7869 36.7856C60.3695 31.5456 58.9069 25.8216 58.0069 20.1376C57.4082 16.3776 56.7615 11.8576 58.9082 8.45231C58.9362 8.40698 58.9629 8.38963 58.9869 8.38963C59.0495 8.38963 59.0842 8.52564 59.0535 8.61097C57.5322 12.6736 58.1695 16.8656 58.8495 21.0296C59.7242 26.387 61.2389 31.511 62.8842 36.671L62.7869 36.7856Z" fill="#E26CBC"/>
<path d="M79.2377 61.3096C79.2177 61.3096 79.1977 61.2909 79.183 61.2429C76.7377 53.4589 75.1297 45.4069 73.3857 37.4456C72.5004 33.4016 70.9817 27.1789 74.619 23.9802C74.6417 23.9616 74.659 23.9522 74.675 23.9522C74.763 23.9522 74.7377 24.2522 74.695 24.3136C71.4604 28.8709 73.6004 34.9456 74.6297 39.9149C76.0897 46.9802 77.7284 53.9962 79.3657 61.0242C79.3857 61.1069 79.3057 61.3096 79.2377 61.3096Z" fill="#E77CC4"/>
<path d="M85.966 33.6255C85.9474 33.6255 85.9314 33.6082 85.9207 33.5642C84.442 26.9895 83.8127 20.2428 82.5114 13.6335C81.7634 9.8495 80.8207 5.01216 83.5674 1.7815C83.606 1.7375 83.638 1.71883 83.6647 1.71883C83.7754 1.71883 83.794 2.02683 83.7353 2.12949C81.238 6.45349 82.9393 11.3882 83.6353 15.9668C84.5207 21.7922 85.0794 27.6548 86.0487 33.4722C86.0607 33.5348 86.0087 33.6255 85.966 33.6255Z" fill="#E26CBC"/>
<path d="M95.5686 61.0591C95.5192 61.0591 95.4753 61.0137 95.4766 60.9097C95.6513 53.5977 96.9353 45.7084 94.9459 38.5378C94.1286 35.6004 91.5899 30.0618 94.1499 27.3604C94.1753 27.3338 94.1953 27.3231 94.2126 27.3231C94.2873 27.3231 94.3006 27.5164 94.2566 27.5844C92.9086 29.6471 94.0579 32.9018 94.6739 35.0498C95.2593 37.0911 95.8539 39.0658 96.1179 41.1831C96.9393 47.7351 96.4712 54.3671 95.7019 60.8978C95.6899 60.9991 95.6259 61.0591 95.5686 61.0591Z" fill="#E77CC4"/>
<path d="M106.703 32.6709C106.673 32.6709 106.649 32.6429 106.645 32.5656C106.366 27.6522 106.212 22.7189 105.46 17.8442C105.045 15.1509 104.256 11.7029 106.249 9.41756C106.273 9.38956 106.295 9.37756 106.314 9.37756C106.386 9.37756 106.41 9.5469 106.381 9.61756C104.897 13.0336 106.079 16.6136 106.441 20.1549C106.854 24.2042 107.136 28.3896 106.865 32.4589C106.86 32.5469 106.766 32.6709 106.703 32.6709Z" fill="#E26CBC"/>
<path d="M114.22 52.1948C114.152 52.1948 114.096 52.1308 114.109 51.9855C114.495 47.9215 114.457 43.8602 114.689 39.7922C114.84 37.1802 114.872 34.4188 116.472 32.2202C116.491 32.1948 116.508 32.1842 116.523 32.1842C116.577 32.1842 116.603 32.3295 116.579 32.3828C115.268 35.3935 115.405 38.8362 115.263 42.0575C115.119 45.3615 115.048 48.7122 114.427 51.9682C114.401 52.1068 114.301 52.1948 114.22 52.1948Z" fill="#E77CC4"/>
<path d="M64.5556 41.4898C63.0249 41.6978 62.1196 42.3925 61.6396 43.3392C61.0476 41.4338 60.1063 39.5658 59.3143 37.7392C58.4836 35.8125 57.5569 33.9258 56.4702 32.1298C54.7276 29.2431 51.9703 25.6551 48.1729 26.1231C46.6129 26.3138 44.6863 27.3952 44.1436 28.9512C43.6129 30.4725 44.1663 32.0605 44.8663 33.4298C45.7703 35.2018 47.0396 36.7631 48.2063 38.3618C49.9103 40.6978 51.2463 43.3271 52.5529 45.8965C53.9356 48.6151 55.1316 51.4125 56.2889 54.2285C55.1329 51.9031 53.8703 49.6351 52.3063 47.5778C51.2036 46.1311 49.8383 44.6765 48.0543 44.1205C46.1343 43.5218 44.0969 44.8138 42.7702 46.0845C42.3742 46.4618 42.0449 46.8778 41.7809 47.3178C38.6489 42.0325 35.6223 36.6458 31.5823 31.9791C30.1103 30.2818 28.1223 28.0792 25.6569 28.3712C23.6903 28.6045 22.2503 30.4338 22.0129 32.3018C21.7169 34.6378 23.4183 37.0511 24.6956 38.8285C26.6129 41.5005 28.5663 44.1391 30.4609 46.8311C34.9076 53.1551 38.7569 59.8458 42.1342 66.8018C43.0996 68.7858 44.0076 70.8005 44.8889 72.8245C43.9236 71.4125 42.9796 69.9845 42.0729 68.5338C40.0449 65.2898 38.1703 61.9525 36.1783 58.6845C34.7023 56.2618 33.2276 53.6552 31.3689 51.5005C30.0636 49.9858 28.2476 49.2165 26.3729 50.2271C24.6263 51.1671 23.5369 52.7351 23.6103 54.7591C23.6863 56.8165 24.5463 58.7338 25.5569 60.4898C27.2663 63.4645 29.3649 66.2471 31.4489 68.9645C31.8236 69.4525 32.2076 69.9325 32.5849 70.4191C28.4316 65.5845 24.1649 60.8418 20.2303 55.8245C17.9836 52.9605 16.0649 49.9218 14.4796 46.6498C13.5303 44.6965 12.1796 41.9645 9.71827 41.7485C7.6476 41.5618 5.49293 43.6072 4.91159 45.4365C4.20359 47.6645 5.32627 50.3978 6.18894 52.4165C8.7876 58.4885 13.4503 63.4938 17.9249 68.2351C19.5556 69.9618 21.2956 71.7085 23.3369 72.9631C22.1356 73.3165 21.1889 74.3111 20.9836 75.6111C20.5009 78.6791 22.6463 81.8125 24.7863 84.0471C20.1729 80.3378 16.0609 75.6751 13.4623 70.4125C12.2223 67.9045 8.74626 59.2245 4.70892 62.6311C3.00492 64.0658 2.55427 66.4018 3.12494 68.4538C3.91427 71.2885 5.48228 74.0005 7.03161 76.4738C8.62895 79.0231 10.5249 81.5191 12.6569 83.7951C10.7303 82.5591 7.82626 80.8685 5.50759 82.0085C3.73426 82.8818 4.00226 85.5765 4.54226 87.1151C6.00492 91.2858 11.3156 93.6031 15.0449 95.1738C25.7916 99.6991 37.6876 101.298 47.2823 108.35C50.6396 110.818 53.6863 113.993 56.4476 117.106C57.8876 118.731 59.2489 120.436 60.3769 122.293C60.5956 122.652 60.8236 123.045 61.0329 123.462C61.1209 123.834 61.2729 124.172 61.4743 124.469L61.4836 124.493C62.0276 125.082 62.6476 125.599 63.4849 125.606C64.5343 125.615 65.4956 125.383 66.4423 124.928C67.6769 124.337 68.8689 123.652 69.9489 122.818C71.4223 121.616 72.7249 120.155 73.6543 118.507L73.8303 118.178L73.8316 118.172L73.9156 117.998C74.1129 117.55 74.2716 117.087 74.3689 116.61C74.5596 115.699 74.5463 114.804 74.4369 113.913C73.4543 111.797 72.5129 109.665 71.9129 107.402C71.0196 104.024 71.3223 100.488 71.7876 97.0672C72.6449 90.7525 74.6969 84.6432 75.3649 78.3018C76.1516 70.8618 75.9529 63.0711 74.8089 55.6898C73.9676 50.2498 71.9463 40.4885 64.5556 41.4898Z" fill="#89155C"/>
<path d="M49.5087 39.4777C48.5353 37.807 47.238 36.3363 46.1634 34.7363C45.1127 33.1737 43.7353 30.9897 44.682 29.0843C45.5647 27.307 48.11 26.5337 49.934 26.8963C51.9287 27.2977 53.5207 28.943 54.722 30.4777C57.2833 33.7523 58.746 37.6497 60.462 41.391C60.8233 42.1777 61.186 42.9563 61.4527 43.783C60.9767 45.1443 61.2167 46.8977 61.71 48.4857C62.2753 50.307 63.1073 52.0403 63.906 53.767C64.7727 55.6403 65.438 57.5243 65.978 59.519C68.362 68.3043 69.11 78.4963 66.422 87.3403C66.2673 84.551 66.0287 81.767 65.522 79.003C64.2833 72.2323 61.75 65.779 58.8233 59.5777C58.4513 58.7843 58.0793 57.9857 57.7047 57.1857C55.622 51.0003 52.8007 45.1043 49.5087 39.4777Z" fill="#BB3289"/>
<path d="M36.1465 54.8565C34.2905 51.6992 32.2585 48.6885 30.1532 45.6938C28.2985 43.0565 26.3492 40.4952 24.4905 37.8658C22.8412 35.5272 21.1692 32.2498 23.7852 29.9618C26.3532 27.7178 29.0852 30.1512 30.8945 32.0645C35.2585 36.6752 38.1812 42.3365 41.6145 47.6085C41.1238 48.5778 40.9958 49.6632 41.4358 50.7858C42.2585 52.8898 44.1878 54.6272 45.6398 56.2898C47.8171 58.7818 49.4425 61.8045 50.9705 64.7192C52.7625 68.1405 54.2772 71.7245 55.4798 75.3938C57.8905 82.7298 60.2092 90.0952 62.5612 97.4512C60.5772 93.9338 58.2198 90.6405 55.7345 87.4165C52.2478 82.8912 48.7252 78.3658 45.4665 73.6645C42.9038 67.1485 39.6945 60.8872 36.1465 54.8565Z" fill="#BB3289"/>
<path d="M16.9993 66.5602C14.6499 63.9762 12.3192 61.3855 10.2686 58.5508C7.51924 54.7562 1.15259 44.5855 9.08059 42.5175C12.2126 41.7042 13.9179 46.4588 14.9259 48.5575C16.3886 51.6015 18.5006 54.4188 20.5979 57.0482C22.9299 59.9735 25.3486 62.8442 27.8286 65.6442C30.3086 68.4402 32.7793 71.2842 35.3446 74.0028L35.4153 74.0322C38.5633 78.0015 41.7553 81.9362 44.8419 85.9548C47.7579 89.7562 51.7406 93.4922 53.4712 98.0908C50.5952 94.8002 47.3873 91.7788 44.1433 88.8735C41.3446 86.3695 38.4806 83.9348 35.6753 81.4375C33.7579 79.7308 32.0033 77.8908 30.1513 76.1255C28.6659 74.7042 26.8766 73.1402 24.7673 72.8522C24.4233 72.8042 24.0899 72.8122 23.7646 72.8615C21.1819 71.1615 19.0646 68.8362 16.9993 66.5602Z" fill="#BB3289"/>
<path d="M7.93912 77.1098C6.26046 74.6151 4.83912 71.9364 3.76712 69.1244C3.23912 67.7351 3.0978 66.4338 3.71513 65.0458C4.23113 63.8871 5.16312 62.7631 6.46712 62.5604C8.76178 62.2071 10.5271 65.6751 11.4045 67.2698C12.5045 69.2631 13.3831 71.3751 14.5325 73.3458C15.9218 75.7231 17.8671 77.8938 19.7551 79.8804C21.7925 82.0231 24.0871 84.0658 26.5538 85.7098C28.7765 87.6231 31.2991 89.2098 33.7645 90.7778C36.6725 92.6284 39.4045 94.7511 42.0271 96.9844C43.5965 98.3218 45.1498 99.6991 46.6738 101.114C42.1071 98.3938 36.8618 96.7844 31.8925 95.0378C28.3258 93.7831 24.7978 92.3618 21.6165 90.2991C19.4111 88.8711 17.3831 87.1964 15.2778 85.6284C12.5471 83.0818 10.0778 80.2871 7.93912 77.1098Z" fill="#BB3289"/>
<path d="M61.7811 124.171C61.1211 122.258 59.7158 120.392 58.7291 119.092C56.4278 116.05 53.7038 113.343 50.9438 110.722C46.2078 106.227 40.5478 103.26 34.4651 101.008C28.9171 98.9508 23.1731 97.4948 17.6171 95.4735C13.5384 93.9881 8.96111 92.1455 6.05178 88.7801C4.52111 87.0095 3.46777 82.9295 6.7091 82.3855C9.56643 81.9068 12.6998 84.4255 14.8344 85.9655L14.8558 85.9801C16.7624 87.7375 18.8238 89.3042 21.0091 90.5655H21.0238C21.6904 91.0228 22.3704 91.4641 23.0731 91.8748C25.8518 93.5081 28.9184 94.6321 31.9571 95.6775C37.3598 97.5361 43.1038 99.1921 47.9491 102.312C50.8691 105.107 53.6398 108.063 56.0958 111.239C57.8398 113.493 59.3411 115.94 60.8691 118.341C62.1371 120.335 63.4798 122.523 63.9344 124.885C63.1038 124.949 62.3464 124.758 61.7811 124.171Z" fill="#D640A0"/>
<path d="M64.1165 124.869C63.7765 122.736 62.6859 120.738 61.6085 118.896C59.9925 116.134 58.2552 113.382 56.3312 110.824C54.5646 108.474 52.6125 106.238 50.5419 104.1L50.5006 103.826C50.1406 103.519 49.7712 103.224 49.3952 102.938C46.5472 100.103 43.5099 97.4418 40.4485 94.9325C37.6099 92.6045 34.5752 90.6071 31.5099 88.5951C28.4619 86.5925 25.2312 84.4245 23.1646 81.3445C22.0232 79.6445 20.6392 76.8765 21.7752 74.8805C23.1619 72.4418 26.3912 73.8391 28.0405 75.0271C29.5592 76.1231 30.8525 77.5218 32.1485 78.8605C33.7379 80.4978 35.4819 81.9845 37.1939 83.4911C41.4979 87.2751 45.8819 90.9725 49.9299 95.0338C51.3086 96.4231 52.6285 97.8618 53.8832 99.3565L53.9499 99.5858C53.9912 99.7512 54.1112 99.7671 54.1539 99.6751C56.5206 102.531 58.6259 105.591 60.3432 108.904C62.8699 113.776 64.4939 119.029 66.4232 124.146C65.6632 124.507 64.8645 124.784 64.1165 124.869Z" fill="#D640A0"/>
<path d="M69.0583 122.522C68.4263 123.008 67.5609 123.583 66.6289 124.048C64.6063 117.541 62.3169 111.029 58.7489 105.191C57.3209 102.855 55.6836 100.67 53.9116 98.5965C52.4769 93.8739 48.5769 89.9805 45.5889 86.2245C43.3983 83.4685 41.3569 80.6005 39.1476 77.8552C36.6542 74.7579 34.1062 71.7125 31.6716 68.5699C29.5156 65.7859 27.3889 62.9192 25.6276 59.8672C24.3756 57.6925 23.1929 54.7472 24.6663 52.4072C25.3623 51.3032 26.7422 50.5525 28.0102 50.3885C29.4116 50.2072 30.5782 51.2979 31.4116 52.2712C33.4569 54.6552 35.0302 57.6312 36.6396 60.3072C39.9049 65.7352 43.0796 71.1525 46.7782 76.3032C50.4222 81.3712 54.3529 86.2165 58.0543 91.2392C61.1849 95.4899 63.7796 100.118 65.6116 105.071C65.7102 105.338 65.7969 105.607 65.8889 105.874C66.3929 107.662 66.8049 109.476 67.2036 111.294C67.4862 112.367 67.7609 113.441 68.0676 114.506C68.4876 115.951 68.8156 117.396 69.0449 118.863C69.3329 119.835 69.6436 120.8 70.0062 121.748C69.6862 122.024 69.3676 122.282 69.0583 122.522Z" fill="#D640A0"/>
<path d="M70.2997 121.49C69.2544 118.148 68.5971 114.634 67.7917 111.175C67.5251 109.942 67.2117 108.719 66.8464 107.512C66.4984 106.314 66.1024 105.135 65.6451 103.98L65.5557 103.738C64.8397 101.876 63.9984 100.091 63.0637 98.3602C61.0104 91.0522 58.6531 83.8296 56.2971 76.6162C54.0784 69.8282 51.1317 63.4042 47.1584 57.4562C45.7997 55.4162 43.8864 53.7949 42.4757 51.7869C41.6704 50.6429 41.2571 49.5336 41.8917 48.2042L41.9544 48.0909C42.0344 48.1336 42.0797 48.0029 42.0704 47.8776C42.6677 46.8602 43.6704 46.0576 44.6544 45.4589C49.3264 42.6002 52.8571 48.8496 54.7291 52.2416C57.0997 56.5282 59.1624 61.1069 61.0197 65.6322C63.5677 71.8362 65.3197 78.2976 65.8584 84.9922C66.1251 88.3029 66.1784 91.6282 66.3517 94.9442C66.5117 98.0362 66.8997 101.091 67.2864 104.16C67.8464 108.608 68.4344 113.624 70.7771 117.589C71.0171 118.34 71.5397 119.137 72.137 119.58C71.5784 120.272 70.9437 120.915 70.2997 121.49Z" fill="#D640A0"/>
<path d="M75.2205 67.5363C75.2685 70.8883 75.1952 74.2589 74.8845 77.6003C74.3179 83.6576 72.3859 89.5189 71.4459 95.5189C70.8792 99.1389 70.5099 102.842 71.2006 106.47C71.7006 109.097 72.7725 111.575 73.9259 113.993C74.3272 115.866 73.5832 117.66 72.4179 119.215L72.1899 118.945L72.1472 118.861C71.6659 118.248 71.2539 117.595 70.8899 116.917L70.8445 116.817L70.8099 116.772C69.6659 114.573 69.0525 112.08 68.5712 109.672C67.9485 106.562 67.6019 103.379 67.2232 100.23C66.7259 96.1003 66.6685 91.9403 66.4472 87.7976C68.4085 82.3349 68.6339 76.3843 68.2179 70.6443C67.8419 65.4336 66.9632 59.8456 64.8872 55.0163C64.1459 53.2869 63.2805 51.6149 62.5752 49.8709C61.8872 48.1709 61.1139 46.1149 61.6032 44.2656L61.6792 44.0429C61.7525 44.0336 61.8045 43.9523 61.7779 43.8069C62.5152 42.2696 64.6125 41.8896 66.1752 42.0069C67.6405 42.1176 68.9165 42.8643 69.9245 43.9016C72.4859 46.5416 73.3979 50.6843 74.0579 54.1696C74.8899 58.5643 75.1579 63.0763 75.2205 67.5363Z" fill="#D640A0"/>
<path d="M42.1343 66.8018C41.5837 65.6671 41.0183 64.5458 40.441 63.4285C40.445 63.4298 40.4477 63.4325 40.4517 63.4351C41.025 64.5498 41.5863 65.6725 42.1343 66.8018ZM32.585 70.4191L32.549 70.3738C32.5504 70.3764 32.5517 70.3778 32.553 70.3791C32.5637 70.3925 32.5744 70.4071 32.585 70.4191Z" fill="#DC99BC"/>
<path d="M55.4273 52.1592C55.2686 51.7845 55.1086 51.4099 54.9473 51.0365C55.1086 51.4072 55.2673 51.7792 55.4246 52.1512C55.4246 52.1539 55.4259 52.1565 55.4273 52.1592Z" fill="#A22265"/>
<path d="M56.2898 54.2285C56.0058 53.5378 55.7191 52.8472 55.4285 52.1592C55.4271 52.1565 55.4258 52.1539 55.4258 52.1512C55.7164 52.8419 56.0044 53.5352 56.2898 54.2285Z" fill="#8D174B"/>
<path d="M47.9609 26.1553C47.9876 26.1499 48.0143 26.1459 48.0409 26.1406V26.1419C48.0143 26.1459 47.9876 26.1499 47.9609 26.1553Z" fill="#750F41"/>
<path d="M48.041 26.1416V26.1403C48.085 26.1336 48.129 26.1283 48.173 26.1229C48.129 26.1283 48.085 26.1349 48.041 26.1416Z" fill="#A22265"/>
<path d="M50.4336 104.772C49.6203 103.938 48.7897 103.119 47.9483 102.312C43.103 99.1925 37.359 97.5364 31.9563 95.6778C28.9177 94.6324 25.851 93.5084 23.0723 91.8751C22.3697 91.4644 21.6897 91.0231 21.023 90.5658H21.0083C18.823 89.3045 16.7617 87.7378 14.855 85.9805L14.8336 85.9658C12.8803 84.5565 10.0897 82.3258 7.43899 82.3258C7.19365 82.3258 6.94966 82.3458 6.70832 82.3858C5.31499 82.6205 4.71499 83.5071 4.60565 84.5831C4.38299 84.8178 4.24432 85.1098 4.17099 85.4404C4.03232 84.0818 4.28299 82.6124 5.50699 82.0084C6.04699 81.7431 6.61898 81.6311 7.20165 81.6311C9.12565 81.6311 11.1777 82.8471 12.6563 83.7951C11.8177 82.8991 11.027 81.9631 10.2657 81.0111C10.9323 81.5524 11.603 82.0884 12.2843 82.6125C13.2417 83.6591 14.2403 84.6618 15.2777 85.6284C17.383 87.1964 19.411 88.8711 21.6163 90.2991C24.7977 92.3618 28.3257 93.7831 31.8923 95.0378C36.8617 96.7845 42.107 98.3938 46.6737 101.114C45.1497 99.6991 43.5963 98.3218 42.027 96.9845C39.4043 94.7511 36.6723 92.6284 33.7643 90.7778C31.299 89.2098 28.7763 87.6231 26.5537 85.7098C24.087 84.0658 21.7923 82.0231 19.755 79.8805C17.867 77.8938 15.9217 75.7231 14.5323 73.3458C13.383 71.3751 12.5043 69.2631 11.4043 67.2698C10.575 65.7645 8.95499 62.5871 6.84433 62.5365C6.55766 62.3591 6.24566 62.2284 5.90699 62.1578C5.76299 62.1258 5.62166 62.1205 5.48166 62.1191C5.86033 61.9351 6.23368 61.8511 6.59901 61.8511C9.79635 61.8511 12.4137 68.2885 13.4563 70.4031C13.4577 70.4058 13.4603 70.4098 13.4617 70.4124C16.0603 75.6751 20.1723 80.3378 24.7857 84.0471C24.519 83.7671 24.251 83.4738 23.987 83.1685C23.9857 83.1671 23.9843 83.1645 23.983 83.1631C26.3523 85.4498 29.371 87.2258 31.9803 89.0138C33.4577 90.0245 35.0057 91.1031 36.611 92.0298C37.9177 92.9538 39.2017 93.9111 40.447 94.9325C43.5083 97.4418 46.5457 100.103 49.3937 102.938C49.7697 103.224 50.139 103.519 50.499 103.826L50.5403 104.1C50.6857 104.25 50.8297 104.4 50.9737 104.551C50.7923 104.622 50.6123 104.696 50.4336 104.772ZM53.0097 98.3391C52.0203 97.2058 50.9923 96.1045 49.9283 95.0338C45.8803 90.9725 41.4963 87.2751 37.1923 83.4911C35.4803 81.9844 33.7363 80.4978 32.147 78.8604C30.851 77.5218 29.5577 76.1231 28.039 75.0271C27.0563 74.3191 25.511 73.5365 24.131 73.5365C23.199 73.5365 22.343 73.8925 21.7817 74.8658C21.4737 74.9711 21.2283 75.1458 21.0403 75.3698C21.319 74.1925 22.211 73.2951 23.3363 72.9631C23.3297 72.9591 23.3217 72.9551 23.315 72.9498C22.8843 72.6831 22.4697 72.3938 22.0643 72.0885L22.111 72.0965C22.2443 72.1111 22.3817 72.1191 22.519 72.1191C22.5803 72.1191 22.643 72.1178 22.7057 72.1138C23.0497 72.3751 23.4017 72.6244 23.763 72.8618C23.9403 72.8351 24.119 72.8205 24.3003 72.8205C24.4536 72.8205 24.6083 72.8311 24.7657 72.8525C26.875 73.1405 28.6643 74.7044 30.1497 76.1258C32.0017 77.8911 33.7563 79.7311 35.6737 81.4378C38.479 83.9351 41.343 86.3698 44.1417 88.8738C47.363 91.7591 50.5497 94.7591 53.4097 98.0218C53.275 98.1258 53.1417 98.2311 53.0097 98.3391ZM53.4363 98.0031C51.687 93.4458 47.7377 89.7311 44.8403 85.9551C41.7537 81.9365 38.5617 78.0018 35.4137 74.0325L35.343 74.0031C32.7777 71.2845 30.307 68.4404 27.827 65.6444C25.347 62.8444 22.9283 59.9738 20.5963 57.0485C18.499 54.4191 16.387 51.6018 14.9243 48.5578C13.995 46.6218 12.471 42.4244 9.78166 42.4244C9.55633 42.4244 9.32166 42.4551 9.07899 42.5178C7.00966 43.0578 5.91366 44.1498 5.47366 45.5378C5.19099 45.7738 4.939 46.0591 4.72167 46.3645C4.75634 46.0485 4.81633 45.7378 4.91099 45.4365C5.46699 43.6858 7.46567 41.7365 9.451 41.7365C9.54033 41.7365 9.62833 41.7405 9.71767 41.7485C12.179 41.9645 13.5297 44.6965 14.479 46.6498C16.0643 49.9218 17.983 52.9604 20.2297 55.8244C24.1643 60.8418 28.431 65.5845 32.5843 70.4191C32.5737 70.4071 32.563 70.3924 32.5523 70.3791C35.1363 73.3951 37.7777 76.3645 40.3537 79.3871C40.3657 79.4018 40.3777 79.4165 40.3897 79.4298C42.1363 81.6845 43.8137 83.9911 45.5883 86.2244C48.415 89.7778 52.0563 93.4525 53.6563 97.8365C53.583 97.8911 53.5097 97.9471 53.4363 98.0031ZM60.0857 94.1685C59.4377 93.1738 58.759 92.1965 58.0537 91.2391C54.3523 86.2165 50.4217 81.3711 46.7777 76.3031C43.079 71.1525 39.9043 65.7351 36.639 60.3071C35.0297 57.6311 33.4563 54.6551 31.411 52.2711C30.639 51.3698 29.583 50.3685 28.3177 50.3685C28.2163 50.3685 28.1137 50.3751 28.0097 50.3885C26.7417 50.5525 25.3617 51.3031 24.6657 52.4071C24.6363 52.4524 24.6083 52.4991 24.5817 52.5458C24.3043 52.7524 24.0297 53.0245 23.7577 53.3671C24.051 52.2338 24.7563 51.2978 25.7523 50.6058C25.7577 50.6031 25.7616 50.5991 25.767 50.5964C25.767 50.5964 25.767 50.5951 25.7683 50.5951C25.959 50.4644 26.1603 50.3404 26.3723 50.2271C26.9577 49.9124 27.5377 49.7698 28.0977 49.7698C29.3323 49.7698 30.471 50.4578 31.3683 51.5005C33.227 53.6551 34.7017 56.2618 36.1777 58.6845C38.1697 61.9525 40.0443 65.2898 42.0723 68.5338C42.979 69.9845 43.923 71.4124 44.8883 72.8244C44.007 70.8004 43.099 68.7858 42.1336 66.8018C41.5856 65.6725 41.0243 64.5498 40.451 63.4351C40.6257 63.5538 40.807 63.6538 40.9977 63.7244C42.6323 66.9711 44.1363 70.2845 45.4657 73.6645C48.7243 78.3658 52.247 82.8911 55.7336 87.4165C57.3936 89.5711 58.9963 91.7551 60.4696 94.0165C60.3403 94.0658 60.2123 94.1165 60.0857 94.1685ZM61.359 93.6885C59.415 87.5845 57.479 81.4791 55.479 75.3938C54.2763 71.7244 52.7617 68.1405 50.9697 64.7191C49.4417 61.8045 47.8163 58.7818 45.639 56.2898C44.187 54.6271 42.2576 52.8898 41.435 50.7858C40.995 49.6631 41.123 48.5778 41.6137 47.6084C38.1803 42.3364 35.2577 36.6751 30.8937 32.0644C29.6003 30.6964 27.835 29.0631 25.995 29.0631C25.2617 29.0631 24.5163 29.3218 23.7843 29.9618C23.7203 30.0178 23.659 30.0738 23.6003 30.1311C23.2896 30.1631 22.995 30.2738 22.7283 30.4898L22.539 30.6644C23.1697 29.4778 24.2857 28.5365 25.6563 28.3711C25.8057 28.3538 25.955 28.3458 26.1016 28.3458C28.3616 28.3458 30.199 30.3858 31.5817 31.9791C35.6217 36.6458 38.6483 42.0325 41.7803 47.3178C41.987 46.9751 42.2417 46.6511 42.5297 46.3458C41.4537 47.5204 41.2977 48.7791 41.631 50.0018C41.715 50.4458 41.903 50.8738 42.159 51.3045C42.639 52.2058 43.311 53.0631 43.987 53.8244C47.327 57.5884 49.9403 61.6658 52.0723 66.2151C53.031 68.2578 53.883 70.3364 54.727 72.4284C54.8203 72.6604 54.907 72.9031 54.991 73.1485C55.135 73.8511 55.287 74.5511 55.487 75.2431C55.759 76.1911 56.127 77.3165 56.791 78.1311C58.467 83.2645 60.131 88.4045 61.6763 93.5791C61.571 93.6151 61.4643 93.6511 61.359 93.6885ZM72.5617 92.6191C72.375 92.5778 72.1843 92.5391 71.991 92.5058C72.995 87.5445 74.4123 82.6405 74.883 77.6005C75.1937 74.2591 75.267 70.8885 75.219 67.5365C75.1563 63.0765 74.8883 58.5645 74.0563 54.1698C73.3963 50.6845 72.4843 46.5418 69.923 43.9018C68.915 42.8645 67.639 42.1178 66.1737 42.0071C66.059 41.9991 65.9417 41.9924 65.8203 41.9898C65.6017 41.7818 65.3697 41.5951 65.1203 41.4378C65.279 41.4285 65.4337 41.4231 65.587 41.4231C72.1363 41.4231 74.0057 50.5124 74.8083 55.6898C75.4923 60.1004 75.839 64.6591 75.8377 69.2005C75.8377 72.2578 75.6817 75.3085 75.3643 78.3018C75.211 79.7605 74.9843 81.2085 74.715 82.6485C74.6443 83.0298 74.5697 83.4111 74.4937 83.7911C73.9697 86.3951 73.3363 88.9791 72.7803 91.5778C72.711 91.8951 72.6443 92.2125 72.579 92.5311C72.5737 92.5605 72.567 92.5898 72.5617 92.6191ZM66.239 92.4871C66.139 89.9871 66.059 87.4858 65.8577 84.9924C65.319 78.2978 63.567 71.8365 61.019 65.6325C59.1617 61.1071 57.099 56.5284 54.7283 52.2418C53.1883 49.4524 50.5283 44.7311 47.0336 44.7311C46.5256 44.7311 46.0017 44.8298 45.4603 45.0498C45.1137 44.9578 44.7563 44.8978 44.3897 44.8738L44.339 44.8645C45.175 44.3444 46.111 43.9711 47.055 43.9711C47.3363 43.9711 47.6177 44.0031 47.8977 44.0764C47.9497 44.0898 48.0017 44.1045 48.0537 44.1205C49.8377 44.6765 51.203 46.1311 52.3057 47.5778C53.8697 49.6351 55.1323 51.9031 56.2883 54.2284C56.003 53.5351 55.715 52.8418 55.4243 52.1511C55.267 51.7791 55.1083 51.4071 54.947 51.0365C54.799 50.6938 54.6497 50.3511 54.4977 50.0084L54.6457 50.1964C54.815 50.3991 55.0163 50.5871 55.2363 50.7511C56.143 52.8605 56.9683 55.0045 57.703 57.1858C58.0777 57.9858 58.4497 58.7844 58.8217 59.5778C61.7483 65.7791 64.2817 72.2325 65.5203 79.0031C66.027 81.7671 66.2657 84.5511 66.4203 87.3404C69.1083 78.4964 68.3603 68.3045 65.9763 59.5191C65.4363 57.5245 64.771 55.6405 63.9043 53.7671C63.1057 52.0405 62.2737 50.3071 61.7083 48.4858C61.215 46.8978 60.975 45.1445 61.451 43.7831C61.1843 42.9565 60.8217 42.1778 60.4603 41.3911C58.7443 37.6498 57.2817 33.7524 54.7203 30.4778C53.519 28.9431 51.927 27.2978 49.9323 26.8964C49.639 26.8378 49.3257 26.8084 49.0043 26.8084C48.831 26.8084 48.655 26.8178 48.4777 26.8338C48.0777 26.6805 47.6683 26.5951 47.251 26.5951C46.9123 26.5951 46.567 26.6511 46.2177 26.7711C46.783 26.4671 47.3883 26.2525 47.9603 26.1551C47.987 26.1498 48.0137 26.1458 48.0403 26.1418C48.0843 26.1351 48.1283 26.1284 48.1723 26.1231C48.399 26.0951 48.623 26.0818 48.8417 26.0818C52.295 26.0818 54.831 29.4151 56.4697 32.1298C57.5563 33.9258 58.483 35.8125 59.3137 37.7391C60.1057 39.5658 61.047 41.4338 61.639 43.3391C61.6403 43.3338 61.643 43.3298 61.6457 43.3244C61.647 43.3244 61.647 43.3218 61.647 43.3218C61.8217 42.9831 62.0523 42.6791 62.3457 42.4151C62.0763 42.8351 61.899 43.2898 61.7963 43.7671C61.7897 43.7805 61.783 43.7938 61.7763 43.8071C61.779 43.8191 61.7803 43.8298 61.7817 43.8404C61.771 43.8924 61.7617 43.9444 61.7537 43.9964C61.735 44.0244 61.7083 44.0404 61.6777 44.0431L61.6016 44.2658C61.1123 46.1151 61.8857 48.1711 62.5737 49.8711C63.279 51.6151 64.1443 53.2871 64.8857 55.0165C66.9617 59.8458 67.8403 65.4338 68.2163 70.6444C68.6323 76.3844 68.407 82.3351 66.4457 87.7978C66.5283 89.3405 66.5883 90.8858 66.6563 92.4325C66.5177 92.4485 66.379 92.4671 66.239 92.4871Z" fill="#750F41"/>
<path d="M66.4212 87.3403C66.2665 84.551 66.0279 81.767 65.5212 79.003C64.2825 72.2323 61.7492 65.779 58.8225 59.5777C58.4505 58.7843 58.0785 57.9857 57.7038 57.1857C56.9692 55.0043 56.1438 52.8603 55.2372 50.751C55.7252 51.1123 56.3078 51.3523 56.8465 51.3523C57.4838 51.3523 58.0585 51.0177 58.3438 50.155C59.1052 47.8577 58.4345 45.2363 57.7172 43.019C57.0319 40.8963 56.2078 38.7977 55.4092 36.7137C54.3198 33.8737 51.7025 28.079 48.4785 26.8337C48.6558 26.8177 48.8318 26.8083 49.0052 26.8083C49.3265 26.8083 49.6399 26.8377 49.9332 26.8963C51.9279 27.2977 53.5199 28.943 54.7212 30.4777C57.2825 33.7523 58.7452 37.6497 60.4612 41.391C60.8225 42.1777 61.1852 42.9563 61.4519 43.783C60.9759 45.1443 61.2158 46.8977 61.7092 48.4857C62.2745 50.307 63.1065 52.0403 63.9052 53.767C64.7718 55.6403 65.4372 57.5243 65.9772 59.519C68.3612 68.3043 69.1092 78.4963 66.4212 87.3403Z" fill="#A22265"/>
<path d="M60.4709 94.0166C58.9976 91.7553 57.3949 89.5713 55.7349 87.4166C52.2482 82.8913 48.7256 78.3659 45.4669 73.6646C44.1376 70.2846 42.6336 66.9713 40.9989 63.7246C41.0936 63.7593 41.1909 63.7859 41.2896 63.8046C41.3656 63.8193 41.4362 63.8259 41.5042 63.8259C42.9016 63.8259 42.5869 60.8539 42.4816 60.1086C42.0749 57.2406 40.4829 54.6379 39.2682 52.0633C37.5402 48.4086 35.8256 44.7499 33.8562 41.2193C32.0749 38.0246 30.0616 34.6593 27.4016 32.1113C26.6562 31.3966 25.1176 30.1219 23.8003 30.1219C23.7336 30.1219 23.6669 30.1246 23.6016 30.1313C23.6602 30.0739 23.7216 30.0179 23.7856 29.9619C24.5176 29.3219 25.2629 29.0633 25.9963 29.0633C27.8363 29.0633 29.6016 30.6966 30.8949 32.0646C35.2589 36.6753 38.1816 42.3366 41.6149 47.6086C41.1242 48.5779 40.9962 49.6633 41.4362 50.7859C42.2589 52.8899 44.1882 54.6273 45.6402 56.2899C47.8176 58.7819 49.4429 61.8046 50.9709 64.7193C52.7629 68.1406 54.2776 71.7246 55.4802 75.3939C57.4802 81.4793 59.4163 87.5846 61.3603 93.6886C61.0616 93.7926 60.7656 93.9019 60.4709 94.0166Z" fill="#A22265"/>
<path d="M53.4106 98.0215C50.5506 94.7588 47.3639 91.7588 44.1426 88.8735C41.3439 86.3695 38.4799 83.9348 35.6746 81.4375C33.7573 79.7308 32.0026 77.8908 30.1506 76.1255C28.6653 74.7041 26.876 73.1401 24.7666 72.8521C24.6093 72.8308 24.4546 72.8201 24.3013 72.8201C24.1199 72.8201 23.9413 72.8348 23.764 72.8615C23.4026 72.6241 23.0506 72.3748 22.7066 72.1135C23.8466 72.0575 25.0053 71.4908 25.3466 70.3028C25.9373 68.2588 24.3173 66.4561 23.0479 65.0468C20.4746 62.1881 18.0426 59.2041 15.92 55.9975C14.1053 53.2561 12.9466 50.2455 11.3373 47.4121C10.4599 45.8668 9.23061 44.8375 7.61195 44.8375C7.25728 44.8375 6.88396 44.8868 6.49062 44.9908C6.11596 45.0908 5.77728 45.2855 5.47461 45.5375C5.91461 44.1495 7.01061 43.0575 9.07995 42.5175C9.32261 42.4548 9.55728 42.4241 9.78262 42.4241C12.472 42.4241 13.996 46.6215 14.9253 48.5575C16.388 51.6015 18.5 54.4188 20.5973 57.0481C22.9293 59.9735 25.348 62.8441 27.828 65.6441C30.308 68.4401 32.7786 71.2841 35.3439 74.0028L35.4146 74.0321C38.5626 78.0015 41.7546 81.9362 44.8413 85.9548C47.7386 89.7308 51.6879 93.4455 53.4373 98.0028C53.4279 98.0095 53.4199 98.0162 53.4106 98.0215Z" fill="#A22265"/>
<path d="M46.675 101.114C42.1084 98.3938 36.863 96.7844 31.8937 95.0378C28.327 93.7831 24.799 92.3618 21.6177 90.2991C19.4124 88.8711 17.3844 87.1964 15.279 85.6284C14.2417 84.6618 13.243 83.6591 12.2857 82.6124C13.299 83.3938 14.3311 84.1498 15.3977 84.8644C16.8284 85.8191 18.5684 87.0738 20.323 87.3044C20.4217 87.3164 20.5177 87.3231 20.6084 87.3231C21.5524 87.3231 22.0857 86.6578 21.5991 85.6844C21.1444 84.7764 20.2644 84.0271 19.5524 83.3284C18.5484 82.3471 17.6137 81.3044 16.6964 80.2431C13.7897 76.8831 11.9804 73.3018 10.3991 69.1884C9.66172 67.2711 8.8377 63.7671 6.8457 62.5364C8.95637 62.5871 10.5764 65.7644 11.4057 67.2698C12.5057 69.2631 13.3844 71.3751 14.5337 73.3458C15.9231 75.7231 17.8684 77.8938 19.7564 79.8804C21.7937 82.0231 24.0884 84.0658 26.555 85.7098C28.7777 87.6231 31.3004 89.2098 33.7657 90.7778C36.6737 92.6284 39.4057 94.7511 42.0284 96.9844C43.5977 98.3218 45.151 99.6991 46.675 101.114Z" fill="#A22265"/>
<path d="M47.0261 106.585C47.0274 106.335 47.0075 106.079 46.9675 105.824C46.5715 103.34 43.2634 101.549 41.2821 100.513C38.3968 99.0028 35.2114 98.1228 32.1301 97.1094C28.3608 95.8708 24.6221 94.4761 20.9781 92.9081C17.3434 91.3441 13.8954 89.5361 10.8421 86.9908C9.47009 85.8468 8.16609 83.9748 6.27809 83.9748C6.05143 83.9748 5.81542 84.0015 5.57008 84.0601C5.15142 84.1615 4.83542 84.3428 4.60742 84.5828C4.71676 83.5068 5.31676 82.6201 6.71009 82.3855C6.95142 82.3455 7.19542 82.3254 7.44076 82.3254C10.0914 82.3254 12.8821 84.5561 14.8354 85.9655L14.8568 85.9801C16.7634 87.7375 18.8248 89.3041 21.0101 90.5655H21.0248C21.6914 91.0228 22.3714 91.4641 23.0741 91.8748C25.8528 93.5081 28.9194 94.6321 31.9581 95.6775C37.3608 97.5361 43.1048 99.1921 47.9501 102.312C48.7914 103.119 49.6221 103.937 50.4354 104.772C49.2328 105.283 48.0848 105.893 47.0261 106.585Z" fill="#B82E79"/>
<path d="M50.9752 104.551C50.8312 104.401 50.6872 104.25 50.5419 104.101L50.5006 103.826C50.1406 103.519 49.7712 103.225 49.3952 102.938C46.5472 100.103 43.5099 97.4419 40.4485 94.9326C39.2032 93.9113 37.9192 92.9539 36.6125 92.0299C37.5459 92.5699 38.4992 93.0566 39.4699 93.4499C39.7859 93.5779 40.1392 93.6526 40.4579 93.6526C41.1792 93.6526 41.7205 93.2673 41.2232 92.2406C40.3912 90.5286 38.8085 89.2846 37.5565 87.8966C34.9659 85.0286 32.4365 82.1006 29.6752 79.3966C27.7779 77.5379 25.6579 75.0859 22.8539 74.7726C22.7352 74.7593 22.6219 74.7539 22.5125 74.7539C22.2392 74.7539 21.9965 74.7939 21.7832 74.8659C22.3445 73.8926 23.2006 73.5366 24.1326 73.5366C25.5126 73.5366 27.0579 74.3193 28.0405 75.0273C29.5592 76.1233 30.8525 77.5219 32.1485 78.8606C33.7379 80.4979 35.4819 81.9846 37.1939 83.4913C41.4979 87.2753 45.8819 90.9726 49.9299 95.0339C50.9939 96.1046 52.0219 97.2059 53.0112 98.3393C52.9352 98.4006 52.8605 98.4619 52.7872 98.5246C52.6712 98.6219 52.5565 98.7206 52.4432 98.8219C51.4712 99.8153 50.8085 100.923 50.8072 102.135C50.8059 102.835 51.0259 103.57 51.5352 104.338C51.3472 104.407 51.1605 104.478 50.9752 104.551Z" fill="#B82E79"/>
<path d="M53.6567 97.8364C52.0567 93.4524 48.4154 89.7777 45.5887 86.2244C43.814 83.9911 42.1367 81.6844 40.39 79.4298C41.5087 80.7444 42.5967 82.1031 43.758 83.3778C44.5194 84.2124 45.4914 85.1258 46.686 85.1351C46.6874 85.1351 46.6887 85.1351 46.6887 85.1351C46.818 85.1351 46.9647 85.0391 46.986 84.9058C47.2447 83.3884 46.362 81.9884 45.5807 80.7577C44.214 78.6097 42.8674 76.4631 41.5647 74.2724C38.6274 69.3351 35.7647 64.4164 33.0167 59.3711C31.706 56.9644 28.922 52.0018 26.1154 52.0018C25.602 52.0018 25.0887 52.1671 24.582 52.5458C24.6087 52.4991 24.6367 52.4524 24.666 52.4071C25.362 51.3031 26.742 50.5524 28.01 50.3884C28.114 50.3751 28.2167 50.3684 28.318 50.3684C29.5834 50.3684 30.6394 51.3698 31.4114 52.2711C33.4567 54.6551 35.03 57.6311 36.6394 60.3071C39.9047 65.7351 43.0794 71.1524 46.778 76.3031C50.422 81.3711 54.3527 86.2164 58.054 91.2391C58.7594 92.1964 59.438 93.1738 60.086 94.1684C59.6074 94.3618 59.1354 94.5684 58.67 94.7871C57.182 95.8551 55.446 96.5458 53.9527 97.6204C53.854 97.6911 53.7554 97.7631 53.6567 97.8364Z" fill="#B82E79"/>
<path d="M61.6781 93.5791C60.1328 88.4044 58.4688 83.2644 56.7928 78.1311C57.0741 78.4764 57.4088 78.7644 57.8115 78.9604C58.0608 79.0804 58.2848 79.1351 58.4888 79.1351C59.6915 79.1351 60.1408 77.2551 60.2981 76.2831C60.6901 73.8698 60.2901 71.3551 59.7115 69.0058C59.0781 66.4364 58.0528 63.9738 57.0528 61.5324C55.7928 58.4524 54.4088 55.4244 52.7528 52.5364C51.1475 49.7391 48.7888 45.9311 45.4621 45.0498C46.0035 44.8298 46.5274 44.7311 47.0354 44.7311C50.5301 44.7311 53.1901 49.4524 54.7301 52.2418C57.1008 56.5284 59.1635 61.1071 61.0208 65.6324C63.5688 71.8364 65.3208 78.2978 65.8595 84.9924C66.0608 87.4858 66.1408 89.9871 66.2408 92.4871C64.7128 92.7031 63.1755 93.0764 61.6781 93.5791ZM42.1608 51.3044C41.9048 50.8738 41.7168 50.4458 41.6328 50.0018C41.7515 50.4418 41.9355 50.8778 42.1608 51.3044Z" fill="#B82E79"/>
<path d="M42.5312 46.3457C42.5406 46.335 42.5512 46.323 42.5619 46.3124L42.5646 46.311C42.5526 46.3217 42.5419 46.3337 42.5312 46.3457Z" fill="#750F41"/>
<path d="M71.9925 92.5059C71.8245 92.4765 71.6539 92.4498 71.4819 92.4258C70.7245 92.3245 69.9486 92.2752 69.1619 92.2752C68.3366 92.2752 67.4992 92.3285 66.6579 92.4325C66.5899 90.8859 66.5299 89.3405 66.4472 87.7979C68.4085 82.3352 68.6339 76.3845 68.2179 70.6445C67.8419 65.4338 66.9632 59.8459 64.8872 55.0165C64.1459 53.2872 63.2805 51.6152 62.5752 49.8712C61.8872 48.1712 61.1139 46.1152 61.6032 44.2659L61.6792 44.0432C61.7099 44.0405 61.7365 44.0245 61.7552 43.9965C61.4019 46.1445 62.4552 48.7045 63.4085 50.7165C64.7725 53.5952 65.8072 56.5432 66.7405 59.5912C67.2659 61.3138 67.7525 63.0659 68.4019 64.7472C68.7019 65.5245 69.2005 66.5245 69.9365 66.9912C70.2365 67.1818 70.5045 67.2645 70.7432 67.2645C71.8912 67.2645 72.3765 65.3579 72.5832 64.3392C73.2232 61.1992 72.3899 57.7285 71.6659 54.6738C70.8712 51.3165 69.6192 48.0845 67.9459 45.0659C67.3725 44.0339 66.7125 42.8352 65.8219 41.9898C65.9432 41.9925 66.0605 41.9992 66.1752 42.0072C67.6405 42.1178 68.9165 42.8645 69.9245 43.9019C72.4859 46.5419 73.3979 50.6845 74.0579 54.1699C74.8899 58.5645 75.1579 63.0765 75.2205 67.5365C75.2685 70.8885 75.1952 74.2592 74.8845 77.6005C74.4139 82.6405 72.9965 87.5445 71.9925 92.5059ZM61.7832 43.8405C61.7819 43.8298 61.7805 43.8192 61.7779 43.8072C61.7845 43.7938 61.7912 43.7805 61.7979 43.7672C61.7926 43.7912 61.7885 43.8165 61.7832 43.8405Z" fill="#B82E79"/>
<path d="M37.0848 101.402C33.9808 100.249 30.8848 99.1405 27.7128 98.1805C24.6968 97.2672 21.6422 96.5405 18.6955 95.4045C13.5288 93.4125 7.42749 91.0419 5.34483 85.4152C5.32216 85.3579 5.34484 85.2418 5.39017 85.2418C5.40617 85.2418 5.42483 85.2552 5.44483 85.2898C8.65016 90.8685 14.9062 93.5778 20.7395 95.6098C23.5808 96.5965 26.4142 97.5605 29.2942 98.4312C31.8848 99.2139 34.6968 99.9165 37.0808 101.227L37.0848 101.402Z" fill="#E77CC4"/>
<path d="M12.5344 81.707C12.5157 81.707 12.4944 81.6924 12.469 81.6577C9.97437 78.2764 7.12372 74.9484 5.31438 71.1284C4.31038 69.0084 3.27574 66.1457 4.6664 63.9617L4.80638 64.1444C3.91171 67.219 5.19705 70.095 6.77838 72.7137C8.58905 75.7164 10.7624 78.4884 12.5637 81.4924C12.6037 81.5617 12.5904 81.707 12.5344 81.707Z" fill="#E26CBC"/>
<path d="M33.4455 89.2725C28.6628 86.1551 22.4121 82.1031 21.9655 75.8125C21.9601 75.7405 21.9895 75.7071 22.0241 75.7071C22.0615 75.7071 22.1041 75.7445 22.1188 75.8125C23.4015 81.9605 29.1255 85.2151 33.4761 89.0818L33.4455 89.2725Z" fill="#E77CC4"/>
<path d="M20.1349 68.1338C16.0696 64.7245 12.6149 60.5418 9.63889 56.1671C7.66956 53.2751 5.36423 49.7711 5.8149 46.1018C5.8229 46.0391 5.84556 46.0151 5.87223 46.0151C5.92423 46.0151 5.99092 46.1031 5.99758 46.1751C6.32558 50.1498 8.49491 53.3845 10.6896 56.5791C13.5149 60.6898 16.7816 64.3551 20.1682 68.0005L20.1349 68.1338Z" fill="#E26CBC"/>
<path d="M43.3969 82.0791C43.3822 82.0791 43.3622 82.0684 43.3382 82.0418C38.2568 76.5271 33.7675 70.4671 29.2009 64.5338C26.8809 61.5178 23.1822 56.9378 24.9529 52.8578C24.9689 52.8231 24.9862 52.8084 25.0035 52.8084C25.0768 52.8084 25.1595 53.0404 25.1489 53.1044C24.2435 58.1591 28.4009 62.3711 31.2009 66.0951C35.1835 71.3991 39.2928 76.5884 43.4048 81.7898C43.4568 81.8551 43.4675 82.0791 43.3969 82.0791Z" fill="#E77CC4"/>
<path d="M38.0987 56.3965C34.296 51.5125 31.1306 46.1512 27.46 41.1672C25.3573 38.3165 22.6813 34.6618 23.7 30.9005C23.7187 30.8325 23.7466 30.8058 23.7773 30.8058C23.8666 30.8058 23.9826 31.0258 23.9746 31.1258C23.5906 35.6991 26.9373 39.1325 29.308 42.6658C32.3253 47.1618 35.0866 51.8165 38.1706 56.2712L38.0987 56.3965Z" fill="#E26CBC"/>
<path d="M56.8557 75.479C56.8197 75.479 56.781 75.4523 56.7517 75.3843C54.0317 69.239 52.0103 62.1803 47.5477 56.999C45.7183 54.875 41.4397 51.2697 42.509 48.019C42.5237 47.9763 42.5437 47.959 42.5637 47.959C42.625 47.959 42.697 48.095 42.6863 48.1617C42.373 50.407 44.605 52.6617 45.9557 54.2057C47.2423 55.671 48.5117 57.083 49.5597 58.7377C52.8077 63.8617 55.013 69.5577 56.933 75.287C56.9677 75.3937 56.917 75.479 56.8557 75.479Z" fill="#E77CC4"/>
<path d="M55.01 47.5205C54.9887 47.5205 54.962 47.5005 54.9353 47.4512C52.7793 43.4778 50.7193 39.4365 48.1847 35.6805C46.786 33.6045 44.778 31.0458 45.5407 28.3672C45.5553 28.3218 45.5753 28.3045 45.598 28.3045C45.6567 28.3045 45.7273 28.4192 45.7287 28.4805C45.834 31.9018 48.2193 34.4152 49.906 37.2178C51.834 40.4218 53.7073 43.7925 55.0767 47.2752C55.11 47.3578 55.074 47.5205 55.01 47.5205Z" fill="#E26CBC"/>
<path d="M68.8792 60.8096C68.8312 60.8096 68.7805 60.7696 68.7459 60.6696C67.4739 57.1402 65.8525 53.7816 64.4525 50.3069C63.5539 48.0789 62.5005 45.7722 62.9685 43.3176C62.9752 43.2802 62.9899 43.2656 63.0085 43.2656C63.0539 43.2656 63.1192 43.3616 63.1219 43.4122C63.2112 46.4282 64.6725 49.2349 65.8165 51.9682C66.9872 54.7736 68.2432 57.5802 69.0019 60.5322C69.0405 60.6802 68.9645 60.8096 68.8792 60.8096Z" fill="#E77CC4"/>
<path d="M96.1184 98.4508C90.9691 94.8908 84.1944 94.3162 79.7197 98.6215C78.4997 95.4802 75.7877 93.0082 71.4811 92.4255C67.3731 91.8708 62.7171 92.8842 58.6704 94.7868C57.1824 95.8548 55.4464 96.5455 53.9531 97.6202C53.4277 97.9975 52.9211 98.3948 52.4424 98.8215C50.8157 100.484 50.0571 102.467 51.8091 104.719L51.8504 104.802C52.1784 105.218 52.5277 105.607 52.8357 105.945C54.6757 107.964 57.0917 109.529 59.5197 110.857C63.5597 113.064 68.5611 114.655 73.1784 113.805C74.0997 113.633 74.9171 113.256 75.6517 112.768C75.0357 115.012 78.3397 116.477 80.1531 117.04C83.6077 118.11 87.4517 118.152 91.0051 118.018C95.8131 117.838 102.197 117.396 103.81 112.397C105.489 107.193 100.33 101.354 96.1184 98.4508Z" fill="#3E477F"/>
<path d="M53.9534 97.6205C53.4321 97.9938 52.9281 98.3898 52.4521 98.8125C52.2494 99.0205 52.0587 99.2338 51.8867 99.4512C52.5454 98.7792 53.2867 98.1378 54.0867 97.5285L53.9534 97.6205Z" fill="#EFB3BA"/>
<path d="M74.2431 112.956C70.5537 114.359 65.5791 112.573 62.1391 111.056C58.4017 109.407 54.3377 106.783 52.1617 103.407C50.0977 100.203 54.8138 97.923 56.8658 96.1563L56.8804 96.139C57.1217 96.0043 57.3764 95.8883 57.6257 95.767L57.8057 95.7123L57.8457 95.655C61.3257 93.9723 65.2817 92.9803 69.0111 92.887C72.2657 92.8083 75.4271 93.7857 77.6364 96.147C79.9097 98.579 80.1617 102.076 79.7377 105.052C79.2777 108.253 77.5831 111.69 74.2431 112.956Z" fill="#5962B7"/>
<path d="M91.3551 117.301C88.2231 117.452 85.0298 117.316 81.9364 116.684C80.0978 116.309 75.7018 115.046 76.0911 112.605L76.0645 112.483C77.6151 111.296 78.7284 109.545 79.4404 107.866C80.6938 104.898 80.8204 101.602 79.7938 98.8083C84.5538 95.1069 90.3978 95.7176 95.4844 99.0803C99.5418 101.764 103.339 106.396 103.298 111.144C103.251 116.766 95.8284 117.084 91.3551 117.301Z" fill="#5962B7"/>
<path d="M103.487 113.217C103.331 113.089 103.175 112.963 103.019 112.841C103.195 112.337 103.292 111.773 103.297 111.144C103.339 106.396 99.5413 101.764 95.484 99.0801C92.7827 97.2948 89.868 96.2855 87.016 96.2855C84.496 96.2855 82.0253 97.0721 79.7933 98.8081C80.7213 101.335 80.7066 104.272 79.768 107.007C79.6306 106.952 79.4907 106.9 79.3493 106.849C79.524 106.252 79.652 105.648 79.7373 105.052C80.1613 102.076 79.9093 98.5788 77.636 96.1468C75.5093 93.8735 72.5 92.8828 69.3746 92.8828C69.2533 92.8828 69.132 92.8841 69.0106 92.8868C65.2813 92.9801 61.3253 93.9721 57.8453 95.6548L57.8053 95.7121L57.6253 95.7668C57.376 95.8881 57.1213 96.0041 56.88 96.1388L56.8653 96.1561C54.8133 97.9228 50.0973 100.203 52.1613 103.407C52.2893 103.604 52.4227 103.799 52.5613 103.991C52.2173 104.097 51.8746 104.213 51.5346 104.337C51.0253 103.569 50.8053 102.835 50.8066 102.135C50.808 100.923 51.4706 99.8148 52.4426 98.8215C52.556 98.7201 52.6707 98.6215 52.7867 98.5241C52.6733 98.6188 52.5627 98.7148 52.452 98.8121C52.2493 99.0201 52.0587 99.2335 51.8867 99.4508C52.5453 98.7788 53.2867 98.1375 54.0867 97.5281L53.9533 97.6201C55.4467 96.5455 57.1826 95.8548 58.6706 94.7868C61.972 93.2348 65.6787 92.2748 69.1613 92.2748C69.948 92.2748 70.724 92.3241 71.4813 92.4255C75.788 93.0081 78.5 95.4801 79.72 98.6215C81.9 96.5241 84.6253 95.5841 87.444 95.5841C90.4093 95.5841 93.4773 96.6255 96.1187 98.4508C99.7707 100.968 104.136 105.693 104.136 110.299C104.136 111.004 104.035 111.706 103.811 112.397C103.719 112.685 103.609 112.958 103.487 113.217Z" fill="#29346A"/>
<path d="M51.8867 99.4512C52.0587 99.2338 52.2494 99.0205 52.4521 98.8125C52.5627 98.7152 52.6734 98.6192 52.7867 98.5245C53.1614 98.2085 53.5521 97.9085 53.9534 97.6205L54.0867 97.5285C53.2867 98.1378 52.5454 98.7792 51.8867 99.4512Z" fill="#987BA1"/>
<path d="M63.6551 109.06C64.1911 108.24 64.7684 107.21 64.7697 106.275C64.7697 106.259 64.7697 106.243 64.7697 106.227C65.1311 106.222 65.4751 106.204 65.7937 106.174C70.7004 105.707 75.1444 101.57 73.7364 96.7002C73.0244 94.2429 70.3591 93.3735 67.6937 93.3735C66.2791 93.3735 64.8644 93.6189 63.7417 94.0002C61.5284 94.4735 59.4311 95.2242 57.5244 96.3935C56.0577 97.2922 53.4591 99.4455 54.1551 101.407C54.4124 102.13 54.8564 102.762 55.4311 103.31C54.4684 103.467 53.5071 103.698 52.5617 103.991C52.4231 103.799 52.2897 103.604 52.1617 103.407C50.0977 100.203 54.8138 97.9229 56.8658 96.1562L56.8804 96.1389C57.1217 96.0042 57.3764 95.8882 57.6257 95.7669L57.8057 95.7122L57.8457 95.6549C61.3257 93.9722 65.2817 92.9802 69.0111 92.8869C69.1324 92.8842 69.2537 92.8829 69.3751 92.8829C72.5004 92.8829 75.5097 93.8735 77.6364 96.1469C79.9097 98.5789 80.1617 102.076 79.7377 105.052C79.6524 105.648 79.5244 106.252 79.3497 106.85C78.5497 106.571 77.6764 106.371 76.7284 106.264C76.1004 106.192 75.4591 106.158 74.8111 106.158C71.0977 106.158 67.1244 107.283 63.6551 109.06Z" fill="#3E4BA0"/>
<path d="M103.018 112.841C102.504 112.439 101.99 112.071 101.492 111.743C98.8956 110.033 95.9156 109.066 93.0369 109.066C90.1182 109.066 87.3049 110.059 85.0996 112.276C84.1436 109.967 82.3769 108.044 79.7676 107.007C80.7062 104.272 80.7209 101.335 79.7929 98.8082C82.0249 97.0722 84.4956 96.2856 87.0156 96.2856C89.8676 96.2856 92.7823 97.2949 95.4836 99.0802C99.5409 101.764 103.338 106.396 103.297 111.144C103.292 111.774 103.194 112.337 103.018 112.841ZM87.2356 96.7016C85.0356 96.7016 83.0516 97.4842 82.3236 99.5842C81.1449 102.99 84.9676 105.688 87.9876 106.824C89.2809 107.312 90.6289 107.612 91.8783 107.612C94.0743 107.612 95.9623 106.684 96.6929 104.226C97.2529 102.347 95.2089 99.7549 93.7183 98.6989C92.1356 97.5776 89.5649 96.7016 87.2356 96.7016Z" fill="#3E4BA0"/>
<path d="M101.492 111.743C96.2658 108.3 89.4805 107.871 85.1005 112.276C83.8111 109.162 81.0471 106.751 76.7285 106.264C72.5018 105.786 67.7298 106.972 63.6551 109.06C64.4391 107.862 65.3124 106.21 64.3404 105.07C62.8804 103.352 60.4378 103.038 58.2658 103.058C53.1618 103.104 47.6005 105.47 44.1791 108.868C41.5805 111.45 41.5431 114.876 44.9751 116.93C48.1671 118.837 53.2471 119.527 56.7765 118.43L56.8605 118.385C57.3085 119.06 57.9005 119.679 58.3871 120.19C60.2685 122.167 62.7191 123.678 65.1751 124.952C69.2631 127.07 74.2991 128.55 78.8951 127.596C79.8125 127.408 80.6218 127.011 81.3458 126.508C80.7805 128.764 84.1151 130.157 85.9404 130.679C89.4178 131.675 93.2618 131.629 96.8111 131.421C101.614 131.133 107.987 130.55 109.49 125.517C111.054 120.277 105.767 114.554 101.492 111.743Z" fill="#293156"/>
<path d="M43.7674 110.139C46.0954 106.566 51.5154 104.652 55.7568 103.938C57.5861 103.628 59.4954 103.631 61.3141 104.108C62.4128 104.399 63.4328 105.002 63.9768 105.963C64.5128 106.912 63.7568 108.268 63.2248 109.28C60.7021 110.63 58.4701 112.332 56.8474 114.199L56.8834 114.384C56.5061 114.98 56.2501 115.628 56.1914 116.327C56.1408 116.885 56.3154 117.437 56.6034 117.963C51.8101 118.841 39.4741 116.729 43.7674 110.139Z" fill="#5962B7"/>
<path d="M79.941 126.727C76.281 128.209 71.269 126.535 67.7983 125.093C64.0237 123.528 59.905 120.993 57.6543 117.667C55.5197 114.51 60.185 112.124 62.197 110.313L62.2116 110.295C62.449 110.156 62.701 110.037 62.9476 109.908L63.1277 109.848L63.165 109.791C66.6077 108.032 70.541 106.953 74.2676 106.779C77.5196 106.627 80.701 107.535 82.9623 109.85C85.2877 112.229 85.6183 115.718 85.2597 118.704C84.8703 121.913 83.2516 125.387 79.941 126.727Z" fill="#5962B7"/>
<path d="M97.142 130.693C94.0167 130.915 90.8207 130.848 87.714 130.284C85.8673 129.951 81.4447 128.784 81.7793 126.334L81.75 126.214C83.2753 124.993 84.35 123.219 85.0233 121.524C86.21 118.528 86.2647 115.232 85.1767 112.463C89.854 108.655 95.7113 109.136 100.87 112.387C104.986 114.98 108.883 119.528 108.947 124.277C109.025 129.899 101.61 130.378 97.142 130.693Z" fill="#5962B7"/>
<path d="M44.89 116.878C44.378 116.564 43.946 116.218 43.59 115.848C43.946 116.217 44.378 116.564 44.89 116.878ZM43.5874 115.845C43.586 115.844 43.5847 115.841 43.582 115.84C43.5834 115.841 43.586 115.844 43.5874 115.845Z" fill="#A4A6D5"/>
<path d="M93.1551 131.542C91.5298 131.542 89.8898 131.452 88.2938 131.196C88.3964 131.183 88.4978 131.17 88.6004 131.155C88.9564 131.107 89.2924 131.045 89.6084 130.947L89.6818 130.982C90.0178 130.923 90.2991 130.815 90.5351 130.663C91.6604 130.766 92.7898 130.811 93.9178 130.811C94.9978 130.811 96.0751 130.769 97.1431 130.694C101.611 130.378 109.026 129.899 108.948 124.277C108.884 119.528 104.987 114.98 100.871 112.387C98.2177 110.715 95.3804 109.776 92.6124 109.776C89.9991 109.776 87.4497 110.614 85.1777 112.463C85.7404 113.896 85.9978 115.471 85.9498 117.072C85.7644 117.001 85.5751 116.941 85.3818 116.89C85.4111 114.385 84.8298 111.76 82.9631 109.85C80.8631 107.699 77.9671 106.763 74.9604 106.763C74.7311 106.763 74.4991 106.768 74.2684 106.779C70.5417 106.954 66.6084 108.032 63.1658 109.791L63.1284 109.848L62.9484 109.908C62.7017 110.037 62.4497 110.157 62.2124 110.295L62.1978 110.313C60.6578 111.699 57.5644 113.421 57.1538 115.569C56.9178 115.462 56.6777 115.362 56.4364 115.27C56.5524 114.962 56.7044 114.667 56.8844 114.384L56.8484 114.199C58.4711 112.332 60.7031 110.631 63.2258 109.281C63.7578 108.269 64.5137 106.912 63.9777 105.963C63.5044 105.127 62.6711 104.562 61.7391 104.238C60.9431 103.607 59.7431 103.276 58.6004 103.063C60.6844 103.079 62.9537 103.439 64.3404 105.07C64.6484 105.431 64.7711 105.843 64.7697 106.275C64.7684 107.21 64.1911 108.24 63.6551 109.06C67.1244 107.283 71.0977 106.158 74.8111 106.158C75.4591 106.158 76.1004 106.192 76.7284 106.264C81.0471 106.751 83.8111 109.162 85.1004 112.276C87.3058 110.059 90.1191 109.067 93.0377 109.067C95.9164 109.067 98.8964 110.033 101.492 111.743C105.242 114.208 109.768 118.912 109.77 123.567C109.771 124.22 109.682 124.872 109.49 125.517C107.987 130.55 101.614 131.133 96.8111 131.421C95.6177 131.49 94.3898 131.542 93.1551 131.542ZM67.9817 125.975C67.7217 125.593 67.4564 125.212 67.1871 124.834C67.3924 124.923 67.5964 125.01 67.7991 125.094C67.9391 125.152 68.0804 125.211 68.2258 125.27C68.1258 125.503 68.0431 125.738 67.9817 125.975ZM44.8911 116.878C44.3791 116.564 43.9471 116.218 43.5911 115.848C43.5911 115.847 43.5898 115.846 43.5884 115.845C43.5871 115.844 43.5844 115.842 43.5831 115.84C41.9991 114.185 41.9484 112.062 43.1404 110.165C43.1577 110.351 43.1897 110.535 43.2457 110.726C43.2671 110.798 43.2911 110.869 43.3164 110.938C42.1538 113.388 43.4151 115.152 45.6231 116.323C45.3991 116.478 45.1791 116.644 44.9644 116.818C44.9391 116.838 44.9151 116.858 44.8911 116.878Z" fill="#1C2446"/>
<path d="M45.6229 116.323C43.4149 115.152 42.1536 113.388 43.3163 110.938C43.9643 112.692 45.7629 113.512 47.6189 113.928C48.1563 114.048 48.6709 114.106 49.1643 114.106C51.0536 114.106 52.6336 113.262 53.9029 111.842C55.1856 110.404 56.3203 109.236 58.0816 108.257C59.1843 107.646 60.4989 107.494 61.5803 106.882C62.6803 106.26 62.8802 105.311 61.9402 104.412C61.8762 104.351 61.8082 104.294 61.7389 104.238C62.6709 104.562 63.5043 105.127 63.9776 105.963C64.5136 106.912 63.7576 108.269 63.2256 109.281C60.7029 110.631 58.4709 112.332 56.8483 114.199L56.8843 114.384C56.7043 114.667 56.5522 114.962 56.4362 115.27C54.9816 114.713 53.4376 114.422 51.9056 114.422C49.6882 114.422 47.4949 115.031 45.6229 116.323Z" fill="#3E4BA0"/>
<path d="M68.2243 125.27C68.079 125.211 67.9377 125.152 67.7977 125.094C67.595 125.01 67.391 124.923 67.1857 124.834C64.6417 121.255 61.6937 117.887 57.739 115.852C57.5457 115.752 57.3497 115.658 57.1523 115.568C57.563 113.421 60.6564 111.699 62.1964 110.313L62.211 110.295C62.4483 110.156 62.7003 110.037 62.947 109.908L63.127 109.848L63.1644 109.791C66.607 108.032 70.5403 106.954 74.267 106.779C74.4977 106.768 74.7297 106.763 74.959 106.763C77.9657 106.763 80.8617 107.699 82.9617 109.85C84.8284 111.76 85.4097 114.385 85.3803 116.89C84.855 116.753 84.303 116.689 83.7377 116.689C83.5003 116.689 83.2603 116.7 83.0203 116.722C81.147 116.894 79.2603 117.558 77.5123 118.214C75.5057 118.968 73.5577 119.925 71.8043 121.162C70.5617 122.036 68.9417 123.594 68.2243 125.27ZM73.2284 107.291C71.7257 107.291 70.2083 107.576 69.023 108.008C66.8217 108.529 64.7417 109.325 62.859 110.536C61.4123 111.467 58.863 113.678 59.603 115.622C60.863 118.937 66.0777 120.218 69.787 120.218C70.3457 120.218 70.871 120.189 71.343 120.134C76.239 119.558 80.5897 115.324 79.075 110.488C78.3337 108.127 75.803 107.291 73.2284 107.291Z" fill="#3E4BA0"/>
<path d="M93.9177 130.812C92.7897 130.812 91.6604 130.766 90.5351 130.663C92.5484 129.378 91.1684 125.041 90.5737 123.373C89.9671 121.669 89.1991 119.923 88.0177 118.536C87.4284 117.844 86.7244 117.367 85.9497 117.072C85.9977 115.471 85.7404 113.896 85.1777 112.463C87.4497 110.614 89.9991 109.776 92.6124 109.776C95.3804 109.776 98.2177 110.715 100.871 112.388C104.987 114.98 108.884 119.528 108.948 124.277C109.026 129.9 101.611 130.378 97.1431 130.694C96.0751 130.769 94.9977 130.812 93.9177 130.812ZM92.7831 110.188C90.5004 110.188 88.4298 110.999 87.7271 113.18C86.6218 116.61 90.5031 119.224 93.5471 120.295C94.7897 120.733 96.0791 120.999 97.2777 120.999C99.5497 120.999 101.499 120.045 102.195 117.504C102.712 115.616 100.612 113.067 99.0978 112.044C97.5391 110.99 95.0564 110.188 92.7831 110.188Z" fill="#3E4BA0"/>
<path d="M90.5734 123.373C89.9667 121.668 89.1987 119.923 88.0174 118.536C86.7401 117.037 84.9307 116.55 83.0214 116.722C81.1481 116.894 79.2614 117.558 77.5134 118.214C75.5067 118.968 73.5587 119.925 71.8054 121.162C70.3894 122.158 68.4841 124.04 67.9814 125.975C65.2547 121.983 62.1134 118.102 57.7401 115.852C53.6654 113.756 48.5827 113.872 44.9641 116.818C43.2427 118.219 42.1427 120.202 41.3881 122.257C40.7121 124.095 40.4054 126.256 41.5494 127.967C42.8987 129.988 46.1094 130.576 48.3227 130.902C51.4267 131.36 54.6441 131.392 57.7761 131.372C60.9761 131.355 64.0641 130.915 67.2321 130.583C67.7161 130.533 69.1694 130.27 69.4094 129.672C71.4281 131.146 74.6947 131.216 76.9814 131.372C79.6721 131.555 82.3614 131.66 85.0547 131.511C86.2387 131.446 87.4254 131.314 88.6001 131.155C88.9561 131.107 89.2921 131.045 89.6081 130.947L89.6814 130.982C92.8814 130.429 91.2387 125.236 90.5734 123.373Z" fill="#293156"/>
<path d="M66.9605 130.079C65.1738 130.367 63.3765 130.552 61.5725 130.669C58.2831 130.876 54.9738 130.802 51.6858 130.631C48.7725 130.479 45.7431 130.184 43.1858 128.662C40.5071 127.069 41.0458 123.945 42.0684 121.496C44.2404 116.288 49.5658 114.096 54.9098 115.523C60.0085 116.882 63.9685 121.371 66.9738 125.464C67.2778 125.875 67.5698 126.295 67.8631 126.714C67.8151 127.517 68.0458 128.307 68.6925 129.033L69.0285 129.367C69.1111 130.036 67.3618 130.015 66.9605 130.079Z" fill="#5962B7"/>
<path d="M90.786 129.807C89.8593 130.722 88.1313 130.641 86.914 130.776C85.158 130.972 83.386 131.003 81.6207 130.979C79.4567 130.948 77.2753 130.819 75.1207 130.59C73.3407 130.399 71.47 130.09 69.91 129.163C68.062 128.068 68.082 126.098 69.1033 124.396C70.2513 122.483 72.366 121.189 74.2873 120.175C76.2113 119.156 78.2793 118.392 80.3753 117.813C82.4087 117.252 84.5967 116.876 86.4913 118.033C88.2633 119.115 89.174 121.332 89.918 123.165C90.4873 124.566 91.7873 127.992 90.918 129.74L90.786 129.807Z" fill="#5962B7"/>
<path d="M57.3474 130.795C58.7327 130.795 60.1194 130.759 61.5007 130.674C60.118 130.759 58.734 130.795 57.3474 130.795Z" fill="#1C2446"/>
<path d="M57.3438 130.795C57.3411 130.795 57.3398 130.795 57.3384 130.795C55.4531 130.795 53.5665 130.728 51.6865 130.631C48.7731 130.479 45.7438 130.184 43.1865 128.662C41.7371 127.8 41.2291 126.49 41.2305 125.08C41.2318 123.886 41.5998 122.619 42.0691 121.495C42.1771 121.238 42.2985 120.993 42.4198 120.749C42.0251 121.915 42.1758 123.105 43.2238 124.013C44.4691 125.092 46.3264 125.433 47.9051 125.633C49.3744 125.821 50.8811 125.905 52.3665 125.905C52.4931 125.905 52.6185 125.905 52.7451 125.904C54.4331 125.884 56.3065 125.745 57.7945 124.871C59.2838 123.997 59.2678 122.286 58.7585 120.818C57.7785 117.988 55.3505 115.971 52.5571 115.134C53.1998 115.179 53.8478 115.27 54.4971 115.419C54.6345 115.451 54.7718 115.486 54.9105 115.523C60.0091 116.882 63.9691 121.371 66.9744 125.464C67.2785 125.875 67.5705 126.295 67.8638 126.714C67.8598 126.78 67.8571 126.845 67.8571 126.911C67.8558 127.645 68.0985 128.366 68.6931 129.033L69.0291 129.367C69.0318 129.381 69.0331 129.398 69.0331 129.412C69.0305 130.036 67.3531 130.016 66.9611 130.079C65.1745 130.367 63.3771 130.552 61.5731 130.668C61.5491 130.669 61.5238 130.671 61.4998 130.674C60.1185 130.759 58.7318 130.795 57.3465 130.795C57.3451 130.795 57.3438 130.795 57.3438 130.795Z" fill="#3E4BA0"/>
<path d="M81.6214 130.979C79.4574 130.948 77.276 130.819 75.1214 130.59C73.3414 130.399 71.4707 130.09 69.9107 129.163C69.3947 128.858 69.024 128.484 68.7813 128.067C69.024 128.483 69.3947 128.858 69.9107 129.163C71.4707 130.09 73.3414 130.399 75.1214 130.59C77.276 130.819 79.4574 130.948 81.6214 130.979ZM86.492 118.033C85.696 117.547 84.8493 117.332 83.984 117.287C84.8493 117.331 85.6974 117.547 86.492 118.033Z" fill="#1C2446"/>
<path d="M82.5837 130.987H82.5823C82.3157 130.987 82.049 130.984 81.7823 130.982C81.729 130.982 81.6757 130.981 81.621 130.979C79.457 130.948 77.2757 130.819 75.121 130.59C73.341 130.399 71.4703 130.09 69.9103 129.163C69.3943 128.858 69.0237 128.483 68.781 128.067C68.7797 128.066 68.7797 128.066 68.7797 128.066C68.7783 128.064 68.7783 128.062 68.777 128.06C68.233 127.123 68.3303 125.967 68.8503 124.873C68.637 125.415 68.581 125.955 68.833 126.428C69.4477 127.571 71.0903 127.696 72.2343 127.771C72.6543 127.8 73.077 127.814 73.5023 127.814C74.629 127.814 75.765 127.722 76.8663 127.583C80.2637 127.154 84.5623 125.727 84.7277 121.688C84.825 119.311 82.9623 118.006 80.8863 117.679C81.7903 117.45 82.717 117.277 83.6277 117.277C83.7463 117.277 83.865 117.281 83.9837 117.287C84.849 117.332 85.6957 117.547 86.4917 118.033C88.2637 119.115 89.1743 121.332 89.9183 123.165C90.3517 124.232 91.2103 126.475 91.209 128.255C91.209 128.812 91.125 129.324 90.9183 129.74L90.7863 129.807C89.8597 130.722 88.1317 130.641 86.9143 130.776C85.4797 130.936 84.0343 130.986 82.5903 130.987C82.589 130.987 82.5863 130.987 82.5837 130.987Z" fill="#3E4BA0"/>
<path d="M55.4648 100.018L55.3648 99.9856C55.0515 98.3709 58.0208 96.6176 59.1328 96.0602C61.4062 94.9216 64.1875 94.0429 66.7555 94.0149C66.7568 94.0149 66.7568 94.0149 66.7581 94.0149C67.0768 94.0149 66.7315 94.6229 66.5555 94.6776C64.4435 95.3389 62.4528 96.0576 60.4128 96.9362C59.2421 97.4402 58.0635 97.9936 57.0115 98.7216C56.4581 99.1042 56.0448 99.6949 55.4648 100.018Z" fill="#747BC6"/>
<path d="M45.5636 110.062C45.3663 110.062 45.3969 109.678 45.4943 109.522C47.5836 106.205 52.3089 104.894 55.9423 104.409C55.9529 104.407 55.9636 104.406 55.9729 104.406C56.2236 104.406 56.013 104.877 55.833 104.925C53.7476 105.477 51.7036 106.167 49.7929 107.183C48.2983 107.977 47.1329 109.16 45.7076 110.012C45.6503 110.047 45.6023 110.062 45.5636 110.062Z" fill="#747BC6"/>
<path d="M44.5919 121.41C44.3186 121.41 44.1706 121.149 44.1719 120.865C44.1826 119.8 44.9559 118.808 45.6959 118.111C46.2372 117.603 46.9292 116.951 47.7159 116.951C47.7386 116.951 47.7612 116.951 47.7839 116.952C47.9946 116.961 47.8399 117.305 47.7786 117.378C47.0919 118.219 45.8852 119.142 45.6786 120.204C45.5852 120.676 45.2226 121.248 44.7332 121.388C44.6839 121.403 44.6359 121.41 44.5919 121.41Z" fill="#747BC6"/>
<path d="M61.402 113.901C61.1834 113.901 61.2354 113.467 61.3274 113.296C62.8074 110.577 67.0807 107.99 70.602 107.99C71.3407 107.99 72.0474 108.104 72.6887 108.355C72.834 108.412 72.6314 108.674 72.5527 108.701C70.3554 109.463 68.0807 109.813 65.994 110.913C64.4047 111.751 63.0901 112.933 61.5674 113.843C61.4994 113.884 61.4447 113.901 61.402 113.901Z" fill="#747BC6"/>
<path d="M70.8619 124.647C70.6753 124.647 70.5286 124.528 70.5313 124.209C70.546 121.967 74.2419 120.426 76.1113 120.426C76.1139 120.426 76.1179 120.426 76.1206 120.426C76.3393 120.426 76.1259 120.832 76.0246 120.879C75.0939 121.293 74.1966 121.811 73.3673 122.4C72.5766 122.961 72.082 123.552 71.4993 124.292C71.346 124.487 71.0779 124.647 70.8619 124.647Z" fill="#747BC6"/>
<path d="M88.9886 114.828C88.8992 114.828 88.8099 114.806 88.7246 114.756C88.3166 114.52 88.4446 113.862 88.5859 113.518C89.0246 112.453 89.8646 111.672 90.9406 111.28C91.3046 111.146 91.8259 110.982 92.3006 110.982C92.6086 110.982 92.8979 111.051 93.1139 111.242C93.3206 111.423 93.0619 111.773 92.8739 111.854C91.6819 112.362 90.6259 112.884 90.0752 113.961C89.9099 114.287 89.4366 114.828 88.9886 114.828Z" fill="#747BC6"/>
<path d="M83.9846 101.66C83.7539 101.66 83.5525 101.517 83.5045 101.267C83.3365 100.371 83.9032 99.2362 84.5139 98.5908C84.7139 98.3802 85.1619 97.8602 85.5392 97.8602C85.6419 97.8602 85.7379 97.8975 85.8232 97.9895L85.8192 98.3415C85.7139 98.6135 85.5645 98.9068 85.5019 99.1308C85.3699 99.5975 85.3646 100.083 85.1752 100.533C84.9859 100.985 84.6446 101.494 84.1459 101.638C84.0912 101.652 84.0379 101.66 83.9846 101.66Z" fill="#747BC6"/>
</svg>
