<?xml version="1.0" encoding="iso-8859-1"?>
<!-- Uploaded to: SVG Repo, www.svgrepo.com, Generator: SVG Repo Mixer Tools -->
<svg version="1.1" id="Layer_1" xmlns="http://www.w3.org/2000/svg" xmlns:xlink="http://www.w3.org/1999/xlink" 
	 viewBox="0 0 372 372" xml:space="preserve">
<g>
	<rect x="177" y="13.995" style="fill:#37495E;" width="16" height="297"/>
	<path style="fill:#3E81C8;" d="M2.026,319.163L10,370.995h295.65c31.255,0,57.296-22.286,63.123-51.832H2.026z"/>
	<path style="fill:#EFEFEF;" d="M368.104,322.163c1.231-4.971,1.896-10.166,1.896-15.518v-0.65H0l2.487,16.168H368.104z"/>
	<polygon style="fill:#EFEFEF;" points="225,269.995 225,64.995 372,269.995 	"/>
	<polygon style="fill:#3E81C8;" points="145,269.995 145,109.995 30.268,269.995 	"/>
	<path style="fill:#F4A026;" d="M53,58.995c46.667,45,93.333-45,140,0c0-15,0-30,0-45c-46.667-45-93.333,45-140,0
		C53,28.995,53,43.995,53,58.995z"/>
</g>
</svg>