<svg xmlns="http://www.w3.org/2000/svg" xml:space="preserve" id="Layer_1" viewBox="0 0 480 480"><path d="m359.7 307-5.2 14.6c-.2.5-1.5 1.4-2.5 1.4H10.2l.8 5.7c.4 2.6.6 5.1.8 7.7s.4 5.4.8 8.3l.6 4.3H163v6H13.9l1.3 6c4 19.3 10.4 38 19.6 57.1L36 421h407.8l1.4-2.8c15.5-31 23.7-65 23.7-98.2v-13zM219 355h-22v-6h22zm56 0h-22v-6h22zm56 0h-22v-6h22zm45 16c-10.8 0-19-8.2-19-19s8.2-19 19-19 19 8.2 19 19-8.2 19-19 19m56 0c-10.8 0-19-8.2-19-19s8.2-19 19-19 19 8.2 19 19-8.2 19-19 19" style="fill:#fff8ef"/><path d="M432 339c-7.2 0-13 5.8-13 13s5.8 13 13 13 13-5.8 13-13-5.8-13-13-13M376 339c-7.2 0-13 5.8-13 13s5.8 13 13 13 13-5.8 13-13-5.8-13-13-13M251 267h34v26h-34zM219 211h42v18h-42zM163 267h34v26h-34zM99 211h42v18H99zM75 267h34v26H75z" style="fill:#2fb4c2"/><path d="m466.3 286.4-1.1-3.4h-95l-7.2 18h104.4v-5c0-2.7 0-6.4-1.1-9.6M37.9 427l5.2 7.8c.7 1.1 1.4 2.3 2.2 3.7.8 1.5 1.7 3 2.6 4.3l1.5 2.2H430l1.5-2.2c.9-1.3 1.8-2.8 2.6-4.3.8-1.4 1.5-2.7 2.2-3.7l5.2-7.8z" style="fill:#b37d4d"/><path d="M301.9 235H58.1L28 317h304zM115 296c0 1.2-1.8 3-3 3H72c-2 0-3-1.8-3-3v-32c0-1.2 1-3 3-3h40c1.2 0 3 1.8 3 3zm88 0c0 1.2-1.8 3-3 3h-40c-1.2 0-3-1.8-3-3v-32c0-1.2 1.8-3 3-3h40c1.2 0 3 1.8 3 3zm88 0c0 1.2-1.8 3-3 3h-40c-1.2 0-3-1.8-3-3v-32c0-1.2 1.8-3 3-3h40c1.2 0 3 1.8 3 3z" style="fill:#fff8ef"/><path d="M75 187v42h18v-21c0-1.2 1-3 3-3h48c1.2 0 3 1.8 3 3v21h66v-21c0-1.2 1.8-3 3-3h48c1.2 0 3 1.8 3 3v21h18v-42z" style="fill:#e4c6a1"/><path d="M203 107h66v74h-66z" style="fill:#c96"/><path d="M211 75h58v26h-58z" style="fill:#996632"/><path d="M99 159.2c0 12.2 11 21.8 25 21.8h33V67H99z" style="fill:#c96"/><path d="M99 35h58v26H99z" style="fill:#996632"/><path d="M208 80h8v16h-8z" style="fill:#875426"/><path d="M124 176H96V72h8v87.2c0 9.6 8.8 16.8 20 16.8" style="fill:#b37d4d"/><path d="M96 40h8v16h-8zM198 75h18v26h-18z" style="fill:#875426"/><path d="M104 164.2V62H86v124h33v-10c-8.6 0-15-5.1-15-11.8" style="fill:#b37d4d"/><path d="M86 35h18v26H86z" style="fill:#875426"/><path d="M216 164.2V102h-18v84h33v-10c-8.6 0-15-5.1-15-11.8" style="fill:#b37d4d"/><path d="M17.6 344h20l-8.8-16H16c0 5.6.8 10.4 1.6 16" style="fill:#d9cdc1"/><path d="M26.8 324H6v5c0 5.3.7 10 1.4 14.9l.9 6.1h32.8zM85.6 389.6c-14.4-.7-27.5-8.7-35-21.4L44.5 356H8.9l1.3 6c4 19.3 10.4 38 19.6 57.1L31 422h412.2l6.4-17.6z" style="fill:#d9cdc1"/><path d="M476 278.4c2.4 13.6 4 28 4 41.6 0 45.6-14.4 92-41.6 132-.8 2.4-4 4-6.4 4H48c-2.4 0-5.6-1.6-6.4-4C14.4 412 0 365.6 0 320c0-4 4-8 8-8h10.4l30.4-82.4c.8-3.2 4-5.6 7.2-5.6h8v-40c0-4 3.2-8 8-8h8V32c0-4.8 3.2-8 8-8h72c4 0 8 3.2 8 8v144h24V72c0-4.8 4-8 8-8h72c4 0 8 3.2 8 8v104h8c4 0 8 4 8 8v40h8c3.2 0 6.4 2.4 7.2 5.6l30.4 82.4h4.8l14.4-35.2q2.4-4.8 7.2-4.8h100.8c3.2 0 7.2 2.4 7.2 6.4M464 320v-8H364l-4 11.2c-1.6 3.2-4.8 4.8-8 4.8H16c0 5.6.8 10.4 1.6 16H168v16H20c4 19.2 10.4 37.6 19.2 56h402.4c14.4-30.4 22.4-63.2 22.4-96m-93.6-24h92c0-2.4-.8-5.6-.8-8h-88zM432 432H47.2c1.6 2.4 3.2 5.6 4.8 8h375.2c2.4-2.4 3.2-5.6 4.8-8M324.8 312l-26.4-72H61.6l-26.4 72zM280 224v-32H80v32h8v-16c0-4 3.2-8 8-8h48c4 0 8 4 8 8v16h56v-16c0-4 4-8 8-8h48c4 0 8 4 8 8v16zm-16-48v-64h-56v64zm0-80V80h-56v16h56m-8 128v-8h-32v8zm-104-48V72H96v104h56m0-120V40H96v16h56m-16 168v-8h-32v8zm320 128c0 13.6-10.4 24-24 24s-24-10.4-24-24 10.4-24 24-24 24 10.4 24 24m-16 0c0-4-4-8-8-8s-8 4-8 8 4 8 8 8 8-4 8-8m-64-24c13.6 0 24 10.4 24 24s-10.4 24-24 24-24-10.4-24-24 10.4-24 24-24m8 24c0-4-4-8-8-8s-8 4-8 8 4 8 8 8 8-4 8-8m-80-8h32v16h-32zm-8-80v32c0 4-4 8-8 8h-40c-4 0-8-4-8-8v-32c0-4 4-8 8-8h40c4 0 8 4 8 8m-16 24v-16h-24v16zm-32 56h32v16h-32zm-56 0h32v16h-32zm16-80v32c0 4-4 8-8 8h-40c-4 0-8-4-8-8v-32c0-4 4-8 8-8h40c4 0 8 4 8 8m-16 24v-16h-24v16zm-72-24v32c0 4-4 8-8 8H72c-4.8 0-8-4-8-8v-32c0-4 3.2-8 8-8h40c4 0 8 4 8 8m-16 24v-16H80v16z" style="fill:#42210b"/></svg>