<svg xmlns="http://www.w3.org/2000/svg" width="97.65" height="44.92" viewBox="0 0 97.65 44.92"><defs><mask id="a" x="0" y="0" width="97.65" height="44.92" maskUnits="userSpaceOnUse"><path d="M97.63 44.9H0V0h97.63z" fill="#fff"/></mask></defs><title>Asset 1</title><g mask="url(#a)" data-name="Layer 1"><path d="M62.76 15.88H52.23l-2.43 4.58a10.93 10.93 0 0 1-.88 1.54h-.11s-.5-.77-.88-1.49l-2.43-4.63H35l8.27 13L35 42h10.35l2.79-5.33a15.19 15.19 0 0 0 .66-1.45h.11a13.42 13.42 0 0 0 .66 1.45L52.41 42h10.36l-8.24-13 8.22-13M16.11 35.56a5.11 5.11 0 0 1-5.23-5 7.82 7.82 0 0 1 2.31-5.29c4.25 1.94 8.14 3.4 8.14 5.9 0 2.83-2 4.39-5.22 4.39zm.3-26.2c2.86 0 4.56 1.58 4.56 4a11 11 0 0 1-1.52 5.35c-3.83-1.64-7-3.1-7-6 .01-1.83 1.23-3.35 3.96-3.35zm10.7 13.13c.42-.55 4.25-5.23 4.25-9.91C31.36 4.5 24.74 0 16.65 0 6.5 0 2.07 6.2 2.07 12.52A10.56 10.56 0 0 0 6 20.85c-1.34 1-6 5-6 10.58 0 6.93 5.53 13.49 16.11 13.49 10.76 0 16.11-6.62 16.11-13.25 0-4.38-2.22-7.17-5.11-9.18zm54.41 13.07a5.11 5.11 0 0 1-5.23-5 7.82 7.82 0 0 1 2.31-5.29c4.25 1.94 8.15 3.4 8.15 5.9 0 2.86-2 4.44-5.23 4.44zm.31-26.2c2.86 0 4.56 1.58 4.56 4a11 11 0 0 1-1.52 5.35c-3.83-1.64-7-3.1-7-6 0-1.83 1.22-3.35 3.95-3.35zm10.7 13.13c.43-.55 4.25-5.23 4.25-9.91C96.78 4.5 90.15 0 82.07 0 71.92 0 67.48 6.2 67.48 12.52a10.57 10.57 0 0 0 3.95 8.33c-1.34 1-6 5-6 10.58 0 6.93 5.53 13.49 16.11 13.49 10.76 0 16.11-6.62 16.11-13.25 0-4.38-2.21-7.17-5.13-9.18z" fill="#e52920"/></g></svg>