<svg xmlns="http://www.w3.org/2000/svg" width="669" height="478" fill="none" viewBox="0 0 669 478"><path fill="#000" stroke="#000" d="M110.588 123.113c19.097 0 34.226 7.618 43.083 21.745l.147.235h20.765v10.67h20.551V312.46H26.042V155.763h20.55v-10.67h20.765l.148-.235c8.857-14.127 23.986-21.745 43.083-21.745Zm0 7.749c-11.882 0-28.292 3.438-37.385 19.889l-1.169 2.091h-2.337l-14.21.214-.493.006v10.663h-20.55v140.986H187.17V163.512h-20.552v-10.67h-17.477l-1.169-2.091c-9.094-16.45-25.503-19.889-37.385-19.889Z"/><path fill="#000" stroke="#000" d="M176.551 281.024v3.908H44.625v-3.908zM180.486 289.56v3.908H40.69v-3.908zM177.936 197.604l-2.715 7.384-64.467-22.669-.166-.059-.166.059-64.468 22.669-2.715-7.383 65.984-23.092.013-.005.014-.006 1.353-.566zM171.522 208.897v3.908h-3.371l1.412.919c.446.29.647.928.647 1.501 0 1.178-1.025 2.22-2.252 2.27a4 4 0 0 0-.627-.195 2.7 2.7 0 0 1-.555-.176l-.741-.362.021.825 1.312 49.469v.024h.001v.013l.499-.006v.28h4.091v7.108H48.998v-7.108h4.58l.01-.489 1.094-49.08.018-.821-.738.361c-.319.155-.643.162-1.092.162-1.266-.001-2.342-1.069-2.342-2.275 0-.219.08-.517.225-.826.145-.306.332-.573.498-.736l.88-.858h-2.915v-3.908zM66.589 213.51c.446.29.648.929.648 1.502 0 1.206-1.076 2.275-2.342 2.275-.45 0-.774-.008-1.093-.163l-.741-.362.023.825 1.311 49.506.013.487h15.186l.011-.489 1.094-49.507.017-.82-.737.36c-.319.155-.642.163-1.092.163-1.266 0-2.343-1.068-2.343-2.275 0-.219.08-.517.226-.826.145-.306.331-.573.498-.736l.879-.859h-12.97zm25.456.1c.556.723.73 1.595.38 2.471-.546 1.04-1.996 1.554-3.044 1.043l-.74-.362.022.825 1.311 49.506.013.487h15.187l.011-.489 1.093-49.293.018-.821-.737.361c-.319.155-.643.162-1.093.162-1.265 0-2.342-1.068-2.342-2.275 0-.219.079-.517.225-.826.145-.306.332-.573.499-.736l.879-.858h-12.3zm25.922-.1c.446.29.647.929.647 1.502 0 1.207-1.076 2.275-2.342 2.275-.45 0-.774-.008-1.093-.163l-.74-.362.021.825 1.312 49.506.013.487h15.185l.013-.487 1.311-49.506.022-.825-.74.362c-.319.155-.643.163-1.093.163-1.266 0-2.342-1.068-2.342-2.275 0-.219.079-.517.225-.826.145-.306.332-.573.499-.736l.879-.859h-13.19zm25.798 0c.446.29.648.929.648 1.502 0 1.207-1.077 2.275-2.343 2.275-.45 0-.773-.008-1.092-.163l-.741-.362.021.825 1.312 49.506.013.487h15.185l.013-.487 1.311-49.506.023-.825-.741.362c-.319.155-.643.163-1.093.163-1.266 0-2.342-1.068-2.342-2.275 0-.219.078-.517.225-.826.144-.306.332-.573.499-.736l.879-.859h-13.189zM274.028 260.279c-.212 6.606-.419 12.584-.419 16.541v17.285c0 2.297.055 4.147.215 5.625.16 1.473.429 2.619.881 3.488.464.89 1.114 1.474 1.986 1.823.849.34 1.882.447 3.103.447h.156v.95l-12.838.796c-.372-3.009-.373-6.014-.373-8.862l-.938-.24c-3.191 5.814-9.363 9.557-16.397 9.557h-.018l-.02.001c-5.244.409-10.067-2.66-11.956-7.361-.841-2.473-1.279-6.028-1.279-14.12v-15.151c0-2.356-.109-4.046-.336-5.266-.226-1.215-.581-2.029-1.126-2.56a2.94 2.94 0 0 0-1.366-.792c-.56-.152-1.272-.204-2.263-.204h-1.249v-1.164l13.618-.792c-.418 8.066-.626 10.263-.626 16.54v8.109c0 9.138.214 11.791 1.329 15.068v.001c.944 3.453 4.451 5.706 8.147 5.489 5.482-.006 10.225-3.577 12.69-9.263l.004-.009c.663-1.617 1.115-2.936 1.397-4.587.28-1.642.389-3.597.389-6.486v-14.084c0-2.449-.054-4.143-.253-5.337-.201-1.206-.564-1.989-1.251-2.525l-.006-.005-.006-.005-.182-.128c-.913-.619-2.06-1.03-3.423-.822h-1.22v-1.164zM328.111 239.763c10.147 0 17.869 3.363 23.665 10.277 5.381 6.727 7.971 15.142 7.755 23.78l-.001.019.001.019c.43 8.405-2.367 16.818-7.755 23.553-5.801 6.92-13.526 10.491-23.665 10.491h-.024c-9.235.419-17.829-3.56-23.635-10.482-10.347-14.112-10.35-33.06 0-47.389 5.577-6.696 13.516-10.268 23.659-10.268Zm17.231 11.185c-5.513-9.291-17.61-12.382-27.091-7.217-3.362 1.753-6.055 4.382-7.851 7.668l-.012.024c-6.843 14.22-6.843 30.598.002 44.608l.006.013.007.012c5.386 9.638 17.716 12.91 27.347 7.664v-.001c3.362-1.753 6.056-4.381 7.852-7.667l.006-.01.005-.011c6.845-14.01 6.844-30.388.001-44.608l-.014-.028zM381.14 248.048c-.183 3.774-.184 7.142-.184 12.767v.5h11.368v1.561h-11.368v30.729h-.219v.5c0 2.666.054 4.67.25 6.173.195 1.496.539 2.575 1.181 3.327 1.176 1.377 3.069 2.32 5.004 2.095 2.06-.006 3.931-.556 5.609-1.479l.511 1.376a20.16 20.16 0 0 1-8.995 2.092c-4.507 0-7.767-1.465-9.173-4.21l-.006-.01-.005-.01-.182-.335c-.862-1.69-1.064-3.654-1.064-10.087v-30.161h-5.904v-1.181c2.632-.299 4.699-1.365 6.289-3.4 1.621-2.073 2.716-5.112 3.484-9.251zM412.185 248.048c-.183 3.774-.184 7.142-.184 12.767v.5h11.368v1.561h-11.364l-.004.496-.219 30.729v.004c0 2.666.054 4.67.25 6.173.195 1.496.539 2.575 1.182 3.327 1.175 1.377 3.068 2.32 5.004 2.095 2.059-.006 3.929-.557 5.607-1.479l.513 1.376a20.2 20.2 0 0 1-8.995 2.092c-4.508 0-7.768-1.465-9.174-4.21l-.006-.01-.005-.01-.182-.335c-.862-1.69-1.064-3.654-1.064-10.087v-30.161h-5.903v-1.181c2.632-.299 4.698-1.365 6.289-3.4 1.62-2.073 2.715-5.112 3.483-9.251zM453.799 259.821h.022c5.887 0 9.794 1.197 12.086 3.642l.217.241c1.846 2.206 2.501 5.04 2.501 10.128 0 .205 0 .195-.219 9.378v13.019c-.219 2.844.232 5.464 1.12 8.067l.039.113.085.083c.768.75 1.958 1.16 5.029 1.204l-.098.765c-3.156.41-6.268.8-9.173.8-.673 0-1.157-.089-1.526-.276-.356-.18-.648-.472-.896-.968-.254-.508-.456-1.218-.62-2.209-.163-.986-.285-2.221-.394-3.763l-.084-1.195-.79.9c-1.278 1.455-2.777 2.711-4.511 3.98l-.016.012c-3.396 2.694-7.648 3.941-11.908 3.733l-.027-.001-.028.002c-3.358.205-6.517-.813-9.273-2.666-2.51-2.466-3.97-5.741-3.97-9.425 0-3.506 1.158-6.364 3.381-8.611 2.233-2.256 5.573-3.929 9.992-4.983 5.452-1.064 11.107-1.912 16.754-2.124l.481-.019v-6.219c.221-2.844-.227-5.907-1.352-8.543l-.011-.024-.012-.022-.138-.237c-1.47-2.404-4.242-3.647-7.95-3.647-3.13 0-5.615.708-7.378 2.228-1.769 1.526-2.734 3.801-2.959 6.769l-.002.019v.019c0 .957-.057 1.524-.192 1.919-.12.353-.312.593-.677.863-.995.577-1.958.754-2.907.569l-.048-.01h-.048c-1.619 0-2.649-.215-3.264-.593-.554-.34-.821-.845-.827-1.655.428-3.663 2.725-6.902 6.036-8.316l.017-.007.015-.007c4.077-2.094 8.8-3.142 13.523-2.933Zm7.636 21.194c-8.327.642-12.126 1.502-15.933 3.469-4.32 2.007-6.829 6.234-6.61 10.901 0 5.93 3.407 10.316 8.371 10.316 4.984 0 9.731-2.651 12.444-6.844l.004-.007.005-.007c1.605-2.686 2.257-6.648 2.257-12.847v-5.022zM547.331 260.888v1.159c-2.42.148-4.185.667-5.592 2.068-1.465 1.458-2.477 3.814-3.569 7.439l-11.255 35.281h-4.085l-11.692-34.868-.471-1.406-.476 1.404-11.91 35.084h-4.08l-11.48-37.843h-.001c-.761-2.548-1.446-4.279-2.625-5.37-1.122-1.04-2.619-1.438-4.786-1.575v-1.16h19.77v1.162c-2.056.121-3.586.389-4.625.937-.573.302-1.014.698-1.305 1.209-.289.508-.41 1.093-.41 1.741v.042l.007.042c.214 1.252.439 2.788.888 4.111v.001l8.526 28.808.45 1.52.504-1.502 12.348-36.789h3.212l11.912 36.784.495 1.528.46-1.539 8.086-27.094c.664-1.734 1.117-3.495 1.117-5.485 0-1.717-1.243-3.409-2.99-3.897-1.197-.386-2.558-.602-3.787-.648v-1.144zM571.42 259.821h.023c5.887 0 9.793 1.197 12.086 3.642l.217.241c1.845 2.206 2.501 5.04 2.501 10.128 0 .205 0 .195-.219 9.378v13.019c-.22 2.844.231 5.464 1.12 8.067l.039.113.085.083c.768.75 1.957 1.16 5.028 1.204l-.097.765c-3.142.41-6.059.8-9.173.8-.673 0-1.158-.089-1.527-.276-.355-.18-.647-.472-.895-.968-.254-.508-.456-1.218-.62-2.209-.164-.986-.286-2.221-.395-3.763l-.084-1.195-.79.9c-1.278 1.455-2.776 2.711-4.511 3.98l-.015.012c-3.397 2.694-7.648 3.941-11.908 3.733l-.028-.001-.027.002c-3.358.205-6.517-.813-9.273-2.666-2.511-2.466-3.97-5.741-3.97-9.425 0-3.512 1.107-6.369 3.301-8.613 2.204-2.254 5.543-3.928 10.075-4.982 5.45-1.064 11.105-1.911 16.751-2.123l.48-.019v-6.219c.222-2.844-.226-5.907-1.351-8.543l-.011-.024-.013-.022-.137-.237c-1.47-2.404-4.243-3.647-7.951-3.647-3.234 0-5.724.706-7.463 2.23-1.744 1.529-2.649 3.808-2.874 6.767l-.002.019v.019c0 .957-.056 1.524-.191 1.919-.12.353-.313.593-.678.863-.995.577-1.957.754-2.907.569l-.048-.01h-.048c-1.618 0-2.648-.215-3.263-.593-.554-.34-.822-.845-.827-1.655.427-3.663 2.724-6.902 6.036-8.316l.016-.007.016-.007c4.076-2.094 8.799-3.142 13.522-2.933Zm7.417 21.194c-8.312.641-12.111 1.499-15.912 3.459-4.332 2.004-6.849 6.237-6.631 10.911 0 5.93 3.408 10.316 8.372 10.316 5.206 0 9.733-2.655 12.444-6.844l.005-.007.004-.007c1.605-2.686 2.257-6.648 2.257-12.847v-5.022z"/></svg>