<svg xmlns="http://www.w3.org/2000/svg" xml:space="preserve" id="Capa_1" width="800" height="800" viewBox="0 0 442.5 442.5"><path d="M228.457 442.5h61.242V222.354c0-6.632 5.376-12.008 12.008-12.008h16.811c16.911 0 30.621-13.709 30.621-30.621s-13.709-30.621-30.621-30.621h-16.811c-40.455 0-73.25 32.795-73.25 73.25z" style="fill:#48e0aa"/><circle cx="318.878" cy="179.965" r="19.573" style="fill:#47a583"/><path d="M198.391 442.5h61.242V73.25c0-6.632 5.376-12.008 12.008-12.008h16.811c16.911 0 30.621-13.709 30.621-30.621S305.364 0 288.452 0h-16.811c-40.455 0-73.25 32.795-73.25 73.25z" style="fill:#42cc97"/><circle cx="288.813" cy="30.861" r="19.573" style="fill:#47a583"/><path d="M233.815 442.5h-61.242V145.299c0-6.632-5.376-12.008-12.008-12.008h-16.811c-16.911 0-30.621-13.709-30.621-30.621s13.709-30.621 30.621-30.621h16.811c40.455 0 73.25 32.795 73.25 73.25z" style="fill:#53f2bd"/><circle cx="143.394" cy="102.91" r="19.573" style="fill:#47a583"/><path d="M197.791 442.5h-61.242V282.792c0-6.632-5.376-12.008-12.008-12.008H107.73c-16.911 0-30.621-13.709-30.621-30.621s13.709-30.621 30.621-30.621h16.811c40.455 0 73.25 32.795 73.25 73.25z" style="fill:#48e0aa"/><circle cx="107.37" cy="240.403" r="19.573" style="fill:#47a583"/><path d="M277.732 442.5V271.372c0-16.911-13.709-30.621-30.621-30.621s-30.621 13.709-30.621 30.621V442.5" style="fill:#42cc97"/><circle cx="247.351" cy="271.012" r="19.573" style="fill:#47a583"/><path d="M365.391 442.5V330.458c0-16.911-13.709-30.621-30.621-30.621s-30.621 13.709-30.621 30.621V442.5" style="fill:#42cc97"/><circle cx="335.01" cy="330.098" r="19.573" style="fill:#47a583"/></svg>