<?xml version="1.0" encoding="iso-8859-1"?>
<!-- Uploaded to: SVG Repo, www.svgrepo.com, Generator: SVG Repo Mixer Tools -->
<!DOCTYPE svg PUBLIC "-//W3C//DTD SVG 1.1//EN" "http://www.w3.org/Graphics/SVG/1.1/DTD/svg11.dtd">
<svg height="800px" width="800px" version="1.1" id="Capa_1" xmlns="http://www.w3.org/2000/svg" xmlns:xlink="http://www.w3.org/1999/xlink" 
	 viewBox="0 0 418 418" xml:space="preserve">
<path style="fill:#53F2BD;" d="M354.192,122.043c-4.694,0-8.5,3.806-8.5,8.5V284.8c0,53.975-27.395,99.471-64.395,112.47
	c1.767-1.908,3.469-3.94,5.102-6.093c12.583-16.595,19.513-38.531,19.513-61.767V62.05c0-4.694-3.806-8.5-8.5-8.5
	s-8.5,3.806-8.5,8.5v267.362c0,39.474-23.429,71.588-52.226,71.588h-1.387c6.329-8.918,10.184-20.645,10.184-33.483V8.5
	c0-4.694-3.806-8.5-8.5-8.5s-8.5,3.806-8.5,8.5v359.017c0,16.272-8.591,30.272-19.483,32.996
	c-10.892-2.724-19.483-16.724-19.483-32.996V8.5c0-4.694-3.806-8.5-8.5-8.5s-8.5,3.806-8.5,8.5v359.017
	c0,12.838,3.855,24.565,10.184,33.483h-1.387c-28.797,0-52.225-32.114-52.225-71.588V62.05c0-4.694-3.806-8.5-8.5-8.5
	s-8.5,3.806-8.5,8.5v267.362c0,23.235,6.93,45.171,19.513,61.767c1.632,2.153,3.335,4.184,5.102,6.093
	c-37-13-64.395-58.495-64.395-112.471V130.543c0-4.694-3.806-8.5-8.5-8.5s-8.5,3.806-8.5,8.5V284.8
	c0,35.151,10.448,68.29,29.42,93.312C104.232,403.834,130.38,418,158.359,418h101.282c27.979,0,54.127-14.166,73.631-39.888
	c18.972-25.021,29.42-58.16,29.42-93.312V130.543C362.692,125.849,358.886,122.043,354.192,122.043z"/>
</svg>