<svg xmlns="http://www.w3.org/2000/svg" xml:space="preserve" id="Layer_1" width="800" height="800" viewBox="0 0 512 512"><path d="M472.991 187.339a8.535 8.535 0 0 0-12.067 0l-196.391 196.39V34.133A8.533 8.533 0 0 0 256 25.6a8.533 8.533 0 0 0-8.533 8.533v349.596L50.732 186.996a8.532 8.532 0 1 0-12.067 12.068l208.802 208.802v73.679h17.067v-73.679l208.458-208.458a8.533 8.533 0 0 0-.001-12.069" style="fill:#668018"/><path d="m20.56 168.892 187.38 187.38c-20.127 20.116-52.747 20.116-72.875 0-11.617-11.617-16.509-27.398-14.711-42.542-15.144 1.798-30.925-3.095-42.542-14.711s-16.509-27.398-14.711-42.542c-15.144 1.798-30.925-3.095-42.542-14.711-20.127-20.127-20.127-52.747.001-72.874M256 0v264.988c-28.456 0-51.53-23.063-51.53-51.53 0-16.418 7.703-31.05 19.672-40.482-11.969-9.432-19.672-24.053-19.672-40.482s7.703-31.05 19.672-40.482C212.173 82.58 204.47 67.959 204.47 51.53 204.47 23.074 227.544 0 256 0M491.429 168.88l-.341.353L304.06 356.272c-20.116-20.127-20.116-52.747 0-72.875 11.617-11.617 27.398-16.509 42.542-14.723-1.798-15.132 3.095-30.913 14.711-42.53 11.617-11.617 27.398-16.509 42.542-14.723-1.798-15.132 3.095-30.913 14.711-42.53 20.127-20.127 52.736-20.127 72.863-.011" style="fill:#c2dc71"/><path d="M207.94 283.398c20.116 20.127 20.116 52.747 0 72.875L20.56 168.892c20.127-20.127 52.747-20.127 72.875 0 11.617 11.617 16.509 27.398 14.711 42.53 15.144-1.786 30.925 3.106 42.542 14.723s16.509 27.398 14.711 42.53c15.144-1.786 30.925 3.106 42.541 14.723M307.53 51.53c0 16.43-7.703 31.05-19.672 40.482 11.969 9.432 19.672 24.053 19.672 40.482s-7.703 31.05-19.672 40.482c11.969 9.432 19.672 24.064 19.672 40.482 0 28.467-23.074 51.53-51.53 51.53V0c28.456 0 51.53 23.074 51.53 51.53M491.44 168.892c20.127 20.127 20.127 52.747 0 72.875-11.617 11.617-27.398 16.509-42.542 14.711 1.798 15.144-3.095 30.925-14.711 42.542s-27.398 16.509-42.53 14.711c1.786 15.144-3.106 30.925-14.723 42.542-20.127 20.116-52.747 20.116-72.875 0l187.028-187.039c.001-.001.342-.354.353-.342" style="fill:#8aa92c"/><path d="M350.652 512H161.348c19.524-31.778 54.613-52.975 94.652-52.975s75.127 21.197 94.652 52.975" style="fill:#ff9212"/></svg>