<svg xmlns="http://www.w3.org/2000/svg" xml:space="preserve" id="Capa_1" width="800" height="800" viewBox="0 0 418 418"><path d="M354.192 122.043a8.5 8.5 0 0 0-8.5 8.5V284.8c0 53.975-27.395 99.471-64.395 112.47a81 81 0 0 0 5.102-6.093c12.583-16.595 19.513-38.531 19.513-61.767V62.05a8.5 8.5 0 0 0-17 0v267.362c0 39.474-23.429 71.588-52.226 71.588h-1.387c6.329-8.918 10.184-20.645 10.184-33.483V8.5a8.5 8.5 0 0 0-17 0v359.017c0 16.272-8.591 30.272-19.483 32.996-10.892-2.724-19.483-16.724-19.483-32.996V8.5a8.5 8.5 0 0 0-17 0v359.017c0 12.838 3.855 24.565 10.184 33.483h-1.387c-28.797 0-52.225-32.114-52.225-71.588V62.05a8.5 8.5 0 0 0-17 0v267.362c0 23.235 6.93 45.171 19.513 61.767a81 81 0 0 0 5.102 6.093c-37-13-64.395-58.495-64.395-112.471V130.543a8.5 8.5 0 0 0-17 0V284.8c0 35.151 10.448 68.29 29.42 93.312C104.232 403.834 130.38 418 158.359 418h101.282c27.979 0 54.127-14.166 73.631-39.888 18.972-25.021 29.42-58.16 29.42-93.312V130.543a8.5 8.5 0 0 0-8.5-8.5" style="fill:#53f2bd"/></svg>