<?xml version="1.0" encoding="iso-8859-1"?>
<!-- Uploaded to: SVG Repo, www.svgrepo.com, Generator: SVG Repo Mixer Tools -->
<svg version="1.1" id="Layer_1" xmlns="http://www.w3.org/2000/svg" xmlns:xlink="http://www.w3.org/1999/xlink" 
	 viewBox="0 0 480 480" xml:space="preserve">
<path style="fill:#FFF8EF;" d="M359.7,307l-5.2,14.6c-0.2,0.5-1.5,1.4-2.5,1.4H10.2l0.8,5.7c0.4,2.6,0.6,5.1,0.8,7.7
	c0.2,2.6,0.4,5.4,0.8,8.3l0.6,4.3H163v6H13.9l1.3,6c4,19.3,10.4,38,19.6,57.1L36,421h407.8l1.4-2.8c15.5-31,23.7-65,23.7-98.2v-13
	H359.7z M219,355h-22v-6h22V355z M275,355h-22v-6h22V355z M331,355h-22v-6h22V355z M376,371c-10.8,0-19-8.2-19-19s8.2-19,19-19
	s19,8.2,19,19S386.8,371,376,371z M432,371c-10.8,0-19-8.2-19-19s8.2-19,19-19s19,8.2,19,19S442.8,371,432,371z"/>
<g>
	<path style="fill:#2FB4C2;" d="M432,339c-7.2,0-13,5.8-13,13s5.8,13,13,13s13-5.8,13-13S439.2,339,432,339z"/>
	<path style="fill:#2FB4C2;" d="M376,339c-7.2,0-13,5.8-13,13s5.8,13,13,13s13-5.8,13-13S383.2,339,376,339z"/>
	<rect x="251" y="267" style="fill:#2FB4C2;" width="34" height="26"/>
	<rect x="219" y="211" style="fill:#2FB4C2;" width="42" height="18"/>
	<rect x="163" y="267" style="fill:#2FB4C2;" width="34" height="26"/>
	<rect x="99" y="211" style="fill:#2FB4C2;" width="42" height="18"/>
	<rect x="75" y="267" style="fill:#2FB4C2;" width="34" height="26"/>
</g>
<g>
	<path style="fill:#B37D4D;" d="M466.3,286.4l-1.1-3.4h-95l-7.2,18h104.4v-5C467.4,293.3,467.4,289.6,466.3,286.4z"/>
	<path style="fill:#B37D4D;" d="M37.9,427l5.2,7.8c0.7,1.1,1.4,2.3,2.2,3.7c0.8,1.5,1.7,3,2.6,4.3l1.5,2.2H430l1.5-2.2
		c0.9-1.3,1.8-2.8,2.6-4.3c0.8-1.4,1.5-2.7,2.2-3.7l5.2-7.8H37.9z"/>
</g>
<path style="fill:#FFF8EF;" d="M301.9,235H58.1L28,317h304L301.9,235z M115,296c0,1.2-1.8,3-3,3H72c-2,0-3-1.8-3-3v-32
	c0-1.2,1-3,3-3h40c1.2,0,3,1.8,3,3V296z M203,296c0,1.2-1.8,3-3,3h-40c-1.2,0-3-1.8-3-3v-32c0-1.2,1.8-3,3-3h40c1.2,0,3,1.8,3,3V296
	z M291,296c0,1.2-1.8,3-3,3h-40c-1.2,0-3-1.8-3-3v-32c0-1.2,1.8-3,3-3h40c1.2,0,3,1.8,3,3V296z"/>
<path style="fill:#E4C6A1;" d="M75,187v42h18v-21c0-1.2,1-3,3-3h48c1.2,0,3,1.8,3,3v21h66v-21c0-1.2,1.8-3,3-3h48c1.2,0,3,1.8,3,3
	v21h18v-42H75z"/>
<rect x="203" y="107" style="fill:#CC9966;" width="66" height="74"/>
<rect x="211" y="75" style="fill:#996632;" width="58" height="26"/>
<path style="fill:#CC9966;" d="M99,159.2c0,12.2,11,21.8,25,21.8h33V67H99V159.2z"/>
<rect x="99" y="35" style="fill:#996632;" width="58" height="26"/>
<rect x="208" y="80" style="fill:#875426;" width="8" height="16"/>
<path style="fill:#B37D4D;" d="M124,176H96V72h8v87.2C104,168.8,112.8,176,124,176z"/>
<g>
	<rect x="96" y="40" style="fill:#875426;" width="8" height="16"/>
	<rect x="198" y="75" style="fill:#875426;" width="18" height="26"/>
</g>
<path style="fill:#B37D4D;" d="M104,164.2V62H86v124h33v-10C110.4,176,104,170.9,104,164.2z"/>
<rect x="86" y="35" style="fill:#875426;" width="18" height="26"/>
<path style="fill:#B37D4D;" d="M216,164.2V102h-18v84h33v-10C222.4,176,216,170.9,216,164.2z"/>
<g>
	<path style="fill:#D9CDC1;" d="M17.6,344h20l-8.8-16H16C16,333.6,16.8,338.4,17.6,344z"/>
	<path style="fill:#D9CDC1;" d="M26.8,324H6v5c0,5.3,0.7,10,1.4,14.9l0.9,6.1h32.8L26.8,324z"/>
	<path style="fill:#D9CDC1;" d="M85.6,389.6c-14.4-0.7-27.5-8.7-35-21.4L44.5,356H8.9l1.3,6c4,19.3,10.4,38,19.6,57.1L31,422h412.2
		l6.4-17.6L85.6,389.6z"/>
</g>
<path style="fill:#42210B;" d="M476,278.4c2.4,13.6,4,28,4,41.6c0,45.6-14.4,92-41.6,132c-0.8,2.4-4,4-6.4,4H48
	c-2.4,0-5.6-1.6-6.4-4C14.4,412,0,365.6,0,320c0-4,4-8,8-8h10.4l30.4-82.4c0.8-3.2,4-5.6,7.2-5.6h8v-40c0-4,3.2-8,8-8h8V32
	c0-4.8,3.2-8,8-8h72c4,0,8,3.2,8,8v144h24V72c0-4.8,4-8,8-8h72c4,0,8,3.2,8,8v104h8c4,0,8,4,8,8v40h8c3.2,0,6.4,2.4,7.2,5.6
	l30.4,82.4h4.8l14.4-35.2c1.6-3.2,4-4.8,7.2-4.8h100.8C472,272,476,274.4,476,278.4z M464,320c0-2.4,0-5.6,0-8H364l-4,11.2
	c-1.6,3.2-4.8,4.8-8,4.8H16c0,5.6,0.8,10.4,1.6,16H168v16H20c4,19.2,10.4,37.6,19.2,56h402.4C456,385.6,464,352.8,464,320z
	 M370.4,296h92c0-2.4-0.8-5.6-0.8-8h-88L370.4,296z M432,432H47.2c1.6,2.4,3.2,5.6,4.8,8h375.2C429.6,437.6,430.4,434.4,432,432z
	 M324.8,312l-26.4-72H61.6l-26.4,72H324.8z M280,224v-32H80v32h8v-16c0-4,3.2-8,8-8h48c4,0,8,4,8,8v16h56v-16c0-4,4-8,8-8h48
	c4,0,8,4,8,8v16H280z M264,176v-64h-56v64H264z M264,96V80h-48h-8v16h8H264z M256,224v-8h-32v8H256z M152,176V72h-48h-8v104h28H152z
	 M152,56V40h-48h-8v16h8H152z M136,224v-8h-32v8H136z M456,352c0,13.6-10.4,24-24,24s-24-10.4-24-24s10.4-24,24-24
	S456,338.4,456,352z M440,352c0-4-4-8-8-8s-8,4-8,8s4,8,8,8S440,356,440,352z M376,328c13.6,0,24,10.4,24,24s-10.4,24-24,24
	s-24-10.4-24-24S362.4,328,376,328z M384,352c0-4-4-8-8-8s-8,4-8,8s4,8,8,8S384,356,384,352z M304,344h32v16h-32V344z M296,264v32
	c0,4-4,8-8,8h-40c-4,0-8-4-8-8v-32c0-4,4-8,8-8h40C292,256,296,260,296,264z M280,288v-16h-24v16H280z M248,344h32v16h-32V344z
	 M192,344h32v16h-32V344z M208,264v32c0,4-4,8-8,8h-40c-4,0-8-4-8-8v-32c0-4,4-8,8-8h40C204,256,208,260,208,264z M192,288v-16h-24
	v16H192z M120,264v32c0,4-4,8-8,8H72c-4.8,0-8-4-8-8v-32c0-4,3.2-8,8-8h40C116,256,120,260,120,264z M104,288v-16H80v16H104z"/>
</svg>