<?xml version="1.0" encoding="utf-8"?>
<!-- Generator: Adobe Illustrator 24.3.0, SVG Export Plug-In . SVG Version: 6.00 Build 0)  -->
<svg version="1.1" id="Layer_1" xmlns="http://www.w3.org/2000/svg" xmlns:xlink="http://www.w3.org/1999/xlink" x="0px" y="0px"
	 viewBox="0 0 1920 1080" style="enable-background:new 0 0 1920 1080;" xml:space="preserve">
<style type="text/css">
	.st0{fill:#030344;}
	.st1{fill:#0E0E4C;}
	.st2{fill:#FAF4CC;}
	.st3{fill:#001344;}
	.st4{fill:#FFFFFF;}
	.st5{fill:#E8C600;}
</style>
<rect class="st0" width="1920" height="1080"/>
<g>
	<path class="st1" d="M0.8,272.2C0.9,289,73.6,283.7,79.8,283c86.6-8.7,152.9-52.2,240.3-12.8c146.6,66.2,208.8,251.9,169.4,401
		c-12.1,45.8-33.2,89.8-36.2,137c-3.8,58.4,21.6,116.8,62.5,158.7c110.6,113.1,314.8,102.2,451.1,48.9
		c87.5-34.3,169-92.2,262.9-96.7c123-5.9,230.5,99.4,351.4,85.6c59-6.7,205.7-28.7,338.8,74.2c0,0,0-163.4,0-163.5
		c0-12.6-30.8-40.2-38.3-48.8c-31.9-36.5-68.2-69.9-109-96.3c-112.5-72.9-279-68.4-324.3-216.4c-19-62.1-16.5-128.6-10.4-193.2
		c6.7-71.9,23.6-149-2-217.9C1414.5,84.6,1368.2,27.6,1311.5,0h-590c0,0-458.5,261.3-600.1,0H0C0,0,0.8,272,0.8,272.2z"/>
	<path class="st1" d="M1662.4,12.6c0,0,11.4,106.1,257.6,130v585.8c0,0-263.9-49.2-179.3-246.2c21.8-50.8,45.3-102,61.3-155
		c3.9-12.9,7.3-26,8.3-39.4c2.1-29.9-30.3-52.6-48.9-73.5c-13.8-15.5-28.1-31.5-46.8-40.5c-33.4-16.2-73.2-7.3-109.6-13.8
		c-75.8-13.7-114.3-88.4-114.3-160h170.5L1662.4,12.6z"/>
	<path class="st1" d="M2.6,399c0,0,250.1,48.5,261.9,199s-81.2,178.1-79.9,251.4C186,922.9,461,983.1,479.3,1080H0L2.6,399z"/>
</g>
<path class="st2" d="M128,530.3c0.1,0.7,0.1,1.5,0.2,2.2c0.4,3.3,0.7,6.7,1.5,10c0.5,1.8,1.1,3.5,2.3,5c1.2,1.6,2.8,2.6,4.7,3.2
	c1.8,0.7,3.6,1.1,5.4,1.3c2.8,0.4,5.7,0.7,8.5,1c0,0,0.1,0,0.1,0.1c-0.3,0-0.5,0.1-0.8,0.1c-2.5,0.3-5,0.6-7.5,0.9
	c-1.9,0.3-3.8,0.7-5.7,1.3c-3.3,1.2-5.5,3.4-6.6,6.8c-0.7,1.9-1.1,3.9-1.3,5.9c-0.3,2.6-0.6,5.2-0.9,7.8c0,0,0,0.1-0.1,0.1
	c0-0.3-0.1-0.5-0.1-0.8c-0.3-2.5-0.6-5-0.9-7.5c-0.3-2-0.7-3.9-1.4-5.8c-1.2-3.3-3.4-5.5-6.8-6.6c-1.9-0.6-3.9-1.1-5.9-1.3
	c-2.6-0.3-5.2-0.6-7.8-0.9c0,0-0.1,0-0.1-0.1c0.3,0,0.5-0.1,0.8-0.1c2.5-0.3,5-0.6,7.5-0.9c1.9-0.3,3.8-0.7,5.7-1.3
	c3.3-1.2,5.5-3.4,6.6-6.8c0.7-1.9,1.1-3.9,1.3-5.9C127.4,535.6,127.7,533,128,530.3C128,530.4,128,530.4,128,530.3
	C128,530.3,128,530.3,128,530.3z"/>
<path class="st2" d="M426.7,624.8c0.1,0.7,0.1,1.5,0.2,2.2c0.4,3.3,0.7,6.7,1.5,10c0.5,1.8,1.1,3.5,2.3,5c1.2,1.6,2.8,2.6,4.7,3.2
	c1.8,0.7,3.6,1.1,5.4,1.3c2.8,0.4,5.7,0.7,8.5,1c0,0,0.1,0,0.1,0.1c-0.3,0-0.5,0.1-0.8,0.1c-2.5,0.3-5,0.6-7.5,0.9
	c-1.9,0.3-3.8,0.7-5.7,1.3c-3.3,1.2-5.5,3.4-6.6,6.8c-0.6,1.9-1.1,3.9-1.3,5.9c-0.3,2.6-0.6,5.2-0.9,7.8c0,0,0,0.1-0.1,0.1
	c0-0.3-0.1-0.5-0.1-0.8c-0.3-2.5-0.6-5-0.9-7.5c-0.3-2-0.7-3.9-1.4-5.8c-1.2-3.3-3.4-5.5-6.8-6.6c-1.9-0.6-3.9-1.1-5.9-1.3
	c-2.6-0.3-5.2-0.6-7.8-0.9c0,0-0.1,0-0.1-0.1c0.3,0,0.5-0.1,0.8-0.1c2.5-0.3,5-0.6,7.5-0.9c1.9-0.3,3.8-0.7,5.7-1.3
	c3.3-1.2,5.5-3.4,6.6-6.8c0.7-1.9,1.1-3.9,1.3-5.9C426.1,630.1,426.4,627.5,426.7,624.8C426.7,624.8,426.7,624.8,426.7,624.8
	C426.7,624.8,426.7,624.8,426.7,624.8z"/>
<path class="st2" d="M698.8,500.7c0.1,0.7,0.1,1.5,0.2,2.2c0.4,3.3,0.7,6.7,1.5,10c0.5,1.8,1.1,3.5,2.3,5c1.2,1.6,2.8,2.6,4.7,3.2
	c1.8,0.7,3.6,1.1,5.4,1.3c2.8,0.4,5.7,0.7,8.5,1c0,0,0.1,0,0.1,0.1c-0.3,0-0.5,0.1-0.8,0.1c-2.5,0.3-5,0.6-7.5,0.9
	c-1.9,0.3-3.8,0.7-5.7,1.3c-3.3,1.2-5.5,3.4-6.6,6.8c-0.7,1.9-1.1,3.9-1.3,5.9c-0.3,2.6-0.6,5.2-0.9,7.8c0,0,0,0.1-0.1,0.1
	c0-0.3-0.1-0.5-0.1-0.8c-0.3-2.5-0.6-5-0.9-7.5c-0.3-2-0.7-3.9-1.4-5.8c-1.2-3.3-3.4-5.5-6.8-6.6c-1.9-0.6-3.9-1.1-5.9-1.3
	c-2.6-0.3-5.2-0.6-7.8-0.9c0,0-0.1,0-0.1-0.1c0.3,0,0.5-0.1,0.8-0.1c2.5-0.3,5-0.6,7.5-0.9c1.9-0.3,3.8-0.7,5.7-1.3
	c3.3-1.2,5.5-3.4,6.6-6.8c0.7-1.9,1.1-3.9,1.3-5.9C698.2,506,698.4,503.4,698.8,500.7C698.7,500.8,698.7,500.7,698.8,500.7
	C698.8,500.7,698.8,500.7,698.8,500.7z"/>
<path class="st2" d="M396.7,70.1c0.1,0.7,0.1,1.5,0.2,2.2c0.4,3.3,0.7,6.7,1.5,10c0.5,1.8,1.1,3.5,2.3,5c1.2,1.6,2.8,2.6,4.7,3.2
	c1.8,0.7,3.6,1.1,5.4,1.3c2.8,0.4,5.7,0.7,8.5,1c0,0,0.1,0,0.1,0.1c-0.3,0-0.5,0.1-0.8,0.1c-2.5,0.3-5,0.6-7.5,0.9
	c-1.9,0.3-3.8,0.7-5.7,1.3c-3.3,1.2-5.5,3.4-6.6,6.8c-0.7,1.9-1.1,3.9-1.3,5.9c-0.3,2.6-0.6,5.2-0.9,7.8c0,0,0,0.1-0.1,0.1
	c0-0.3-0.1-0.5-0.1-0.8c-0.3-2.5-0.6-5-0.9-7.5c-0.3-2-0.7-3.9-1.4-5.8c-1.2-3.3-3.4-5.5-6.8-6.6c-1.9-0.6-3.9-1.1-5.9-1.3
	c-2.6-0.3-5.2-0.6-7.8-0.9c0,0-0.1,0-0.1-0.1c0.3,0,0.5-0.1,0.8-0.1c2.5-0.3,5-0.6,7.5-0.9c1.9-0.3,3.8-0.7,5.7-1.3
	c3.3-1.2,5.5-3.4,6.6-6.8c0.7-1.9,1.1-3.9,1.3-5.9C396.1,75.4,396.4,72.8,396.7,70.1C396.7,70.2,396.7,70.1,396.7,70.1
	C396.7,70.1,396.7,70.1,396.7,70.1z"/>
<path class="st2" d="M642.8,239.1c0.1,0.7,0.1,1.5,0.2,2.2c0.4,3.3,0.7,6.7,1.5,10c0.5,1.8,1.1,3.5,2.3,5c1.2,1.6,2.8,2.6,4.7,3.2
	c1.8,0.7,3.6,1.1,5.4,1.3c2.8,0.4,5.7,0.7,8.5,1c0,0,0.1,0,0.1,0.1c-0.3,0-0.5,0.1-0.8,0.1c-2.5,0.3-5,0.6-7.5,0.9
	c-1.9,0.3-3.8,0.7-5.7,1.3c-3.3,1.2-5.5,3.4-6.6,6.8c-0.7,1.9-1.1,3.9-1.3,5.9c-0.3,2.6-0.6,5.2-0.9,7.8c0,0,0,0.1-0.1,0.1
	c0-0.3-0.1-0.5-0.1-0.8c-0.3-2.5-0.6-5-0.9-7.5c-0.3-2-0.7-3.9-1.4-5.8c-1.2-3.3-3.4-5.5-6.8-6.6c-1.9-0.6-3.9-1.1-5.9-1.3
	c-2.6-0.3-5.2-0.6-7.8-0.9c0,0-0.1,0-0.1-0.1c0.3,0,0.5-0.1,0.8-0.1c2.5-0.3,5-0.6,7.5-0.9c1.9-0.3,3.8-0.7,5.7-1.3
	c3.3-1.2,5.5-3.4,6.6-6.8c0.7-1.9,1.1-3.9,1.3-5.9C642.1,244.4,642.4,241.8,642.8,239.1C642.7,239.2,642.7,239.1,642.8,239.1
	C642.7,239.1,642.8,239.1,642.8,239.1z"/>
<path class="st2" d="M1794.3,764.5c0.1,0.7,0.1,1.5,0.2,2.2c0.4,3.3,0.7,6.7,1.5,10c0.5,1.8,1.1,3.5,2.3,5c1.2,1.6,2.8,2.6,4.7,3.2
	c1.8,0.7,3.6,1.1,5.4,1.3c2.8,0.4,5.7,0.7,8.5,1c0,0,0.1,0,0.1,0.1c-0.3,0-0.5,0.1-0.8,0.1c-2.5,0.3-5,0.6-7.5,0.9
	c-1.9,0.3-3.8,0.7-5.7,1.3c-3.3,1.2-5.5,3.4-6.6,6.8c-0.7,1.9-1.1,3.9-1.3,5.9c-0.3,2.6-0.6,5.2-0.9,7.8c0,0,0,0.1-0.1,0.1
	c0-0.3-0.1-0.5-0.1-0.8c-0.3-2.5-0.6-5-0.9-7.5c-0.3-2-0.7-3.9-1.4-5.8c-1.2-3.3-3.4-5.5-6.8-6.6c-1.9-0.6-3.9-1.1-5.9-1.3
	c-2.6-0.3-5.2-0.6-7.8-0.9c0,0-0.1,0-0.1-0.1c0.3,0,0.5-0.1,0.8-0.1c2.5-0.3,5-0.6,7.5-0.9c1.9-0.3,3.8-0.7,5.7-1.3
	c3.3-1.2,5.5-3.4,6.6-6.8c0.7-1.9,1.1-3.9,1.3-5.9C1793.7,769.8,1793.9,767.2,1794.3,764.5C1794.2,764.6,1794.2,764.6,1794.3,764.5
	C1794.3,764.5,1794.3,764.5,1794.3,764.5z"/>
<path class="st2" d="M1146.7,930.5c0.1,0.7,0.1,1.5,0.2,2.2c0.4,3.3,0.7,6.7,1.5,10c0.5,1.8,1.1,3.5,2.3,5c1.2,1.6,2.8,2.6,4.7,3.2
	c1.8,0.7,3.6,1.1,5.4,1.3c2.8,0.4,5.7,0.7,8.5,1c0,0,0.1,0,0.1,0.1c-0.3,0-0.5,0.1-0.8,0.1c-2.5,0.3-5,0.6-7.5,0.9
	c-1.9,0.3-3.8,0.7-5.7,1.3c-3.3,1.2-5.5,3.4-6.6,6.8c-0.7,1.9-1.1,3.9-1.3,5.9c-0.3,2.6-0.6,5.2-0.9,7.8c0,0,0,0.1-0.1,0.1
	c0-0.3-0.1-0.5-0.1-0.8c-0.3-2.5-0.6-5-0.9-7.5c-0.3-2-0.7-3.9-1.4-5.8c-1.2-3.3-3.4-5.5-6.8-6.6c-1.9-0.6-3.9-1.1-5.9-1.3
	c-2.6-0.3-5.2-0.6-7.8-0.9c0,0-0.1,0-0.1-0.1c0.3,0,0.5-0.1,0.8-0.1c2.5-0.3,5-0.6,7.5-0.9c1.9-0.3,3.8-0.7,5.7-1.3
	c3.3-1.2,5.5-3.4,6.6-6.8c0.7-1.9,1.1-3.9,1.3-5.9C1146.1,935.8,1146.4,933.2,1146.7,930.5C1146.6,930.6,1146.7,930.6,1146.7,930.5
	C1146.7,930.5,1146.7,930.5,1146.7,930.5z"/>
<path class="st2" d="M1495.7,358.2c0.1,0.7,0.1,1.5,0.2,2.2c0.4,3.3,0.7,6.7,1.5,10c0.5,1.8,1.1,3.5,2.3,5c1.2,1.6,2.8,2.6,4.7,3.2
	c1.8,0.7,3.6,1.1,5.4,1.3c2.8,0.4,5.7,0.7,8.5,1c0,0,0.1,0,0.1,0.1c-0.3,0-0.5,0.1-0.8,0.1c-2.5,0.3-5,0.6-7.5,0.9
	c-1.9,0.3-3.8,0.7-5.7,1.3c-3.3,1.2-5.5,3.4-6.6,6.8c-0.7,1.9-1.1,3.9-1.3,5.9c-0.3,2.6-0.6,5.2-0.9,7.8c0,0,0,0.1-0.1,0.1
	c0-0.3-0.1-0.5-0.1-0.8c-0.3-2.5-0.6-5-0.9-7.5c-0.3-2-0.7-3.9-1.4-5.8c-1.2-3.3-3.4-5.5-6.8-6.6c-1.9-0.6-3.9-1.1-5.9-1.3
	c-2.6-0.3-5.2-0.6-7.8-0.9c0,0-0.1,0-0.1-0.1c0.3,0,0.5-0.1,0.8-0.1c2.5-0.3,5-0.6,7.5-0.9c1.9-0.3,3.8-0.7,5.7-1.3
	c3.3-1.2,5.5-3.4,6.6-6.8c0.7-1.9,1.1-3.9,1.3-5.9C1495.1,363.5,1495.3,360.9,1495.7,358.2C1495.6,358.2,1495.6,358.2,1495.7,358.2
	C1495.7,358.2,1495.7,358.2,1495.7,358.2z"/>
<path class="st2" d="M1000.9,648.3c0.1,0.7,0.1,1.5,0.2,2.2c0.4,3.3,0.7,6.7,1.5,10c0.5,1.8,1.1,3.5,2.3,5c1.2,1.6,2.8,2.6,4.7,3.2
	c1.8,0.7,3.6,1.1,5.4,1.3c2.8,0.4,5.7,0.7,8.5,1c0,0,0.1,0,0.1,0.1c-0.3,0-0.5,0.1-0.8,0.1c-2.5,0.3-5,0.6-7.5,0.9
	c-1.9,0.3-3.8,0.7-5.7,1.3c-3.3,1.2-5.5,3.4-6.6,6.8c-0.7,1.9-1.1,3.9-1.3,5.9c-0.3,2.6-0.6,5.2-0.9,7.8c0,0,0,0.1-0.1,0.1
	c0-0.3-0.1-0.5-0.1-0.8c-0.3-2.5-0.6-5-0.9-7.5c-0.3-2-0.7-3.9-1.4-5.8c-1.2-3.3-3.4-5.5-6.8-6.6c-1.9-0.6-3.9-1.1-5.9-1.3
	c-2.6-0.3-5.2-0.6-7.8-0.9c0,0-0.1,0-0.1-0.1c0.3,0,0.5-0.1,0.8-0.1c2.5-0.3,5-0.6,7.5-0.9c1.9-0.3,3.8-0.7,5.7-1.3
	c3.3-1.2,5.5-3.4,6.6-6.8c0.7-1.9,1.1-3.9,1.3-5.9C1000.2,653.6,1000.5,651,1000.9,648.3C1000.8,648.4,1000.8,648.3,1000.9,648.3
	C1000.8,648.3,1000.9,648.3,1000.9,648.3z"/>
<path class="st2" d="M1205.8,489.2c0.1,0.7,0.1,1.5,0.2,2.2c0.4,3.3,0.7,6.7,1.5,10c0.5,1.8,1.1,3.5,2.3,5c1.2,1.6,2.8,2.6,4.7,3.2
	c1.8,0.7,3.6,1.1,5.4,1.3c2.8,0.4,5.7,0.7,8.5,1c0,0,0.1,0,0.1,0.1c-0.3,0-0.5,0.1-0.8,0.1c-2.5,0.3-5,0.6-7.5,0.9
	c-1.9,0.3-3.8,0.7-5.7,1.3c-3.3,1.2-5.5,3.4-6.6,6.8c-0.6,1.9-1.1,3.9-1.3,5.9c-0.3,2.6-0.6,5.2-0.9,7.8c0,0,0,0.1-0.1,0.1
	c0-0.3-0.1-0.5-0.1-0.8c-0.3-2.5-0.6-5-0.9-7.5c-0.3-2-0.7-3.9-1.4-5.8c-1.2-3.3-3.4-5.5-6.8-6.6c-1.9-0.6-3.9-1.1-5.9-1.3
	c-2.6-0.3-5.2-0.6-7.8-0.9c0,0-0.1,0-0.1-0.1c0.3,0,0.5-0.1,0.8-0.1c2.5-0.3,5-0.6,7.5-0.9c1.9-0.3,3.8-0.7,5.7-1.3
	c3.3-1.2,5.5-3.4,6.6-6.8c0.7-1.9,1.1-3.9,1.3-5.9C1205.2,494.5,1205.5,491.9,1205.8,489.2C1205.8,489.2,1205.8,489.2,1205.8,489.2
	C1205.8,489.2,1205.8,489.2,1205.8,489.2z"/>
<path class="st2" d="M589.8,753.6c0.1,0.7,0.1,1.5,0.2,2.2c0.4,3.3,0.7,6.7,1.5,10c0.5,1.8,1.1,3.5,2.3,5c1.2,1.6,2.8,2.6,4.7,3.2
	c1.8,0.7,3.6,1.1,5.4,1.3c2.8,0.4,5.7,0.7,8.5,1c0,0,0.1,0,0.1,0.1c-0.3,0-0.5,0.1-0.8,0.1c-2.5,0.3-5,0.6-7.5,0.9
	c-1.9,0.3-3.8,0.7-5.7,1.3c-3.3,1.2-5.5,3.4-6.6,6.8c-0.7,1.9-1.1,3.9-1.3,5.9c-0.3,2.6-0.6,5.2-0.9,7.8c0,0,0,0.1-0.1,0.1
	c0-0.3-0.1-0.5-0.1-0.8c-0.3-2.5-0.6-5-0.9-7.5c-0.3-2-0.7-3.9-1.4-5.8c-1.2-3.3-3.4-5.5-6.8-6.6c-1.9-0.6-3.9-1.1-5.9-1.3
	c-2.6-0.3-5.2-0.6-7.8-0.9c0,0-0.1,0-0.1-0.1c0.3,0,0.5-0.1,0.8-0.1c2.5-0.3,5-0.6,7.5-0.9c1.9-0.3,3.8-0.7,5.7-1.3
	c3.3-1.2,5.5-3.4,6.6-6.8c0.7-1.9,1.1-3.9,1.3-5.9C589.2,758.9,589.4,756.3,589.8,753.6C589.7,753.7,589.7,753.6,589.8,753.6
	C589.8,753.6,589.8,753.6,589.8,753.6z"/>
<path class="st2" d="M979.1,124.8c0.1,0.7,0.1,1.5,0.2,2.2c0.4,3.3,0.7,6.7,1.5,10c0.5,1.8,1.1,3.5,2.3,5c1.2,1.6,2.8,2.6,4.7,3.2
	c1.8,0.7,3.6,1.1,5.4,1.3c2.8,0.4,5.7,0.7,8.5,1c0,0,0.1,0,0.1,0.1c-0.3,0-0.5,0.1-0.8,0.1c-2.5,0.3-5,0.6-7.5,0.9
	c-1.9,0.3-3.8,0.7-5.7,1.3c-3.3,1.2-5.5,3.4-6.6,6.8c-0.7,1.9-1.1,3.9-1.3,5.9c-0.3,2.6-0.6,5.2-0.9,7.8c0,0,0,0.1-0.1,0.1
	c0-0.3-0.1-0.5-0.1-0.8c-0.3-2.5-0.6-5-0.9-7.5c-0.3-2-0.7-3.9-1.4-5.8c-1.2-3.3-3.4-5.5-6.8-6.6c-1.9-0.6-3.9-1.1-5.9-1.3
	c-2.6-0.3-5.2-0.6-7.8-0.9c0,0-0.1,0-0.1-0.1c0.3,0,0.5-0.1,0.8-0.1c2.5-0.3,5-0.6,7.5-0.9c1.9-0.3,3.8-0.7,5.7-1.3
	c3.3-1.2,5.5-3.4,6.6-6.8c0.7-1.9,1.1-3.9,1.3-5.9C978.5,130.1,978.7,127.5,979.1,124.8C979,124.8,979,124.8,979.1,124.8
	C979.1,124.8,979.1,124.8,979.1,124.8z"/>
<path class="st2" d="M47.5,43.5c0.1,0.7,0.1,1.5,0.2,2.2c0.4,3.3,0.7,6.7,1.5,10c0.5,1.8,1.1,3.5,2.3,5c1.2,1.6,2.8,2.6,4.7,3.2
	c1.8,0.7,3.6,1.1,5.4,1.3c2.8,0.4,5.7,0.7,8.5,1c0,0,0.1,0,0.1,0.1c-0.3,0-0.5,0.1-0.8,0.1c-2.5,0.3-5,0.6-7.5,0.9
	c-1.9,0.3-3.8,0.7-5.7,1.3c-3.3,1.2-5.5,3.4-6.6,6.8c-0.7,1.9-1.1,3.9-1.3,5.9c-0.3,2.6-0.6,5.2-0.9,7.8c0,0,0,0.1-0.1,0.1
	c0-0.3-0.1-0.5-0.1-0.8c-0.3-2.5-0.6-5-0.9-7.5c-0.3-2-0.7-3.9-1.4-5.8c-1.2-3.3-3.4-5.5-6.8-6.6c-1.9-0.6-3.9-1.1-5.9-1.3
	c-2.6-0.3-5.2-0.6-7.8-0.9c0,0-0.1,0-0.1-0.1c0.3,0,0.5-0.1,0.8-0.1c2.5-0.3,5-0.6,7.5-0.9c1.9-0.3,3.8-0.7,5.7-1.3
	c3.3-1.2,5.5-3.4,6.6-6.8c0.7-1.9,1.1-3.9,1.3-5.9C46.8,48.8,47.1,46.2,47.5,43.5C47.4,43.5,47.4,43.5,47.5,43.5
	C47.4,43.5,47.4,43.5,47.5,43.5z"/>
<path class="st2" d="M1735.5,63.6c0.1,0.7,0.1,1.5,0.2,2.2c0.4,3.3,0.7,6.7,1.5,10c0.5,1.8,1.1,3.5,2.3,5c1.2,1.6,2.8,2.6,4.7,3.2
	c1.8,0.7,3.6,1.1,5.4,1.3c2.8,0.4,5.7,0.7,8.5,1c0,0,0.1,0,0.1,0.1c-0.3,0-0.5,0.1-0.8,0.1c-2.5,0.3-5,0.6-7.5,0.9
	c-1.9,0.3-3.8,0.7-5.7,1.3c-3.3,1.2-5.5,3.4-6.6,6.8c-0.6,1.9-1.1,3.9-1.3,5.9c-0.3,2.6-0.6,5.2-0.9,7.8c0,0,0,0.1-0.1,0.1
	c0-0.3-0.1-0.5-0.1-0.8c-0.3-2.5-0.6-5-0.9-7.5c-0.3-2-0.7-3.9-1.4-5.8c-1.2-3.3-3.4-5.5-6.8-6.6c-1.9-0.6-3.9-1.1-5.9-1.3
	c-2.6-0.3-5.2-0.6-7.8-0.9c0,0-0.1,0-0.1-0.1c0.3,0,0.5-0.1,0.8-0.1c2.5-0.3,5-0.6,7.5-0.9c1.9-0.3,3.8-0.7,5.7-1.3
	c3.3-1.2,5.5-3.4,6.6-6.8c0.7-1.9,1.1-3.9,1.3-5.9C1734.9,68.9,1735.2,66.3,1735.5,63.6C1735.5,63.6,1735.5,63.6,1735.5,63.6
	C1735.5,63.6,1735.5,63.6,1735.5,63.6z"/>
<path class="st2" d="M1255.9,284.7c0,0.4-0.1,0.8-0.1,1.2c-0.2,1.8-0.3,3.5-0.2,5.3c0.1,1,0.2,1.9,0.7,2.8c0.5,0.9,1.2,1.6,2.1,2.2
	c0.8,0.5,1.7,0.9,2.6,1.3c1.4,0.5,2.9,0.9,4.3,1.4c0,0,0,0,0.1,0.1c-0.1,0-0.3,0-0.4,0c-1.3-0.1-2.6-0.2-3.9-0.3c-1-0.1-2,0-3,0.1
	c-1.8,0.2-3.2,1.2-4.1,2.8c-0.5,0.9-1,1.9-1.3,2.9c-0.4,1.3-0.8,2.6-1.3,3.9c0,0,0,0-0.1,0.1c0-0.1,0-0.3,0-0.4
	c0.1-1.3,0.2-2.6,0.3-3.9c0.1-1,0-2.1-0.1-3.1c-0.3-1.8-1.2-3.2-2.8-4.1c-0.9-0.5-1.9-1-2.9-1.3c-1.3-0.4-2.6-0.8-3.9-1.3
	c0,0,0,0,0,0c0.1,0,0.3,0,0.4,0c1.3,0.1,2.6,0.2,3.9,0.3c1,0.1,2,0,3.1-0.1c1.8-0.2,3.2-1.2,4.1-2.8c0.5-0.9,1-1.9,1.3-2.9
	C1255,287.3,1255.5,286,1255.9,284.7C1255.9,284.7,1255.9,284.7,1255.9,284.7C1255.9,284.7,1255.9,284.7,1255.9,284.7z"/>
<path class="st2" d="M274.5,378.2c0,0.4,0.1,0.8,0.1,1.2c0.2,1.8,0.3,3.5,0.2,5.3c-0.1,1-0.2,1.9-0.7,2.8c-0.5,0.9-1.2,1.6-2.1,2.2
	c-0.8,0.5-1.7,0.9-2.6,1.3c-1.4,0.5-2.9,0.9-4.3,1.4c0,0,0,0-0.1,0.1c0.1,0,0.3,0,0.4,0c1.3-0.1,2.6-0.2,3.9-0.3c1-0.1,2,0,3,0.1
	c1.8,0.2,3.2,1.2,4.1,2.8c0.5,0.9,1,1.9,1.3,2.9c0.4,1.3,0.8,2.6,1.3,3.9c0,0,0,0,0.1,0.1c0-0.1,0-0.3,0-0.4
	c-0.1-1.3-0.2-2.6-0.3-3.9c-0.1-1,0-2.1,0.1-3.1c0.3-1.8,1.2-3.2,2.8-4.1c0.9-0.5,1.9-1,2.9-1.3c1.3-0.4,2.6-0.8,3.9-1.3
	c0,0,0,0,0,0c-0.1,0-0.3,0-0.4,0c-1.3,0.1-2.6,0.2-3.9,0.3c-1,0.1-2,0-3.1-0.1c-1.8-0.2-3.2-1.2-4.1-2.8c-0.5-0.9-1-1.9-1.3-2.9
	C275.4,380.8,275,379.5,274.5,378.2C274.6,378.2,274.6,378.2,274.5,378.2C274.5,378.2,274.5,378.2,274.5,378.2z"/>
<path class="st2" d="M322.4,33.2c0,0.4,0.1,0.8,0.1,1.2c0.2,1.8,0.3,3.5,0.2,5.3c-0.1,1-0.2,1.9-0.7,2.8c-0.5,0.9-1.2,1.6-2.1,2.2
	c-0.8,0.5-1.7,0.9-2.6,1.3c-1.4,0.5-2.9,0.9-4.3,1.4c0,0,0,0-0.1,0.1c0.1,0,0.3,0,0.4,0c1.3-0.1,2.6-0.2,3.9-0.3c1-0.1,2,0,3,0.1
	c1.8,0.2,3.2,1.2,4.1,2.8c0.5,0.9,1,1.9,1.3,2.9c0.4,1.3,0.8,2.6,1.3,3.9c0,0,0,0,0.1,0.1c0-0.1,0-0.3,0-0.4
	c-0.1-1.3-0.2-2.6-0.3-3.9c-0.1-1,0-2.1,0.1-3.1c0.3-1.8,1.2-3.2,2.8-4.1c0.9-0.5,1.9-1,2.9-1.3c1.3-0.4,2.6-0.8,3.9-1.3
	c0,0,0,0,0,0c-0.1,0-0.3,0-0.4,0c-1.3,0.1-2.6,0.2-3.9,0.3c-1,0.1-2,0-3.1-0.1c-1.8-0.2-3.2-1.2-4.1-2.8c-0.5-0.9-1-1.9-1.3-2.9
	C323.3,35.8,322.9,34.5,322.4,33.2C322.5,33.2,322.4,33.2,322.4,33.2C322.4,33.2,322.4,33.2,322.4,33.2z"/>
<path class="st2" d="M508.5,285.7c0,0.4,0.1,0.8,0.1,1.2c0.2,1.8,0.3,3.5,0.2,5.3c-0.1,1-0.2,1.9-0.7,2.8c-0.5,0.9-1.2,1.6-2.1,2.2
	c-0.8,0.5-1.7,0.9-2.6,1.3c-1.4,0.5-2.9,0.9-4.3,1.4c0,0,0,0-0.1,0.1c0.1,0,0.3,0,0.4,0c1.3-0.1,2.6-0.2,3.9-0.3c1-0.1,2,0,3,0.1
	c1.8,0.2,3.2,1.2,4.1,2.8c0.5,0.9,1,1.9,1.3,2.9c0.4,1.3,0.8,2.6,1.3,3.9c0,0,0,0,0.1,0.1c0-0.1,0-0.3,0-0.4
	c-0.1-1.3-0.2-2.6-0.3-3.9c-0.1-1,0-2.1,0.1-3.1c0.3-1.8,1.2-3.2,2.8-4.1c0.9-0.5,1.9-1,2.9-1.3c1.3-0.4,2.6-0.8,3.9-1.3
	c0,0,0,0,0,0c-0.1,0-0.3,0-0.4,0c-1.3,0.1-2.6,0.2-3.9,0.3c-1,0.1-2,0-3.1-0.1c-1.8-0.2-3.2-1.2-4.1-2.8c-0.5-0.9-1-1.9-1.3-2.9
	C509.4,288.4,509,287.1,508.5,285.7C508.5,285.7,508.5,285.7,508.5,285.7C508.5,285.7,508.5,285.7,508.5,285.7z"/>
<path class="st2" d="M50.3,485.3c0,0.4,0.1,0.8,0.1,1.2c0.2,1.8,0.3,3.5,0.2,5.3c-0.1,1-0.2,1.9-0.7,2.8c-0.5,0.9-1.2,1.6-2.1,2.2
	c-0.8,0.5-1.7,0.9-2.6,1.3c-1.4,0.5-2.9,0.9-4.3,1.4c0,0,0,0-0.1,0.1c0.1,0,0.3,0,0.4,0c1.3-0.1,2.6-0.2,3.9-0.3c1-0.1,2,0,3,0.1
	c1.8,0.2,3.2,1.2,4.1,2.8c0.5,0.9,1,1.9,1.3,2.9c0.4,1.3,0.8,2.6,1.3,3.9c0,0,0,0,0.1,0.1c0-0.1,0-0.3,0-0.4
	c-0.1-1.3-0.2-2.6-0.3-3.9c-0.1-1,0-2.1,0.1-3.1c0.3-1.8,1.2-3.2,2.8-4.1c0.9-0.5,1.9-1,2.9-1.3c1.3-0.4,2.6-0.8,3.9-1.3
	c0,0,0,0,0,0c-0.1,0-0.3,0-0.4,0c-1.3,0.1-2.6,0.2-3.9,0.3c-1,0.1-2,0-3.1-0.1c-1.8-0.2-3.2-1.2-4.1-2.8c-0.5-0.9-1-1.9-1.3-2.9
	C51.2,488,50.7,486.7,50.3,485.3C50.3,485.4,50.3,485.3,50.3,485.3C50.3,485.3,50.3,485.3,50.3,485.3z"/>
<path class="st2" d="M209.9,178.5c0,0.4,0.1,0.8,0.1,1.2c0.2,1.8,0.3,3.5,0.2,5.3c-0.1,1-0.2,1.9-0.7,2.8c-0.5,0.9-1.2,1.6-2.1,2.2
	c-0.8,0.5-1.7,0.9-2.6,1.3c-1.4,0.5-2.9,0.9-4.3,1.4c0,0,0,0-0.1,0.1c0.1,0,0.3,0,0.4,0c1.3-0.1,2.6-0.2,3.9-0.3c1-0.1,2,0,3,0.1
	c1.8,0.2,3.2,1.2,4.1,2.8c0.5,0.9,1,1.9,1.3,2.9c0.4,1.3,0.8,2.6,1.3,3.9c0,0,0,0,0.1,0.1c0-0.1,0-0.3,0-0.4
	c-0.1-1.3-0.2-2.6-0.3-3.9c-0.1-1,0-2.1,0.1-3.1c0.3-1.8,1.2-3.2,2.8-4.1c0.9-0.5,1.9-1,2.9-1.3c1.3-0.4,2.6-0.8,3.9-1.3
	c0,0,0,0,0,0c-0.1,0-0.3,0-0.4,0c-1.3,0.1-2.6,0.2-3.9,0.3c-1,0.1-2,0-3.1-0.1c-1.8-0.2-3.2-1.2-4.1-2.8c-0.5-0.9-1-1.9-1.3-2.9
	C210.7,181.2,210.3,179.9,209.9,178.5C209.9,178.6,209.9,178.5,209.9,178.5C209.9,178.5,209.9,178.5,209.9,178.5z"/>
<path class="st2" d="M586.8,51.1c0,0.4-0.1,0.8-0.1,1.2c-0.2,1.8-0.3,3.5-0.2,5.3c0.1,1,0.2,1.9,0.7,2.8c0.5,0.9,1.2,1.6,2.1,2.2
	c0.8,0.5,1.7,0.9,2.6,1.3c1.4,0.5,2.9,0.9,4.3,1.4c0,0,0,0,0.1,0.1c-0.1,0-0.3,0-0.4,0c-1.3-0.1-2.6-0.2-3.9-0.3c-1-0.1-2,0-3,0.1
	c-1.8,0.2-3.2,1.2-4.1,2.8c-0.5,0.9-1,1.9-1.3,2.9c-0.4,1.3-0.8,2.6-1.3,3.9c0,0,0,0-0.1,0.1c0-0.1,0-0.3,0-0.4
	c0.1-1.3,0.2-2.6,0.3-3.9c0.1-1,0-2.1-0.1-3.1c-0.3-1.8-1.2-3.2-2.8-4.1c-0.9-0.5-1.9-1-2.9-1.3c-1.3-0.4-2.6-0.8-3.9-1.3
	c0,0,0,0,0,0c0.1,0,0.3,0,0.4,0c1.3,0.1,2.6,0.2,3.9,0.3c1,0.1,2,0,3.1-0.1c1.8-0.2,3.2-1.2,4.1-2.8c0.5-0.9,1-1.9,1.3-2.9
	C586,53.7,586.4,52.4,586.8,51.1C586.8,51.1,586.8,51.1,586.8,51.1C586.8,51.1,586.8,51.1,586.8,51.1z"/>
<path class="st2" d="M1319.7,151.6c0,0.4-0.1,0.8-0.1,1.2c-0.2,1.8-0.3,3.5-0.2,5.3c0.1,1,0.2,1.9,0.7,2.8c0.5,0.9,1.2,1.6,2.1,2.2
	c0.8,0.5,1.7,0.9,2.7,1.3c1.4,0.5,2.9,0.9,4.3,1.4c0,0,0,0,0.1,0.1c-0.1,0-0.3,0-0.4,0c-1.3-0.1-2.6-0.2-3.9-0.3c-1-0.1-2,0-3,0.1
	c-1.8,0.2-3.2,1.2-4.1,2.8c-0.5,0.9-1,1.9-1.3,2.9c-0.4,1.3-0.8,2.6-1.3,3.9c0,0,0,0-0.1,0.1c0-0.1,0-0.3,0-0.4
	c0.1-1.3,0.2-2.6,0.3-3.9c0.1-1,0-2.1-0.1-3.1c-0.3-1.8-1.2-3.2-2.8-4.1c-0.9-0.5-1.9-1-2.9-1.3c-1.3-0.4-2.6-0.8-3.9-1.3
	c0,0,0,0,0,0c0.1,0,0.3,0,0.4,0c1.3,0.1,2.6,0.2,3.9,0.3c1,0.1,2,0,3.1-0.1c1.8-0.2,3.2-1.2,4.1-2.8c0.5-0.9,1-1.9,1.3-2.9
	C1318.8,154.2,1319.2,152.9,1319.7,151.6C1319.6,151.6,1319.6,151.6,1319.7,151.6C1319.6,151.6,1319.6,151.6,1319.7,151.6z"/>
<path class="st2" d="M1710.7,503.7c0,0.4-0.1,0.8-0.1,1.2c-0.2,1.8-0.3,3.5-0.2,5.3c0.1,1,0.2,1.9,0.7,2.8c0.5,0.9,1.2,1.6,2.1,2.2
	c0.8,0.5,1.7,0.9,2.7,1.3c1.4,0.5,2.9,0.9,4.3,1.4c0,0,0,0,0.1,0.1c-0.1,0-0.3,0-0.4,0c-1.3-0.1-2.6-0.2-3.9-0.3c-1-0.1-2,0-3,0.1
	c-1.8,0.2-3.2,1.2-4.1,2.8c-0.5,0.9-1,1.9-1.3,2.9c-0.4,1.3-0.8,2.6-1.3,3.9c0,0,0,0-0.1,0.1c0-0.1,0-0.3,0-0.4
	c0.1-1.3,0.2-2.6,0.3-3.9c0.1-1,0-2.1-0.1-3.1c-0.3-1.8-1.2-3.2-2.8-4.1c-0.9-0.5-1.9-1-2.9-1.3c-1.3-0.4-2.6-0.8-3.9-1.3
	c0,0,0,0,0,0c0.1,0,0.3,0,0.4,0c1.3,0.1,2.6,0.2,3.9,0.3c1,0.1,2,0,3.1-0.1c1.8-0.2,3.2-1.2,4.1-2.8c0.5-0.9,1-1.9,1.3-2.9
	C1709.8,506.3,1710.2,505,1710.7,503.7C1710.6,503.7,1710.7,503.7,1710.7,503.7C1710.7,503.6,1710.7,503.6,1710.7,503.7z"/>
<path class="st2" d="M842.6,360.8c0,0.4-0.1,0.8-0.1,1.2c-0.2,1.8-0.3,3.5-0.2,5.3c0.1,1,0.2,1.9,0.7,2.8c0.5,0.9,1.2,1.6,2.1,2.2
	c0.8,0.5,1.7,0.9,2.6,1.3c1.4,0.5,2.9,0.9,4.3,1.4c0,0,0,0,0.1,0.1c-0.1,0-0.3,0-0.4,0c-1.3-0.1-2.6-0.2-3.9-0.3c-1-0.1-2,0-3,0.1
	c-1.8,0.2-3.2,1.2-4.1,2.8c-0.5,0.9-1,1.9-1.3,2.9c-0.4,1.3-0.8,2.6-1.3,3.9c0,0,0,0-0.1,0.1c0-0.1,0-0.3,0-0.4
	c0.1-1.3,0.2-2.6,0.3-3.9c0.1-1,0-2.1-0.1-3.1c-0.3-1.8-1.2-3.2-2.8-4.1c-0.9-0.5-1.9-1-2.9-1.3c-1.3-0.4-2.6-0.8-3.9-1.3
	c0,0,0,0,0,0c0.1,0,0.3,0,0.4,0c1.3,0.1,2.6,0.2,3.9,0.3c1,0.1,2,0,3.1-0.1c1.8-0.2,3.2-1.2,4.1-2.8c0.5-0.9,1-1.9,1.3-2.9
	C841.7,363.4,842.1,362.1,842.6,360.8C842.6,360.8,842.6,360.8,842.6,360.8C842.6,360.8,842.6,360.8,842.6,360.8z"/>
<path class="st2" d="M1841.5,473.1c0,0.4-0.1,0.8-0.1,1.2c-0.2,1.8-0.3,3.5-0.2,5.3c0.1,1,0.2,1.9,0.7,2.8c0.5,0.9,1.2,1.6,2.1,2.2
	c0.8,0.5,1.7,0.9,2.7,1.3c1.4,0.5,2.9,0.9,4.3,1.4c0,0,0,0,0.1,0.1c-0.1,0-0.3,0-0.4,0c-1.3-0.1-2.6-0.2-3.9-0.3c-1-0.1-2,0-3,0.1
	c-1.8,0.2-3.2,1.2-4.1,2.8c-0.5,0.9-1,1.9-1.3,2.9c-0.4,1.3-0.8,2.6-1.3,3.9c0,0,0,0-0.1,0.1c0-0.1,0-0.3,0-0.4
	c0.1-1.3,0.2-2.6,0.3-3.9c0.1-1,0-2.1-0.1-3.1c-0.3-1.8-1.2-3.2-2.8-4.1c-0.9-0.5-1.9-1-2.9-1.3c-1.3-0.4-2.6-0.8-3.9-1.3
	c0,0,0,0,0,0c0.1,0,0.3,0,0.4,0c1.3,0.1,2.6,0.2,3.9,0.3c1,0.1,2,0,3.1-0.1c1.8-0.2,3.2-1.2,4.1-2.8c0.5-0.9,1-1.9,1.3-2.9
	C1840.7,475.7,1841.1,474.4,1841.5,473.1C1841.5,473.1,1841.5,473.1,1841.5,473.1C1841.5,473.1,1841.5,473.1,1841.5,473.1z"/>
<path class="st2" d="M1631.2,65.5c0,0.4-0.1,0.8-0.1,1.2c-0.2,1.8-0.3,3.5-0.2,5.3c0.1,1,0.2,1.9,0.7,2.8c0.5,0.9,1.2,1.6,2.1,2.2
	c0.8,0.5,1.7,0.9,2.6,1.3c1.4,0.5,2.9,0.9,4.3,1.4c0,0,0,0,0.1,0.1c-0.1,0-0.3,0-0.4,0c-1.3-0.1-2.6-0.2-3.9-0.3c-1-0.1-2,0-3,0.1
	c-1.8,0.2-3.2,1.2-4.1,2.8c-0.5,0.9-1,1.9-1.3,2.9c-0.4,1.3-0.8,2.6-1.3,3.9c0,0,0,0-0.1,0.1c0-0.1,0-0.3,0-0.4
	c0.1-1.3,0.2-2.6,0.3-3.9c0.1-1,0-2.1-0.1-3.1c-0.3-1.8-1.2-3.2-2.8-4.1c-0.9-0.5-1.9-1-2.9-1.3c-1.3-0.4-2.6-0.8-3.9-1.3
	c0,0,0,0,0,0c0.1,0,0.3,0,0.4,0c1.3,0.1,2.6,0.2,3.9,0.3c1,0.1,2,0,3.1-0.1c1.8-0.2,3.2-1.2,4.1-2.8c0.5-0.9,1-1.9,1.3-2.9
	C1630.4,68.1,1630.8,66.8,1631.2,65.5C1631.2,65.5,1631.2,65.5,1631.2,65.5C1631.2,65.5,1631.2,65.5,1631.2,65.5z"/>
<path class="st2" d="M143.1,905.1c0.1,0.7,0.1,1.5,0.2,2.2c0.4,3.3,0.7,6.7,1.5,10c0.5,1.8,1.1,3.5,2.3,5c1.2,1.6,2.8,2.6,4.7,3.2
	c1.8,0.7,3.6,1.1,5.4,1.3c2.8,0.4,5.7,0.7,8.5,1c0,0,0.1,0,0.1,0.1c-0.3,0-0.5,0.1-0.8,0.1c-2.5,0.3-5,0.6-7.5,0.9
	c-1.9,0.3-3.8,0.7-5.7,1.3c-3.3,1.2-5.5,3.4-6.6,6.8c-0.7,1.9-1.1,3.9-1.3,5.9c-0.3,2.6-0.6,5.2-0.9,7.8c0,0,0,0.1-0.1,0.1
	c0-0.3-0.1-0.5-0.1-0.8c-0.3-2.5-0.6-5-0.9-7.5c-0.3-2-0.7-3.9-1.4-5.8c-1.2-3.3-3.4-5.5-6.8-6.6c-1.9-0.6-3.9-1.1-5.9-1.3
	c-2.6-0.3-5.2-0.6-7.8-0.9c0,0-0.1,0-0.1-0.1c0.3,0,0.5-0.1,0.8-0.1c2.5-0.3,5-0.6,7.5-0.9c1.9-0.3,3.8-0.7,5.7-1.3
	c3.3-1.2,5.5-3.4,6.6-6.8c0.7-1.9,1.1-3.9,1.3-5.9C142.5,910.4,142.7,907.8,143.1,905.1C143,905.2,143,905.2,143.1,905.1
	C143,905.1,143.1,905.1,143.1,905.1z"/>
<path class="st2" d="M1520.5,605.3c0.1,0.7,0.1,1.5,0.2,2.2c0.4,3.3,0.7,6.7,1.5,10c0.5,1.8,1.1,3.5,2.3,5c1.2,1.6,2.8,2.6,4.7,3.2
	c1.8,0.7,3.6,1.1,5.4,1.3c2.8,0.4,5.7,0.7,8.5,1c0,0,0.1,0,0.1,0.1c-0.3,0-0.5,0.1-0.8,0.1c-2.5,0.3-5,0.6-7.5,0.9
	c-1.9,0.3-3.8,0.7-5.7,1.3c-3.3,1.2-5.5,3.4-6.6,6.8c-0.7,1.9-1.1,3.9-1.3,5.9c-0.3,2.6-0.6,5.2-0.9,7.8c0,0,0,0.1-0.1,0.1
	c0-0.3-0.1-0.5-0.1-0.8c-0.3-2.5-0.6-5-0.9-7.5c-0.3-2-0.7-3.9-1.4-5.8c-1.2-3.3-3.4-5.5-6.8-6.6c-1.9-0.6-3.9-1.1-5.9-1.3
	c-2.6-0.3-5.2-0.6-7.8-0.9c0,0-0.1,0-0.1-0.1c0.3,0,0.5-0.1,0.8-0.1c2.5-0.3,5-0.6,7.5-0.9c1.9-0.3,3.8-0.7,5.7-1.3
	c3.3-1.2,5.5-3.4,6.6-6.8c0.7-1.9,1.1-3.9,1.3-5.9C1519.8,610.6,1520.1,608,1520.5,605.3C1520.4,605.3,1520.4,605.3,1520.5,605.3
	C1520.4,605.3,1520.5,605.3,1520.5,605.3z"/>
<circle class="st2" cx="1603.7" cy="473.9" r="10.8"/>
<circle class="st2" cx="1804.8" cy="113.6" r="10.8"/>
<circle class="st2" cx="1355.4" cy="47.4" r="10.8"/>
<circle class="st2" cx="824.7" cy="58" r="9.2"/>
<circle class="st2" cx="1028.8" cy="403.8" r="10.8"/>
<circle class="st2" cx="905.9" cy="845.1" r="10.8"/>
<circle class="st2" cx="1602.4" cy="920.7" r="10.8"/>
<circle class="st2" cx="308" cy="977.4" r="10.8"/>
<circle class="st2" cx="65.1" cy="662.9" r="10.8"/>
<circle class="st2" cx="321.5" cy="756" r="10.8"/>
<circle class="st2" cx="62.4" cy="243.1" r="10.8"/>
<circle class="st2" cx="209.5" cy="28.6" r="10.8"/>
<g>
	<g>
		<path class="st3" d="M543.9,569.4h49.8V607h-49.8V569.4z M515,572.9v36.9l27.5-2.7v-37.6l-15.5,1.9L515,572.9z M543.9,608.3v15.3
			v0.7v456.8h54.5V608.3H543.9z M510.5,1081.1h32V624.3v-0.7v-15.3l-32,3.1V1081.1z M546.1,549.6L544,568h49.2l-32.3-53h-10.7
			L546.1,549.6z M545.4,515l-29.9,56.4l27-3.4l6.2-53H545.4z M560.5,513.7v-11.1h-2.7h-9.5h-2.7v11.1h3.8H560.5z M557.2,463.9h-8.1
			v37.4h8.1V463.9z"/>
		<path class="st4" d="M599.1,607H595v-38.3c0,0,0,0,0,0c0-0.1,0-0.2-0.1-0.4l-33-54.2v-12.3c0-0.4-0.3-0.7-0.7-0.7h-2.7v-38
			c0-0.4-0.3-0.7-0.7-0.7h-9.5c-0.4,0-0.7,0.3-0.7,0.7v38H545c-0.4,0-0.7,0.3-0.7,0.7v12.3L513.7,572c0,0.1,0,0.2-0.1,0.3
			c0,0,0,0,0,0.1v37.6l-3.9,0.4c-0.3,0-0.6,0.3-0.6,0.7v470.9c0,0.4,0.3,0.7,0.7,0.7h33.4h55.9c0.4,0,0.7-0.3,0.7-0.7V607.7
			C599.8,607.3,599.5,607,599.1,607z M593.1,568H544l2.1-18.4l4-34.6h10.7L593.1,568z M593.7,569.4V607h-49.8v-37.6H593.7z
			 M549.1,463.9h8.1v37.4h-8.1V463.9z M545.7,502.6h2.7h9.5h2.7v11.1h-11h-3.8V502.6z M542.5,623.7v0.7v456.8h-32V611.5l32-3.1
			V623.7z M542.5,607l-27.5,2.7v-36.9l12-1.5l15.5-1.9V607z M542.6,568.1l-27,3.4l29.9-56.4h3.3L542.6,568.1z M598.4,1081.1h-54.5
			V624.3v-0.7v-15.3h54.5V1081.1z"/>
	</g>
	<g>
		<path class="st3" d="M793.6,552.9h21.2v23.4l-21.2-0.9V552.9z M783.9,576.3l8.3-0.8v-22.6h-8.3V576.3z M829.7,620.6l-36.2-2.3
			v462.8H877V623.6L829.7,620.6z M728.7,623.6v457.5h63.6V618.3l-31.8,2.6L728.7,623.6z M729.7,622.2l62.5-5.2v-24.8v-0.7v-14.6
			l-20.8,1.9L729.7,622.2z M793.6,591.4v0.7v24.8l82.3,5.3l-43.2-43.8l-39.1-1.6V591.4z M814.3,551.5l-12.9-26.1h-3.7l-4.1,26.1
			H814.3z M784.3,551.5h8l3.5-22.7L784.3,551.5z"/>
		<path class="st4" d="M878.3,622.9c0-0.1-0.1-0.3-0.1-0.4c0,0,0,0,0,0c0,0,0,0,0,0l-44.7-45.2c-0.1-0.1-0.3-0.2-0.5-0.2l-16.9-0.7
			v-24.2c0,0,0,0,0,0c0-0.1,0-0.2-0.1-0.3l-13.5-27.5c-0.1-0.2-0.3-0.4-0.6-0.4h-4.7c0,0-0.1,0-0.1,0c-0.1,0-0.1,0-0.2,0.1
			c-0.1,0-0.1,0.1-0.2,0.2c0,0-0.1,0-0.1,0.1l-14,27.5c0,0.1-0.1,0.2-0.1,0.3c0,0,0,0,0,0v24.2l-11.4,1.1c-0.2,0-0.3,0.1-0.4,0.2
			l-43.2,44.8c0,0,0,0,0,0c0,0,0,0,0,0.1c-0.1,0.1-0.1,0.2-0.1,0.4c0,0,0,0,0,0v458.8c0,0.4,0.3,0.7,0.7,0.7h64.9h84.7
			c0.4,0,0.7-0.3,0.7-0.7L878.3,622.9C878.3,623,878.3,623,878.3,622.9z M832.7,578.4l43.2,43.8l-82.3-5.3v-24.8v-0.7v-14.6
			L832.7,578.4z M814.8,576.3l-21.2-0.9v-22.6h21.2V576.3z M797.8,525.4h3.7l12.9,26.1h-20.7L797.8,525.4z M792.2,1081.1h-63.6
			V623.6l31.8-2.6l31.8-2.6V1081.1z M792.2,591.4v0.7V617l-62.5,5.2l41.7-43.4l20.8-1.9V591.4z M792.2,575.5l-8.3,0.8v-23.4h8.3
			V575.5z M792.3,551.5h-8l11.5-22.7L792.3,551.5z M877,1081.1h-83.4V618.3l36.2,2.3l47.2,3V1081.1z"/>
	</g>
	<g>
		<path class="st3" d="M249.3,751.2h-28.6v-64.5h53.9v272.7l-24.6,0.3V751.9C250,751.5,249.7,751.2,249.3,751.2z M334.7,958.8h29.1
			c0.4,0,0.7,0.3,0.7,0.7v121.7h6.8V717.6v-27.6l-36.5-23.5V958.8z M333.4,666.1l-57.5,7.5v285.9l50-0.7c0,0,0,0,0,0h7.4V666.1z
			 M372.6,718.3v362.8h27.5V718.3H372.6z M190.7,751.2C190.7,751.2,190.7,751.2,190.7,751.2l28.6,0V608.3H94.9v148.3L190.7,751.2
			C190.7,751.2,190.7,751.2,190.7,751.2z M71.4,758.7c0-0.4,0.3-0.7,0.6-0.7l21.6-1.2V608.4l-32.9,4.1v392.9l10.7-0.4V758.7z
			 M155.6,961.8c0-0.4,0.3-0.7,0.7-0.7l33.8-0.5V752.6l-117.3,6.7V1005l48.3-1.9c0,0,0,0,0,0c0,0,0,0,0,0h34.5V961.8z M191.4,960.7
			l57.2-0.8V752.6h-57.2V960.7z M156.9,1003.1h6.1c0.4,0,0.7,0.3,0.7,0.7v77.3h26.4h1.4h27.9h29.3h27.3H304h21.3v-121l-168.3,2.3
			V1003.1z M121.8,1081.1h35.2h5.4v-76.7h-40.6V1081.1z M23.7,1081.1h37h12.1h20.8h1.4h25.5v-76.6l-96.7,3.8V1081.1z M326.6,1081.1
			h6.8h1.4h28.4v-121h-36.5V1081.1z"/>
		<path class="st4" d="M400.8,717h-28.2v-27.3c0-0.2-0.1-0.4-0.3-0.6l-37.9-24.3c-0.1-0.1-0.3-0.1-0.4-0.1c0,0,0,0,0,0l-58.8,7.7
			c-0.3,0-0.6,0.3-0.6,0.7v12.4h-53.9v-77.8c0-0.4-0.3-0.7-0.7-0.7H94.3c0,0,0,0,0,0c0,0,0,0,0,0l-34.3,4.3c-0.3,0-0.6,0.3-0.6,0.7
			v393.6l-36.3,1.4c-0.4,0-0.6,0.3-0.6,0.7v74.2c0,0.4,0.3,0.7,0.7,0.7h37h12.1h22.2h26.8h35.2h6.8h27.7H220h29.3h25.9h29.4h21.3
			h8.1h29.7h8.1h28.8c0.4,0,0.7-0.3,0.7-0.7V717.6C401.4,717.3,401.1,717,400.8,717z M220.7,686.8h53.9v272.7l-24.6,0.3V751.9
			c0-0.4-0.3-0.7-0.7-0.7h-28.6V686.8z M248.6,752.6v207.3l-57.2,0.8V752.6H248.6z M94.9,608.3h124.4v142.9h-28.6c0,0,0,0,0,0
			c0,0,0,0,0,0l-95.7,5.5V608.3z M60.7,612.5l32.9-4.1v148.3L72,758c-0.4,0-0.6,0.3-0.6,0.7v246.4l-10.7,0.4V612.5z M120.4,1081.1
			H94.9h-1.4H72.7H60.7h-37v-72.9l96.7-3.8V1081.1z M121.1,1003.2C121.1,1003.2,121.1,1003.1,121.1,1003.2l-48.3,1.9V759.3
			l117.3-6.7v208.1l-33.8,0.5c-0.4,0-0.7,0.3-0.7,0.7v41.3L121.1,1003.2C121.1,1003.1,121.1,1003.1,121.1,1003.2z M162.3,1081.1
			h-5.4h-35.2v-76.7h40.6V1081.1z M325.3,1081.1H304h-28.1h-27.3h-29.3h-27.9h-1.4h-26.4v-77.3c0-0.4-0.3-0.7-0.7-0.7h-6.1v-40.7
			l168.3-2.3V1081.1z M325.9,958.8l-50,0.7V673.6l57.5-7.5v292.7H325.9C325.9,958.8,325.9,958.8,325.9,958.8z M363.1,1081.1h-28.4
			h-1.4h-6.8v-121h36.5V1081.1z M371.2,717.6v363.5h-6.8V959.5c0-0.4-0.3-0.7-0.7-0.7h-29.1V666.6l36.5,23.5V717.6z M400.1,1081.1
			h-27.5V718.3h27.5V1081.1z"/>
	</g>
	<g>
		<path class="st3" d="M648.4,657.9v423.2h-8.8V862.8c0-0.4-0.3-0.7-0.6-0.7l-45.3-3V657.9H648.4z M592.3,657.9h-23v199.6l23,1.5
			V657.9z M537.1,733.6h-62.7v347.5H495V856.7c0-0.4,0.3-0.7,0.7-0.7h41.5V733.6z M401.4,1081.1h71.7V733.7l-71.7,6V1081.1z
			 M547.7,1081.1h21.6h23h1.4h44.6V863.4l-90.6-6V1081.1z M496.3,1081.1h40.8h9.2V857.4h-50V1081.1z"/>
		<path class="st4" d="M649.1,656.6H593h-24.3c-0.4,0-0.7,0.3-0.7,0.7v200.2l-20.9-1.4c0,0,0,0,0,0c0,0,0,0,0,0h-8.6V733
			c0-0.4-0.3-0.7-0.7-0.7h-64c0,0,0,0,0,0c0,0,0,0,0,0l-73,6.1c-0.4,0-0.6,0.3-0.6,0.7v342.8c0,0.4,0.3,0.7,0.7,0.7h73h21.9h42.1
			h9.2h21.6H593h46h10.1c0.4,0,0.7-0.3,0.7-0.7V657.2C649.8,656.9,649.5,656.6,649.1,656.6z M473.1,1081.1h-71.7V739.7l71.7-6
			V1081.1z M495,856.7v224.5h-20.5V733.6h62.7V856h-41.5C495.3,856,495,856.3,495,856.7z M546.3,1081.1h-9.2h-40.8V857.4h50V1081.1z
			 M569.3,657.9h23V859l-23-1.5V657.9z M638.3,1081.1h-44.6h-1.4h-23h-21.6V857.4l90.6,6V1081.1z M648.4,1081.1h-8.8V862.8
			c0-0.4-0.3-0.7-0.6-0.7l-45.3-3V657.9h54.8V1081.1z"/>
	</g>
	<g>
		<path class="st3" d="M877,835.7v245.4h-25V835.7H877z M808.7,938.7h30.2c0.4,0,0.7,0.3,0.7,0.7v141.8h11V835.7h-41.9V938.7z
			 M797.9,755.3h-39V829h39V755.3z M719.2,829h38.3v-73.7h-38.3V829z M807.3,835.1v-4.7h-48.5v108.4h48.5V835.1z M706.2,885.1h14.5
			c0.4,0,0.7,0.3,0.7,0.7v53h36.1V830.3h-51.3V885.1z M720.1,886.4H691v52.3h29.1V886.4z M639.6,1081.1h50V939.4v-53h-50V1081.1z
			 M758.9,1081.1h39h9.5h1.4h29.5V940.1h-79.3V1081.1z M691,1081.1h15.2h13h0.9h37.4V940.1H691V1081.1z M719.2,745.8v8.1h38.3v-8.1
			h-27.7H719.2z M797.9,745.8h-10.6h-28.3v8.1h39V745.8z M730.5,733v11.5h27.1V733h-18.9H730.5z M786.5,733h-8.2H759v11.5h27.6V733z
			 M739.4,731.6h18.3v-10.3h-18.3V731.6z M777.7,721.3H759v10.3h18.6V721.3z M757.6,702.5l-17.3,17.5h17.4L757.6,702.5z
			 M759.1,702.5l-0.1,17.5h17.7L759.1,702.5z"/>
		<path class="st4" d="M877.6,834.4h-26.4h-42.6v-4.7c0-0.4-0.3-0.7-0.7-0.7h-8.8v-74.4v-9.5c0-0.4-0.3-0.7-0.7-0.7h-10.6v-12.2
			c0-0.4-0.3-0.7-0.7-0.7H779v-11c0,0,0,0,0-0.1c0-0.2-0.1-0.3-0.2-0.4c0,0,0,0,0,0l0,0l-19.9-19.8c-0.1-0.1-0.4-0.2-0.6-0.2
			c-0.2,0-0.4,0-0.6,0.2l-19.6,19.8c-0.1,0.1-0.2,0.3-0.2,0.4c0,0,0,0,0,0v11h-8.2c-0.4,0-0.7,0.3-0.7,0.7v12.2h-10.6
			c-0.4,0-0.7,0.3-0.7,0.7v9.5V829h-12.3c-0.4,0-0.7,0.3-0.7,0.7v55.4h-14.5H639c-0.4,0-0.7,0.3-0.7,0.7v196.1
			c0,0.4,0.3,0.7,0.7,0.7h51.4h15.2h13h2.3h37.4h40.3h9.5h30.9h12.4h26.4c0.4,0,0.7-0.3,0.7-0.7V835.1
			C878.3,834.7,878,834.4,877.6,834.4z M689.7,939.4v141.8h-50V886.4h50V939.4z M757.6,702.5l0.1,17.5h-17.4L757.6,702.5z
			 M691,886.4h29.1v52.3H691V886.4z M757.5,1081.1h-37.4h-0.9h-13H691V940.1h66.5V1081.1z M757.5,938.7h-36.1v-53
			c0-0.4-0.3-0.7-0.7-0.7h-14.5v-54.8h51.3V938.7z M757.5,829h-38.3v-73.7h38.3V829z M757.5,753.9h-38.3v-8.1h10.6h27.7V753.9z
			 M757.6,744.5h-27.1V733h8.2h18.9V744.5z M757.7,731.6h-18.3v-10.3h18.3V731.6z M759.1,702.5l17.6,17.5H759L759.1,702.5z
			 M759,721.3h18.6v10.3H759V721.3z M759,733h19.4h8.2v11.5H759V733z M758.9,745.8h28.3h10.6v8.1h-39V745.8z M758.9,755.3h39V829
			h-39V755.3z M758.9,830.3h48.5v4.7v103.7h-48.5V830.3z M838.2,1081.1h-29.5h-1.4h-9.5h-39V940.1h79.3V1081.1z M850.6,1081.1h-11
			V939.4c0-0.4-0.3-0.7-0.7-0.7h-30.2v-103h41.9V1081.1z M877,1081.1h-25V835.7h25V1081.1z"/>
	</g>
	<g>
		<path class="st3" d="M1144.7,758h-14.5v-18.6h66.9v103.1h-8.5c-0.4,0-0.7,0.3-0.7,0.7v54.8h-11.5v-62.2c0-0.4-0.3-0.7-0.7-0.7
			h-6.8v-39.2c0-0.4-0.3-0.7-0.7-0.7h-9.5v-15.5c0-0.4-0.3-0.7-0.7-0.7h-12.8v-20.3C1145.4,758.3,1145.1,758,1144.7,758z
			 M1105.6,841.2c0.3,0.1,0.5,0.3,0.5,0.7v67.1l18.4,4.3c0.3,0.1,0.5,0.3,0.5,0.7v72h32.5v-39.9c0-0.4,0.3-0.7,0.7-0.7h9.5v-46.7
			c0-0.4,0.3-0.7,0.7-0.7h6.8v-61.5h-6.8c-0.4,0-0.7-0.3-0.7-0.7v-39.2h-9.5c-0.4,0-0.7-0.3-0.7-0.7v-15.5h-12.8
			c-0.4,0-0.7-0.3-0.7-0.7v-20.3h-60.2v78.4h7L1105.6,841.2z M1158.9,946.6v39.2h16.9c0.4,0,0.7,0.3,0.7,0.7v94.7h20.6h29.4V946.6
			h-58.1H1158.9z M1169,899.3v46h57.5v-46h-37.9H1169z M1189.3,843.8v54.1h37.2v-54.1H1189.3z M898.8,738.7c0-0.4,0.3-0.7,0.7-0.7
			h32.5V576.8l-41,2.6v199.5h7.9V738.7z M959.1,579.4l-25.8-2.6V738h25.8V579.4z M898.8,780.3h-46.9v300.9h12.8V909.4
			c0-0.4,0.3-0.7,0.7-0.7h33.4V780.3z M1082.5,758.7v-13.1l-10.4-5.7v97.9h10.4V758.7z M1106.1,985.8h17.6v-71.5l-17.6-4.1V985.8z
			 M1104.8,908.7v-66.4l-13.3-3.1v69.5H1104.8z M1104.8,910.1h-14h-19.4c-0.4,0-0.7-0.3-0.7-0.7v-71v-99H900.2v170
			c0,0.4-0.3,0.7-0.7,0.7h-33.4v171.1h24.8h23.9h17.1h1.4h15.3v-94.7c0-0.4,0.3-0.7,0.7-0.7h155.5V910.1z M1090.1,839.1h-18v69.6h18
			V839.1z M950,1081.1h9.1h113h11.7h21h18.9h6.4h28.7h16.2v-94H950V1081.1z"/>
		<path class="st4" d="M1227.2,842.5h-28.7V738.7c0-0.4-0.3-0.7-0.7-0.7h-68.3c-0.4,0-0.7,0.3-0.7,0.7V758h-45v-12.8
			c0-0.2-0.1-0.5-0.4-0.6l-11.7-6.4c-0.1-0.1-0.2-0.1-0.3-0.1c0,0,0,0,0,0h-111V578.8c0-0.3-0.3-0.6-0.6-0.7l-27.2-2.7
			c0,0,0,0-0.1,0c0,0,0,0-0.1,0l-42.4,2.7c-0.4,0-0.6,0.3-0.6,0.7v200.1h-38.3c-0.4,0-0.7,0.3-0.7,0.7v302.2c0,0.4,0.3,0.7,0.7,0.7
			h14.2h24.8h25.2h17.1h16.7h10.5h111.7h11.7h22.3h18.9h5.1h28.7h17.6h22h29.4c0.4,0,0.7-0.3,0.7-0.7V945.9v-47.3v-55.4
			C1227.8,842.8,1227.5,842.5,1227.2,842.5z M1130.2,739.4h66.9v103.1h-8.5c-0.4,0-0.7,0.3-0.7,0.7v54.8h-11.5v-62.2
			c0-0.4-0.3-0.7-0.7-0.7h-6.8v-39.2c0-0.4-0.3-0.7-0.7-0.7h-9.5v-15.5c0-0.4-0.3-0.7-0.7-0.7h-12.8v-20.3c0-0.4-0.3-0.7-0.7-0.7
			h-14.5V739.4z M1083.8,759.3h60.2v20.3c0,0.4,0.3,0.7,0.7,0.7h12.8v15.5c0,0.4,0.3,0.7,0.7,0.7h9.5v39.2c0,0.4,0.3,0.7,0.7,0.7
			h6.8v61.5h-6.8c-0.4,0-0.7,0.3-0.7,0.7v46.7h-9.5c-0.4,0-0.7,0.3-0.7,0.7v39.9h-32.5v-72c0-0.3-0.2-0.6-0.5-0.7l-18.4-4.3v-67.1
			c0-0.3-0.2-0.6-0.5-0.7l-14.8-3.4h-7V759.3z M1123.7,914.4v71.5h-17.6v-75.5L1123.7,914.4z M1104.8,842.4v66.4h-13.3v-69.5
			L1104.8,842.4z M1072.1,739.9l10.4,5.7v13.1v79.1h-10.4V739.9z M1072.1,839.1h18v69.6h-18V839.1z M933.3,576.9l25.8,2.6V738h-25.8
			V576.9z M890.9,579.4l41-2.6V738h-32.5c-0.4,0-0.7,0.3-0.7,0.7v40.2h-7.9V579.4z M864.8,909.4v171.7h-12.8V780.3h46.9v128.5h-33.4
			C865.1,908.7,864.8,909,864.8,909.4z M948.6,986.5v94.7h-15.3h-1.4h-17.1h-23.9h-24.8V910.1h33.4c0.4,0,0.7-0.3,0.7-0.7v-170
			h170.6v99v71c0,0.4,0.3,0.7,0.7,0.7h19.4h14v75.7H949.3C948.9,985.8,948.6,986.1,948.6,986.5z M1175.1,1081.1h-16.2h-28.7h-6.4
			h-18.9h-21h-11.7h-113H950v-94h225.1V1081.1z M1226.5,1081.1h-29.4h-20.6v-94.7c0-0.4-0.3-0.7-0.7-0.7h-16.9v-39.2h9.5h58.1
			V1081.1z M1226.5,945.3H1169v-46h19.6h37.9V945.3z M1226.5,897.9h-37.2v-54.1h37.2V897.9z"/>
	</g>
	<g>
		<g>
			<rect x="1369.8" y="726.4" class="st3" width="7.4" height="354.7"/>
			<path class="st3" d="M1505.7,624.8v75.9h82.3c0,0,0,0,0,0c0.1,0,0.2,0,0.2,0l15.8,7.5c0.2,0.1,0.4,0.3,0.4,0.6v135.6h77.1V571.4
				h-175.8V624.8z"/>
			<polygon class="st3" points="1442.2,624.1 1504.4,624.1 1504.4,571.5 1442.2,582.8 			"/>
			<rect x="1227.8" y="664.7" class="st3" width="99.4" height="416.5"/>
			<polygon class="st3" points="1328.6,1081.1 1349.2,1081.1 1368.5,1081.1 1368.5,671.3 1328.6,664.8 			"/>
			<polygon class="st3" points="1378.6,1081.1 1426.8,1081.1 1442.2,1081.1 1504.4,1081.1 1504.4,701.4 1504.4,625.5 1378.6,625.5 
							"/>
			<rect x="1505.7" y="702.1" class="st3" width="81.6" height="379.1"/>
			<polygon class="st3" points="1588.6,1081.1 1603.1,1081.1 1603.1,845.2 1603.1,709.4 1588.6,702.5 			"/>
			<rect x="1604.4" y="845.9" class="st3" width="77.1" height="235.3"/>
			<polygon class="st3" points="1682.9,570.7 1682.9,845.2 1682.9,1081.1 1714,1081.1 1714,899.5 1714,862.8 1714,555.4 
				1682.9,565.8 			"/>
			<rect x="1715.3" y="555.2" class="st3" width="107.3" height="306.9"/>
			<polygon class="st3" points="1883.6,900.2 1715.3,900.2 1715.3,1081.1 1822.6,1081.1 1896.3,1081.1 1896.3,900.2 			"/>
			<rect x="1715.3" y="863.4" class="st3" width="167.7" height="35.4"/>
		</g>
		<path class="st4" d="M1896.9,898.8h-12.6v-36.1c0-0.4-0.3-0.7-0.7-0.7h-59.7V554.5c0-0.4-0.3-0.7-0.7-0.7h-108.6c0,0-0.1,0-0.1,0
			c0,0-0.1,0-0.1,0l-32.5,10.8c-0.3,0.1-0.5,0.4-0.5,0.6v4.7H1505c0,0,0,0-0.1,0c0,0,0,0-0.1,0l-63.6,11.5c-0.3,0.1-0.6,0.3-0.6,0.7
			v41.9h-62.9c-0.4,0-0.7,0.3-0.7,0.7v100.3h-7.4v-54.3c0-0.3-0.2-0.6-0.6-0.7l-41.2-6.8c0,0,0,0-0.1,0c0,0,0,0-0.1,0h-100.7
			c-0.4,0-0.7,0.3-0.7,0.7v417.8c0,0.4,0.3,0.7,0.7,0.7h100.7h20.6h20.6h8.8h49.6h14h63.6h82.9h15.8h78.4h32.5h108.6h73.7
			c0.4,0,0.7-0.3,0.7-0.7V899.5C1897.6,899.1,1897.3,898.8,1896.9,898.8z M1327.2,1081.1h-99.4V664.7h99.4V1081.1z M1368.5,1081.1
			h-19.3h-20.6V664.8l39.9,6.5V1081.1z M1377.3,1081.1h-7.4V726.4h7.4V1081.1z M1504.4,701.4v379.7h-62.2h-15.3h-48.2V625.5h125.8
			V701.4z M1504.4,624.1h-62.2v-41.4l62.2-11.2V624.1z M1587.3,1081.1h-81.6V702.1h81.6V1081.1z M1603.1,845.2v236h-14.4V702.5
			l14.4,6.9V845.2z M1681.5,1081.1h-77.1V845.9h77.1V1081.1z M1681.5,844.5h-77.1V709c0-0.3-0.2-0.5-0.4-0.6l-15.8-7.5
			c-0.1,0-0.2,0-0.2,0c0,0,0,0,0,0h-82.3v-75.9v-53.4h175.8V844.5z M1714,862.8v36.7v181.6h-31.1v-236V570.7v-4.9l31.1-10.4V862.8z
			 M1715.3,555.2h107.3v306.9h-107.3V555.2z M1715.3,863.4H1883v35.4h-167.7V863.4z M1896.3,1081.1h-73.7h-107.3v-181h168.3h12.6
			V1081.1z"/>
	</g>
</g>
<path class="st5" d="M1577.7,71.7c-52.3,44.4-40.9,116.3-3.7,150c38.1,34.5,103,37.3,143.7-9.6c-1.9,43-57.5,87.4-110.7,88.5
	c-59.4,1.2-112-45.6-117.2-103.9C1483.3,126.1,1534.6,80.1,1577.7,71.7z"/>
</svg>
