<svg width="800" height="800" viewBox="0 0 800 800" fill="none" xmlns="http://www.w3.org/2000/svg">
<path d="M780.733 602.527C779.159 591.76 774.741 581.603 769.002 573.375C763.263 565.148 756.305 558.393 749.094 552.959C734.569 542.04 718.825 535.387 702.827 531.223C701.507 530.868 700.237 530.563 698.917 530.258C702.929 525.027 706.586 519.694 709.938 514.158C716.743 502.833 722.431 490.797 726.291 477.846C730.049 464.946 731.827 450.98 730.151 437.268C728.526 423.556 723.345 410.402 715.524 399.838C711.665 394.506 707.348 389.732 702.675 385.466L699.121 382.368C697.902 381.352 696.683 380.388 695.464 379.423L691.655 376.629L687.947 374.141C686.271 373.024 683.986 373.125 682.462 374.598C680.685 376.274 680.634 379.016 682.308 380.794L685.406 384.044L688.199 387.244L690.89 390.545L693.43 393.897C696.68 398.468 699.473 403.191 701.657 408.117C706.025 417.919 707.853 428.177 707.142 438.233C706.431 448.289 703.232 458.04 698.509 467.232C693.836 476.424 687.691 485.16 680.683 493.133C677.179 497.094 673.471 500.954 669.662 504.458C668.697 505.322 667.783 506.185 666.818 506.947C666.361 507.353 665.904 507.76 665.497 508.064L665.343 508.167C665.292 508.218 665.902 507.607 665.544 507.916C665.544 507.865 665.544 507.865 665.544 507.916L664.933 508.27C663.155 509.438 661.023 510.758 658.839 511.926C650.154 516.751 640.759 520.56 631.363 522.896C621.917 525.283 612.471 526.147 603.38 525.74C594.289 525.335 585.402 523.404 576.92 520.306C576.515 520.152 576.159 520.003 575.752 519.849C577.53 519.597 579.257 519.289 581.085 518.935C586.671 517.817 592.36 516.192 598.048 513.805C603.736 511.419 609.322 508.32 614.401 504.461C619.53 500.601 624.101 496.03 627.961 491.104C631.821 486.178 634.918 480.947 637.255 475.716C639.641 470.485 641.368 465.254 642.638 460.175C643.857 455.096 644.72 450.119 645.177 445.244C646.143 435.544 645.939 426.351 645.28 417.515L644.977 414.213L644.623 410.811C644.469 409.694 644.372 408.475 644.217 407.459L643.76 404.564L643.555 403.091L643.452 402.38L643.401 402.026L643.35 401.872V401.769C643.35 401.82 643.35 401.466 643.299 401.363L642.842 398.621L641.979 393.085C640.811 385.67 639.795 378.306 638.982 370.891C638.474 367.184 638.271 363.477 637.916 359.769C637.562 356.062 637.459 352.405 637.154 348.647C636.851 341.283 636.594 333.868 636.851 326.555C636.902 322.898 637.206 319.242 637.411 315.585C637.766 311.979 638.021 308.323 638.529 304.768C639.443 297.607 640.814 290.497 642.795 283.691C644.775 276.886 647.366 270.335 650.819 264.291C654.171 258.247 658.437 252.813 663.668 248.598C666.258 246.465 669.153 244.688 672.251 243.367C673.774 242.707 675.349 242.148 676.974 241.691C677.787 241.486 678.498 241.388 679.259 241.183C680.123 241.028 681.189 240.977 682.103 240.88H682.206C684.187 240.674 685.863 239.051 686.066 236.97C686.318 234.583 684.594 232.399 682.156 232.145C681.14 232.042 680.277 231.893 679.159 231.842C677.991 231.842 676.773 231.739 675.655 231.791C673.421 231.894 671.186 232.146 669.002 232.553C664.584 233.416 660.317 234.94 656.356 237.022C648.383 241.085 641.526 246.926 635.838 253.528C630.15 260.13 625.529 267.494 621.618 275.112C617.759 282.73 614.661 290.602 612.07 298.575C610.699 302.536 609.633 306.599 608.516 310.611C607.5 314.623 606.484 318.686 605.722 322.749C603.996 330.875 602.828 339.001 601.71 347.178C600.745 355.354 600.034 363.531 599.577 371.657C599.12 379.782 598.866 387.959 598.765 396.085V405.226C598.765 405.529 598.714 404.923 598.765 405.021V405.323V405.678V406.389V407.861L598.714 410.807C598.714 411.721 598.611 412.432 598.611 413.295L598.457 415.733L598.251 418.222C597.743 424.926 596.779 431.375 595.204 437.013C594.442 439.857 593.477 442.447 592.512 444.834C591.446 447.17 590.328 449.201 589.16 450.877C586.773 454.33 584.336 456.006 581.796 457.124C579.257 458.241 576.108 458.952 571.842 459.054C567.576 459.208 562.447 458.699 556.962 457.53C556.2 457.376 555.387 457.227 554.626 457.022C554.626 457.022 534.667 449.962 541.218 427.109C545.687 418.83 553.813 410.298 568.846 408.064C568.846 408.064 600.892 159.668 399.931 0.046935C399.777 -0.0559222 399.679 0.046935 399.679 0.046935C198.718 159.668 230.815 408.064 230.815 408.064C246.864 410.451 255.04 419.998 259.306 428.734C264.131 448.794 247.93 456.006 245.696 456.869C244.781 457.075 243.867 457.326 242.953 457.479C237.468 458.647 232.339 459.155 228.073 459.002C223.807 458.848 220.658 458.139 218.119 457.073C215.579 455.956 213.142 454.28 210.755 450.826C209.587 449.15 208.419 447.068 207.403 444.782C206.387 442.396 205.473 439.805 204.711 436.961C203.137 431.324 202.172 424.874 201.664 418.17L201.458 415.682L201.304 413.295C201.253 412.432 201.201 411.721 201.201 410.806V407.861V406.388V405.677V405.017C201.201 404.914 201.15 405.577 201.15 405.223V402.176V396.081C201.099 387.955 200.847 379.779 200.338 371.653C199.829 363.527 199.17 355.3 198.204 347.174C197.087 338.998 195.919 330.872 194.192 322.695C193.431 318.632 192.415 314.569 191.399 310.557C190.231 306.545 189.165 302.533 187.844 298.521C185.203 290.547 182.156 282.676 178.297 275.058C174.437 267.44 169.815 260.126 164.076 253.473C158.388 246.871 151.532 240.98 143.559 236.968C139.598 234.937 135.331 233.413 130.913 232.499C128.729 232.093 126.495 231.839 124.26 231.737C123.143 231.686 121.873 231.737 120.756 231.788C119.639 231.839 118.776 231.994 117.76 232.091C115.373 232.342 113.595 234.528 113.849 236.915C114.055 238.998 115.728 240.572 117.709 240.775H117.812C118.777 240.878 119.844 240.93 120.656 241.078C121.418 241.284 122.129 241.381 122.941 241.587C124.566 241.992 126.141 242.552 127.665 243.263C130.762 244.583 133.607 246.31 136.247 248.443C141.478 252.658 145.745 258.092 149.096 264.186C152.499 270.179 155.14 276.731 157.121 283.536C159.101 290.341 160.422 297.451 161.387 304.612C161.895 308.167 162.149 311.875 162.504 315.43C162.658 319.086 163.013 322.692 163.013 326.4C163.264 333.713 163.063 341.128 162.761 348.492C162.51 352.199 162.355 355.906 161.999 359.614C161.645 363.321 161.439 367.029 160.933 370.736C160.121 378.151 159.155 385.515 157.937 392.93L157.073 398.466L156.616 401.259C156.616 401.007 156.565 401.716 156.565 401.664V401.767V401.973L156.514 402.327L156.412 403.038L156.16 404.46L155.703 407.355C155.549 408.371 155.452 409.59 155.297 410.707L154.943 414.11L154.64 417.411C153.929 426.248 153.726 435.44 154.691 445.141C155.2 449.965 156.012 454.993 157.23 460.072C158.551 465.202 160.227 470.381 162.614 475.612C165.001 480.843 168.048 486.074 171.908 491.001C175.717 495.927 180.338 500.498 185.468 504.357C190.597 508.217 196.184 511.366 201.821 513.702C207.458 516.089 213.197 517.714 218.733 518.831C220.51 519.186 222.288 519.491 224.065 519.745C223.66 519.9 223.304 520.048 222.897 520.203C214.416 523.301 205.579 525.231 196.438 525.637C187.296 526.043 177.85 525.18 168.454 522.793C159.059 520.457 149.663 516.648 140.928 511.823C138.795 510.655 136.662 509.335 134.885 508.167L134.325 507.761C133.97 507.458 134.577 508.064 134.525 508.012L134.32 507.909C133.915 507.607 133.457 507.199 133 506.792C132.086 505.98 131.121 505.167 130.156 504.304C126.347 500.799 122.639 496.94 119.135 492.978C112.127 485.005 105.982 476.32 101.309 467.077C96.6369 457.834 93.4373 448.083 92.6755 438.078C91.9138 428.073 93.7421 417.815 98.1605 407.962C100.344 403.036 103.137 398.313 106.388 393.742L108.927 390.39L111.619 387.089L114.412 383.889L117.51 380.639C119.186 378.861 119.084 376.119 117.355 374.443C115.832 373.021 113.546 372.869 111.87 373.986L108.163 376.475L104.354 379.268C103.135 380.233 101.916 381.198 100.697 382.214L97.1421 385.311C92.4697 389.578 88.1529 394.402 84.2932 399.684C76.4721 410.247 71.2919 423.401 69.6667 437.113C67.9908 450.825 69.7684 464.792 73.5265 477.691C77.3355 490.642 83.0743 502.729 89.8797 514.004C93.2315 519.539 96.8882 524.872 100.9 530.103C99.5798 530.406 98.2594 530.713 96.9897 531.068C81.0428 535.233 65.2991 541.936 50.7234 552.855C43.5118 558.34 36.6049 565.044 30.8152 573.271C25.0256 581.499 20.658 591.707 19.0836 602.423C17.4077 613.189 18.8802 624.058 22.0292 633.301C23.6543 637.922 25.5842 642.188 27.8188 646.15C30.0534 650.06 32.4404 653.768 35.0813 657.069C37.6714 660.472 40.4138 663.518 43.2071 666.464L45.4924 668.699L46.6097 669.816C47.016 670.17 47.3715 670.578 47.6763 670.832L51.79 674.489C57.4272 679.313 63.2677 683.833 69.2097 688.049C81.246 696.378 93.8918 703.386 106.639 709.379C118.32 714.864 130.102 719.435 141.732 723.751C141.783 723.906 141.835 724.054 141.938 724.26L142.852 726.444C143.207 727.155 143.563 727.815 143.97 728.526C144.731 729.898 145.493 731.268 146.306 732.64L146.915 733.656L147.575 734.57L148.947 736.449C149.861 737.668 150.775 738.938 151.74 740.106C159.713 749.4 169.82 755.799 180.129 759.607C190.439 763.417 201.053 764.636 211.109 764.178C212.328 764.128 213.648 764.076 214.867 763.973L218.524 763.515L222.18 763.007C223.399 762.801 224.567 762.498 225.735 762.245L229.29 761.433C229.899 761.278 230.458 761.181 231.068 760.975L232.947 760.416L236.654 759.247L238.483 758.638C239.092 758.433 239.752 758.233 240.159 758.029L246.101 755.439C246.455 755.285 245.491 755.645 246.964 755.085L247.118 755.034L247.421 754.88L248.589 754.32L250.925 753.202C252.5 752.441 254.074 751.78 255.648 751.12C257.222 750.46 258.797 749.749 260.422 749.19C266.872 746.702 273.474 744.721 280.178 743.248C293.636 740.354 307.602 739.236 321.01 741.217C327.714 742.233 334.214 743.959 340.258 746.651C346.301 749.343 351.837 752.898 356.205 757.519C356.765 758.129 357.322 758.687 357.881 759.297L359.353 761.176L360.115 762.141L360.775 763.157L362.045 765.189C363.568 768.033 364.99 771.029 365.752 774.229C365.958 775.041 366.209 775.854 366.412 776.666L366.818 779.155L367.024 780.425C367.074 780.83 367.074 781.288 367.126 781.694L367.332 784.285C367.435 786.011 367.332 787.637 367.332 789.363C367.178 791.242 366.926 793.173 366.723 795.102C366.472 797.54 368.196 799.724 370.633 799.978C372.766 800.183 374.696 798.861 375.306 796.88C375.866 795.001 376.423 793.223 376.982 791.294C377.388 789.211 377.947 787.027 378.201 784.945L378.555 781.797C378.606 781.288 378.658 780.731 378.709 780.223V778.597V775.347C378.709 774.281 378.555 773.163 378.458 772.097C378.155 767.729 377.036 763.362 375.614 759.146L374.344 756.049L373.684 754.474L372.922 753.002L371.297 750.005C370.737 749.04 370.078 748.126 369.469 747.212C368.301 745.282 366.828 743.555 365.406 741.829C364.746 740.914 363.882 740.153 363.121 739.34C362.359 738.527 361.597 737.664 360.785 736.953C357.484 733.957 354.03 731.113 350.323 728.777C342.959 723.952 334.934 720.346 326.707 717.756C310.202 712.576 292.985 711.103 276.022 712.22C267.541 712.78 259.06 713.998 250.782 715.877C248.699 716.282 246.617 716.842 244.586 717.349C242.554 717.858 240.421 718.415 238.441 719.025L235.394 719.939L233.87 720.397L233.465 720.499L233.259 720.55C234.63 720.042 233.562 720.447 233.819 720.344L233.108 720.55L227.522 722.074C227.013 722.228 226.709 722.228 226.405 722.279L225.49 722.382L223.662 722.634L222.747 722.788C222.445 722.839 222.037 722.839 221.681 722.891L219.548 723.045C218.837 723.096 218.126 723.199 217.415 723.199L215.333 723.148H213.301C212.641 723.098 211.981 722.994 211.321 722.897C206.039 722.337 201.214 720.815 197.405 718.631C193.596 716.447 190.803 713.654 189.229 710.911C187.756 708.067 187.4 705.426 187.654 702.532C187.957 699.688 189.026 696.336 191.209 692.628C193.393 688.921 196.542 685.01 200.401 681.201C208.476 673.634 219.04 666.626 230.772 660.785L232.905 659.668L235.19 658.652L239.761 656.57C242.706 655.097 246.007 653.98 249.105 652.66L265.865 645.803L268.15 644.737L271.197 643.315C274.956 641.537 278.714 639.811 282.218 637.982C305.935 627.216 355.604 607.46 400.042 607.46C444.48 607.46 494.149 627.216 517.917 637.982C521.422 639.862 525.179 641.588 528.938 643.315L533.559 645.448L534.321 645.802L534.981 646.054L551.08 652.656C554.179 653.976 557.479 655.094 560.425 656.566L567.281 659.664L569.414 660.782C581.146 666.622 591.709 673.681 599.784 681.198C603.695 685.007 606.844 688.917 608.977 692.625C611.11 696.332 612.176 699.684 612.532 702.528C612.834 705.372 612.429 708.013 611.008 710.908C609.434 713.65 606.641 716.494 602.832 718.627C599.022 720.76 594.147 722.335 588.916 722.893C588.256 722.996 587.596 723.099 586.936 723.145H584.853L582.771 723.196C582.111 723.196 581.399 723.093 580.689 723.041L578.556 722.887C578.201 722.836 577.794 722.836 577.539 722.784L576.625 722.63L574.797 722.379L573.883 722.276C573.58 722.225 573.323 722.225 572.766 722.07L566.519 720.343C566.771 720.446 565.707 720.04 567.079 720.549L566.873 720.498L566.468 720.395L561.897 718.973C559.865 718.364 557.783 717.805 555.752 717.297C553.72 716.788 551.638 716.231 549.556 715.824C541.278 713.945 532.796 712.777 524.315 712.168C507.352 711 490.085 712.522 473.579 717.704C465.352 720.294 457.328 723.9 449.964 728.724C446.256 731.06 442.752 733.904 439.502 736.901C438.689 737.663 437.928 738.526 437.166 739.288C436.404 740.05 435.592 740.862 434.881 741.776C433.509 743.554 432.037 745.23 430.818 747.16C430.209 748.074 429.548 748.988 428.989 749.953L427.364 752.949L426.603 754.422L425.943 755.996L424.622 759.095C423.251 763.361 422.133 767.677 421.829 772.045C421.726 773.111 421.577 774.178 421.577 775.295V778.546V780.171C421.577 780.679 421.68 781.237 421.732 781.745L422.086 784.894C422.337 786.976 422.899 789.159 423.305 791.242C423.813 793.172 424.422 794.949 424.981 796.828C425.59 798.809 427.52 800.18 429.653 799.926C432.04 799.674 433.818 797.488 433.564 795.101C433.358 793.222 433.107 791.191 432.955 789.312C433.005 787.585 432.852 785.96 432.955 784.233L433.16 781.643C433.16 781.237 433.211 780.779 433.263 780.373L433.469 779.103L433.875 776.615C434.029 775.802 434.332 774.989 434.484 774.177C435.296 770.927 436.668 767.93 438.191 765.137L439.512 763.106L440.121 762.089L440.883 761.124L442.356 759.245C442.864 758.636 443.473 758.077 443.981 757.468C448.399 752.846 453.935 749.291 459.928 746.6C465.92 743.908 472.472 742.181 479.176 741.165C492.583 739.185 506.6 740.302 520.008 743.197C526.712 744.669 533.365 746.65 539.764 749.139C541.389 749.699 542.963 750.408 544.537 751.068C546.112 751.728 547.686 752.389 549.26 753.151L551.596 754.268L553.17 755.03C554.694 755.59 553.679 755.235 554.034 755.384L554.694 755.687L559.976 757.972C560.33 758.178 560.992 758.378 561.601 758.581L563.429 759.191L567.136 760.41L569.015 760.97C569.625 761.175 570.183 761.272 570.793 761.427L574.348 762.239C575.516 762.491 576.734 762.799 577.902 763.001L581.559 763.51L585.266 763.967C586.485 764.07 587.806 764.121 589.076 764.172C599.131 764.63 609.695 763.411 620.004 759.602C630.314 755.792 640.37 749.394 648.343 740.1C649.308 738.932 650.222 737.662 651.187 736.443L652.559 734.564L653.219 733.65L653.828 732.634C654.59 731.263 655.402 729.943 656.113 728.52C656.467 727.809 656.875 727.149 657.23 726.438L658.144 724.254C658.195 724.1 658.299 723.951 658.35 723.745C669.98 719.378 681.763 714.858 693.443 709.373C706.191 703.431 718.837 696.422 730.822 688.043C736.764 683.827 742.655 679.358 748.242 674.483L752.355 670.826C752.658 670.575 753.066 670.217 753.422 669.81L756.825 666.407C759.618 663.462 762.361 660.415 764.95 657.012C767.592 653.711 769.978 650.003 772.213 646.093C774.397 642.132 776.377 637.815 778.002 633.244C781.1 624.001 782.573 613.183 780.948 602.417L780.733 602.527ZM193.695 611.414C192.781 612.023 191.867 612.633 190.953 613.293L188.261 615.324L182.878 619.438C181.964 620.098 181.1 620.81 180.237 621.571L177.596 623.806C175.869 625.33 174.092 626.803 172.365 628.377L167.287 633.354C166.423 634.218 165.611 635.03 164.798 635.894L162.36 638.636C160.786 640.464 159.161 642.242 157.587 644.222C151.441 652.043 145.855 660.931 141.792 671.24C139.761 676.37 138.186 682.007 137.221 687.848L136.661 692.317C136.661 692.522 136.61 692.722 136.61 692.926C131.38 689.676 126.251 686.375 121.325 682.972C110.761 675.76 100.959 667.939 92.1227 659.458C87.755 655.192 83.5398 650.824 79.6293 646.203L76.7344 642.698C76.4299 642.344 76.2773 642.089 76.0742 641.886L75.5662 641.124L74.4997 639.651C73.0269 637.417 71.5541 635.233 70.4368 633.049C69.2179 630.865 68.3546 628.732 67.542 626.65C66.831 624.619 66.3231 622.638 66.0184 620.81C65.5612 617.204 65.8658 614.309 66.8818 611.922C67.8975 609.535 69.4211 607.25 71.808 604.863C74.195 602.527 77.3946 600.14 81.2543 598.057C88.923 593.893 98.7755 591.049 108.984 589.728C119.192 588.408 129.958 588.662 140.319 590.186C150.679 591.709 160.786 594.706 169.978 598.921C172.314 599.987 174.549 601.105 176.732 602.324L179.983 604.203L182.776 605.625L184.756 606.59L186.686 607.453C189.327 608.621 192.019 609.688 194.863 610.653L193.695 611.414ZM322.997 422.54C322.997 413.602 330.259 406.339 339.198 406.339C346.257 406.339 352.199 410.91 354.434 417.208C354.994 418.884 355.399 420.661 355.399 422.489C355.399 431.428 348.136 438.69 339.198 438.69C334.881 438.69 330.971 436.963 328.076 434.221C324.978 431.275 322.997 427.162 322.997 422.54ZM471.598 434.17C468.703 436.963 464.741 438.69 460.425 438.69C451.486 438.69 444.224 431.479 444.224 422.489C444.224 420.611 444.578 418.884 445.189 417.208C447.373 410.859 453.315 406.289 460.425 406.289C469.363 406.289 476.626 413.551 476.626 422.489C476.626 427.111 474.645 431.225 471.598 434.17ZM733.502 620.759C733.199 622.587 732.74 624.517 731.979 626.599C731.166 628.682 730.303 630.815 729.084 632.998C727.916 635.182 726.494 637.417 725.021 639.601L723.955 641.073L723.446 641.835C723.24 642.086 723.092 642.343 722.786 642.647L719.891 646.152C715.98 650.723 711.766 655.141 707.398 659.407C698.561 667.889 688.759 675.71 678.196 682.921C673.269 686.324 668.14 689.625 662.909 692.875C662.909 692.67 662.858 692.47 662.858 692.266L662.298 687.797C661.384 681.957 659.759 676.37 657.728 671.19C653.665 660.88 648.078 651.942 641.933 644.172C640.41 642.242 638.784 640.464 637.21 638.585L634.772 635.843C633.96 634.98 633.096 634.167 632.284 633.304L627.205 628.327C625.478 626.752 623.7 625.279 621.974 623.756L619.333 621.521C618.47 620.759 617.555 620.048 616.692 619.337L608.617 613.192C607.703 612.532 606.788 611.973 605.875 611.313L604.707 610.551C607.551 609.586 610.243 608.52 612.832 607.352L614.762 606.488L616.743 605.523L619.536 604.101L622.786 602.223C624.97 601.004 627.255 599.887 629.541 598.82C638.784 594.604 648.839 591.608 659.2 590.084C669.56 588.561 680.276 588.256 690.535 589.627C700.743 590.948 710.596 593.792 718.264 597.956C722.124 599.988 725.324 602.375 727.66 604.762C729.996 607.148 731.621 609.383 732.586 611.821C733.602 614.208 733.907 617.103 733.449 620.708L733.502 620.759Z" fill="white"/>
<circle cx="460.5" cy="422.5" r="16.5" fill="black"/>
<circle cx="338.5" cy="422.5" r="16.5" fill="black"/>
</svg>
