<svg xmlns="http://www.w3.org/2000/svg" width="800" height="800" fill="none" viewBox="0 0 800 800"><path fill="#fff" d="M780.733 602.527c-1.574-10.767-5.992-20.924-11.731-29.152-5.739-8.227-12.697-14.982-19.908-20.416-14.525-10.919-30.269-17.572-46.267-21.736-1.32-.355-2.59-.66-3.91-.965a177 177 0 0 0 11.021-16.1c6.805-11.325 12.493-23.361 16.353-36.312 3.758-12.9 5.536-26.866 3.86-40.578-1.625-13.712-6.806-26.866-14.627-37.43a94.3 94.3 0 0 0-12.849-14.372l-3.554-3.098c-1.219-1.016-2.438-1.98-3.657-2.945l-3.809-2.794-3.708-2.488c-1.676-1.117-3.961-1.016-5.485.457-1.777 1.676-1.828 4.418-.154 6.196l3.098 3.25 2.793 3.2 2.691 3.301 2.54 3.352c3.25 4.571 6.043 9.294 8.227 14.22 4.368 9.802 6.196 20.06 5.485 30.116s-3.91 19.807-8.633 28.999c-4.673 9.192-10.818 17.928-17.826 25.901-3.504 3.961-7.212 7.821-11.021 11.325-.965.864-1.879 1.727-2.844 2.489-.457.406-.914.813-1.321 1.117l-.154.103c-.051.051.559-.56.201-.251q0-.076 0 0l-.611.354c-1.778 1.168-3.91 2.488-6.094 3.656-8.685 4.825-18.08 8.634-27.476 10.97a96.6 96.6 0 0 1-27.983 2.844c-9.091-.405-17.978-2.336-26.46-5.434-.405-.154-.761-.303-1.168-.457a106 106 0 0 0 5.333-.914c5.586-1.118 11.275-2.743 16.963-5.13s11.274-5.485 16.353-9.344c5.129-3.86 9.7-8.431 13.56-13.357a74 74 0 0 0 9.294-15.388c2.386-5.231 4.113-10.462 5.383-15.541 1.219-5.079 2.082-10.056 2.539-14.931.966-9.7.762-18.893.103-27.729l-.303-3.302-.354-3.402c-.154-1.117-.251-2.336-.406-3.352l-.457-2.895-.205-1.473-.103-.711-.051-.354-.051-.154v-.103c0 .051 0-.303-.051-.406l-.457-2.742-.863-5.536c-1.168-7.415-2.184-14.779-2.997-22.194-.508-3.707-.711-7.414-1.066-11.122-.354-3.707-.457-7.364-.762-11.122-.303-7.364-.56-14.779-.303-22.092.051-3.657.355-7.313.56-10.97.355-3.606.61-7.262 1.118-10.817.914-7.161 2.285-14.271 4.266-21.077 1.98-6.805 4.571-13.356 8.024-19.4 3.352-6.044 7.618-11.478 12.849-15.693a35.3 35.3 0 0 1 8.583-5.231 37 37 0 0 1 4.723-1.676c.813-.205 1.524-.303 2.285-.508.864-.155 1.93-.206 2.844-.303h.103c1.981-.206 3.657-1.829 3.86-3.91a4.39 4.39 0 0 0-3.91-4.825c-1.016-.103-1.879-.252-2.997-.303-1.168 0-2.386-.103-3.504-.051a49 49 0 0 0-6.653.762 46.3 46.3 0 0 0-12.646 4.469c-7.973 4.063-14.83 9.904-20.518 16.506s-10.309 13.966-14.22 21.584c-3.859 7.618-6.957 15.49-9.548 23.463-1.371 3.961-2.437 8.024-3.554 12.036-1.016 4.012-2.032 8.075-2.794 12.138-1.726 8.126-2.894 16.252-4.012 24.429a401 401 0 0 0-2.133 24.479c-.457 8.125-.711 16.302-.812 24.428v9.141c0 .303-.051-.303 0-.205v2.84l-.051 2.946c0 .914-.103 1.625-.103 2.488l-.154 2.438-.206 2.489c-.508 6.704-1.472 13.153-3.047 18.791-.762 2.844-1.727 5.434-2.692 7.821-1.066 2.336-2.184 4.367-3.352 6.043-2.387 3.453-4.824 5.129-7.364 6.247-2.539 1.117-5.688 1.828-9.954 1.93-4.266.154-9.395-.355-14.88-1.524-.762-.154-1.575-.303-2.336-.508 0 0-19.959-7.06-13.408-29.913 4.469-8.279 12.595-16.811 27.628-19.045 0 0 32.046-248.396-168.915-408.017-.154-.103-.252 0-.252 0-200.961 159.621-168.864 408.017-168.864 408.017 16.049 2.387 24.225 11.934 28.491 20.67 4.825 20.06-11.376 27.272-13.61 28.135-.915.206-1.829.457-2.743.61-5.485 1.168-10.614 1.676-14.88 1.523s-7.415-.863-9.954-1.929c-2.54-1.117-4.977-2.793-7.364-6.247-1.168-1.676-2.336-3.758-3.352-6.044a59 59 0 0 1-2.692-7.821c-1.574-5.637-2.539-12.087-3.047-18.791l-.206-2.488-.154-2.387c-.051-.863-.103-1.574-.103-2.489v-5.789c0-.103-.051.56-.051.206v-9.142c-.051-8.126-.303-16.302-.812-24.428s-1.168-16.353-2.134-24.479c-1.117-8.176-2.285-16.302-4.012-24.479-.761-4.063-1.777-8.126-2.793-12.138-1.168-4.012-2.234-8.024-3.555-12.036-2.641-7.974-5.688-15.845-9.547-23.463s-8.482-14.932-14.221-21.585c-5.688-6.602-12.544-12.493-20.517-16.505a50 50 0 0 0-12.646-4.469 49 49 0 0 0-6.653-.762c-1.117-.051-2.387 0-3.504.051s-1.98.206-2.996.303c-2.387.251-4.165 2.437-3.911 4.824.206 2.083 1.879 3.657 3.86 3.86h.103c.965.103 2.032.155 2.844.303.762.206 1.473.303 2.285.509q2.438.608 4.724 1.676a36.1 36.1 0 0 1 8.582 5.18c5.231 4.215 9.498 9.649 12.849 15.743 3.403 5.993 6.044 12.545 8.025 19.35 1.98 6.805 3.301 13.915 4.266 21.076.508 3.555.762 7.263 1.117 10.818.154 3.656.509 7.262.509 10.97.251 7.313.05 14.728-.252 22.092-.251 3.707-.406 7.414-.762 11.122-.354 3.707-.56 7.415-1.066 11.122-.812 7.415-1.778 14.779-2.996 22.194l-.864 5.536-.457 2.793c0-.252-.051.457-.051.405v.309l-.051.354-.102.711-.252 1.422-.457 2.895c-.154 1.016-.251 2.235-.406 3.352l-.354 3.403-.303 3.301c-.711 8.837-.914 18.029.051 27.73.509 4.824 1.321 9.852 2.539 14.931 1.321 5.13 2.997 10.309 5.384 15.54s5.434 10.462 9.294 15.389c3.809 4.926 8.43 9.497 13.56 13.356a75.4 75.4 0 0 0 16.353 9.345c5.637 2.387 11.376 4.012 16.912 5.129q2.666.533 5.332.914c-.405.155-.761.303-1.168.458-8.481 3.098-17.318 5.028-26.459 5.434-9.142.406-18.588-.457-27.984-2.844-9.395-2.336-18.791-6.145-27.526-10.97a90 90 0 0 1-6.043-3.656l-.56-.406c-.355-.303.252.303.2.251l-.205-.103c-.405-.302-.863-.71-1.32-1.117-.914-.812-1.879-1.625-2.844-2.488-3.809-3.505-7.517-7.364-11.021-11.326-7.008-7.973-13.153-16.658-17.826-25.901-4.672-9.243-7.872-18.994-8.633-28.999-.762-10.005 1.066-20.263 5.484-30.116 2.184-4.926 4.977-9.649 8.228-14.22l2.539-3.352 2.692-3.301 2.793-3.2 3.098-3.25c1.676-1.778 1.574-4.52-.155-6.196a4.45 4.45 0 0 0-5.485-.457l-3.707 2.489-3.809 2.793c-1.219.965-2.438 1.93-3.657 2.946l-3.555 3.097c-4.672 4.267-8.99 9.091-12.849 14.373-7.82 10.563-13.001 23.717-14.626 37.429-1.676 13.712.101 27.679 3.86 40.578 3.808 12.951 9.547 25.038 16.353 36.313a177 177 0 0 0 11.02 16.099c-1.32.303-2.64.61-3.91.965-15.947 4.165-31.69 10.868-46.267 21.787-7.211 5.485-14.118 12.189-19.908 20.416s-10.157 18.436-11.731 29.152c-1.676 10.766-.204 21.635 2.945 30.878 1.625 4.621 3.555 8.887 5.79 12.849 2.234 3.91 4.621 7.618 7.262 10.919 2.59 3.403 5.333 6.449 8.126 9.395l2.285 2.235 1.118 1.117c.406.354.761.762 1.066 1.016l4.114 3.657a244 244 0 0 0 17.42 13.56c12.036 8.329 24.682 15.337 37.429 21.33 11.681 5.485 23.463 10.056 35.093 14.372.051.155.103.303.206.509l.914 2.184a41 41 0 0 0 1.118 2.082 165 165 0 0 0 2.336 4.114l.609 1.016.66.914 1.372 1.879c.914 1.219 1.828 2.489 2.793 3.657 7.973 9.294 18.08 15.693 28.389 19.501 10.31 3.81 20.924 5.029 30.98 4.571 1.219-.05 2.539-.102 3.758-.205l3.657-.458 3.656-.508c1.219-.206 2.387-.509 3.555-.762l3.555-.812c.609-.155 1.168-.252 1.778-.458l1.879-.559 3.707-1.169 1.829-.609c.609-.205 1.269-.405 1.676-.609l5.942-2.59c.354-.154-.61.206.863-.354l.154-.051.303-.154 1.168-.56 2.336-1.118c1.575-.761 3.149-1.422 4.723-2.082s3.149-1.371 4.774-1.93a136 136 0 0 1 19.756-5.942c13.458-2.894 27.424-4.012 40.832-2.031 6.704 1.016 13.204 2.742 19.248 5.434 6.043 2.692 11.579 6.247 15.947 10.868.56.61 1.117 1.168 1.676 1.778l1.472 1.879.762.965.66 1.016 1.27 2.032c1.523 2.844 2.945 5.84 3.707 9.04.206.812.457 1.625.66 2.437l.406 2.489.206 1.27c.05.405.05.863.102 1.269l.206 2.591c.103 1.726 0 3.352 0 5.078-.154 1.879-.406 3.81-.609 5.739-.251 2.438 1.473 4.622 3.91 4.876a4.43 4.43 0 0 0 4.673-3.098c.56-1.879 1.117-3.657 1.676-5.586.406-2.083.965-4.267 1.219-6.349l.354-3.148c.051-.509.103-1.066.154-1.574v-4.876c0-1.066-.154-2.184-.251-3.25-.303-4.368-1.422-8.735-2.844-12.951l-1.27-3.097-.66-1.575-.762-1.472-1.625-2.997c-.56-.965-1.219-1.879-1.828-2.793-1.168-1.93-2.641-3.657-4.063-5.383-.66-.915-1.524-1.676-2.285-2.489s-1.524-1.676-2.336-2.387c-3.301-2.996-6.755-5.84-10.462-8.176-7.364-4.825-15.389-8.431-23.616-11.021-16.505-5.18-33.722-6.653-50.685-5.536a163 163 0 0 0-25.24 3.657c-2.083.405-4.165.965-6.196 1.472-2.032.509-4.165 1.066-6.145 1.676l-3.047.914-1.524.458-.405.102-.206.051c1.371-.508.303-.103.56-.206l-.711.206-5.586 1.524c-.509.154-.813.154-1.117.205l-.915.103-1.828.252-.915.154c-.302.051-.71.051-1.066.103l-2.133.154c-.711.051-1.422.154-2.133.154l-2.082-.051h-2.032c-.66-.05-1.32-.154-1.98-.251-5.282-.56-10.107-2.082-13.916-4.266s-6.602-4.977-8.176-7.72c-1.473-2.844-1.829-5.485-1.575-8.379.303-2.844 1.372-6.196 3.555-9.904 2.184-3.707 5.333-7.618 9.192-11.427 8.075-7.567 18.639-14.575 30.371-20.416l2.133-1.117 2.285-1.016 4.571-2.082c2.945-1.473 6.246-2.59 9.344-3.91l16.76-6.857 2.285-1.066 3.047-1.422c3.759-1.778 7.517-3.504 11.021-5.333 23.717-10.766 73.386-30.522 117.824-30.522s94.107 19.756 117.875 30.522c3.505 1.88 7.262 3.606 11.021 5.333l4.621 2.133.762.354.66.252 16.099 6.602c3.099 1.32 6.399 2.438 9.345 3.91l6.856 3.098 2.133 1.118c11.732 5.84 22.295 12.899 30.37 20.416 3.911 3.809 7.06 7.719 9.193 11.427s3.199 7.059 3.555 9.903c.302 2.844-.103 5.485-1.524 8.38-1.574 2.742-4.367 5.586-8.176 7.719s-8.685 3.708-13.916 4.266c-.66.103-1.32.206-1.98.252h-2.083l-2.082.051c-.66 0-1.372-.103-2.082-.155l-2.133-.154c-.355-.051-.762-.051-1.017-.103l-.914-.154-1.828-.251-.914-.103c-.303-.051-.56-.051-1.117-.206l-6.247-1.727c.252.103-.812-.303.56.206l-.206-.051-.405-.103-4.571-1.422a139 139 0 0 0-6.145-1.676c-2.032-.509-4.114-1.066-6.196-1.473-8.278-1.879-16.76-3.047-25.241-3.656-16.963-1.168-34.23.354-50.736 5.536-8.227 2.59-16.251 6.196-23.615 11.02-3.708 2.336-7.212 5.18-10.462 8.177-.813.762-1.574 1.625-2.336 2.387s-1.574 1.574-2.285 2.488c-1.372 1.778-2.844 3.454-4.063 5.384-.609.914-1.27 1.828-1.829 2.793l-1.625 2.996-.761 1.473-.66 1.574-1.321 3.099c-1.371 4.266-2.489 8.582-2.793 12.95-.103 1.066-.252 2.133-.252 3.25v4.876c0 .508.103 1.066.155 1.574l.354 3.149c.251 2.082.813 4.265 1.219 6.348.508 1.93 1.117 3.707 1.676 5.586.609 1.981 2.539 3.352 4.672 3.098 2.387-.252 4.165-2.438 3.911-4.825-.206-1.879-.457-3.91-.609-5.789.05-1.727-.103-3.352 0-5.079l.205-2.59c0-.406.051-.864.103-1.27l.206-1.27.406-2.488c.154-.813.457-1.626.609-2.438.812-3.25 2.184-6.247 3.707-9.04l1.321-2.031.609-1.017.762-.965 1.473-1.879c.508-.609 1.117-1.168 1.625-1.777 4.418-4.622 9.954-8.177 15.947-10.868s12.544-4.419 19.248-5.435c13.407-1.98 27.424-.863 40.832 2.032 6.704 1.472 13.357 3.453 19.756 5.942 1.625.56 3.199 1.269 4.773 1.929 1.575.66 3.149 1.321 4.723 2.083l2.336 1.117 1.574.762c1.524.56.509.205.864.354l.66.303 5.282 2.285c.354.206 1.016.406 1.625.609l1.828.61 3.707 1.219 1.879.56c.61.205 1.168.302 1.778.457l3.555.812c1.168.252 2.386.56 3.554.762l3.657.509 3.707.457c1.219.103 2.54.154 3.81.205 10.055.458 20.619-.761 30.928-4.57s20.366-10.208 28.339-19.502c.965-1.168 1.879-2.438 2.844-3.657l1.372-1.879.66-.914.609-1.016c.762-1.371 1.574-2.691 2.285-4.114.354-.711.762-1.371 1.117-2.082l.914-2.184c.051-.154.155-.303.206-.509 11.63-4.367 23.413-8.887 35.093-14.372 12.748-5.942 25.394-12.951 37.379-21.33 5.942-4.216 11.833-8.685 17.42-13.56l4.113-3.657a9.4 9.4 0 0 0 1.067-1.016l3.403-3.403c2.793-2.945 5.536-5.992 8.125-9.395 2.642-3.301 5.028-7.009 7.263-10.919a87 87 0 0 0 5.789-12.849c3.098-9.243 4.571-20.061 2.946-30.827zm-587.038 8.887a88 88 0 0 0-2.742 1.879l-2.692 2.031-5.383 4.114a35 35 0 0 0-2.641 2.133l-2.641 2.235c-1.727 1.524-3.504 2.997-5.231 4.571l-5.078 4.977a116 116 0 0 0-2.489 2.54l-2.438 2.742c-1.574 1.828-3.199 3.606-4.773 5.586-6.146 7.821-11.732 16.709-15.795 27.018-2.031 5.13-3.606 10.767-4.571 16.608l-.56 4.469c0 .205-.051.405-.051.609-5.23-3.25-10.359-6.551-15.285-9.954-10.564-7.212-20.366-15.033-29.202-23.514-4.368-4.266-8.583-8.634-12.494-13.255l-2.895-3.505c-.304-.354-.457-.609-.66-.812l-.508-.762-1.066-1.473c-1.473-2.234-2.946-4.418-4.063-6.602-1.22-2.184-2.082-4.317-2.895-6.399a35.5 35.5 0 0 1-1.524-5.84c-.457-3.606-.152-6.501.864-8.888 1.015-2.387 2.54-4.672 4.926-7.059 2.387-2.336 5.587-4.723 9.446-6.806 7.669-4.164 17.521-7.008 27.73-8.329 10.208-1.32 20.974-1.066 31.335.458 10.36 1.523 20.467 4.52 29.659 8.735a93 93 0 0 1 6.754 3.403l3.251 1.879 2.793 1.422 1.98.965 1.93.863a98 98 0 0 0 8.177 3.2zM322.997 422.54c0-8.938 7.262-16.201 16.201-16.201 7.059 0 13.001 4.571 15.236 10.869.56 1.676.965 3.453.965 5.281 0 8.939-7.263 16.201-16.201 16.201-4.317 0-8.227-1.727-11.122-4.469-3.098-2.946-5.079-7.059-5.079-11.681m148.601 11.63a16.1 16.1 0 0 1-11.173 4.52c-8.939 0-16.201-7.211-16.201-16.201 0-1.878.354-3.605.965-5.281 2.184-6.349 8.126-10.919 15.236-10.919 8.938 0 16.201 7.262 16.201 16.2 0 4.622-1.981 8.736-5.028 11.681m261.904 186.589a32 32 0 0 1-1.523 5.84c-.813 2.083-1.676 4.216-2.895 6.399-1.168 2.184-2.59 4.419-4.063 6.603l-1.066 1.472-.509.762c-.206.251-.354.508-.66.812l-2.895 3.505c-3.911 4.571-8.125 8.989-12.493 13.255-8.837 8.482-18.639 16.303-29.202 23.514-4.927 3.403-10.056 6.704-15.287 9.954 0-.205-.051-.405-.051-.609l-.56-4.469c-.914-5.84-2.539-11.427-4.57-16.607-4.063-10.31-9.65-19.248-15.795-27.018-1.523-1.93-3.149-3.708-4.723-5.587l-2.438-2.742c-.812-.863-1.676-1.676-2.488-2.539l-5.079-4.977c-1.727-1.575-3.505-3.048-5.231-4.571l-2.641-2.235c-.863-.762-1.778-1.473-2.641-2.184l-8.075-6.145c-.914-.66-1.829-1.219-2.742-1.879l-1.168-.762a90 90 0 0 0 8.125-3.199l1.93-.864 1.981-.965 2.793-1.422 3.25-1.878c2.184-1.219 4.469-2.336 6.755-3.403a110.5 110.5 0 0 1 29.659-8.736c10.36-1.523 21.076-1.828 31.335-.457 10.208 1.321 20.061 4.165 27.729 8.329 3.86 2.032 7.06 4.419 9.396 6.806 2.336 2.386 3.961 4.621 4.926 7.059 1.016 2.387 1.321 5.282.863 8.887z"/><circle cx="460.5" cy="422.5" r="16.5" fill="#000"/><circle cx="338.5" cy="422.5" r="16.5" fill="#000"/></svg>