<svg xmlns="http://www.w3.org/2000/svg" xml:space="preserve" id="_x32_" width="800" height="800" viewBox="0 0 512 512"><style>.st0{fill:#000}</style><path d="m302.085 199.562-56.034-15.928c-5.258-1.489-10.821-.09-14.582 3.671l-53.2 53.2c-3.769 3.769-5.175 9.326-3.679 14.59l15.921 56.034a15.88 15.88 0 0 0 10.918 10.917l56.034 15.906c5.257 1.496 10.821.105 14.59-3.656l53.207-53.207c3.761-3.762 5.16-9.326 3.664-14.582l-15.928-56.041c-1.504-5.251-5.662-9.409-10.911-10.904M261.905 99.385c-13.371.763-30.369 5.848-30.369 5.848a9.63 9.63 0 0 0-6.462 4.486c-1.414 2.341-1.787 5.197-1.009 7.882l13.229 46.552a15.9 15.9 0 0 0 10.903 10.91l56.042 15.929c5.257 1.495 10.813.105 14.574-3.664l43.777-43.777c2.168-2.176 3.179-5.257 2.73-8.368-.434-3.104-2.281-5.87-5.004-7.515 0 0-11.688-9.796-26.33-15.914-21.088-8.787-45.931-13.873-72.081-12.369M115.415 225.878l41.855 11.882c5.257 1.496 10.806.105 14.574-3.664l53.215-53.206c3.754-3.762 5.152-9.326 3.656-14.582l-2.101-7.389-10.297-36.224a10.63 10.63 0 0 0-5.886-6.775c-2.864-1.279-6.11-1.189-8.809.247 0 0-11.21 4.442-21.903 11.591-11.285 7.568-22.188 16.579-32.62 27.003-10.185 10.193-18.949 20.976-26.263 32.268-7.321 11.307-12.07 24.386-12.07 24.386-1.331 2.685-1.353 5.885-.074 8.697a10.67 10.67 0 0 0 6.723 5.766M181.941 313.289l-15.921-56.042c-1.481-5.264-5.646-9.422-10.911-10.917l-3.111-.883-40.853-11.606c-2.722-.77-5.608-.389-7.964 1.054-2.348 1.444-3.956 3.821-4.449 6.573 0 0-3.754 13.76-4.487 25.485-1.705 27.28-2.879 58.913 5.242 79.583 6.207 15.764 15.114 26.488 15.114 26.488a10.58 10.58 0 0 0 7.53 5.219c3.14.479 6.282-.523 8.48-2.722l47.658-47.65c3.761-3.768 5.175-9.324 3.672-14.582M385.271 152.614c-1.645-2.714-4.412-4.562-7.523-5.01-3.104-.434-6.184.576-8.353 2.737l-43.784 43.777c-3.762 3.769-5.16 9.326-3.672 14.59l15.936 56.033c1.488 5.25 5.654 9.408 10.91 10.904l46.544 13.228c2.7.77 5.549.397 7.89-1.009a9.63 9.63 0 0 0 4.479-6.454s5.085-17.013 5.856-30.376c1.503-26.144-3.582-51-12.376-72.09-6.118-14.634-15.907-26.33-15.907-26.33M390.252 296.62l-36.231-10.297-7.389-2.109c-5.257-1.496-10.813-.09-14.575 3.664l-53.214 53.215c-3.761 3.754-5.16 9.325-3.664 14.575l11.882 41.855a10.64 10.64 0 0 0 5.773 6.715c2.798 1.286 5.998 1.256 8.69-.067 0 0 13.079-4.756 24.386-12.062 11.292-7.314 22.075-16.086 32.275-26.279 10.425-10.432 19.436-21.327 26.996-32.619 7.157-10.687 11.599-21.904 11.599-21.904 1.413-2.7 1.518-5.93.239-8.802a10.58 10.58 0 0 0-6.767-5.885M267.483 360.933l-.875-3.104c-1.496-5.264-5.66-9.429-10.918-10.918l-56.049-15.913c-5.249-1.496-10.813-.097-14.575 3.672l-47.651 47.658c-2.198 2.198-3.208 5.332-2.722 8.48a10.6 10.6 0 0 0 5.22 7.524s10.724 8.914 26.488 15.113c20.669 8.128 52.302 6.954 79.582 5.249 11.718-.74 25.478-4.494 25.478-4.494 2.752-.493 5.13-2.094 6.581-4.442 1.443-2.362 1.825-5.234 1.047-7.972zM400.145 159.793s24.17-8.062 31.206-13.094c7.06-5.04 21.156-31.221 21.156-39.275s4.031-16.108-13.094-33.232c-17.117-17.118-25.178-13.095-33.225-13.095-8.069 0-34.243 14.104-39.283 21.148-5.04 7.052-13.095 31.222-13.095 31.222s20.139 12.085 27.191 19.136c7.052 7.044 19.144 27.19 19.144 27.19M157.457 41.78l67.363 19.212s7.306 19.159 8.839 32.485c35.91-12.392 66.623-3.164 66.623-3.164l-9.153-42.199c-6.843-31.543-37.81-51.532-69.487-44.869l-63.123 13.289c-5.87 1.242-10.162 6.304-10.41 12.287a12.88 12.88 0 0 0 9.348 12.959M465.848 222.841l-42.199-9.153s9.235 30.704-3.157 66.622c13.319 1.526 32.478 8.832 32.478 8.832l19.211 67.37a12.91 12.91 0 0 0 12.967 9.348 13.14 13.14 0 0 0 12.279-10.409l13.289-63.123c6.672-31.677-13.325-62.652-44.868-69.487M44.694 255.095c-15.397-2.573-29.725 9.138-31.961 15.196L.963 302.08a15.41 15.41 0 0 0 2.976 15.652 15.42 15.42 0 0 0 15.232 4.673l64.006-15.995c-6.416-19.249 0-46.193 0-46.193zM249.812 426.853s-26.944 6.416-46.185 0l-16.011 64.012a15.43 15.43 0 0 0 4.681 15.226 15.43 15.43 0 0 0 15.66 2.984l31.781-11.778c6.05-2.244 17.769-16.556 15.196-31.962z" class="st0"/></svg>